<?xml version="1.0" encoding="utf-8" ?>
<svg baseProfile="full" height="300mm" version="1.1" viewBox="0,0,200,300" width="200mm" xmlns="http://www.w3.org/2000/svg" xmlns:ev="http://www.w3.org/2001/xml-events" xmlns:xlink="http://www.w3.org/1999/xlink"><defs /><rect fill="#222222" height="300" width="200" x="0" y="0" /><text fill="#FFFFFF" style="font-size:12px; font-family:Arial; font-weight:bold;" x="10" y="20">Over 10km Runs</text><text fill="#FFFFFF" style="font-size:4px; font-family:Arial" x="10" y="280">ATHLETE</text><text fill="#FFFFFF" style="font-size:9px; font-family:Arial" x="10" y="290">kilerd</text><text fill="#FFFFFF" style="font-size:4px; font-family:Arial" x="120" y="280">STATISTICS</text><text fill="#FFFFFF" style="font-size:3px; font-family:Arial" x="120" y="285">Number: 3</text><text fill="#FFFFFF" style="font-size:3px; font-family:Arial" x="120" y="290">Weekly: 1.0</text><text fill="#FFFFFF" style="font-size:3px; font-family:Arial" x="141" y="285">Total: 36.1 km</text><text fill="#FFFFFF" style="font-size:3px; font-family:Arial" x="141" y="290">Avg: 12.0 km</text><text fill="#FFFFFF" style="font-size:3px; font-family:Arial" x="167" y="285">Min: 10.0 km</text><text fill="#FFFFFF" style="font-size:3px; font-family:Arial" x="167" y="290">Max: 16.0 km</text><polyline fill="none" points="89.27670097188093,102.79284762663883 87.57609287509695,101.70831374720728 86.93364092742559,101.0944247974985 85.44088493136223,99.8461798127828 84.81732862931676,99.27321305195801 84.30714620032813,98.84348721751303 83.7213811891852,98.25005522693391 83.13561617804226,97.69754845819261 82.36089471180458,97.02226093767968 81.75623405515216,96.55160504297237 81.60506889107637,96.44928844019887 81.43500808137469,96.38789846069994 81.22715598065406,96.36743513125111 81.05709517095238,96.40836178870813 80.54691274196375,96.81762803650054 80.15010418603197,97.06318750006903 80.01783466734923,97.2064304217929 79.45096530183218,97.94310715571919 78.4494960893644,99.12997117987834 78.07158317882568,99.62108586693648 76.95674009330105,100.82840583768848 75.87968829867896,101.93340602735407 75.42619280621875,102.50636738449975 75.06717554130591,102.89516192825977 74.95380166824907,103.01793904131046 74.65147133998107,103.2021046106529 74.16018455650192,103.938765685627 73.00755017984193,105.28930599319574 72.19503742246889,106.18966260612069 71.60927241132595,106.7012275832385 71.19356820988469,107.29464179452043 69.03946462075692,109.64782379101962 68.73713429248892,110.07753316660819 68.37811702757608,110.38446803417173 67.54670862480998,111.28480838588439 66.82867409498431,112.18514586437959 66.450761184562,112.57392706918472 65.56266584515106,113.78119160611823 65.37370939005632,114.10858448837826 64.8446313154418,114.6815211182984 64.78794437891338,114.84521708458487 64.58009227819275,115.19307069761271 64.33444888645317,115.3976902696304 64.0888054947136,115.5 63.89984903950244,115.47953805691213 63.63531000225339,115.33630441360583 63.351875319494866,115.04983690891822 63.06844063673634,114.66105911588238 61.348936894442886,111.77590191215859 61.084397857193835,111.20295938172785 60.441945909522474,110.30261876877921 59.969554771552794,109.38181289720524 59.70501573430374,108.99302729344345 59.51605927909259,108.62470359572035 59.32710282388143,108.44054156648053 59.13814636867028,108.21545447864628 58.79802474938333,107.58111717388965 58.49569442111533,107.11047889701149 58.231155383749865,106.5989146620559 58.023303283029236,106.37382610479835 57.83434682781808,106.08734949943027 57.39974698086735,105.24838062431081 57.00293842505198,104.69588756350277 56.719503742293455,104.02061679741018 55.963677921448834,102.6496075419127 54.92441741784569,100.95118385033857 54.622087089694105,100.39868237267365 53.88515691435896,99.25274993182393 53.67730481363833,99.00719237448357 52.335713981767185,96.77670143844443 51.863322843797505,96.28558179858373 51.3342447692994,95.81492467453063 50.99412314989604,95.467047165017 50.540627657435834,95.09870580484858 49.085662952507846,93.7890437394235 48.745541333104484,93.46162727275805 48.5754805234028,93.17513755266555 48.27315019525122,92.97050186010893 47.46063743787818,92.25427576685615 44.60739496443421,89.61445531569188 43.64371704298537,88.77543743907881 41.7919437821256,87.07693019312865 41.31955264415592,86.68811384236324 40.99832667026203,86.340225074091 39.05207518185489,84.60077479454048 38.52299710724037,84.08916972903535 37.10582369333133,82.88177809402987 33.93135524610989,80.01676030390081 33.610129272216,79.68932784564095 33.19442507089116,79.21864302060567 32.740929578314535,78.54331124696182 32.476390541065484,77.86797785565432 32.287434085970744,76.96753081755014 32.21185150381643,75.73964385803265 32.32522537698969,75.14616324387316 32.43859925016295,74.77779533764988 32.68424264178611,74.0819879793853 32.948781679035164,73.6112937926082 34.78165929438546,70.9712987881503 35.443006887682714,69.96850350867317 35.896502380026504,69.354545454451 36.368893517996185,68.61779402429238 36.72791078290902,67.98336763854604 37.049136756686494,67.0010271918436 37.18140627548564,66.08007991369232 37.16251062985975,65.44564781608642 37.06803240231238,65.118198432785 37.01134546578396,64.70888616869343 36.87907594710123,64.19724500273878 36.765702074044384,63.869794169062516 36.368893517996185,63.01023392073694 36.17993706278503,62.703247482466395 35.858711089007556,62.27346590714296 35.10288526827935,61.37296905273979 34.63049413030967,60.75899227510672 34.36595509306062,60.49293525610119 34.12031170132104,60.14501415993436 33.36448588047642,59.75616066181101 33.062155552208424,59.53103470716451 32.89209474250674,59.30590857264178 32.62755570525769,58.79425759818696 32.41970360453706,58.487266567652114 31.34265180991497,56.35878622527525 31.021425836137496,55.84712990006665 30.0199566235533,53.90282739196846 28.999591765692458,52.01991112394899 28.829530955990776,51.75384585413849 28.017018198617734,50.15744895946409 27.639105288195424,49.522981015383266 27.03444463154301,48.376841752935434 26.429783974890597,47.37396607386472 26.165244937641546,46.78042572517006 25.371627825894393,45.16353360512585 24.918132333434187,44.07877799466951 24.8236541057704,43.792238079448 24.65359329606872,42.95308379417111 24.067828285042197,41.950188808797975 23.576541501563042,40.701681899503455 22.95298519951757,39.43270199390827 22.593967934604734,38.552599670088966 22.31053325184621,38.102313696974306 21.781455177231692,36.915192681364715 21.55470743100159,36.28069491464703 21.195690166205168,35.56432475060865 20.74219467374496,34.5 20.723299028119072,34.56140346030588 20.779985964647494,34.643274719885085 20.98783806548454,34.90935614920454 21.233481457224116,35.27777617491665 22.178263733163476,37.385948165436275 22.461698415922,38.0818461356248 23.444271982996725,40.18999714143865 24.048932639532723,41.58177750934556 24.21899344911799,41.86831967282342 24.55911506852135,42.6051410404325 24.78586281486787,43.096354214983876 24.899236687924713,43.608033694385085 25.069297497626394,44.16064648833708 25.31494088936597,44.71325819838967 25.390523471403867,44.958863054882386 25.560584281105548,45.347736973228166 26.014079773565754,46.125483199662995 26.37309703847859,46.84182650888397 26.448679620516486,47.06696260131139 26.618740430218168,47.29209851389169 26.788801239803433,47.7423697993363 27.280088023282588,48.52010941573826 27.67689657921437,49.31831363186939 28.262661590240896,50.341649062756915 28.47051369107794,50.812382112955675 28.73505272832699,51.242181167632225 28.905113537912257,51.610579835556564 30.28449566080235,54.06655864675122 30.71909550775308,54.90567983449728 30.908051962964237,55.335472645936534 31.493816974107176,56.33831999009999 32.0795819851337,57.504893022589386 32.40080795902759,58.098410782185965 32.703138287412,58.50773264672898 32.89209474250674,58.917053916768054 33.19442507089116,59.44917067908682 33.51565104466863,60.14501415993436 33.98804218263831,60.77945818922308 34.76276364887599,62.130205236389884 35.310737368883565,62.96930241494556 36.16104141739197,64.38143592943379 36.46337174565997,64.97493920798297 36.70901513739955,65.32285434192454 36.916867238120176,65.69123460393166 36.916867238120176,65.77309681898623 36.87907594710123,65.77309681898623 36.82238901045639,65.71170015991083 36.652328200871125,65.32285434192454 36.009876253199764,64.36097027687356 35.66975463391282,63.747000008414034 35.424111242056824,63.41954865165462 35.02730268612504,62.72371325545828 34.66828542132862,62.2325342943368 33.64792056323495,60.452003384707496 33.25111200741958,59.797092634267756 33.09994684322737,59.49010269608698 32.79761651495937,59.06031622084265 32.23074714932591,58.077944673394086 32.060686339624226,57.668622184573906 31.663877783808857,56.93184020656918 30.435660824994557,54.701016360588255 30.19001743325498,54.127957842778414 29.849895813968033,53.63676390002365 29.58535677671898,53.12510263250442 29.52866984019056,52.92043786533759 29.24523515731562,52.47017485438846 29.20744386629667,52.36784225155134" stroke="#4dd2ff" stroke-linecap="round" stroke-linejoin="round" stroke-width="0.5"><title>2023-12-31 10.1km</title></polyline><polyline fill="none" points="180.16425393579993,103.92714434934896 179.92263908323366,103.84663583691872 179.47658089385368,103.46422008376976 178.64022178854793,102.92078626475995 177.74810540967155,102.15595167930587 176.67013145168312,101.3307330513635 175.610743251862,100.72691298808786 175.33195688331034,100.62627618310216 175.29478536755778,100.58602145090117 175.25761385180522,100.38474770225002 175.22044233593624,100.34449293496436 173.956610799185,99.39850422312156 173.5291383676231,98.99595485672762 172.5440931993071,98.2311094514298 172.13520652556326,97.78830325303716 171.81924864137545,97.36562394980865 171.5404622729402,97.18447547983669 170.05360164144076,95.87617746256001 169.73764375713654,95.65477257226303 169.53320042032283,95.55413392734772 169.31017132557463,95.53400619400782 169.14289950451348,95.57426165923243 168.6039125256939,96.05732678680215 167.4887670519529,97.40587914925709 167.09846613625996,97.94932377060468 166.55947915732395,98.613532417643 165.68594853626564,99.43875912761723 164.57080306264106,100.8074224057782 163.93888729414903,101.43136960078846 163.62292940996122,101.5923880040209 162.89808485214598,102.37735138136486 162.67505575739779,102.6792597813619 162.50778393633664,102.94091346226924 162.08031150477473,103.34345710490015 160.6677939047804,104.93349878388108 160.40759329427965,105.19515033898642 159.60840570484288,106.20150017458946 158.45608871546574,107.4896226382989 158.19588810484856,107.89215968191274 157.89851597871166,108.07330116101366 157.67548688384704,108.25444252186571 156.56034141022246,109.56268217282195 155.94701139966492,110.14635633502621 155.72398230503313,110.46838293351175 155.12923805241007,111.052055190783 154.5530795577215,111.79673870219267 154.06984985235613,112.23952254536562 153.58662014710717,112.74268514606229 153.456519841915,112.94394993086462 153.30783377867192,112.98420287026966 153.25207650498487,113.04458226849965 153.1033904418582,113.24584683432477 153.04763316817116,113.74900761042954 152.86177558929194,114.09115641708195 152.52723194716964,114.39305207259895 152.45288891566452,114.41317843798606 152.19268830504734,114.3729257058294 151.9139019366121,114.53393659951689 151.54218677873723,114.91633709763119 151.31915768410545,115.23835816109204 151.09612858935725,115.5 151.4678437472321,114.91633709763119 151.85814466292504,114.45343116432196 151.87673042085953,114.27229384983366 151.78380163141992,114.01065085346636 151.52360102091916,113.66850194755534 151.33774344192352,113.24584683432477 151.07754283142276,112.80306459676649 150.87309949460905,112.62192620505812 150.3898697893601,111.97787763252563 149.9252258419292,111.19294141378487 149.47916765254922,110.34762300286093 148.8286661262391,109.24065452330979 148.27109338936862,108.435583764498 147.80644944205415,107.59025695396122 147.49049155786633,107.14746569209092 147.23029094736557,106.70467372362327 146.70988972636405,105.9398495684436 146.37534608412534,105.29578548678546 145.48322970524896,103.86676296719816 145.2044433368137,103.18243971791526 145.07434303162154,102.6792597813619 144.8884854526259,102.29684241925133 143.62465391587466,100.34449293496436 142.9183951158775,99.13684720140009 142.54667995800264,98.59340490626346 142.39799389475957,98.31161959341262 141.32001993700396,96.60077404980257 140.91113326326013,95.87617746256001 140.4093178001931,95.33272878007847 139.21982929483056,94.30621169734513 137.49135381076485,92.71610910918389 136.43196561082732,91.83047839920619 135.8929786318913,91.28702179086395 134.29460345290136,89.8780552551616 132.67764251620974,88.32818379960372 131.71118310571183,87.52305235282984 131.0792673372198,86.91920223401394 130.26149398984853,86.234837176773 129.72250701102894,85.6913696048723 126.8974718110403,83.1753021535842 125.78232633741572,82.14874007711478 125.33626814791933,81.766294410525 124.57425207423512,81.04165906949493 123.99809357954655,80.5585677902709 123.25466326379683,79.87418703747971 122.39971840067301,79.02877318758692 121.87931717955507,78.34438865951961 121.65628808492329,77.94180873638834 121.22881565336138,76.79445274906175 121.21022989542689,76.6334199499106 121.13588686380535,75.78799622006773 121.15447262173984,75.28476658572617 121.15447262173984,74.62050207001448 121.22881565336138,74.51985579245957 121.17305837967433,74.4997265325801 121.24740141117945,74.31856312774471 121.28457292704843,74.11727031692863 121.17305837967433,74.27830457729578 121.13588686380535,74.19778745880467 121.17305837967433,74.09714102781436 121.26598716911394,73.91597735996766 121.45184474810958,73.73481357378478 121.91648869542405,72.88938100653468 122.56699022173416,71.86278085225786 124.07243661116809,69.78943953885755 125.2619251164142,67.9978991215612 125.72656906372868,67.05180007297895 125.96818391629495,66.30699642305262 125.98676967422944,66.0855679250817 125.94959815847687,65.74335989853716 125.61505451635458,65.2199820997048 125.46636845322791,64.91803292020631 125.28051087423228,64.69660331281193 125.07606753741857,64.23361356237729 124.7229381374782,63.66997282250668 124.35122297960334,63.24724151559349 124.22112267429475,62.94529018741741 124.07243661116809,62.68359877029434 123.92375054804143,62.38164682821662 123.4962781163631,61.79787214093085 123.29183477954939,61.39526819207822 122.93870537960902,60.751100657711504 121.78638839011546,58.91924105081125 121.61911656905431,58.51663292116427 120.35528503230307,56.282147172722034 120.07649866386782,55.658098385552876 119.51892592699733,54.752218613852165 119.29589683224913,54.228820062984596 118.3480231796857,52.55796422914136 118.18075135862455,52.175477742013754 117.67893589555752,51.20919373902143 117.45590680080932,50.887098322753445 116.86116254818626,49.6993682400207 116.56379042193294,49.19609124594717 116.22924677969422,48.551895359836635 116.00621768494602,47.9680915447243 114.90965796925593,46.09588480726234 113.92461280093994,43.76064147197758 113.7387552219443,42.99564368643041 113.05108217988163,41.46564177960681 112.90239611675497,41.02274491418211 112.66078126407228,40.49932043321314 112.36340913770255,39.99602673065965 111.56422154826578,38.14389803321683 111.2110921483254,37.41914865108265 110.28180425358005,35.28515335053089 109.83574606420007,34.520132165023824 110.85796274838503,36.674265366222244 111.24826366407797,37.41914865108265 111.48987851676065,38.0835023237596 111.95452246407513,39.06996392949077 112.4377521694405,40.197344321379205 113.06966793781612,41.42537845748302 113.42279733775649,42.29103859454335 113.70158370619174,42.87485436933639 114.01754159037955,43.96195632770832 114.59370008506812,45.37115622291458 115.33713040081784,46.96153035470343 116.24783253774513,48.431108464545105 117.04702012706548,49.90067878177797 117.34439225343522,50.524740531967836 117.66035013762303,51.02801511345024 118.27368014818057,52.11508509051055 118.71973833756056,53.0612351186428 119.07286773761734,53.64502820564667 119.16579652705695,53.90672815585276 119.37023986387067,54.30934298127249 120.24377048481256,55.71849026509153 120.59689988498576,56.38280007134017 120.70841443235986,56.70488910122367 121.78638839011546,58.65754583303351 122.23244657961186,59.54328249618993 122.80860507430043,60.38875576185819 123.86799327435438,62.20047550511663 124.25829419004731,62.7641192326555 125.46636845322791,64.8173831205786 126.04252694791649,65.68297020292084 126.06111270585097,66.00504842741066 125.94959815847687,66.48816506260482 125.67081179004163,67.31348736684595 125.46636845322791,67.73621247365372 125.0574817796005,68.42062318488024 124.51849480066448,69.14529150817543 124.0538508532336,69.8699579374661 123.70072145317681,70.35306783810665 122.95729113742709,71.44006203685421 123.32900629530195,70.81604736967711 124.98313874797896,68.46088258585951 125.44778269529343,67.65569345539552 125.67081179004163,67.19270864650025 125.96818391629495,66.14595753299363 125.96818391629495,65.68297020292084 125.76374057948124,65.36089160425763 125.48495421104599,64.83751308338833 125.20616784261074,64.45504353949218 124.68576662160922,63.58945262324414 124.40698025329039,63.227111437299754 124.22112267429475,62.824509564074106 123.53344963211566,61.79787214093085 122.82719083223492,60.63031907833647 122.45547567436006,59.945889134760364 122.00941748486366,59.26145750127034 121.61911656905431,58.55689376042574 121.06154383230023,57.36919654348458 120.59689988498576,56.6444974366168 120.26235624286346,55.939927044077194 119.3330683481181,54.289212253919686 119.07286773761734,53.725551293522585 118.71973833756056,53.161889186885674 117.84620771661866,51.45076505558973 117.28863497974817,50.48447852599202 116.86116254818626,49.65910611416621 116.43369011650793,48.93438684780267 115.89470313768834,47.86743559021852 115.50440222187899,47.243367856397526 114.70521463244222,45.79391479412152 113.83168401138391,43.680115488750744 113.66441219032276,42.93524903446087 113.03249642194714,41.58643171098083 112.69795277994126,40.720769372725044 112.36340913770255,40.01615849634982 111.93593670614064,39.19075490513933 111.41553548513912,37.90231511647289 111.19250639050733,37.56007229052193 110.87654850620311,36.87558537043515 110.48624759039376,35.78845561001799 110.17028970620595,35.20462490415957 110.02160364307929,34.761718030727934 109.85433182201814,34.5 109.94726061157417,34.78185017668875 110.24463273782749,35.305285458453 111.2110921483254,37.378884740988724 111.69432185357437,38.5867995001754 111.99169397982769,39.15049125242513 112.77229581144638,40.84155962879595 113.23693975876085,41.74748487090983 113.77592673781328,43.13656448981783 114.519357053563,45.210105169026065 115.03975827456452,46.33746058084944 115.87611737975385,47.76677959917288 116.34076132718474,48.73307560416288 117.38156376918778,50.585133530024905 117.66035013762303,50.98775318055414 117.79045044293161,51.269586587906815 118.16216560080647,51.91377615716192 118.51529500074685,52.63848763293936 118.9055959165562,53.34306641762669 119.29589683224913,54.20868932973826 119.63044047437143,54.71195722196717 119.89064108487219,55.25548551922839 121.78638839011546,58.67767624319822 122.10234627430327,59.362109318055445 122.51123294804711,60.026410392310936 122.75284780061338,60.32836489981855 123.83082175860181,62.16021519500646 124.46273752697743,63.14659110941284 125.18758208479267,64.3745235682727 125.80091209535021,65.3407616794284 125.72656906372868,65.17972222813114 125.57788300060201,65.03881263149378 125.41061117954087,64.7771231905208 125.07606753741857,64.17322353793134 123.99809357954655,62.46216737831128 123.73789296904579,61.97904372715857 121.65628808492329,58.61728500838217 121.37750171648804,58.01337193675863 120.59689988498576,56.60423631960293 120.05791290604975,55.73862088867463 119.77912653749809,55.17496287576796 119.31448259018362,54.40999659628142 118.40378045337275,52.55796422914136 117.9019649901893,51.652074325218564 117.45590680080932,50.705919486586936 115.4858164639445,47.26349909552664 114.74238614819478,45.77378344818135 114.42642826400697,44.94839700681041 113.98037007451057,44.002219281333964 113.60865491675213,42.73393343285716 113.72016946400981,42.91511748090852 114.05471310613211,43.92169336829102 114.20339916937519,44.22366542152304 114.53794281138107,45.23023655587167 114.79814342188183,45.814046138577396 115.15127282193862,46.51864227287297 115.63450252707116,47.28363033324422 115.83894586400129,47.726517192524625 115.61591676925309,47.424548956158105 115.33713040081784,46.8810053015477" stroke="#4dd2ff" stroke-linecap="round" stroke-linejoin="round" stroke-width="0.5"><title>2023-12-24 16.0km</title></polyline><polyline fill="none" points="23.996551724150777,222.27800731128082 26.789655175060034,227.1172772217542 50.251724138855934,254.3381181601435 58.63103448227048,261.59699407592416 63.100000001490116,263.4117120685987 72.0379310362041,264.6215238450095 79.8586206920445,262.20190011896193 86.56206896528602,256.75774416700006 91.03103448264301,250.1037709582597 93.82413793168962,243.44979244237766 93.82413793168962,238.0056242546998 92.14827586524189,230.1418194891885 86.56206896528602,221.6730983760208 65.33448275923729,199.29143690690398 54.720689656212926,189.61286199837923 47.45862069167197,187.19321651710197 39.07931034639478,187.7981279529631 34.610344829037786,189.61286199837923 27.906896552070975,193.84723990224302 23.43793103657663,200.50125797931105 20.64482758566737,207.76018074015155 20.086206898093224,215.62400660291314 22.320689655840397,222.88291620416567 42.98965517245233,247.07923592813313 60.86551724001765,264.0166179793887 65.89310344867408,265.2264296663925 73.71379310265183,264.6215238450095 88.79655172675848,256.75774416700006 94.94137931242585,242.8448850410059 94.94137931242585,235.5859928089194 92.70689655095339,228.32709426013753 64.7758620698005,196.87179423170164 54.16206896677613,189.00795069430023 47.45862069167197,186.588305037003 40.19655172340572,185.98339351220056 32.934482760727406,187.7981279529631 26.789655175060034,192.03250677790493 18.96896551735699,207.15527075110003 18.4103448279202,213.80927821528167 20.64482758566737,223.4878250528127 45.78275862336159,250.70867783296853 59.18965517170727,262.20190011896193 69.80344827845693,264.0166179793887 79.3000000026077,262.8068061149679 83.76896551810205,260.38718186318874 91.58965517394245,252.5233981939964 94.38275862112641,245.86942160874605 94.38275862112641,239.21543971495703 92.70689655095339,233.16636066092178 89.35517241619527,226.51236863574013 60.86551724001765,193.84723990224302 51.36896551772952,186.588305037003 44.10689655318856,185.37848194502294 37.962068965658545,185.98339351220056 27.348275860771537,192.63741786312312 23.43793103657663,198.08161565707996 20.086206898093224,207.15527075110003 19.527586206793785,216.83382530836388 21.762068966403604,222.88291620416567 41.31379310414195,245.86942160874605 55.83793103322387,258.5724632120691 64.7758620698005,260.99208799097687 74.83103448338807,260.99208799097687 80.97586206905544,258.5724632120691 86.56206896528602,254.3381181601435 89.35517241619527,250.70867783296853 93.26551724225283,240.42525499872863 94.38275862112641,236.19090073602274 92.70689655095339,231.95654432429 72.5965517256409,205.34054052224383 53.60344827733934,187.7981279529631 47.45862069167197,185.98339351220056 37.962068965658545,186.588305037003 30.699999999254942,189.00795069430023 26.231034483760595,193.2423289050348 19.527586206793785,204.13072014972568 17.85172413662076,210.78473002649844 18.4103448279202,216.83382530836388 20.64482758566737,224.09273385629058 54.16206896677613,257.96755690779537 62.54137931019068,262.8068061149679 71.47931034490466,265.2264296663925 78.74137931130826,262.8068061149679 86.56206896528602,257.96755690779537 93.26551724225283,248.89395707659423 95.5,239.21543971495703 92.70689655095339,229.53691112436354 65.33448275923729,197.47670496674255 55.83793103322387,189.00795069430023 51.36896551772952,186.588305037003 44.665517242625356,185.37848194502294 35.16896551847458,185.98339351220056 29.024137930944562,189.61286199837923 22.320689655840397,196.26688345335424 18.96896551735699,202.31598926195875 17.85172413662076,210.78473002649844 18.4103448279202,216.83382530836388 21.203448275104165,223.4878250528127 37.40344827622175,242.23997759679332 54.720689656212926,258.5724632120691 60.30689655430615,262.20190011896193 67.01034482941031,264.6215238450095 73.71379310265183,264.0166179793887 83.21034482680261,260.38718186318874 88.23793103545904,256.75774416700006 93.82413793168962,244.65960711287335 94.38275862112641,238.0056242546998 92.70689655095339,231.35163608985022 89.35517241619527,225.30255133425817 66.45172413997352,198.68652630411088 54.16206896677613,189.00795069430023 48.01724138110876,185.98339351220056 41.872413793578744,185.37848194502294 34.05172413773835,187.19321651710197 27.348275860771537,190.82268447615206 21.762068966403604,198.68652630411088 18.4103448279202,207.15527075110003 18.4103448279202,214.4141877205111 20.64482758566737,222.27800731128082 30.14137930981815,233.77126876451075 45.78275862336159,250.70867783296853 60.30689655430615,262.8068061149679 67.01034482941031,264.6215238450095 74.27241379395127,264.0166179793887 81.53448276035488,261.59699407592416 87.12068965658545,257.3626505602151 91.58965517394245,251.91849145153537 94.38275862112641,245.26451438246295 94.38275862112641,238.0056242546998 92.70689655095339,230.74672781070694 73.15517241507769,209.57491044327617 66.45172413997352,200.50125797931105 54.16206896677613,189.61286199837923 45.78275862336159,186.588305037003 39.637931033968925,185.37848194502294 31.25862069055438,187.19321651710197 26.231034483760595,191.42759564891458 21.762068966403604,196.87179423170164 18.96896551735699,203.5258098980412 17.85172413662076,210.17982025584206 19.527586206793785,219.8583713043481 22.87931034527719,225.30255133425817 36.844827584922314,241.030162576586 60.30689655430615,262.8068061149679 67.56896551698446,264.6215238450095 73.71379310265183,264.0166179793887 79.8586206920445,262.20190011896193 85.44482758827507,258.5724632120691 90.47241379320621,252.5233981939964 93.26551724225283,245.86942160874605 94.38275862112641,236.19090073602274 92.70689655095339,230.74672781070694 91.03103448264301,227.72218576353043 67.01034482941031,202.31598926195875 53.0448275860399,189.61286199837923 46.34137930907309,186.588305037003 40.19655172340572,185.98339351220056 32.934482760727406,187.19321651710197 27.348275860771537,190.2177732582204 22.320689655840397,195.0570617658086 18.4103448279202,202.92089960258454 17.293103450909257,211.38963975198567 18.96896551735699,219.25346219260246 22.320689655840397,224.69764261646196 44.665517242625356,248.89395707659423 60.86551724001765,262.8068061149679 70.36206896789372,264.0166179793887 77.06551724113524,263.4117120685987 83.76896551810205,260.38718186318874 88.79655172675848,255.54793125065044 92.14827586524189,250.1037709582597 93.82413793168962,242.23997759679332 93.26551724225283,234.3761768224649 92.14827586524189,230.1418194891885 68.12758620642126,202.92089960258454 50.81034482829273,187.7981279529631 44.665517242625356,185.37848194502294 38.52068965509534,184.7735703336075 32.37586206942797,186.588305037003 23.43793103657663,193.2423289050348 16.73448275960982,204.13072014972568 17.293103450909257,214.4141877205111 19.527586206793785,220.46328037139028 53.0448275860399,257.3626505602151 59.74827586300671,261.59699407592416 65.33448275923729,264.0166179793887 72.5965517256409,264.6215238450095 79.3000000026077,262.8068061149679 86.00344827771187,257.3626505602151 92.70689655095339,247.07923592813313 94.38275862112641,239.21543971495703 93.26551724225283,232.5614525140263 87.67931034602225,225.30255133425817 69.24482758715749,205.34054052224383 61.42413793131709,195.0570617658086 55.27931034564972,189.00795069430023 50.251724138855934,185.98339351220056 36.844827584922314,185.37848194502294 30.699999999254942,187.7981279529631 25.11379310488701,192.03250677790493 20.64482758566737,197.47670496674255 17.293103450909257,205.34054052224383 17.293103450909257,213.80927821528167 18.96896551735699,220.46328037139028 43.548275861889124,247.07923592813313 58.63103448227048,260.99208799097687 67.01034482941031,264.0166179793887 73.15517241507769,264.6215238450095 79.3000000026077,263.4117120685987 86.56206896528602,258.5724632120691 92.70689655095339,247.68414302077144 93.82413793168962,238.61053200624883 92.70689655095339,231.95654432429 61.42413793131709,196.87179423170164 53.0448275860399,189.00795069430023 43.548275861889124,185.98339351220056 39.07931034639478,185.98339351220056 30.699999999254942,187.7981279529631 25.11379310488701,191.42759564891458 17.85172413662076,201.71107887942344 16.17586206831038,211.99454943323508 18.96896551735699,221.06818939605728 23.43793103657663,226.51236863574013 54.16206896677613,257.3626505602151 60.86551724001765,262.20190011896193 66.45172413997352,264.0166179793887 76.50689655356109,264.6215238450095 83.21034482680261,261.59699407592416 88.23793103545904,256.75774416700006 92.14827586524189,251.31358466437086 93.82413793168962,244.05469979951158 93.82413793168962,237.4007164593786 91.03103448264301,228.93200271436945 64.7758620698005,199.89634746545926 55.83793103322387,191.42759564891458 48.575862070545554,187.19321651710197 42.43103448487818,184.7735703336075 35.16896551847458,185.98339351220056 29.582758622244,188.40303934551775 22.87931034527719,193.84723990224302 17.85172413662076,200.50125797931105 15.058620689436793,207.76018074015155 15.617241378873587,216.2289159768261 18.96896551735699,222.88291620416567 53.0448275860399,257.3626505602151 58.63103448227048,261.59699407592416 68.68620689585805,264.6215238450095 75.9482758641243,264.0166179793887 84.32758620753884,259.7822756883688 89.35517241619527,255.54793125065044 92.14827586524189,250.1037709582597 93.82413793168962,242.8448850410059 90.47241379320621,228.93200271436945 87.12068965658545,223.4878250528127 70.36206896789372,208.36509068496525 55.83793103322387,192.03250677790493 48.01724138110876,186.588305037003 41.31379310414195,185.37848194502294 33.493103448301554,185.98339351220056 27.906896552070975,189.00795069430023 21.203448275104165,194.45215085707605 17.293103450909257,201.71107887942344 15.617241378873587,210.17982025584206 16.73448275960982,218.04364383779466 19.527586206793785,223.4878250528127 40.75517241470516,245.26451438246295 55.27931034564972,259.1773694725707 60.86551724001765,262.8068061149679 67.01034482941031,264.0166179793887 77.62413793243468,263.4117120685987 82.65172414109111,261.59699407592416 89.91379310376942,254.94302472658455 93.26551724225283,247.07923592813313 93.82413793168962,240.42525499872863 93.82413793168962,233.77126876451075 91.03103448264301,227.72218576353043 60.30689655430615,194.45215085707605 50.251724138855934,187.19321651710197 44.10689655318856,185.98339351220056 36.28620689921081,185.98339351220056 28.465517243370414,189.00795069430023 21.762068966403604,195.66197263170034 17.293103450909257,202.31598926195875 15.617241378873587,208.9700005869381 16.73448275960982,217.43873459519818 18.4103448279202,221.6730983760208 51.927586207166314,256.1528377318755 60.86551724001765,261.59699407592416 67.01034482941031,264.0166179793887 73.71379310265183,264.0166179793887 83.76896551810205,260.38718186318874 88.79655172675848,255.54793125065044 92.70689655095339,250.1037709582597 93.82413793168962,245.86942160874605 94.38275862112641,237.4007164593786 92.70689655095339,230.74672781070694 66.45172413997352,199.29143690690398 51.927586207166314,187.19321651710197 42.98965517245233,184.7735703336075 35.16896551847458,185.37848194502294 29.024137930944562,187.7981279529631 21.762068966403604,194.45215085707605 17.85172413662076,200.50125797931105 15.617241378873587,207.76018074015155 16.17586206831038,217.43873459519818 18.96896551735699,222.88291620416567 54.16206896677613,258.5724632120691 59.74827586300671,262.8068061149679 66.45172413997352,264.6215238450095 74.83103448338807,265.2264296663925 84.32758620753884,260.99208799097687 88.79655172675848,256.75774416700006 93.82413793168962,245.26451438246295 93.26551724225283,233.77126876451075 91.58965517394245,228.32709426013753 77.06551724113524,210.78473002649844 60.86551724001765,193.2423289050348 53.60344827733934,187.19321651710197 46.90000000037253,184.7735703336075 39.637931033968925,184.7735703336075 30.699999999254942,187.7981279529631 21.762068966403604,195.0570617658086 14.5,207.76018074015155 14.5,213.20436866488308 16.17586206831038,219.8583713043481 51.927586207166314,255.54793125065044 58.63103448227048,260.99208799097687 70.92068965546787,265.2264296663925 87.12068965658545,257.96755690779537 89.35517241619527,254.94302472658455 92.70689655095339,245.26451438246295 93.26551724225283,238.61053200624883 91.03103448264301,231.35163608985022 71.47931034490466,207.15527075110003 51.927586207166314,187.19321651710197 46.34137930907309,184.7735703336075 39.07931034639478,184.7735703336075 30.699999999254942,186.588305037003 24.55517241358757,190.2177732582204 18.96896551735699,196.26688345335424 16.17586206831038,201.71107887942344 14.5,210.17982025584206 15.617241378873587,218.04364383779466 19.527586206793785,223.4878250528127 43.548275861889124,247.68414302077144 54.720689656212926,257.96755690779537 60.30689655430615,262.20190011896193 71.47931034490466,264.0166179793887 79.8586206920445,262.8068061149679 85.44482758827507,259.1773694725707 89.91379310376942,253.73321154806763 93.82413793168962,245.26451438246295 94.38275862112641,236.7958086184226 92.70689655095339,230.1418194891885 88.79655172675848,224.09273385629058 73.15517241507769,206.55036071967334 52.48620689846575,187.7981279529631 47.45862069167197,185.98339351220056 37.40344827622175,185.37848194502294 31.25862069055438,186.588305037003 23.996551724150777,190.82268447615206 19.527586206793785,195.66197263170034 15.617241378873587,204.73563035856932 14.5,210.17982025584206 16.17586206831038,218.64855303661898 25.672413792461157,230.74672781070694 57.51379310525954,260.38718186318874 64.21724137850106,263.4117120685987 73.71379310265183,264.0166179793887 79.3000000026077,262.20190011896193 86.56206896528602,257.96755690779537 90.47241379320621,252.5233981939964 93.82413793168962,244.05469979951158 92.70689655095339,233.16636066092178 90.47241379320621,227.1172772217542 65.33448275923729,196.87179423170164 52.48620689846575,187.19321651710197 46.34137930907309,185.37848194502294 39.637931033968925,184.7735703336075 32.934482760727406,186.588305037003 22.87931034527719,192.03250677790493 19.527586206793785,196.87179423170164 15.617241378873587,204.73563035856932 15.058620689436793,213.80927821528167 16.73448275960982,220.46328037139028 20.086206898093224,225.30255133425817 45.22413793206215,251.31358466437086 59.74827586300671,263.4117120685987 64.7758620698005,265.2264296663925 74.27241379395127,265.2264296663925 78.18275862000883,264.0166179793887 86.56206896528602,257.96755690779537 91.03103448264301,252.5233981939964 93.82413793168962,244.05469979951158 94.38275862112641,237.4007164593786 91.58965517394245,229.53691112436354 85.44482758827507,219.8583713043481 66.45172413997352,199.89634746545926 52.48620689846575,189.61286199837923 42.98965517245233,187.19321651710197 35.16896551847458,187.19321651710197 22.320689655840397,194.45215085707605 17.85172413662076,199.29143690690398 15.617241378873587,205.94545064214617 15.617241378873587,216.2289159768261 17.85172413662076,221.6730983760208 53.0448275860399,257.3626505602151 59.74827586300671,262.20190011896193 66.45172413997352,264.6215238450095 73.71379310265183,265.2264296663925 80.41724137961864,262.8068061149679 88.23793103545904,257.3626505602151 93.26551724225283,248.89395707659423 94.38275862112641,242.23997759679332 94.38275862112641,234.9810848380439 91.03103448264301,227.1172772217542 74.27241379395127,207.76018074015155 52.48620689846575,187.19321651710197 45.78275862336159,185.37848194502294 38.52068965509534,185.37848194502294 31.25862069055438,187.19321651710197 22.87931034527719,193.84723990224302 18.4103448279202,199.29143690690398 16.17586206831038,205.34054052224383 15.058620689436793,215.01909718383104 17.293103450909257,221.06818939605728 35.72758620791137,241.030162576586 54.720689656212926,258.5724632120691 61.42413793131709,263.4117120685987 69.80344827845693,265.2264296663925 74.83103448338807,264.6215238450095 83.21034482680261,260.99208799097687 91.03103448264301,254.3381181601435 94.38275862112641,245.26451438246295 94.94137931242585,239.82034737989306 92.14827586524189,227.72218576353043 77.62413793243468,211.38963975198567 57.51379310525954,191.42759564891458 51.36896551772952,187.19321651710197 45.22413793206215,185.98339351220056 36.844827584922314,185.37848194502294 29.582758622244,187.7981279529631 23.43793103657663,192.03250677790493 18.96896551735699,198.08161565707996 16.17586206831038,205.34054052224383 16.17586206831038,215.01909718383104 18.4103448279202,221.06818939605728 48.01724138110876,253.1283048922196 59.74827586300671,262.20190011896193 68.12758620642126,264.0166179793887 75.9482758641243,263.4117120685987 83.21034482680261,260.38718186318874 89.35517241619527,256.1528377318755 92.14827586524189,250.70867783296853 93.82413793168962,240.42525499872863 93.26551724225283,235.5859928089194 90.47241379320621,227.72218576353043 63.100000001490116,198.08161565707996 49.1344827581197,187.19321651710197 41.872413793578744,185.37848194502294 33.493103448301554,185.98339351220056 26.231034483760595,189.00795069430023 20.64482758566737,195.0570617658086 15.617241378873587,207.15527075110003 15.058620689436793,212.59945907164365 17.293103450909257,221.06818939605728 21.203448275104165,227.72218576353043" stroke="#4dd2ff" stroke-linecap="round" stroke-linejoin="round" stroke-width="0.5"><title>2023-12-17 10.0km</title></polyline></svg>