<?xml version="1.0" encoding="utf-8" ?>
<svg baseProfile="full" height="300mm" version="1.1" viewBox="0,0,200,300" width="200mm" xmlns="http://www.w3.org/2000/svg" xmlns:ev="http://www.w3.org/2001/xml-events" xmlns:xlink="http://www.w3.org/1999/xlink"><defs /><rect fill="#222222" height="300" width="200" x="0" y="0" /><text fill="#FFFFFF" style="font-size:12px; font-family:Arial; font-weight:bold;" x="10" y="20">Over 10km Runs</text><text fill="#FFFFFF" style="font-size:4px; font-family:Arial" x="10" y="280">ATHLETE</text><text fill="#FFFFFF" style="font-size:9px; font-family:Arial" x="10" y="290">kilerd</text><text fill="#FFFFFF" style="font-size:4px; font-family:Arial" x="120" y="280">STATISTICS</text><text fill="#FFFFFF" style="font-size:3px; font-family:Arial" x="120" y="285">Number: 4</text><text fill="#FFFFFF" style="font-size:3px; font-family:Arial" x="120" y="290">Weekly: 1.0</text><text fill="#FFFFFF" style="font-size:3px; font-family:Arial" x="141" y="285">Total: 47.2 km</text><text fill="#FFFFFF" style="font-size:3px; font-family:Arial" x="141" y="290">Avg: 11.8 km</text><text fill="#FFFFFF" style="font-size:3px; font-family:Arial" x="167" y="285">Min: 10.0 km</text><text fill="#FFFFFF" style="font-size:3px; font-family:Arial" x="167" y="290">Max: 16.0 km</text><polyline fill="none" points="91.36187987448648,99.35182115857606 90.99024775822181,99.07513241382549 90.31666454742663,98.79844344823505 89.61985432961956,98.14445047004847 88.92304411157966,97.641378108965 88.06364484271035,97.11315134417964 86.7164784213528,95.90577285995823 85.81062513799407,95.226620614907 84.92799886188004,94.32108221869566 84.3008696656907,93.76769647895708 83.67374046950135,93.26461776721408 82.86079521523789,92.43453629684518 82.25689302629326,92.08237992110662 81.95494193187915,92.0320718382136 81.67621784470975,92.08237992110662 81.4671747792745,92.25845815369394 80.51486748130992,93.39038751358748 79.6090141980676,94.32108221869566 78.49411784927361,95.60392758194939 77.2166324496502,96.81130711734295 76.49659522436559,97.6916853779112 74.89393172308337,99.45243519291398 74.5222996068187,99.98065839381889 74.19712150515988,100.30765330544091 73.80226238165051,100.63464790867874 73.59321931621525,100.88618200900964 73.40740325814113,101.21317606657976 71.20083756779786,103.62789186884766 70.06271421175916,104.78493723159772 69.48203903017566,105.56468301598215 68.13487260881811,107.07386342406971 67.94905655062757,107.50146334560122 67.57742443447933,107.70268665562617 66.64834414375946,108.55788442067569 66.48575509281363,108.83456559904153 66.16057699115481,109.18670496132108 65.51022078772075,110.06705180255813 65.13858867145609,110.41918991334387 64.46500546077732,111.19892302900553 63.76819524273742,111.82773878084845 63.21074706851505,112.65777382746455 62.281666777911596,113.58841682039201 61.97971568326466,113.8399415249296 61.65453758160584,114.39329523278866 61.58485655975528,114.74542895087507 61.56162955251057,115.14786704804283 61.51517553802114,115.22332413928234 61.259678458212875,115.42454296894721 60.98095437081065,115.5 60.818365320097655,115.47484765807167 60.58609524730127,115.37423827243038 60.23769013839774,115.12271468061954 59.447971891378984,114.31783796098898 58.542118608020246,112.8338416122424 58.14725948451087,112.2553328408394 56.56782299047336,109.51369119182345 55.522607663529925,107.95421562896809 54.43093832209706,106.0928969058732 53.75735511130188,105.16223379783332 53.15345292247366,104.00518969396944 52.665685769869015,103.32605331315426 52.061783580924384,102.21930969445384 51.66692445741501,101.08740915788803 51.5043354065856,100.7604149816325 49.506812781794,97.41499530829606 48.856456578243524,96.45915518718539 48.36868942563888,95.55362001011963 47.4163821276743,93.99408166104695 46.6963449025061,92.81184630250209 46.32471278635785,92.30876620372874 45.9763076773379,91.93145565057057 43.23552082001697,89.46634993134649 40.587641991558485,87.20246189122554 38.752708417596295,85.44164986084797 38.28816827235278,85.08948638153379 37.8933091488434,84.63670423952863 37.15004491631407,83.95752991765039 36.499688712880015,83.40412763442146 35.40801937133074,82.39793940147501 34.52539309533313,81.66845110626309 34.26989601540845,81.39174824778456 33.456950761028565,80.71256756794173 31.459428136236966,78.8259475856321 30.089034707518294,77.64366049610544 28.091512082726695,75.78217903283075 26.070762450573966,74.02130898757605 25.792038363404572,73.719444652932 24.44487194204703,72.56229560129577 23.260294571402483,71.35483160227886 22.888662455254234,70.90203151811147 22.633165375329554,70.49954205765971 22.261533258948475,69.69456173453364 21.959582164650783,68.71348943762132 21.843447128194384,68.21037436192273 21.7273120918544,67.17898617321043 21.75053909921553,66.82680413741036 21.704085084609687,66.34884223074187 22.029263186384924,65.21682455885457 22.191852237214334,64.78917247601203 22.67961938981898,63.83324238253408 23.23706756415777,63.003090425016126 24.050012818421237,61.92137428422575 24.44487194204703,61.2673117237282 24.839731065556407,60.7390295235673 25.954627414233983,59.05355235806201 26.60498361766804,58.17307595181046 27.13920478487853,57.24228417521226 27.394701864686795,56.58821278225514 27.71987996646203,55.50647661508992 27.766333980951458,54.927872162574204 27.673425951972604,54.676304707914824 27.06952376314439,53.6700330626918 26.558529603178613,52.76438608323224 25.931400407105684,51.83357977634296 25.28104420355521,50.57572944255662 24.4216449346859,49.34303168466431 23.213840556913055,47.25498261809116 22.493803331628442,46.223532049771165 22.145398222724907,45.3933378981892 21.332452968345024,43.95936149574118 20.682096764910966,42.70148257119581 20.333691655891016,42.14801439738949 19.334930343553424,40.361815622396534 19.032979249139316,39.657396671624156 18.545212096418254,38.80202887704945 18.080671951174736,37.720237170608016 17.848401878611185,37.34286717581563 17.52322377683595,36.688758210948436 17.499996769591235,36.53780981284217 17.546450784080662,36.437177510902984 17.918082900345325,35.75790870809578 18.150352972908877,35.581801763997646 18.429077060194686,35.581801763997646 18.61489311826881,35.43085288346629 18.89361720555462,35.38053657536511 18.89361720555462,35.053480394388316 18.823936183704063,34.70126570024877 18.87039019819349,34.575474651297554 18.940071220044047,34.5 19.05620625638403,34.5 19.102660270873457,34.55031643604161 19.21879530721344,34.87737309213844 19.358157350798137,36.26107091220911 19.56720041623339,36.89002263938892 19.427838372648694,37.09128695089021 21.007274866686203,38.22339652411756 21.169863917515613,38.399502125161234 21.30922596110031,38.70139723297325 21.56472304102499,39.48129171016626 21.773766106460243,39.88381720491452 22.284760266309604,40.73918232819415 22.493803331628442,41.21717956534121 22.93511646974366,41.97191070209374 23.399656615103595,42.55053679336561 24.4216449346859,44.00967655776185 25.46686026174575,45.26755073198001 25.861719385255128,45.69522691081511 26.581756610423326,46.273846782860346 27.02306974842213,46.676364384795306 27.952150039025582,47.35561177742784 28.23087412631139,47.50655546161579 29.740629598498344,48.63863099657465 30.483893831144087,49.217245952546364 31.598790179821663,50.19837345185806 31.923968281480484,50.374472965311725 33.68922083382495,51.783265850681346 34.409258058993146,52.23609091862454 35.036387255066074,52.76438608323224 36.01192156027537,53.46877838301589 36.87132082914468,53.97191486318479 38.63657338137273,55.35553641626029 39.77469673729502,56.16055005011731 40.773458049749024,56.99071840097895 41.470268267788924,57.41838010851643 41.77221936220303,57.69510210855515 42.37612155103125,58.09760644144262 43.23552082001697,58.776831442897674 44.21105512522627,59.43089870442054 45.813718626392074,60.63840425128001 46.18535074277315,60.86481107282452 46.60343687341083,61.24215544672916 48.25255438941531,62.499967058654875 48.554505483829416,62.75152883314877 50.34298504318576,64.0093349663075 51.2256113194162,64.86464052897645 52.50309671892319,65.77025588270044 53.38572299503721,66.49977764094365 54.593527372926474,67.38023289010744 55.150975547148846,67.93366075895028 56.103282845113426,68.66317796293879 56.59104999783449,69.21660378301749 57.12527116481215,69.5939390626445 57.40399525198154,69.97127393144183 57.705946346512064,70.09705212980043 59.07633977511432,71.25420941249467 59.35506386240013,71.60638694901718 59.70346897142008,71.78247558308067 59.84283101488836,71.95856412767898 60.0286470730789,72.28558547311695 60.307371160248294,72.46167376209632 60.98095437081065,73.04024893880705 61.39904050168116,73.29180306219496 62.21198575606104,74.0464643369487 62.81588794500567,74.49926031305222 63.04815801756922,74.72565807920182 63.39656312658917,75.17845316795865 63.62883319926914,75.20360843336675 63.62883319926914,75.2287636968831 63.582379184663296,75.20360843336675 63.605606192024425,75.25391895856592 63.88433027919382,75.4551609865739 64.1398273591185,75.75702380944858 64.25596239545848,76.05888636945747 64.74372954794671,76.3355934851279 64.99922662798781,76.41105902381241 65.39408575149719,76.86385191080626 66.60189012927003,77.87005620839773 67.57742443447933,78.8259475856321 68.64586676866747,79.73152645869413 68.90136384859215,79.98307572575868 69.11040691391099,80.05854047025787 68.99427187757101,80.1340051983716 69.06395289930515,80.08369538147235 69.36590399395209,80.33524439294706 69.78399012458976,80.88865157571854 70.64338939334266,81.64329631000874 71.43310764047783,82.22185616043862 72.22282588749658,82.95134329103166 72.59445800376125,83.12742616148898 72.78027406183537,83.22804490450653 73.77903537428938,84.28453994245501 75.38169887568802,85.66804048011545 75.61396894836798,85.76865848564194 75.91592004278209,86.17113021572004 76.10173610085621,86.47298370662611 76.65918427531142,87.02638109066174 78.21539376210421,88.23379049845971 79.16770105995238,88.91295644227648 80.42195945233107,90.17066763967159 80.60777551040519,90.39705517067341 80.70068353950046,90.64859669836005 80.79359156859573,90.77436739378027 81.21167769934982,90.90013804353657 81.49040178651921,91.05106276302831 81.72267185919918,91.302603816177 81.93171492463443,91.73022318771109 81.97816893912386,91.78053131431807 82.48916309897322,91.95660970025347 83.162746309652,92.45969031003187 83.90601054218132,93.18915589747485 85.06736090546474,94.17015892270138 85.46222002897412,94.64808246793109 86.04289521067403,95.20146680253674 87.2971536029363,96.15731039093225 88.2726879081456,96.98738294825307 89.03917914791964,97.56591719185235 89.31790323508903,97.84260714091943 89.9914864457678,98.27021844621049 90.54893462022301,98.67267566360533 91.08315578731708,98.97451827002806 92.50000323040877,100.00581185950432" stroke="#4dd2ff" stroke-linecap="round" stroke-linejoin="round" stroke-width="0.5"><title>2024-01-08 11.0km</title></polyline><polyline fill="none" points="179.27670097188093,102.79284762663883 177.57609287509695,101.70831374720728 176.93364092742559,101.0944247974985 175.44088493136223,99.8461798127828 174.81732862931676,99.27321305195801 174.30714620032813,98.84348721751303 173.7213811891852,98.25005522693391 173.13561617804226,97.69754845819261 172.36089471180458,97.02226093767968 171.75623405515216,96.55160504297237 171.60506889107637,96.44928844019887 171.4350080813747,96.38789846069994 171.22715598065406,96.36743513125111 171.05709517095238,96.40836178870813 170.54691274196375,96.81762803650054 170.15010418603197,97.06318750006903 170.01783466734923,97.2064304217929 169.45096530183218,97.94310715571919 168.4494960893644,99.12997117987834 168.07158317882568,99.62108586693648 166.95674009330105,100.82840583768848 165.87968829867896,101.93340602735407 165.42619280621875,102.50636738449975 165.06717554130591,102.89516192825977 164.95380166824907,103.01793904131046 164.65147133998107,103.2021046106529 164.16018455650192,103.938765685627 163.00755017984193,105.28930599319574 162.19503742246889,106.18966260612069 161.60927241132595,106.7012275832385 161.1935682098847,107.29464179452043 159.03946462075692,109.64782379101962 158.73713429248892,110.07753316660819 158.37811702757608,110.38446803417173 157.54670862480998,111.28480838588439 156.8286740949843,112.18514586437959 156.450761184562,112.57392706918472 155.56266584515106,113.78119160611823 155.37370939005632,114.10858448837826 154.8446313154418,114.6815211182984 154.78794437891338,114.84521708458487 154.58009227819275,115.19307069761271 154.33444888645317,115.3976902696304 154.0888054947136,115.5 153.89984903950244,115.47953805691213 153.6353100022534,115.33630441360583 153.35187531949487,115.04983690891822 153.06844063673634,114.66105911588238 151.3489368944429,111.77590191215859 151.08439785719384,111.20295938172785 150.44194590952247,110.30261876877921 149.9695547715528,109.38181289720524 149.70501573430374,108.99302729344345 149.5160592790926,108.62470359572035 149.32710282388143,108.44054156648053 149.13814636867028,108.21545447864628 148.79802474938333,107.58111717388965 148.49569442111533,107.11047889701149 148.23115538374986,106.5989146620559 148.02330328302924,106.37382610479835 147.83434682781808,106.08734949943027 147.39974698086735,105.24838062431081 147.00293842505198,104.69588756350277 146.71950374229345,104.02061679741018 145.96367792144883,102.6496075419127 144.9244174178457,100.95118385033857 144.6220870896941,100.39868237267365 143.88515691435896,99.25274993182393 143.67730481363833,99.00719237448357 142.33571398176719,96.77670143844443 141.8633228437975,96.28558179858373 141.3342447692994,95.81492467453063 140.99412314989604,95.467047165017 140.54062765743583,95.09870580484858 139.08566295250785,93.7890437394235 138.74554133310448,93.46162727275805 138.5754805234028,93.17513755266555 138.27315019525122,92.97050186010893 137.46063743787818,92.25427576685615 134.6073949644342,89.61445531569188 133.64371704298537,88.77543743907881 131.7919437821256,87.07693019312865 131.31955264415592,86.68811384236324 130.99832667026203,86.340225074091 129.0520751818549,84.60077479454048 128.52299710724037,84.08916972903535 127.10582369333133,82.88177809402987 123.93135524610989,80.01676030390081 123.610129272216,79.68932784564095 123.19442507089116,79.21864302060567 122.74092957831454,78.54331124696182 122.47639054106548,77.86797785565432 122.28743408597074,76.96753081755014 122.21185150381643,75.73964385803265 122.32522537698969,75.14616324387316 122.43859925016295,74.77779533764988 122.68424264178611,74.0819879793853 122.94878167903516,73.6112937926082 124.78165929438546,70.9712987881503 125.44300688768271,69.96850350867317 125.8965023800265,69.354545454451 126.36889351799618,68.61779402429238 126.72791078290902,67.98336763854604 127.0491367566865,67.0010271918436 127.18140627548564,66.08007991369232 127.16251062985975,65.44564781608642 127.06803240231238,65.118198432785 127.01134546578396,64.70888616869343 126.87907594710123,64.19724500273878 126.76570207404438,63.869794169062516 126.36889351799618,63.01023392073694 126.17993706278503,62.703247482466395 125.85871108900756,62.27346590714296 125.10288526827935,61.37296905273979 124.63049413030967,60.75899227510672 124.36595509306062,60.49293525610119 124.12031170132104,60.14501415993436 123.36448588047642,59.75616066181101 123.06215555220842,59.53103470716451 122.89209474250674,59.30590857264178 122.62755570525769,58.79425759818696 122.41970360453706,58.487266567652114 121.34265180991497,56.35878622527525 121.0214258361375,55.84712990006665 120.0199566235533,53.90282739196846 118.99959176569246,52.01991112394899 118.82953095599078,51.75384585413849 118.01701819861773,50.15744895946409 117.63910528819542,49.522981015383266 117.03444463154301,48.376841752935434 116.4297839748906,47.37396607386472 116.16524493764155,46.78042572517006 115.3716278258944,45.16353360512585 114.91813233343419,44.07877799466951 114.8236541057704,43.792238079448 114.65359329606872,42.95308379417111 114.0678282850422,41.950188808797975 113.57654150156304,40.701681899503455 112.95298519951757,39.43270199390827 112.59396793460473,38.552599670088966 112.31053325184621,38.102313696974306 111.78145517723169,36.915192681364715 111.55470743100159,36.28069491464703 111.19569016620517,35.56432475060865 110.74219467374496,34.5 110.72329902811907,34.56140346030588 110.7799859646475,34.643274719885085 110.98783806548454,34.90935614920454 111.23348145722412,35.27777617491665 112.17826373316348,37.385948165436275 112.461698415922,38.0818461356248 113.44427198299672,40.18999714143865 114.04893263953272,41.58177750934556 114.21899344911799,41.86831967282342 114.55911506852135,42.6051410404325 114.78586281486787,43.096354214983876 114.89923668792471,43.608033694385085 115.0692974976264,44.16064648833708 115.31494088936597,44.71325819838967 115.39052347140387,44.958863054882386 115.56058428110555,45.347736973228166 116.01407977356575,46.125483199662995 116.37309703847859,46.84182650888397 116.44867962051649,47.06696260131139 116.61874043021817,47.29209851389169 116.78880123980343,47.7423697993363 117.28008802328259,48.52010941573826 117.67689657921437,49.31831363186939 118.2626615902409,50.341649062756915 118.47051369107794,50.812382112955675 118.73505272832699,51.242181167632225 118.90511353791226,51.610579835556564 120.28449566080235,54.06655864675122 120.71909550775308,54.90567983449728 120.90805196296424,55.335472645936534 121.49381697410718,56.33831999009999 122.0795819851337,57.504893022589386 122.40080795902759,58.098410782185965 122.703138287412,58.50773264672898 122.89209474250674,58.917053916768054 123.19442507089116,59.44917067908682 123.51565104466863,60.14501415993436 123.98804218263831,60.77945818922308 124.76276364887599,62.130205236389884 125.31073736888357,62.96930241494556 126.16104141739197,64.38143592943379 126.46337174565997,64.97493920798297 126.70901513739955,65.32285434192454 126.91686723812018,65.69123460393166 126.91686723812018,65.77309681898623 126.87907594710123,65.77309681898623 126.82238901045639,65.71170015991083 126.65232820087112,65.32285434192454 126.00987625319976,64.36097027687356 125.66975463391282,63.747000008414034 125.42411124205682,63.41954865165462 125.02730268612504,62.72371325545828 124.66828542132862,62.2325342943368 123.64792056323495,60.452003384707496 123.25111200741958,59.797092634267756 123.09994684322737,59.49010269608698 122.79761651495937,59.06031622084265 122.23074714932591,58.077944673394086 122.06068633962423,57.668622184573906 121.66387778380886,56.93184020656918 120.43566082499456,54.701016360588255 120.19001743325498,54.127957842778414 119.84989581396803,53.63676390002365 119.58535677671898,53.12510263250442 119.52866984019056,52.92043786533759 119.24523515731562,52.47017485438846 119.20744386629667,52.36784225155134" stroke="#4dd2ff" stroke-linecap="round" stroke-linejoin="round" stroke-width="0.5"><title>2023-12-31 10.1km</title></polyline><polyline fill="none" points="90.16425393579993,253.92714434934896 89.92263908323366,253.84663583691872 89.47658089385368,253.46422008376976 88.64022178854793,252.92078626475995 87.74810540967155,252.15595167930587 86.67013145168312,251.3307330513635 85.610743251862,250.72691298808786 85.33195688331034,250.62627618310216 85.29478536755778,250.58602145090117 85.25761385180522,250.38474770225002 85.22044233593624,250.34449293496436 83.956610799185,249.39850422312156 83.52913836762309,248.99595485672762 82.5440931993071,248.2311094514298 82.13520652556326,247.78830325303716 81.81924864137545,247.36562394980865 81.5404622729402,247.1844754798367 80.05360164144076,245.87617746256 79.73764375713654,245.65477257226303 79.53320042032283,245.55413392734772 79.31017132557463,245.53400619400782 79.14289950451348,245.57426165923243 78.60391252569389,246.05732678680215 77.48876705195289,247.4058791492571 77.09846613625996,247.94932377060468 76.55947915732395,248.613532417643 75.68594853626564,249.43875912761723 74.57080306264106,250.8074224057782 73.93888729414903,251.43136960078846 73.62292940996122,251.5923880040209 72.89808485214598,252.37735138136486 72.67505575739779,252.6792597813619 72.50778393633664,252.94091346226924 72.08031150477473,253.34345710490015 70.66779390478041,254.93349878388108 70.40759329427965,255.19515033898642 69.60840570484288,256.20150017458946 68.45608871546574,257.4896226382989 68.19588810484856,257.89215968191274 67.89851597871166,258.07330116101366 67.67548688384704,258.2544425218657 66.56034141022246,259.56268217282195 65.94701139966492,260.1463563350262 65.72398230503313,260.46838293351175 65.12923805241007,261.052055190783 64.5530795577215,261.79673870219267 64.06984985235613,262.2395225453656 63.58662014710717,262.7426851460623 63.456519841915,262.9439499308646 63.30783377867192,262.98420287026966 63.25207650498487,263.04458226849965 63.10339044185821,263.24584683432477 63.04763316817116,263.74900761042954 62.86177558929194,264.09115641708195 62.52723194716964,264.39305207259895 62.452888915664516,264.41317843798606 62.19268830504734,264.3729257058294 61.91390193661209,264.5339365995169 61.54218677873723,264.9163370976312 61.31915768410545,265.23835816109204 61.09612858935725,265.5 61.46784374723211,264.9163370976312 61.85814466292504,264.45343116432196 61.87673042085953,264.27229384983366 61.78380163141992,264.01065085346636 61.52360102091916,263.66850194755534 61.33774344192352,263.24584683432477 61.07754283142276,262.8030645967665 60.87309949460905,262.6219262050581 60.38986978936009,261.97787763252563 59.925225841929205,261.19294141378487 59.47916765254922,260.3476230028609 58.82866612623911,259.2406545233098 58.271093389368616,258.435583764498 57.806449442054145,257.5902569539612 57.490491557866335,257.1474656920909 57.230290947365575,256.7046737236233 56.709889726364054,255.9398495684436 56.37534608412534,255.29578548678546 55.48322970524896,253.86676296719816 55.20444333681371,253.18243971791526 55.07434303162154,252.6792597813619 54.8884854526259,252.29684241925133 53.62465391587466,250.34449293496436 52.9183951158775,249.1368472014001 52.54667995800264,248.59340490626346 52.397993894759566,248.31161959341262 51.32001993700396,246.60077404980257 50.911133263260126,245.87617746256 50.409317800193094,245.33272878007847 49.21982929483056,244.30621169734513 47.49135381076485,242.7161091091839 46.43196561082732,241.83047839920619 45.89297863189131,241.28702179086395 44.294603452901356,239.8780552551616 42.677642516209744,238.32818379960372 41.711183105711825,237.52305235282984 41.07926733721979,236.91920223401394 40.26149398984853,236.234837176773 39.72250701102894,235.6913696048723 36.897471811040305,233.1753021535842 35.782326337415725,232.14874007711478 35.33626814791933,231.766294410525 34.57425207423512,231.04165906949493 33.99809357954655,230.5585677902709 33.25466326379683,229.87418703747971 32.39971840067301,229.02877318758692 31.879317179555073,228.3443886595196 31.65628808492329,227.94180873638834 31.22881565336138,226.79445274906175 31.21022989542689,226.6334199499106 31.135886863805354,225.78799622006773 31.154472621739842,225.28476658572617 31.154472621739842,224.62050207001448 31.22881565336138,224.51985579245957 31.17305837967433,224.4997265325801 31.247401411179453,224.3185631277447 31.28457292704843,224.11727031692863 31.17305837967433,224.27830457729578 31.135886863805354,224.19778745880467 31.17305837967433,224.09714102781436 31.26598716911394,223.91597735996766 31.45184474810958,223.73481357378478 31.91648869542405,222.88938100653468 32.56699022173416,221.86278085225786 34.07243661116809,219.78943953885755 35.261925116414204,217.9978991215612 35.726569063728675,217.05180007297895 35.96818391629495,216.30699642305262 35.986769674229436,216.0855679250817 35.949598158476874,215.74335989853716 35.615054516354576,215.2199820997048 35.466368453227915,214.91803292020631 35.28051087423228,214.69660331281193 35.07606753741857,214.2336135623773 34.722938137478195,213.66997282250668 34.351222979603335,213.2472415155935 34.22112267429475,212.9452901874174 34.07243661116809,212.68359877029434 33.923750548041426,212.38164682821662 33.4962781163631,211.79787214093085 33.29183477954939,211.39526819207822 32.93870537960902,210.7511006577115 31.786388390115462,208.91924105081125 31.619116569054313,208.51663292116427 30.355285032303073,206.28214717272203 30.076498663867824,205.65809838555288 29.518925926997326,204.75221861385216 29.295896832249127,204.2288200629846 28.348023179685697,202.55796422914136 28.180751358624548,202.17547774201375 27.678935895557515,201.20919373902143 27.455906800809316,200.88709832275345 26.861162548186257,199.6993682400207 26.563790421932936,199.19609124594717 26.229246779694222,198.55189535983664 26.006217684946023,197.9680915447243 24.90965796925593,196.09588480726234 23.92461280093994,193.76064147197758 23.738755221944302,192.9956436864304 23.051082179881632,191.4656417796068 22.90239611675497,191.0227449141821 22.660781264072284,190.49932043321314 22.363409137702547,189.99602673065965 21.564221548265778,188.14389803321683 21.211092148325406,187.41914865108265 20.28180425358005,185.2851533505309 19.835746064200066,184.52013216502382 20.857962748385035,186.67426536622224 21.248263664077967,187.41914865108265 21.489878516760655,188.0835023237596 21.954522464075126,189.06996392949077 22.4377521694405,190.1973443213792 23.06966793781612,191.42537845748302 23.422797337756492,192.29103859454335 23.70158370619174,192.8748543693364 24.01754159037955,193.96195632770832 24.59370008506812,195.37115622291458 25.33713040081784,196.96153035470343 26.247832537745126,198.4311084645451 27.04702012706548,199.90067878177797 27.344392253435217,200.52474053196784 27.660350137623027,201.02801511345024 28.273680148180574,202.11508509051055 28.719738337560557,203.0612351186428 29.072867737617344,203.64502820564667 29.165796527056955,203.90672815585276 29.370239863870665,204.3093429812725 30.243770484812558,205.71849026509153 30.59689988498576,206.38280007134017 30.70841443235986,206.70488910122367 31.786388390115462,208.6575458330335 32.23244657961186,209.54328249618993 32.80860507430043,210.3887557618582 33.867993274354376,212.20047550511663 34.25829419004731,212.7641192326555 35.466368453227915,214.8173831205786 36.042526947916485,215.68297020292084 36.061112705850974,216.00504842741066 35.949598158476874,216.48816506260482 35.670811790041625,217.31348736684595 35.466368453227915,217.73621247365372 35.057481779600494,218.42062318488024 34.518494800664485,219.14529150817543 34.0538508532336,219.8699579374661 33.70072145317681,220.35306783810665 32.95729113742709,221.44006203685421 33.32900629530195,220.8160473696771 34.983138747978956,218.4608825858595 35.44778269529343,217.65569345539552 35.670811790041625,217.19270864650025 35.96818391629495,216.14595753299363 35.96818391629495,215.68297020292084 35.76374057948124,215.36089160425763 35.48495421104599,214.83751308338833 35.20616784261074,214.45504353949218 34.68576662160922,213.58945262324414 34.406980253290385,213.22711143729975 34.22112267429475,212.8245095640741 33.53344963211566,211.79787214093085 32.82719083223492,210.63031907833647 32.45547567436006,209.94588913476036 32.00941748486366,209.26145750127034 31.619116569054313,208.55689376042574 31.06154383230023,207.36919654348458 30.59689988498576,206.6444974366168 30.26235624286346,205.9399270440772 29.333068348118104,204.2892122539197 29.072867737617344,203.72555129352259 28.719738337560557,203.16188918688567 27.846207716618665,201.45076505558973 27.288634979748167,200.48447852599202 26.861162548186257,199.6591061141662 26.433690116507933,198.93438684780267 25.89470313768834,197.86743559021852 25.50440222187899,197.24336785639753 24.70521463244222,195.79391479412152 23.831684011383913,193.68011548875074 23.664412190322764,192.93524903446087 23.032496421947144,191.58643171098083 22.69795277994126,190.72076937272504 22.363409137702547,190.01615849634982 21.935936706140637,189.19075490513933 21.415535485139117,187.9023151164729 21.192506390507333,187.56007229052193 20.876548506203108,186.87558537043515 20.48624759039376,185.788455610018 20.17028970620595,185.20462490415957 20.02160364307929,184.76171803072793 19.85433182201814,184.5 19.947260611574166,184.78185017668875 20.244632737827487,185.305285458453 21.211092148325406,187.37888474098872 21.694321853574365,188.5867995001754 21.991693979827687,189.15049125242513 22.772295811446384,190.84155962879595 23.236939758760855,191.74748487090983 23.77592673781328,193.13656448981783 24.519357053563,195.21010516902606 25.03975827456452,196.33746058084944 25.87611737975385,197.76677959917288 26.340761327184737,198.73307560416288 27.38156376918778,200.5851335300249 27.660350137623027,200.98775318055414 27.790450442931615,201.26958658790682 28.162165600806475,201.91377615716192 28.515295000746846,202.63848763293936 28.905595916556194,203.3430664176267 29.295896832249127,204.20868932973826 29.630440474371426,204.71195722196717 29.890641084872186,205.2554855192284 31.786388390115462,208.67767624319822 32.10234627430327,209.36210931805545 32.51123294804711,210.02641039231094 32.75284780061338,210.32836489981855 33.830821758601815,212.16021519500646 34.462737526977435,213.14659110941284 35.187582084792666,214.3745235682727 35.80091209535021,215.3407616794284 35.726569063728675,215.17972222813114 35.577883000602014,215.03881263149378 35.410611179540865,214.7771231905208 35.07606753741857,214.17322353793134 33.99809357954655,212.46216737831128 33.73789296904579,211.97904372715857 31.65628808492329,208.61728500838217 31.37750171648804,208.01337193675863 30.59689988498576,206.60423631960293 30.05791290604975,205.73862088867463 29.779126537498087,205.17496287576796 29.314482590183616,204.40999659628142 28.403780453372747,202.55796422914136 27.9019649901893,201.65207432521856 27.455906800809316,200.70591948658694 25.485816463944502,197.26349909552664 24.742386148194782,195.77378344818135 24.426428264006972,194.9483970068104 23.980370074510574,194.00221928133396 23.60865491675213,192.73393343285716 23.720169464009814,192.91511748090852 24.054713106132112,193.92169336829102 24.20339916937519,194.22366542152304 24.537942811381072,195.23023655587167 24.798143421881832,195.8140461385774 25.15127282193862,196.51864227287297 25.634502527071163,197.28363033324422 25.83894586400129,197.72651719252462 25.61591676925309,197.4245489561581 25.33713040081784,196.8810053015477" stroke="#4dd2ff" stroke-linecap="round" stroke-linejoin="round" stroke-width="0.5"><title>2023-12-24 16.0km</title></polyline><polyline fill="none" points="113.99655172415078,222.27800731128082 116.78965517506003,227.1172772217542 140.25172413885593,254.3381181601435 148.63103448227048,261.59699407592416 153.10000000149012,263.4117120685987 162.0379310362041,264.6215238450095 169.8586206920445,262.20190011896193 176.56206896528602,256.75774416700006 181.031034482643,250.1037709582597 183.82413793168962,243.44979244237766 183.82413793168962,238.0056242546998 182.14827586524189,230.1418194891885 176.56206896528602,221.6730983760208 155.3344827592373,199.29143690690398 144.72068965621293,189.61286199837923 137.45862069167197,187.19321651710197 129.07931034639478,187.7981279529631 124.61034482903779,189.61286199837923 117.90689655207098,193.84723990224302 113.43793103657663,200.50125797931105 110.64482758566737,207.76018074015155 110.08620689809322,215.62400660291314 112.3206896558404,222.88291620416567 132.98965517245233,247.07923592813313 150.86551724001765,264.0166179793887 155.89310344867408,265.2264296663925 163.71379310265183,264.6215238450095 178.79655172675848,256.75774416700006 184.94137931242585,242.8448850410059 184.94137931242585,235.5859928089194 182.7068965509534,228.32709426013753 154.7758620698005,196.87179423170164 144.16206896677613,189.00795069430023 137.45862069167197,186.588305037003 130.19655172340572,185.98339351220056 122.9344827607274,187.7981279529631 116.78965517506003,192.03250677790493 108.96896551735699,207.15527075110003 108.4103448279202,213.80927821528167 110.64482758566737,223.4878250528127 135.7827586233616,250.70867783296853 149.18965517170727,262.20190011896193 159.80344827845693,264.0166179793887 169.3000000026077,262.8068061149679 173.76896551810205,260.38718186318874 181.58965517394245,252.5233981939964 184.3827586211264,245.86942160874605 184.3827586211264,239.21543971495703 182.7068965509534,233.16636066092178 179.35517241619527,226.51236863574013 150.86551724001765,193.84723990224302 141.36896551772952,186.588305037003 134.10689655318856,185.37848194502294 127.96206896565855,185.98339351220056 117.34827586077154,192.63741786312312 113.43793103657663,198.08161565707996 110.08620689809322,207.15527075110003 109.52758620679379,216.83382530836388 111.7620689664036,222.88291620416567 131.31379310414195,245.86942160874605 145.83793103322387,258.5724632120691 154.7758620698005,260.99208799097687 164.83103448338807,260.99208799097687 170.97586206905544,258.5724632120691 176.56206896528602,254.3381181601435 179.35517241619527,250.70867783296853 183.26551724225283,240.42525499872863 184.3827586211264,236.19090073602274 182.7068965509534,231.95654432429 162.5965517256409,205.34054052224383 143.60344827733934,187.7981279529631 137.45862069167197,185.98339351220056 127.96206896565855,186.588305037003 120.69999999925494,189.00795069430023 116.2310344837606,193.2423289050348 109.52758620679379,204.13072014972568 107.85172413662076,210.78473002649844 108.4103448279202,216.83382530836388 110.64482758566737,224.09273385629058 144.16206896677613,257.96755690779537 152.54137931019068,262.8068061149679 161.47931034490466,265.2264296663925 168.74137931130826,262.8068061149679 176.56206896528602,257.96755690779537 183.26551724225283,248.89395707659423 185.5,239.21543971495703 182.7068965509534,229.53691112436354 155.3344827592373,197.47670496674255 145.83793103322387,189.00795069430023 141.36896551772952,186.588305037003 134.66551724262536,185.37848194502294 125.16896551847458,185.98339351220056 119.02413793094456,189.61286199837923 112.3206896558404,196.26688345335424 108.96896551735699,202.31598926195875 107.85172413662076,210.78473002649844 108.4103448279202,216.83382530836388 111.20344827510417,223.4878250528127 127.40344827622175,242.23997759679332 144.72068965621293,258.5724632120691 150.30689655430615,262.20190011896193 157.01034482941031,264.6215238450095 163.71379310265183,264.0166179793887 173.2103448268026,260.38718186318874 178.23793103545904,256.75774416700006 183.82413793168962,244.65960711287335 184.3827586211264,238.0056242546998 182.7068965509534,231.35163608985022 179.35517241619527,225.30255133425817 156.45172413997352,198.68652630411088 144.16206896677613,189.00795069430023 138.01724138110876,185.98339351220056 131.87241379357874,185.37848194502294 124.05172413773835,187.19321651710197 117.34827586077154,190.82268447615206 111.7620689664036,198.68652630411088 108.4103448279202,207.15527075110003 108.4103448279202,214.4141877205111 110.64482758566737,222.27800731128082 120.14137930981815,233.77126876451075 135.7827586233616,250.70867783296853 150.30689655430615,262.8068061149679 157.01034482941031,264.6215238450095 164.27241379395127,264.0166179793887 171.53448276035488,261.59699407592416 177.12068965658545,257.3626505602151 181.58965517394245,251.91849145153537 184.3827586211264,245.26451438246295 184.3827586211264,238.0056242546998 182.7068965509534,230.74672781070694 163.1551724150777,209.57491044327617 156.45172413997352,200.50125797931105 144.16206896677613,189.61286199837923 135.7827586233616,186.588305037003 129.63793103396893,185.37848194502294 121.25862069055438,187.19321651710197 116.2310344837606,191.42759564891458 111.7620689664036,196.87179423170164 108.96896551735699,203.5258098980412 107.85172413662076,210.17982025584206 109.52758620679379,219.8583713043481 112.87931034527719,225.30255133425817 126.84482758492231,241.030162576586 150.30689655430615,262.8068061149679 157.56896551698446,264.6215238450095 163.71379310265183,264.0166179793887 169.8586206920445,262.20190011896193 175.44482758827507,258.5724632120691 180.47241379320621,252.5233981939964 183.26551724225283,245.86942160874605 184.3827586211264,236.19090073602274 182.7068965509534,230.74672781070694 181.031034482643,227.72218576353043 157.01034482941031,202.31598926195875 143.0448275860399,189.61286199837923 136.3413793090731,186.588305037003 130.19655172340572,185.98339351220056 122.9344827607274,187.19321651710197 117.34827586077154,190.2177732582204 112.3206896558404,195.0570617658086 108.4103448279202,202.92089960258454 107.29310345090926,211.38963975198567 108.96896551735699,219.25346219260246 112.3206896558404,224.69764261646196 134.66551724262536,248.89395707659423 150.86551724001765,262.8068061149679 160.36206896789372,264.0166179793887 167.06551724113524,263.4117120685987 173.76896551810205,260.38718186318874 178.79655172675848,255.54793125065044 182.14827586524189,250.1037709582597 183.82413793168962,242.23997759679332 183.26551724225283,234.3761768224649 182.14827586524189,230.1418194891885 158.12758620642126,202.92089960258454 140.81034482829273,187.7981279529631 134.66551724262536,185.37848194502294 128.52068965509534,184.7735703336075 122.37586206942797,186.588305037003 113.43793103657663,193.2423289050348 106.73448275960982,204.13072014972568 107.29310345090926,214.4141877205111 109.52758620679379,220.46328037139028 143.0448275860399,257.3626505602151 149.7482758630067,261.59699407592416 155.3344827592373,264.0166179793887 162.5965517256409,264.6215238450095 169.3000000026077,262.8068061149679 176.00344827771187,257.3626505602151 182.7068965509534,247.07923592813313 184.3827586211264,239.21543971495703 183.26551724225283,232.5614525140263 177.67931034602225,225.30255133425817 159.2448275871575,205.34054052224383 151.4241379313171,195.0570617658086 145.27931034564972,189.00795069430023 140.25172413885593,185.98339351220056 126.84482758492231,185.37848194502294 120.69999999925494,187.7981279529631 115.11379310488701,192.03250677790493 110.64482758566737,197.47670496674255 107.29310345090926,205.34054052224383 107.29310345090926,213.80927821528167 108.96896551735699,220.46328037139028 133.54827586188912,247.07923592813313 148.63103448227048,260.99208799097687 157.01034482941031,264.0166179793887 163.1551724150777,264.6215238450095 169.3000000026077,263.4117120685987 176.56206896528602,258.5724632120691 182.7068965509534,247.68414302077144 183.82413793168962,238.61053200624883 182.7068965509534,231.95654432429 151.4241379313171,196.87179423170164 143.0448275860399,189.00795069430023 133.54827586188912,185.98339351220056 129.07931034639478,185.98339351220056 120.69999999925494,187.7981279529631 115.11379310488701,191.42759564891458 107.85172413662076,201.71107887942344 106.17586206831038,211.99454943323508 108.96896551735699,221.06818939605728 113.43793103657663,226.51236863574013 144.16206896677613,257.3626505602151 150.86551724001765,262.20190011896193 156.45172413997352,264.0166179793887 166.5068965535611,264.6215238450095 173.2103448268026,261.59699407592416 178.23793103545904,256.75774416700006 182.14827586524189,251.31358466437086 183.82413793168962,244.05469979951158 183.82413793168962,237.4007164593786 181.031034482643,228.93200271436945 154.7758620698005,199.89634746545926 145.83793103322387,191.42759564891458 138.57586207054555,187.19321651710197 132.43103448487818,184.7735703336075 125.16896551847458,185.98339351220056 119.582758622244,188.40303934551775 112.87931034527719,193.84723990224302 107.85172413662076,200.50125797931105 105.0586206894368,207.76018074015155 105.61724137887359,216.2289159768261 108.96896551735699,222.88291620416567 143.0448275860399,257.3626505602151 148.63103448227048,261.59699407592416 158.68620689585805,264.6215238450095 165.9482758641243,264.0166179793887 174.32758620753884,259.7822756883688 179.35517241619527,255.54793125065044 182.14827586524189,250.1037709582597 183.82413793168962,242.8448850410059 180.47241379320621,228.93200271436945 177.12068965658545,223.4878250528127 160.36206896789372,208.36509068496525 145.83793103322387,192.03250677790493 138.01724138110876,186.588305037003 131.31379310414195,185.37848194502294 123.49310344830155,185.98339351220056 117.90689655207098,189.00795069430023 111.20344827510417,194.45215085707605 107.29310345090926,201.71107887942344 105.61724137887359,210.17982025584206 106.73448275960982,218.04364383779466 109.52758620679379,223.4878250528127 130.75517241470516,245.26451438246295 145.27931034564972,259.1773694725707 150.86551724001765,262.8068061149679 157.01034482941031,264.0166179793887 167.62413793243468,263.4117120685987 172.6517241410911,261.59699407592416 179.91379310376942,254.94302472658455 183.26551724225283,247.07923592813313 183.82413793168962,240.42525499872863 183.82413793168962,233.77126876451075 181.031034482643,227.72218576353043 150.30689655430615,194.45215085707605 140.25172413885593,187.19321651710197 134.10689655318856,185.98339351220056 126.28620689921081,185.98339351220056 118.46551724337041,189.00795069430023 111.7620689664036,195.66197263170034 107.29310345090926,202.31598926195875 105.61724137887359,208.9700005869381 106.73448275960982,217.43873459519818 108.4103448279202,221.6730983760208 141.9275862071663,256.1528377318755 150.86551724001765,261.59699407592416 157.01034482941031,264.0166179793887 163.71379310265183,264.0166179793887 173.76896551810205,260.38718186318874 178.79655172675848,255.54793125065044 182.7068965509534,250.1037709582597 183.82413793168962,245.86942160874605 184.3827586211264,237.4007164593786 182.7068965509534,230.74672781070694 156.45172413997352,199.29143690690398 141.9275862071663,187.19321651710197 132.98965517245233,184.7735703336075 125.16896551847458,185.37848194502294 119.02413793094456,187.7981279529631 111.7620689664036,194.45215085707605 107.85172413662076,200.50125797931105 105.61724137887359,207.76018074015155 106.17586206831038,217.43873459519818 108.96896551735699,222.88291620416567 144.16206896677613,258.5724632120691 149.7482758630067,262.8068061149679 156.45172413997352,264.6215238450095 164.83103448338807,265.2264296663925 174.32758620753884,260.99208799097687 178.79655172675848,256.75774416700006 183.82413793168962,245.26451438246295 183.26551724225283,233.77126876451075 181.58965517394245,228.32709426013753 167.06551724113524,210.78473002649844 150.86551724001765,193.2423289050348 143.60344827733934,187.19321651710197 136.90000000037253,184.7735703336075 129.63793103396893,184.7735703336075 120.69999999925494,187.7981279529631 111.7620689664036,195.0570617658086 104.5,207.76018074015155 104.5,213.20436866488308 106.17586206831038,219.8583713043481 141.9275862071663,255.54793125065044 148.63103448227048,260.99208799097687 160.92068965546787,265.2264296663925 177.12068965658545,257.96755690779537 179.35517241619527,254.94302472658455 182.7068965509534,245.26451438246295 183.26551724225283,238.61053200624883 181.031034482643,231.35163608985022 161.47931034490466,207.15527075110003 141.9275862071663,187.19321651710197 136.3413793090731,184.7735703336075 129.07931034639478,184.7735703336075 120.69999999925494,186.588305037003 114.55517241358757,190.2177732582204 108.96896551735699,196.26688345335424 106.17586206831038,201.71107887942344 104.5,210.17982025584206 105.61724137887359,218.04364383779466 109.52758620679379,223.4878250528127 133.54827586188912,247.68414302077144 144.72068965621293,257.96755690779537 150.30689655430615,262.20190011896193 161.47931034490466,264.0166179793887 169.8586206920445,262.8068061149679 175.44482758827507,259.1773694725707 179.91379310376942,253.73321154806763 183.82413793168962,245.26451438246295 184.3827586211264,236.7958086184226 182.7068965509534,230.1418194891885 178.79655172675848,224.09273385629058 163.1551724150777,206.55036071967334 142.48620689846575,187.7981279529631 137.45862069167197,185.98339351220056 127.40344827622175,185.37848194502294 121.25862069055438,186.588305037003 113.99655172415078,190.82268447615206 109.52758620679379,195.66197263170034 105.61724137887359,204.73563035856932 104.5,210.17982025584206 106.17586206831038,218.64855303661898 115.67241379246116,230.74672781070694 147.51379310525954,260.38718186318874 154.21724137850106,263.4117120685987 163.71379310265183,264.0166179793887 169.3000000026077,262.20190011896193 176.56206896528602,257.96755690779537 180.47241379320621,252.5233981939964 183.82413793168962,244.05469979951158 182.7068965509534,233.16636066092178 180.47241379320621,227.1172772217542 155.3344827592373,196.87179423170164 142.48620689846575,187.19321651710197 136.3413793090731,185.37848194502294 129.63793103396893,184.7735703336075 122.9344827607274,186.588305037003 112.87931034527719,192.03250677790493 109.52758620679379,196.87179423170164 105.61724137887359,204.73563035856932 105.0586206894368,213.80927821528167 106.73448275960982,220.46328037139028 110.08620689809322,225.30255133425817 135.22413793206215,251.31358466437086 149.7482758630067,263.4117120685987 154.7758620698005,265.2264296663925 164.27241379395127,265.2264296663925 168.18275862000883,264.0166179793887 176.56206896528602,257.96755690779537 181.031034482643,252.5233981939964 183.82413793168962,244.05469979951158 184.3827586211264,237.4007164593786 181.58965517394245,229.53691112436354 175.44482758827507,219.8583713043481 156.45172413997352,199.89634746545926 142.48620689846575,189.61286199837923 132.98965517245233,187.19321651710197 125.16896551847458,187.19321651710197 112.3206896558404,194.45215085707605 107.85172413662076,199.29143690690398 105.61724137887359,205.94545064214617 105.61724137887359,216.2289159768261 107.85172413662076,221.6730983760208 143.0448275860399,257.3626505602151 149.7482758630067,262.20190011896193 156.45172413997352,264.6215238450095 163.71379310265183,265.2264296663925 170.41724137961864,262.8068061149679 178.23793103545904,257.3626505602151 183.26551724225283,248.89395707659423 184.3827586211264,242.23997759679332 184.3827586211264,234.9810848380439 181.031034482643,227.1172772217542 164.27241379395127,207.76018074015155 142.48620689846575,187.19321651710197 135.7827586233616,185.37848194502294 128.52068965509534,185.37848194502294 121.25862069055438,187.19321651710197 112.87931034527719,193.84723990224302 108.4103448279202,199.29143690690398 106.17586206831038,205.34054052224383 105.0586206894368,215.01909718383104 107.29310345090926,221.06818939605728 125.72758620791137,241.030162576586 144.72068965621293,258.5724632120691 151.4241379313171,263.4117120685987 159.80344827845693,265.2264296663925 164.83103448338807,264.6215238450095 173.2103448268026,260.99208799097687 181.031034482643,254.3381181601435 184.3827586211264,245.26451438246295 184.94137931242585,239.82034737989306 182.14827586524189,227.72218576353043 167.62413793243468,211.38963975198567 147.51379310525954,191.42759564891458 141.36896551772952,187.19321651710197 135.22413793206215,185.98339351220056 126.84482758492231,185.37848194502294 119.582758622244,187.7981279529631 113.43793103657663,192.03250677790493 108.96896551735699,198.08161565707996 106.17586206831038,205.34054052224383 106.17586206831038,215.01909718383104 108.4103448279202,221.06818939605728 138.01724138110876,253.1283048922196 149.7482758630067,262.20190011896193 158.12758620642126,264.0166179793887 165.9482758641243,263.4117120685987 173.2103448268026,260.38718186318874 179.35517241619527,256.1528377318755 182.14827586524189,250.70867783296853 183.82413793168962,240.42525499872863 183.26551724225283,235.5859928089194 180.47241379320621,227.72218576353043 153.10000000149012,198.08161565707996 139.1344827581197,187.19321651710197 131.87241379357874,185.37848194502294 123.49310344830155,185.98339351220056 116.2310344837606,189.00795069430023 110.64482758566737,195.0570617658086 105.61724137887359,207.15527075110003 105.0586206894368,212.59945907164365 107.29310345090926,221.06818939605728 111.20344827510417,227.72218576353043" stroke="#4dd2ff" stroke-linecap="round" stroke-linejoin="round" stroke-width="0.5"><title>2023-12-17 10.0km</title></polyline></svg>