<?xml version="1.0" encoding="utf-8" ?>
<svg baseProfile="full" height="300mm" version="1.1" viewBox="0,0,200,300" width="200mm" xmlns="http://www.w3.org/2000/svg" xmlns:ev="http://www.w3.org/2001/xml-events" xmlns:xlink="http://www.w3.org/1999/xlink"><defs /><rect fill="#222222" height="300" width="200" x="0" y="0" /><text fill="#FFFFFF" style="font-size:12px; font-family:Arial; font-weight:bold;" x="10" y="20">Over 10km Runs</text><text fill="#FFFFFF" style="font-size:4px; font-family:Arial" x="10" y="280">ATHLETE</text><text fill="#FFFFFF" style="font-size:9px; font-family:Arial" x="10" y="290">kilerd</text><text fill="#FFFFFF" style="font-size:4px; font-family:Arial" x="120" y="280">STATISTICS</text><text fill="#FFFFFF" style="font-size:3px; font-family:Arial" x="120" y="285">Number: 6</text><text fill="#FFFFFF" style="font-size:3px; font-family:Arial" x="120" y="290">Weekly: 1.0</text><text fill="#FFFFFF" style="font-size:3px; font-family:Arial" x="141" y="285">Total: 67.7 km</text><text fill="#FFFFFF" style="font-size:3px; font-family:Arial" x="141" y="290">Avg: 11.3 km</text><text fill="#FFFFFF" style="font-size:3px; font-family:Arial" x="167" y="285">Min: 10.0 km</text><text fill="#FFFFFF" style="font-size:3px; font-family:Arial" x="167" y="290">Max: 16.0 km</text><polyline fill="none" points="82.19434393849224,95.18561170088651 82.06816229934338,95.00992310514266 80.95055349520408,94.20956249529263 80.51793073222507,93.81914182173205 80.13938581466209,93.56536808019155 79.58058141265064,93.25303083895415 78.57112829922698,92.47218614978192 77.90416820649989,91.88655114591529 76.89471509307623,90.94953248859383 76.08354741265066,90.32485157085466 75.39856137149036,89.64160515654658 74.6234455879312,88.95835700725729 74.06464118591975,88.3727143554861 73.7762260105228,88.11893547717773 73.37965514452662,87.82611339705181 73.18136971164495,87.78707042899623 73.00111022696365,87.8065919137589 72.78479884564877,87.96276374076842 72.46033177350182,88.39223579774261 71.7753457322251,89.19261371101311 71.28864512394648,89.56351974155405 71.07233374251518,89.9149039304466 70.40537364978809,90.79336239511031 70.17103631980717,91.04713875094603 69.63025786622893,91.55469074464054 69.10750536096748,92.19888997331145 68.38646742282435,92.96021434606519 67.75555922696367,93.76057867186319 67.19675482495222,94.26812554744538 66.83623585582245,94.48285662969283 66.69202826824039,94.61950359282491 66.36756119609345,95.10752789473918 64.38470686611254,97.46955300777336 63.05078668054193,98.89456639641139 62.3117227939656,99.79251616317197 61.89712597953621,100.06580462792772 61.37437347439118,100.76854512018326 60.95977665996179,101.08087363885716 60.59925769083202,101.66648863443697 60.20268682483584,102.15450015738315 59.53572673210874,102.72059241545503 59.19323371141218,103.16956129069149 58.88679258781485,103.44284632637573 58.814688793965615,103.61852941702818 58.70653310324997,103.73565141376457 58.21983249497134,104.24317947741656 57.40866481454577,105.18015184975229 57.300509123830125,105.43391463930311 57.264457226963714,105.76575792614312 57.174327484564856,105.76575792614312 57.102223690832034,105.86335881505511 56.92196420626715,105.96095966848952 56.687626876402646,106.0 56.39921170112211,105.96095966848952 56.16487437125761,105.84383864012489 55.786329453694634,105.45343484397745 55.299628845532425,104.63358502896153 54.61464280425571,103.67709042177012 54.34425357740838,103.13052054867148 53.91163081454579,102.38874537407537 53.623215639265254,101.97881611107732 53.22664477326907,101.13943519575696 52.613762525841594,100.30005166257615 52.289295453578234,99.69491307278804 51.856672690832056,99.0507317884767 51.71246510325,98.75792160403216 51.3158942371374,98.23086246925232 50.847219577408396,97.50859457104525 50.70301198970992,97.1767411029723 49.90987025783397,95.88836493682174 49.51329939183779,94.87327634025132 49.27896206185687,94.3852516135521 48.485820329980925,93.13590428000316 47.205977989709936,90.91048997368489 46.61112169071566,90.03203189147462 45.61969452572521,88.35319291178894 45.33127935056109,87.96276374076842 45.042864175280556,87.65041999609093 43.871177525725216,86.61577875175863 43.43855476297904,86.14726065311697 40.734662494738586,83.80465792154428 39.022197391837835,82.242911434907 38.12089996901341,81.38394700274512 35.65134503087029,79.17795759912406 34.31742484529968,77.90901744551957 33.902828030870296,77.59666202811059 32.40667430916801,76.19105816124647 31.937999649439007,75.82013369374909 30.802364896866493,74.70735722227255 30.00922316487413,74.06311610837292 29.7388339380268,73.78980123023211 29.162003587465733,73.30173825705424 28.711354876169935,72.85271953954361 28.368861855589785,72.61844860685233 28.1886023710249,72.40370007252204 27.954265041160397,72.1889513667702 27.467564432881773,71.700885488739 27.19717520615086,71.36900018581946 26.980863824603148,71.01759177164058 26.67442270088941,70.39286456834816 26.476137267891318,69.7290903248213 26.36798157717567,69.51433948351769 26.33192968030926,69.26054281365941 26.36798157717567,68.92865449939563 26.295877783326432,68.34296823981276 26.295877783326432,68.08917046462011 26.349955628742464,67.71823482382752 26.54824106162414,66.93731601296167 27.01691572146956,66.03925657720538 27.26927899988368,65.62927192472853 28.909640309168026,63.208397425332805 29.77488583489321,61.97842864514678 30.387768082437105,61.002258942316985 30.604079463868402,60.53369622626633 30.838416793732904,59.81132710604288 30.928546536015347,59.32323876401642 30.946572484448552,58.932767452526605 30.135404804022983,57.56611339689698 29.792911783326417,57.05849726422457 29.486470659612678,56.472785151039716 28.85556246386841,55.43802396628598 28.513069443171844,54.969451553799445 28.296758061740547,54.50087832471763 27.521642278297804,53.30991769187676 27.26927899988368,52.80229352359311 26.92678597930353,52.25562027039996 26.67442270088941,51.943235055266996 26.115618298877962,50.81083560753905 25.340502515318803,49.32699462851451 25.124191133887507,49.01460601037252 24.727620267891325,48.19458416067937 24.421179144177586,47.7259991234605 23.75421905145049,46.378812591792666 23.39370008232072,45.79307721137593 23.141336804023013,45.168291398731526 22.600558350328356,44.11396204704943 22.095831793616526,43.313449962603045 21.482949546189047,42.16148936463287 21.23058626789134,41.79051795168198 20.797963505028747,40.89237451578083 20.38336669059936,40.189477559455554 19.950743927736767,39.34990378591465 19.337861680309288,37.74884885556821 19.06747245346196,36.85069191388902 18.36446046375204,35.464400307959295 18.184200979187153,34.995793077585404 18.039993391605094,34.48813432258612 17.805656061624177,34.0 17.823682010057382,34.09762693545781 17.85973390704021,34.214779211222776 18.039993391605094,34.507659677037736 18.25630477303639,34.995793077585404 18.490642102900892,35.42534973661532 18.833135123481043,36.22588531469228 19.06747245346196,36.714015594436205 19.3739135771757,37.61217299285636 19.644302804023027,38.295551611387054 19.86061418533791,38.76415308844298 19.986795824603178,39.11560366016056 20.27521099988371,39.759928514569765 20.56362617504783,40.36520197089703 22.07780584518332,43.09867802214285 22.546480504912324,44.074912732379744 23.483829824603163,45.6954545238259 23.808296896750107,46.378812591792666 24.40315319574438,47.41360864491435 24.799724061740562,48.25315723291715 25.178268979187123,48.85841156517563 25.845229072030634,50.147013024034095 27.125071412185207,52.47038489529223 27.954265041160397,53.8956366951752 28.314784010173753,54.422782707144506 29.720807989593595,56.78516510350164 30.441845927736722,57.93706304169609 30.74828705145046,58.3861066638201 30.874468690599315,58.600866391920135 30.874468690599315,58.63991359679494 30.71223515458405,58.52277196518844 30.387768082437105,58.01515763853968 30.04527506174054,57.39040022865811 28.621225133887492,55.164690158257145 28.134524525725283,54.32516315327666 27.828083401895128,53.87611274891242 27.03494167001918,52.548481079982594 26.800604340038262,52.0994277081918 26.4220594225917,51.455132429880905 25.05208734003827,48.78031430856208 24.727620267891325,48.331254642645945 23.970530432881787,46.964546695991885 22.654636195744388,44.4458809926582 21.42887170088943,42.23958854426746 21.176508422475308,41.73194347125536 20.6898078143131,40.91189940494951 20.581652123481035,40.677600640789024 20.239159102900885,40.03327798622195 20.040873669902794,39.48657876496145 20.094951515318826,39.6037286916835 20.365340742166154,39.935653206805 20.52757427818142,40.228527438579476" stroke="#4dd2ff" stroke-linecap="round" stroke-linejoin="round" stroke-width="0.5"><title>2024-01-22 10.0km</title></polyline><polyline fill="none" points="183.05543993064202,94.06090216834855 182.06377673277166,93.49236145221221 180.81933664123062,92.4395053335902 180.17767221911345,92.01836181686667 179.94433970190585,91.80778982934135 179.7498959376244,91.44981710000138 179.49711904395372,91.19713020170457 178.83601024537347,90.71281303181604 178.46656709327362,90.52329739749257 177.2221270017326,89.53360263012291 176.77490634378046,89.21774188759446 176.2887969330186,88.79659369617002 175.86102065164596,88.29121505987132 174.2860261608148,86.83824657856894 173.83880550286267,86.54344049181964 173.56658423284534,86.48026771999139 173.33325171575416,86.48026771999139 173.1388079514727,86.60661324989633 172.26381101214793,87.78583554351644 171.6415909663774,88.43861725300667 170.76659402705263,89.42831575412129 170.59159463923424,89.61783210338035 170.16381835774519,89.93369241054461 169.26937704195734,90.81809944182169 168.33604697324336,91.91307584223978 167.1693843875546,93.09227657705196 167.01382937596645,93.28179053400527 166.8777187410742,93.53447561754729 166.6443862238666,93.63976100405853 166.27494307176676,94.1872443984903 165.69161177880596,94.86106869719515 164.36939418164548,96.33505389746279 163.74717413587496,96.96675954926468 163.5527303715935,97.26155504965573 162.79439969081432,98.16699650054215 162.2305127743166,98.77764146582922 161.97773588076234,99.13560515866266 161.86106962221675,99.34617183059163 161.68607023428194,99.47251176045393 161.49162647000048,99.53568170478684 161.06385018862784,99.9147010819579 160.5582964014029,100.56745551606582 160.052742614178,101.19915195806243 159.74163259135094,101.53605616510322 159.50830007425975,101.85190350410994 158.9055244048359,102.5046535825677 158.18608247698285,103.13634580948565 158.01108308916446,103.53641684228205 157.91386120696552,103.64169860140828 156.74719862116035,104.77873916714452 156.6110879861517,104.96824549516896 156.43608859821688,105.3051453284279 156.35831109248102,105.85260672372533 156.04720106965397,105.95788764298777 155.63886916462798,106.0 155.38609227107372,105.91577527986374 155.07498224824667,105.70521337271202 154.62776159029454,105.24197663947416 154.14165217953268,104.46289501219871 153.46109900448937,103.55747319718648 152.76110145298298,102.125637586636 151.8861045136582,100.71485147548083 151.45832823228557,100.08315397964907 151.16666258580517,99.55673834979825 150.5055537871085,98.56707438149897 150.33055439929012,98.20910998765612 149.86388936499134,97.55635025074298 148.93055929639377,95.91391603254306 148.69722677918617,95.59806223289343 148.36667237989604,94.96635360259097 148.03611798060592,94.10301625118882 147.80278546339832,93.59764685406117 146.63612287759315,91.63933212938718 145.37223840970546,89.65994683089957 145.0611283868784,89.04928268434014 143.70002203679178,86.83824657856894 143.3889120138483,86.48026771999139 142.825025097467,85.93276978803624 142.3583600630518,85.55373215321742 140.55003305512946,83.89017223520204 139.65559173934162,83.15314897011558 138.9167054350255,82.45823960586858 138.6250397885451,82.22660278130206 137.55559908493888,81.21582174688228 136.8556015334325,80.60513983255078 136.40838087559678,80.14186304029135 135.37782892480027,79.17319099372253 134.34727697412018,78.30980666163669 132.7722824831726,76.8357299137715 132.48061683680862,76.62514690992248 132.11117368459236,76.26715545268962 131.70284177956637,75.9302219129604 130.45840168802533,74.75095144296938 129.11673971440177,73.55061764983111 128.45563091582153,72.91886102735589 127.75563336431514,72.35027889099729 126.37508263776544,71.06570033256139 126.10286136774812,70.87617186705756 125.6556407099124,70.476055811072 124.8584212763235,69.71793966554105 124.11953497189097,68.93876267388987 123.65286993759219,68.24381926724163 123.3612042912282,67.6331100508396 123.26398240914568,67.35934343305416 123.08898302121088,66.68545527325477 123.01120551547501,66.22215625547688 122.97231676254887,65.12708290846786 123.03064989193808,64.7058997512504 123.22509365610313,64.05306464916794 123.40009304403793,63.61082068084215 123.69175869051833,63.06327959540067 125.44175256916787,60.472975066528306 126.33619388495572,59.23046305961907 127.40563458856195,57.545692515268456 127.69730023504235,56.892841298671556 127.87229962286074,56.387407089583576 128.02785463433247,55.81879255156673 128.0084102578694,55.35547617790871 126.5695264020469,52.912523059290834 126.25841637933627,52.47026210537297 125.11119816987775,50.53272997707245 124.74175501766149,49.98516420360829 124.11953497189097,48.953210512627265 124.02231308980845,48.721546934495564 123.16676052694675,47.35262201308797 123.05009426828474,47.09989670565119 122.2723192111589,45.5624796734337 121.70843229466118,44.63581341569079 121.35843351890799,43.89869041426573 120.73621347325388,42.84565430470684 120.36677032103762,42.02428348459944 119.02510834729765,39.43379104248015 118.57788768946193,38.696654817060335 118.40288830164354,38.27543327541207 117.48900260939263,36.737969455396524 116.94456006935798,35.68490734008083 116.94456006935798,35.41111056364025 117.04178195155691,35.13731352861214 117.1584482101025,34.947761583694955 117.31400322157424,34.77927086186537 117.60566886805464,34.5686573220155 118.40288830164354,34.37910500523867 119.23899648804218,34.0 119.47232900524978,34.0 120.11399342736695,34.1053069956688 120.30843719176482,34.189552564625046 120.34732594457455,34.5686573220155 120.56121408531908,35.76915245009877 120.61954721447546,36.801153060703655 120.73621347325388,37.411927201988874 120.75565784960054,37.68572208909609 120.950101613882,38.52816627382708 121.16398975462653,39.91819382744143 121.30010038963519,40.29729109465552 121.28065601317212,40.402595803141594 122.40842984616756,41.350336458621314 122.54454048105981,41.53988421801478 122.64176236325875,41.7083710112056 122.93342800973915,42.529742726139375 123.14731615048368,42.80353278077382 123.32231553830206,43.16156553909241 123.5362036790466,43.47747642932518 124.21675685408991,44.8253590274835 125.18897567561362,46.15217484116147 125.772306968458,46.78398976160679 126.10286136774812,47.24731982842786 126.53063764923718,47.75276996615867 128.0667433871422,48.974270828752196 128.68896343302913,49.41653711379331 129.23340597294737,49.87986297473253 129.9139591481071,50.406368736497825 130.55562357022427,50.84863283767481 131.2750654980773,51.43831725679047 131.5667311445577,51.585738174268045 132.07228493178263,52.00694038264919 132.38339495460968,52.19648117684119 132.67506060109008,52.512382225264446 132.86950436537154,52.638742548253504 133.31672502320725,53.05994322744664 133.51116878760513,53.16524330167158 133.76394568104297,53.27054333759588 134.34727697412018,53.64962315057346 134.81394200830255,54.00764251909277 135.24171828990802,54.30248166715319 135.78616082982626,54.76579972283798 136.0000489705708,54.871099177747965 137.20560030918568,55.797732732462464 137.49726595566608,55.98727104945283 138.66392854147125,56.91390103826416 138.99448294076137,57.124498350181966 139.5000367279863,57.50357312624692 140.12225677375682,58.03006504903897 140.51114430231974,58.32490010833135 143.17502387310378,60.136023183804355 143.3889120138483,60.325558666008874 143.46668951958418,60.49403454620915 143.60280015459284,60.66251032859145 143.93335455399938,60.83098601308302 144.4389083411079,61.23111537161458 145.25557215115987,61.778659915260505 146.24723534903023,62.55785613776243 147.0638991590822,63.084338887012564 147.647230452043,63.61082068084215 149.30000244849361,64.93755056343798 149.8250006121816,65.27449686900945 150.25277689367067,65.716738301242 150.89444131578784,66.26427437858365 151.944437642931,67.0434585530893 152.27499204222113,67.38040241280396 152.50832455942873,67.46463831659639 152.93610084080137,67.97005322574114 153.30554399313405,68.18064251133183 154.29720719100442,69.10723355210212 154.54998408455867,69.40205735361087 154.7638722251868,69.50735149579123 154.91942723677494,69.63370441598818 155.1138710010564,69.92852768243756 155.5610916588921,70.34970325768518 156.74719862116035,71.25522867421387 157.27219678473193,71.76063698012149 157.66108431329485,72.07651672429347 157.89441683050245,72.35027889099729 158.12774934759364,72.39239612447273 158.10830497124698,72.43451335189457 158.12774934759364,72.41345473896945 158.5555256290827,72.81356812317972 158.6721918877447,73.08732959449117 158.76941376982722,73.15050528197025 158.98330191057175,73.21368095568323 159.79996572062373,74.01390496539534 160.77218454214744,74.77200988627737 161.4721820935374,75.48799604836677 162.2305127743166,76.0776303847233 162.75551093788818,76.5830302908289 163.02773220802192,76.77255502867047 163.22217597230338,77.08842931668914 164.15550604090095,77.9939337031974 164.8166148394812,78.54144661262399 165.1082804859616,78.66779559891438 165.45827926159836,78.94155154703185 166.06105493102223,79.51012076798361 166.79994123533834,80.12080498668365" stroke="#4dd2ff" stroke-linecap="round" stroke-linejoin="round" stroke-width="0.5"><title>2024-01-15 10.5km</title></polyline><polyline fill="none" points="82.32167099951766,171.64606325206114 81.99133134051226,171.40011770118144 81.3925907087978,171.1541719539964 80.7732038483955,170.57284486226854 80.1538169879932,170.12566943018464 79.38990652677603,169.65613452816615 78.1924252633471,168.58290920886793 77.38722234487068,167.97921832435532 76.60266565496568,167.17429530550726 76.04521748051047,166.68239687019377 75.48776930617169,166.2352157930727 74.7651513023302,165.49736559719895 74.22834935667925,165.18433770764386 73.95994838385377,165.13961941175512 73.71219363971613,165.18433770764386 73.5263775815256,165.3408516921918 72.67988220555708,166.3470111232018 71.87467928708065,167.17429530550726 70.88366031041369,168.3146022950823 69.74811773293186,169.38782854872989 69.10808464384172,170.17038700261037 67.68349486484658,171.73549794926657 67.353155206074,172.20502968342043 67.0641080045607,172.49569182706182 66.71312211698387,172.78635369660333 66.52730605879333,173.00993956357706 66.36213622940704,173.30060094807413 64.40074450464454,175.44701499454095 63.38907929928973,176.47549976143637 62.87292358232662,177.1686071253207 61.675442318897694,178.51010082138237 61.51027248939499,178.89018964051502 61.179932830506004,179.06905480500427 60.35408368334174,179.82923059613677 60.20956008252688,180.07516942138318 59.920512881013565,180.38818218783126 59.34241847798694,181.170712713385 59.01207881909795,181.48372436739737 58.41333818738349,182.1768204702239 57.79395132686477,182.73576780522126 57.2984418385895,183.47357673553051 56.472592691425234,184.30081495144987 56.204191718483344,184.5243924666138 55.91514451697003,185.01626242915518 55.85320583090652,185.32927017853945 55.83255960221868,185.68699293158716 55.791267144843005,185.7540659015649 55.564158629393205,185.9329270835151 55.31640388513915,186.0 55.171880284440704,185.9776423627336 54.96541799756233,185.88821179771912 54.65572456747759,185.66463527164888 53.95375279232394,184.9491892986698 53.1485498737311,183.63008143313345 52.79756398615427,183.11585141406977 51.39362043584697,180.67883661494125 50.46454014535993,179.2926361146383 49.49416739738081,177.63813058298547 48.89542676554993,176.81087448695325 48.35862481989898,175.782390839071 47.9250540175708,175.17871405612095 47.388252071803436,174.1949419506418 47.037266184343025,173.18880814034492 46.89274258352816,172.89814665034646 45.11716691707261,169.92444027404417 44.53907251392957,169.0748046108347 44.10550171171781,168.26988445344614 43.25900633574929,166.88362814317225 42.61897324665915,165.8327522688778 42.288633587770164,165.3855699588894 41.97894015756901,165.05018280050717 39.54268517321907,162.85897771673626 37.18901510362048,160.84663279217784 35.557963037863374,159.28146654297598 35.145038464223035,158.96843233914115 34.79405257664621,158.56595932404161 34.13337325886823,157.96224881568924 33.55527885584161,157.47033567502513 32.58490610786248,156.57594613463152 31.800349417957477,155.92751209446578 31.573240902507678,155.68155399803072 30.850622898666188,155.07783783818013 29.07504723209422,153.400842298317 27.856919739977457,152.34992044098908 26.08134407340549,150.69527025142452 24.2851221782621,149.1300524333783 24.037367434124462,148.86172858040663 22.839886170695536,147.83315164560918 21.786928507848643,146.7598503131594 21.45658884907607,146.35736134942272 21.22948033362627,145.99959294014843 20.899140674620867,145.284054875141 20.63073970179539,144.41199061120278 20.527508558356203,143.96477721061092 20.424277414917015,143.04798770952038 20.444923643721268,142.73493701103143 20.403631186345592,142.31008198286872 20.692678387858905,141.3038440523087 20.837201988557354,140.9237088675727 21.27077279088553,140.07399322892888 21.76628227927722,139.33608037780505 22.488900283002295,138.37455491931178 22.839886170695536,137.7931659766473 23.19087205827236,137.32358179872972 24.18189103482291,135.82537987382966 24.759985437849537,135.04273417938384 25.23484869755339,134.21536371129332 25.46195721300319,133.63396691755042 25.751004414632916,132.67242365784477 25.792296871892177,132.15810858894838 25.70971195725724,131.93449307369883 25.17291001160629,131.04002938908525 24.71869298047386,130.23500985177816 24.16124480625149,129.40762646784424 23.583150403108448,128.28953728228225 22.819239941891283,127.19380594190443 21.745636050589383,125.33776232719538 21.10560296138283,124.42091737757437 20.795909531298093,123.68296702060616 20.07329152734019,122.40832132956712 19.495197124313563,121.2902067299583 19.185503694112413,120.79823501990177 18.297715860884637,119.21050277547329 18.02931488805916,118.58435259701218 17.595744085730985,117.82402566846577 17.182819512090646,116.86243304054369 16.976357225328684,116.52699304517591 16.68731002381537,115.94556285417639 16.666663795127533,115.81138650031062 16.70795625250321,115.72193556526327 17.038295911392197,115.11814107387909 17.24475819815416,114.9616015679785 17.492512942291796,114.9616015679785 17.657682771794498,114.8274247852969 17.905437515932135,114.78269917811849 17.905437515932135,114.49198257277021 17.843498829868622,114.17890284466557 17.884791287244298,114.0670885789441 17.94672997330781,114.0 18.049961116747,114.0 18.091253574122675,114.04472572091618 18.194484717445448,114.33544274856104 18.318362089572474,115.5653963664081 18.504178147763014,116.12446456833277 18.380300775635988,116.30336617855937 19.784244325826876,117.30968579923501 19.92876792664174,117.46622411123826 20.052645298768766,117.73457531820168 20.279753814218566,118.42781485349406 20.46556987229269,118.78561529325088 20.919786903308704,119.54593984727398 21.10560296138283,119.9708262803033 21.49788130633533,120.64169840185787 21.91080587997567,121.15603270521387 22.819239941891283,122.45304582911194 23.74832023261115,123.57115620622062 24.099306120187975,123.9513128096296 24.739339209278114,124.46564158477122 25.1316175541142,124.82343500870047 25.95746670139488,125.42721046882798 26.205221445532516,125.56138263255707 27.547226309776306,126.56767199697788 28.207905627554283,127.08199640226667 29.198924604221247,127.95410973497201 29.48797180573456,128.11064263581648 31.057085185544565,129.36290297837695 31.697118274634704,129.76541414987878 32.25456644897349,130.23500985177816 33.12170805351343,130.86113634044887 33.885618514730595,131.30836876729154 35.4547318945406,132.53825459224754 36.46639709977899,133.25382226676447 37.35418493312318,133.99174968976877 37.97357179352548,134.37189342980855 38.241972766350955,134.61786854095408 38.778774712001905,134.9756501701777 39.54268517321907,135.57940572701045 40.40982677787542,136.16079884837382 41.83441655675415,137.23413711224566 42.16475621564314,137.43538762029493 42.5363883319078,137.77080484153703 44.00227056827862,138.88885960771586 44.27067154110409,139.11247007391648 45.86043114948552,140.23051997006405 46.644987839390524,140.99079158133827 47.78053041687235,141.79578300684807 48.56508710666094,142.44424679194344 49.638690998079255,143.2268736800761 50.13420048635453,143.71880956352106 50.980695862323046,144.36726930039003 51.41426666465122,144.85920336269191 51.88912992423866,145.19461250014137 52.1368846683763,145.53002127239597 52.40528564131819,145.64182411538786 53.62341313343495,146.67040836668457 53.87116787757259,146.98345506581245 54.180861307890154,147.13997829606524 54.304738679900765,147.29650144680636 54.46990850940347,147.58718708722154 54.71766325342469,147.74371001074906 55.31640388513915,148.25799905671738 55.68803600152023,148.481602721964 56.41065400536172,149.15241274394793 56.94745595101267,149.55489805605612 57.15391823777463,149.756140514859 57.46361166797578,150.15862503819517 57.67007395485416,150.18098527411348 57.67007395485416,150.20334550834377 57.628781497478485,150.18098527411348 57.64942772616632,150.22570574094425 57.89718247030396,150.4045875436277 58.124290985870175,150.67291005284642 58.22752212919295,150.94123232839047 58.661092931521125,151.18719420899288 58.888201446970925,151.2542746878462 59.23918733454775,151.65675725403707 60.312791225966066,152.55116107413778 61.179932830506004,153.400842298317 62.12965934991371,154.20580129660084 62.35676786536351,154.42940064510913 62.54258392343763,154.49648041801993 62.439352779998444,154.5635601763497 62.50129146606196,154.518840339093 62.76969243900385,154.7424394604168 63.141324555152096,155.2343569561781 63.905235016252846,155.90515227557626 64.60720679152291,156.41942769815796 65.30917856667656,157.06786070312955 65.63951822556555,157.22437881023507 65.80468805495184,157.31381769289146 66.69247588817962,158.2529243933095 68.11706566717476,159.48270264899475 68.32352795405313,159.57214087611646 68.59192892687861,159.92989352508448 68.7570987562649,160.19820773921674 69.25260824465659,160.6901165250165 70.63590556627605,161.76336933195125 71.48240094212815,162.3670723931573 72.59729729092214,163.48503790193354 72.76246712030843,163.6862712628208 72.84505203505978,163.90986373188207 72.92763694981113,164.0216599055857 73.2992690660758,164.13345603868947 73.54702381021343,164.2676113448979 73.7534860969754,164.49120339215733 73.93930215516593,164.87130950018764 73.9805946124252,164.9160278349591 74.43481164344121,165.07254195580026 75.03355227515567,165.51972472001216 75.69423159293365,166.16813857553643 76.72654302697629,167.04014126464608 77.07752891455311,167.4649621937424 77.59368463163264,167.9568593800359 78.70858098042663,168.80649812528281 79.57572258496657,169.54434039845364 80.25704813143238,170.0585930594243 80.50480287557002,170.3045396808302 81.10354350728448,170.68463861884084 81.59905299567617,171.04237836765242 82.07391625538003,171.310682906711 83.33333620475605,172.2273883195594" stroke="#4dd2ff" stroke-linecap="round" stroke-linejoin="round" stroke-width="0.5"><title>2024-01-08 11.0km</title></polyline><polyline fill="none" points="180.46817864163313,174.7047534459125 178.9565270000603,173.74072333086224 178.38545860216254,173.19504426444473 177.05856438347837,172.08549316691642 176.50429211487062,171.57618937952793 176.05079662252683,171.19421086001967 175.53011661261553,170.66671575728105 175.00943660276243,170.17559862950293 174.32079529942712,169.57534305572335 173.7833191601676,169.1569822604215 173.64895012538182,169.06603416906728 173.4977849611896,169.0114652984048 173.31302753835917,168.99327567222645 173.16186237416696,169.0296549233026 172.70836688176496,169.39344714356412 172.3556481653941,169.61172222229652 172.23807525989832,169.73904926382238 171.73419137945166,170.39387302732212 170.84399652382126,171.44886327099812 170.5080739367986,171.88540965950233 169.5171023051371,172.95858296685037 168.559722932172,173.94080535764806 168.15661582775647,174.45010434178403 167.83748937008204,174.7956994917913 167.7367125939927,174.90483470339677 167.46797452442115,175.0685374316963 167.03127516130917,175.72334727612906 166.0067112709512,176.9238275495154 165.28447770886123,177.72414453877718 164.76379769900814,178.17886896288837 164.39428285328904,178.70634826179594 162.47952410730068,180.79806559202552 162.21078603778733,181.18002948143112 161.8916595801129,181.45286047481932 161.1526298886747,182.25316300967825 160.51437697332585,183.0534629905742 160.1784543863032,183.3990462837246 159.38903630682034,184.472170316556 159.22107501333812,184.76318621190148 158.7507833915297,185.27246321627172 158.70039500348503,185.41797074186616 158.51563758065458,185.72717395343352 158.2972878990695,185.90905801745248 158.0789382175426,186.0 157.91097692400217,185.9818116061506 157.67583111312706,185.8544928120973 157.42388917290373,185.59985503015923 157.1719472326222,185.2542747696716 155.64349946175935,182.6896905885951 155.40835365082603,182.18040833932173 154.83728525292827,181.38010557224334 154.4173820191645,180.5616114641889 154.1822362082312,180.21602426085155 154.01427491474897,179.8886254184181 153.84631362126675,179.72492583686835 153.67835232772632,179.52484842546983 153.37602199945832,178.96099304346717 153.10728392982855,178.54264790847083 152.87213811895344,178.08792414405616 152.68738069600658,177.88784542649228 152.51941940252436,177.63319955505722 152.13310842745705,176.88744944384962 151.7803897112026,176.39634450089943 151.52844777092105,175.79610381992825 150.85660259687575,174.57742892614624 149.9328154825489,173.06771897808358 149.66407741303556,172.576606553499 149.00902836833848,171.55799993941037 148.82427094550803,171.33972655510297 147.63174576155143,169.35706794528232 147.21184252784587,168.9205171542999 146.74155090603745,168.50215526625107 146.43922057771124,168.1929308133549 146.0361134732957,167.86551627099107 144.74281151330797,166.7013722128322 144.44048118503997,166.41033535357565 144.28931602084776,166.1556778246013 144.0205779512762,165.97377943120955 143.29834438918624,165.33713401498972 140.76212885731366,162.9906269472849 139.9055262603797,162.24483327919734 138.2595055840793,160.7350490605604 137.83960235031554,160.38943452655803 137.55406815139577,160.08020006585866 135.82406682829605,158.53402203960286 135.35377520648763,158.07926198137284 134.09406550513813,157.00602497247746 131.27231577428756,154.45934249236598 130.9867815753678,154.1682914183475 130.6172667296487,153.7499049072212 130.21415962523315,153.149609997301 129.97901381429983,152.54931364947697 129.8110525208176,151.74891628227488 129.74386800342472,150.65746120714175 129.84464477951406,150.12992288345413 129.9454215556616,149.80248474459222 130.16377123713028,149.18398931501724 130.3989170480636,148.76559448232 132.02814159501577,146.4189322561433 132.61600612231996,145.527558674381 133.0191132267355,144.98181818173907 133.43901646044105,144.32692802160454 133.7581429181737,143.76299345649022 134.04367711709347,142.8898019483022 134.16125002258923,142.07118214550428 134.144453893241,141.50724250318308 134.0604732464999,141.2161763847107 134.01008485845523,140.8523432610673 133.89251195290126,140.39755111355043 133.79173517687013,140.10648370583658 133.43901646044105,139.34243015178072 133.27105516695883,139.06955331774952 132.98552096803905,138.68752525080345 132.31367579399375,137.88708360244345 131.8937725602882,137.34132646677608 131.65862674935488,137.10483133875823 131.440277067828,136.79556814217358 130.7684318937827,136.44992058827484 130.49969382415293,136.2498086285923 130.34852865996072,136.04969650902785 130.1133828490856,135.59489564283285 129.92862542625517,135.32201472680026 128.9712460532901,133.43003220025275 128.6857118543121,132.97522657783702 127.79551699873991,131.24695768175297 126.88852601387771,129.57325433239748 126.73736084974371,129.33675187035988 126.01512728765374,127.91773240841576 125.67920470063109,127.35376090256614 125.14172856137156,126.33497044706019 124.60425242217025,125.44352539900865 124.36910661123693,124.91593397792894 123.66366917855339,123.47869653790258 123.26056207413785,122.51446932859835 123.17658142739674,122.25976718173479 123.02541626320453,121.51385226148705 122.50473625335144,120.62239005227457 122.06803689023945,119.51260613289196 121.51376462174812,118.38462399458513 121.1946381640737,117.60231081786333 120.94269622385036,117.20205661954242 120.47240460198373,116.14683793899894 120.27085104980506,115.58283992412908 119.95172459213063,114.94606644500163 119.54861748771509,114.0 119.53182135836687,114.0545808536117 119.58220974641154,114.12735530656937 119.76696716930019,114.36387213264243 119.98531685088528,114.69135659994208 120.82512331829639,116.56528725817043 121.07706525863614,117.18386323167942 121.95046398486011,119.05777523684083 122.48794012406142,120.29491334165505 122.63910528813722,120.54961748696223 122.94143561652163,121.20456981372263 123.1429891687585,121.64120374666527 123.24376594484784,122.09602995056775 123.39493110904004,122.58724132296629 123.61328079050872,123.07845173191163 123.68046530790161,123.29676715990354 123.83163047209382,123.64243286509009 124.23473757650936,124.33376284415135 124.55386403418379,124.97051245236071 124.62104855157668,125.17063342338952 124.77221371571068,125.37075423458009 124.92337887984468,125.77099537718459 125.36007824295666,126.4623194806627 125.71279695932753,127.17183433944592 126.23347696912242,128.08146583357302 126.41823439206928,128.49989521152747 126.65338020294439,128.88193881566986 126.80454536707839,129.20940429827897 128.03066280967323,131.39249657488836 128.41697378474055,132.13838207510707 128.58493507822277,132.52042012973106 129.10561508807587,133.41183999119676 129.62629509792896,134.44879379787017 129.91182929684874,134.97636513972247 130.1805673665367,135.34020679710375 130.34852865996072,135.70404792601767 130.6172667296487,136.17704060363758 130.90280092862668,136.79556814217358 131.32270416233223,137.35951839042536 132.01134546572575,138.56018243235303 132.4984332168242,139.30604659106757 133.2542590376106,140.56127638173348 133.52299710724037,141.0888348515582 133.74134678882547,141.39809274839354 133.9261042116559,141.72554187016794 133.9261042116559,141.79830828355625 133.89251195290126,141.79830828355625 133.8421235648566,141.74373347547953 133.6909584007808,141.39809274839354 133.11989000288304,140.5430846905656 132.81755967455683,139.99733334081247 132.59920999297174,139.70626546813583 132.24649127660086,139.0877451159613 131.92736481892643,138.65114159496443 131.02037383400602,137.06844745308626 130.66765511769336,136.48630456380488 130.53328608290758,136.21342461874883 130.26454801327782,135.83139219631266 129.76066413277294,134.95817304302182 129.60949896858074,134.5943308307469 129.25678025220986,133.93941351695685 128.16503184451722,131.95645898718794 127.94668216287391,131.44707363803172 127.64435183466412,131.0104568000388 127.4092060237308,130.55564678444352 127.35881763568614,130.3737225469813 127.1068756954046,129.97348875946773 127.07328343676636,129.88252644582826" stroke="#4dd2ff" stroke-linecap="round" stroke-linejoin="round" stroke-width="0.5"><title>2023-12-31 10.1km</title></polyline><polyline fill="none" points="81.25711460964521,255.7130171994213 81.04234585177619,255.64145407726755 80.64584968338022,255.30152896336222 79.90241936757229,254.8184766797931 79.10942703078035,254.1386237149418 78.1512279571034,253.4050960456516 77.2095495571848,252.8683671005274 76.96173945185728,252.77891216275748 76.9286981045152,252.74313017858367 76.89565675717313,252.56422017978912 76.86261540977284,252.528438164416 75.73920959926909,251.68755930944462 75.35923410457326,251.3297376504197 74.48363839939702,250.6498750679457 74.12018357828492,250.2562695582601 73.83933212567354,249.88055462205375 73.59152202040423,249.71953375985322 72.26986812567338,248.556602188939 71.989016673062,248.3597978420148 71.80728926253505,248.27034126875515 71.60904117830796,248.2524499502324 71.4603551151231,248.28823258598277 70.98125557834283,248.71762381048757 69.9900151573238,249.91633702156832 69.64308100997005,250.39939890720416 69.16398147313157,250.98980659346853 68.38750980998157,251.72334144677734 67.39626938896254,252.9399310273584 66.83456648373976,253.4945507562661 66.55371503112838,253.6376782258012 65.90940875740489,254.33542345011665 65.71116067323601,254.60378647231846 65.56247461010935,254.8363675220171 65.18249911535531,255.1941840932559 63.92692791536683,256.60755447456904 63.695638483797666,256.8401336346724 62.985249515390024,257.734666821867 61.96096774702892,258.87966456737195 61.72967831545975,259.23747527282103 61.465347536606714,259.3984899209172 61.267099452379625,259.55950446389033 60.27585903130239,260.72238415363245 59.73067679972155,261.2412056311441 59.53242871555267,261.5274514964549 59.00376715767197,262.0462712807057 58.49162627349142,262.70821217972843 58.062088757695165,263.1017978181044 57.63255124189891,263.5490534631681 57.516906526114326,263.7279554941051 57.3847411366296,263.7637358846987 57.33517911552917,263.8174064608902 57.203013726102654,263.9963082971808 57.153451705060434,264.4435623203899 56.98824496829184,264.7476945929666 56.6908728419221,265.0160462867643 56.62479014717974,265.0339363893145 56.39350071555236,264.9981561829627 56.14569061034126,265.14127697735967 55.815277136687655,265.4811885312374 55.617029052518774,265.7674294765311 55.418780968291685,266.0 55.74919444194529,265.4811885312374 56.09612858929904,265.0697165905149 56.11264926294098,264.90870564429497 56.03004589455668,264.67613409197656 55.79875646298751,264.3720017311716 55.63354972616071,263.9963082971808 55.40226029459154,263.60272408601304 55.220532884064596,263.44171218229167 54.79099536832655,262.8692245622515 54.37797852617223,262.1715034789231 53.98148235777626,261.4201093358861 53.40325877891155,260.4361373540596 52.907638568314724,259.7205189017841 52.49462172621861,258.9691172924213 52.213770273607224,258.5755250596412 51.98248084203806,258.18193219878594 51.51990197895793,257.5020885052945 51.222529852588195,256.9295870993665 50.429537515796255,255.65934485972684 50.181727410526946,255.05105752703093 50.06608269480057,254.60378647231846 49.90087595785735,254.2638599282218 48.777470147411805,252.528438164416 48.14968454744667,251.45497529013664 47.81927107379306,250.97191547224065 47.68710568425013,250.72143963859708 46.728906610631384,249.20068804427865 46.36545178957749,248.556602188939 45.9193936001393,248.07353669340955 44.8620704843197,247.16107706430194 43.32564783177804,245.7476525414968 42.38396943185944,244.96042524374207 41.90486989496276,244.47735270300473 40.484091958147474,243.2249380045978 39.04679334774846,241.8472744885512 38.18771831615595,241.13160209140915 37.62601541093318,240.5948464302346 36.899105768767186,239.9865219349158 36.42000623198692,239.50343964877538 33.908863832068164,237.26693524763687 32.917623411049135,236.35443562410364 32.52112724259496,236.01448392047314 31.8437796215876,235.37036361733044 31.331638737407047,234.94094914691232 30.670811790041625,234.33261069998844 29.910860800591763,233.58113172229787 29.44828193745343,232.97278991957137 29.25003385328455,232.61494109901832 28.870058358530514,231.5950691102771 28.85353768483037,231.45192884436983 28.78745499008801,230.70044108449656 28.803975663729943,230.25312585398206 28.803975663729943,229.66266850668762 28.870058358530514,229.57320514885942 28.820496337488294,229.55531247339968 28.88657903217245,229.39427833577793 28.919620379572734,229.2153513928206 28.820496337488294,229.35849295760272 28.78745499008801,229.286922185609 28.820496337488294,229.19745869140024 28.90309970587259,229.03642431997287 29.068306442757603,228.87538984336425 29.481323284853715,228.12389422803244 30.059546863718424,227.21136075757386 31.397721432091203,225.3683907012164 32.4550445479108,223.77591033028148 32.868061390006915,222.93493339820998 33.08283014781773,222.27288570937526 33.099350821517874,222.07606037786172 33.066309474234004,221.77187546537607 32.76893734786427,221.30665075530123 32.63677195843775,221.03825148462784 32.471565221610945,220.8414251669601 32.28983781102579,220.4298787221196 31.975945011072326,219.92886473113322 31.64553153741872,219.55310356942937 31.52988682151772,219.2847023888171 31.397721432091203,219.05208779583336 31.265556042664684,218.78368606952426 30.88558054791065,218.26477523639915 30.70385313744191,217.90690505962993 30.389960337488446,217.33431169575488 29.365678568952717,215.70599204517202 29.216992505884264,215.34811815214925 28.0935866953223,213.36190859798808 27.8457765901112,212.80719856494397 27.35015637957258,212.00197210120677 27.151908295345493,211.53672894489137 26.309353937511332,210.05152375924808 26.160667874326464,209.7115357706789 25.71460968494648,208.85261665692087 25.516361600719392,208.56630962023337 24.98770004278049,207.51054954669962 24.723369263927452,207.0631922186294 24.425997137557715,206.4905736531946 24.227749053330626,205.97163692864706 23.25302930601174,204.30745316202228 22.377433600835502,202.2316813084326 22.21222686395049,201.5516832768335 21.60096193762729,200.1916815818695 21.46879654820077,199.7979954792827 21.25402779027354,199.33272927397047 20.989697011362296,198.88535709392454 20.279308042954654,197.2390204739786 19.96541524300119,196.5947988009575 19.139381558808964,194.69791408936726 18.742885390412994,194.01789525779895 19.651522442989517,195.93268032553897 19.99845659028506,196.5947988009575 20.21322534821229,197.18533539889904 20.626242190308403,198.06219015955867 21.05577970610466,199.06430606346112 21.61748261138564,200.15589196221845 21.931375411339104,200.92536763958924 22.179185516608413,201.44431499496568 22.4600369692198,202.41062784685346 22.972177853400353,203.66324997592892 23.633004800765775,205.0769158708572 24.442517811257858,206.3832075240498 25.152906779607292,207.68949225047254 25.417237558576744,208.24421380620333 25.69808901118813,208.69156898974325 26.243271242827177,209.65785341378069 26.63976741116494,210.49887566102552 26.95366021117661,211.01780284947017 27.036263579619117,211.25042502742144 27.217990990146063,211.6083048722503 27.99446265323786,212.86088023564662 28.30835545330774,213.45137784119288 28.40747949539218,213.7376792011055 29.365678568952717,215.47337407381565 29.762174737465102,216.2606955521769 30.274315621645655,217.01222734387557 31.215994021622464,218.62264489343215 31.562928168918006,219.12366154014308 32.63677195843775,220.94878499607148 33.1489128426183,221.71819573592802 33.16543351626024,222.00448749103816 33.066309474234004,222.43392450010288 32.81849936890649,223.16754432609014 32.63677195843775,223.5432999765908 32.27331713744206,224.1516650532285 31.79421760054538,224.79581467394019 31.381200758449268,225.4399626110826 31.067307958437596,225.86939363388228 30.406481011072174,226.83561069943244 30.73689448472578,226.28093099527177 32.20723444264149,224.1874511874339 32.6202512846794,223.4717275159055 32.81849936890649,223.06018546356063 33.08283014781773,222.1297400293406 33.08283014781773,221.71819573592802 32.901102737290785,221.43190364823386 32.65329263207968,220.9666782963468 32.405482526810374,220.62670536844234 31.94290366367204,219.85729122067278 31.69509355846094,219.5352101664903 31.52988682151772,219.1773418347293 30.918621895252727,218.26477523639915 30.29083629528759,217.22695029186434 29.960422821633983,216.6185681197967 29.563926653238013,216.0101844455785 29.216992505884264,215.38390556482773 28.721372295345645,214.3281747053261 28.30835545330774,213.6839977214404 28.010983326938003,213.05771292807185 27.184949642745778,211.590410892386 26.95366021117661,211.08937892758695 26.63976741116494,210.58834594390646 25.86329574813135,209.06734671608137 25.367675537534524,208.20842535643897 24.98770004278049,207.47476099037158 24.60772454808466,206.83056608693732 24.128625011246186,205.88216496909445 23.781690863950644,205.32743809458043 23.071301895543,204.03903537255246 22.294830232392997,202.16010265667865 22.146144169208128,201.49799914174946 21.584441263985354,200.29905040976882 21.287069137673825,199.52957277576206 20.989697011362296,198.90325199675863 20.60972151660826,198.16955991568102 20.147142653469928,197.0242801035347 19.948894569301046,196.72006425824657 19.668043116631452,196.11163144039165 19.321108969277702,195.14529387558287 19.040257516666315,194.6263332481467 18.90809212718159,194.23263824953756 18.75940606405493,194.0 18.842009432497434,194.25053349039808 19.10634021140868,194.71580929640913 19.96541524300119,196.55900865865988 20.394952758797444,197.63271066683228 20.65928353765048,198.1337700021686 21.353151832416188,199.63694189226953 21.766168674454093,200.442208774155 22.245268211408984,201.67694621317787 22.90609515865799,203.52009348358843 23.36867402185453,204.52218718298536 24.11210433760425,205.7926929770474 24.525121179642156,206.6516227592656 25.45027890591882,208.29789647113648 25.69808901118813,208.65578060495318 25.81373372703092,208.90629918925697 26.144147200742736,209.47891213970433 26.4580400006962,210.12310011817317 26.804974147991743,210.7493923712318 27.151908295345493,211.5188349597738 27.44928042171523,211.96618419731385 27.680569853284396,212.4493204615428 29.365678568952717,215.4912677717366 29.64653002162231,216.09965272716363 30.009984842676204,216.69014257095114 30.224753600545228,216.9585465776181 31.182952674280386,218.58685795111523 31.74465557950316,219.46363654171 32.38896185311023,220.55513206070464 32.93414408469107,221.41401038171898 32.868061390006915,221.27086420278647 32.73589600052219,221.14561122799932 32.58720993733732,220.91299839159183 32.28983781102579,220.3761987003818 31.331638737407047,218.85525989183225 31.10034930583788,218.42581664636964 29.25003385328455,215.43758667413204 29.002223747957032,214.90077505490626 28.30835545330774,213.64821006187412 27.829255916469265,212.87877412326634 27.581445811141748,212.37774477846688 27.168428969103843,211.69777475224691 26.358915958553553,210.05152375924808 25.912857769115362,209.24628828908317 25.516361600719392,208.4052617658599 23.765170190192293,205.34533252936671 23.10434324282687,204.02114084282948 22.823491790215485,203.28746400606178 22.426995621819515,202.44641713897 22.096582148224115,201.3190519403288 22.19570619025035,201.4801044274791 22.493078316561878,202.3748385496001 22.625243706046604,202.6432581524714 22.922615832358133,203.5379880496621 23.1539052639273,204.05692990096577 23.46779806393897,204.68323757589678 23.89733557961881,205.36322696288698 24.079062990203965,205.75690417113947 23.880814906035084,205.48848796103266 23.633004800765775,205.00533804582665" stroke="#4dd2ff" stroke-linecap="round" stroke-linejoin="round" stroke-width="0.5"><title>2023-12-24 16.0km</title></polyline><polyline fill="none" points="122.4413793105632,227.58045094367117 124.92413793317974,231.88202419690788 145.77931034564972,256.0783272534609 153.22758620604873,262.5306614008732 157.2000000011176,264.1437440607697 165.14482758753002,265.2191323065199 172.0965517256409,263.06835566135123 178.05517241358757,258.2291059261188 182.02758620679379,252.3144630738534 184.51034482754767,246.39981550443918 184.51034482754767,241.5605548932217 183.02068965695798,234.5705062127672 178.05517241358757,227.04275411227718 159.1862068977207,207.14794391719624 149.75172413885593,198.5447662207298 143.29655172675848,196.3939702375792 135.84827586263418,196.9316692915745 131.8758620712906,198.5447662207298 125.91724137961864,202.30865769088268 121.94482758827507,208.22334042564034 119.46206896565855,214.6757162134163 118.96551724150777,221.66578364698216 120.95172413811088,228.1181477373466 139.32413793168962,249.6259874915704 155.21379310265183,264.68143820390105 159.68275862187147,265.7568263700232 166.6344827581197,265.2191323065199 180.04137931205332,258.2291059261188 185.50344827771187,245.86212003650144 185.50344827771187,239.40977138560265 183.51724137924612,232.95741711976007 158.68965517356992,204.9971504281275 149.25517241470516,198.00706728361547 143.29655172675848,195.85627114400268 136.8413793090731,195.31857201084495 130.38620689697564,196.9316692915745 124.92413793317974,200.69556158035994 117.97241379320621,214.13801844557747 117.47586206905544,220.05269174696878 119.46206896565855,228.65584449097514 141.8068965524435,252.85215807380155 153.7241379301995,263.06835566135123 163.1586206909269,264.68143820390105 171.60000000149012,263.60604987991974 175.57241379469633,261.45527276722714 182.5241379328072,254.4652428389527 185.00689655169845,248.5505969855003 185.00689655169845,242.63594641303644 183.51724137924612,237.25898725399747 180.5379310362041,231.34432767610997 155.21379310265183,202.30865769088268 146.77241379208863,195.85627114400268 140.31724137999117,194.78087283996865 134.85517241433263,195.31857201084495 125.42068965360522,201.23326032282785 121.94482758827507,206.0725472504273 118.96551724150777,214.13801844557747 118.46896551735699,222.74117805203423 120.45517241582274,228.1181477373466 137.8344827592373,248.5505969855003 150.74482758529484,259.84218952199444 158.68965517356992,261.99296710267663 167.6275862082839,261.99296710267663 173.0896551720798,259.84218952199444 178.05517241358757,256.0783272534609 180.5379310362041,252.85215807380155 184.01379310525954,243.71133777685463 185.00689655169845,239.94746732059866 183.51724137924612,236.18359495466575 165.6413793116808,212.52492490876466 148.75862069055438,196.9316692915745 143.29655172675848,195.31857201084495 134.85517241433263,195.85627114400268 128.40000000037253,198.00706728361547 124.42758620716631,201.77095902664587 118.46896551735699,211.44952902151272 116.97931034490466,217.3642044677399 117.47586206905544,222.74117805203423 119.46206896565855,229.19354120548815 149.25517241470516,259.30449502915144 156.70344827510417,263.60604987991974 164.6482758615166,265.7568263700232 171.10344827733934,263.60604987991974 178.05517241358757,259.30449502915144 184.01379310525954,251.23907295661047 186.0,242.63594641303644 183.51724137924612,234.0328098880127 159.1862068977207,205.534848859068 150.74482758529484,198.00706728361547 146.77241379208863,195.85627114400268 140.81379310414195,194.78087283996865 132.37241379357874,195.31857201084495 126.9103448279202,198.5447662207298 120.95172413811088,204.4594519585371 117.97241379320621,209.83643489982933 116.97931034490466,217.3642044677399 117.47586206905544,222.74117805203423 119.95862068980932,228.65584449097514 134.35862069018185,245.32442453037947 149.75172413885593,259.84218952199444 154.71724138222635,263.06835566135123 160.67586207017303,265.2191323065199 166.6344827581197,264.68143820390105 175.0758620686829,261.45527276722714 179.5448275860399,258.2291059261188 184.51034482754767,247.47520632250234 185.00689655169845,241.5605548932217 183.51724137924612,235.64589874679223 180.5379310362041,230.26893451949582 160.17931034602225,206.61024560360238 149.25517241470516,198.00706728361547 143.7931034490466,195.31857201084495 138.33103448338807,194.78087283996865 131.3793103452772,196.3939702375792 125.42068965360522,199.6201639790088 120.45517241582274,206.61024560360238 117.47586206905544,214.13801844557747 117.47586206905544,220.59038908500224 119.46206896565855,227.58045094367117 127.90344827622175,237.796683346387 141.8068965524435,252.85215807380155 154.71724138222635,263.60604987991974 160.67586207017303,265.2191323065199 167.13103448413312,264.68143820390105 173.58620689809322,262.5306614008732 178.551724139601,258.7668004981242 182.5241379328072,253.92754795681685 185.00689655169845,248.01290167309344 185.00689655169845,241.5605548932217 183.51724137924612,235.1082024979405 166.13793103583157,216.2888092827052 160.17931034602225,208.22334042564034 149.25517241470516,198.5447662207298 141.8068965524435,195.85627114400268 136.34482758678496,194.78087283996865 128.8965517245233,196.3939702375792 124.42758620716631,200.15786279877648 120.45517241582274,204.9971504281275 117.97241379320621,210.91183102037758 116.97931034490466,216.82650689408183 118.46896551735699,225.42966338153929 121.44827586226165,230.26893451949582 133.86206896416843,244.24903340125456 154.71724138222635,263.60604987991974 161.1724137943238,265.2191323065199 166.6344827581197,264.68143820390105 172.0965517256409,263.06835566135123 177.06206896714866,259.84218952199444 181.531034482643,254.4652428389527 184.01379310525954,248.5505969855003 185.00689655169845,239.94746732059866 183.51724137924612,235.1082024979405 182.02758620679379,232.41972067859024 160.67586207017303,209.83643489982933 148.26206896454096,198.5447662207298 142.30344827473164,195.85627114400268 136.8413793090731,195.31857201084495 130.38620689697564,196.3939702375792 125.42068965360522,199.08246511826292 120.95172413811088,203.384054902941 117.47586206905544,210.37413297966123 116.48275862261653,217.90190200181678 117.97241379320621,224.8919663936831 120.95172413811088,229.7312378808856 140.81379310414195,251.23907295661047 155.21379310265183,263.60604987991974 163.6551724150777,264.68143820390105 169.61379310302436,264.1437440607697 175.57241379469633,261.45527276722714 180.04137931205332,257.1537166670896 183.02068965695798,252.3144630738534 184.51034482754767,245.32442453037947 184.01379310525954,238.33437939779833 183.02068965695798,234.5705062127672 161.66896551661193,210.37413297966123 146.2758620698005,196.9316692915745 140.81379310414195,194.78087283996865 135.35172413662076,194.24317362951115 129.88965517282486,195.85627114400268 121.94482758827507,201.77095902664587 115.98620689660311,211.44952902151272 116.48275862261653,220.59038908500224 118.46896551735699,225.96736033027992 148.26206896454096,258.7668004981242 154.22068965621293,262.5306614008732 159.1862068977207,264.68143820390105 165.6413793116808,265.2191323065199 171.60000000149012,263.60604987991974 177.55862069129944,258.7668004981242 183.51724137924612,249.6259874915704 185.00689655169845,242.63594641303644 184.01379310525954,236.72129112342373 179.04827586375177,230.26893451949582 162.66206896677613,212.52492490876466 155.71034482866526,203.384054902941 150.2482758630067,198.00706728361547 145.77931034564972,195.31857201084495 133.86206896416843,194.78087283996865 128.40000000037253,196.9316692915745 123.4344827607274,200.69556158035994 119.46206896565855,205.534848859068 116.48275862261653,212.52492490876466 116.48275862261653,220.05269174696878 117.97241379320621,225.96736033027992 139.8206896558404,249.6259874915704 153.22758620604873,261.99296710267663 160.67586207017303,264.68143820390105 166.13793103583157,265.2191323065199 171.60000000149012,264.1437440607697 178.05517241358757,259.84218952199444 183.51724137924612,250.16368268523365 184.51034482754767,242.09825067222118 183.51724137924612,236.18359495466575 155.71034482866526,204.9971504281275 148.26206896454096,198.00706728361547 139.8206896558404,195.31857201084495 135.84827586263418,195.31857201084495 128.40000000037253,196.9316692915745 123.4344827607274,200.15786279877648 116.97931034490466,209.2987367818132 115.48965517058969,218.43959949584678 117.97241379320621,226.50505724083632 121.94482758827507,231.34432767610997 149.25517241470516,258.7668004981242 155.21379310265183,263.06835566135123 160.17931034602225,264.68143820390105 169.11724138073623,265.2191323065199 175.0758620686829,262.5306614008732 179.5448275860399,258.2291059261188 183.02068965695798,253.3898530350998 184.51034482754767,246.9375109327957 184.51034482754767,241.02285907510668 182.02758620679379,233.495113523677 158.68965517356992,207.6856421912089 150.74482758529484,200.15786279877648 144.2896551731974,196.3939702375792 138.82758620753884,194.24317362951115 132.37241379357874,195.31857201084495 127.40689655207098,197.46936830691993 121.44827586226165,202.30865769088268 116.97931034490466,208.22334042564034 114.49655172415078,214.6757162134163 114.99310344830155,222.20348086813465 117.97241379320621,228.1181477373466 148.26206896454096,258.7668004981242 153.22758620604873,262.5306614008732 162.1655172407627,265.2191323065199 168.62068965658545,264.68143820390105 176.0689655188471,260.91757838986814 180.5379310362041,257.1537166670896 183.02068965695798,252.3144630738534 184.51034482754767,245.86212003650144 181.531034482643,233.495113523677 178.551724139601,228.65584449097514 163.6551724150777,215.2134139421396 150.74482758529484,200.69556158035994 143.7931034490466,195.85627114400268 137.8344827592373,194.78087283996865 130.8827586211264,195.31857201084495 125.91724137961864,198.00706728361547 119.95862068980932,202.84635631740093 116.48275862261653,209.2987367818132 114.99310344830155,216.82650689408183 115.98620689660311,223.81657230015844 118.46896551735699,228.65584449097514 137.3379310350865,248.01290167309344 150.2482758630067,260.3798839757219 155.21379310265183,263.60604987991974 160.67586207017303,264.68143820390105 170.11034482903779,264.1437440607697 174.57931034639478,262.5306614008732 181.03448275849223,256.61602197913453 184.01379310525954,249.6259874915704 184.51034482754767,243.71133777685463 184.51034482754767,237.796683346387 182.02758620679379,232.41972067859024 154.71724138222635,202.84635631740093 145.77931034564972,196.3939702375792 140.31724137999117,195.31857201084495 133.36551724374294,195.31857201084495 126.41379310563207,198.00706728361547 120.45517241582274,203.92175345029682 116.48275862261653,209.83643489982933 114.99310344830155,215.75111163267866 115.98620689660311,223.27887519588694 117.47586206905544,227.04275411227718 147.26896551810205,257.69141131686047 155.21379310265183,262.5306614008732 160.67586207017303,264.68143820390105 166.6344827581197,264.68143820390105 175.57241379469633,261.45527276722714 180.04137931205332,257.1537166670896 183.51724137924612,252.3144630738534 184.51034482754767,248.5505969855003 185.00689655169845,241.02285907510668 183.51724137924612,235.1082024979405 160.17931034602225,207.14794391719624 147.26896551810205,196.3939702375792 139.32413793168962,194.24317362951115 132.37241379357874,194.78087283996865 126.9103448279202,196.9316692915745 120.45517241582274,202.84635631740093 116.97931034490466,208.22334042564034 114.99310344830155,214.6757162134163 115.48965517058969,223.27887519588694 117.97241379320621,228.1181477373466 149.25517241470516,259.84218952199444 154.22068965621293,263.60604987991974 160.17931034602225,265.2191323065199 167.6275862082839,265.7568263700232 176.0689655188471,261.99296710267663 180.04137931205332,258.2291059261188 184.51034482754767,248.01290167309344 184.01379310525954,237.796683346387 182.5241379328072,232.95741711976007 169.61379310302436,217.3642044677399 155.21379310265183,201.77095902664587 148.75862069055438,196.3939702375792 142.80000000074506,194.24317362951115 136.34482758678496,194.24317362951115 128.40000000037253,196.9316692915745 120.45517241582274,203.384054902941 114.0,214.6757162134163 114.0,219.51499436888844 115.48965517058969,225.42966338153929 147.26896551810205,257.1537166670896 153.22758620604873,261.99296710267663 164.15172413922846,265.7568263700232 178.551724139601,259.30449502915144 180.5379310362041,256.61602197913453 183.51724137924612,248.01290167309344 184.01379310525954,242.09825067222118 182.02758620679379,235.64589874679223 164.6482758615166,214.13801844557747 147.26896551810205,196.3939702375792 142.30344827473164,194.24317362951115 135.84827586263418,194.24317362951115 128.40000000037253,195.85627114400268 122.93793103471398,199.08246511826292 117.97241379320621,204.4594519585371 115.48965517058969,209.2987367818132 114.0,216.82650689408183 114.99310344830155,223.81657230015844 118.46896551735699,228.65584449097514 139.8206896558404,250.16368268523365 149.75172413885593,259.30449502915144 154.71724138222635,263.06835566135123 164.6482758615166,264.68143820390105 172.0965517256409,263.60604987991974 177.06206896714866,260.3798839757219 181.03448275849223,255.5406324872747 184.51034482754767,248.01290167309344 185.00689655169845,240.48516321647912 183.51724137924612,234.5705062127672 180.04137931205332,229.19354120548815 166.13793103583157,213.6003206395544 147.76551724411547,196.9316692915745 143.29655172675848,195.31857201084495 134.35862069018185,194.78087283996865 128.8965517245233,195.85627114400268 122.4413793105632,199.6201639790088 118.46896551735699,203.92175345029682 114.99310344830155,211.98722698539495 114.0,216.82650689408183 115.48965517058969,224.35426936578006 123.93103448115289,235.1082024979405 152.23448275960982,261.45527276722714 158.1931034475565,264.1437440607697 166.6344827581197,264.68143820390105 171.60000000149012,263.06835566135123 178.05517241358757,259.30449502915144 181.531034482643,254.4652428389527 184.51034482754767,246.9375109327957 183.51724137924612,237.25898725399747 181.531034482643,231.88202419690788 159.1862068977207,204.9971504281275 147.76551724411547,196.3939702375792 142.30344827473164,194.78087283996865 136.34482758678496,194.24317362951115 130.38620689697564,195.85627114400268 121.44827586226165,200.69556158035994 118.46896551735699,204.9971504281275 114.99310344830155,211.98722698539495 114.49655172415078,220.05269174696878 115.98620689660311,225.96736033027992 118.96551724150777,230.26893451949582 141.31034482829273,253.3898530350998 154.22068965621293,264.1437440607697 158.68965517356992,265.7568263700232 167.13103448413312,265.7568263700232 170.60689655132592,264.68143820390105 178.05517241358757,259.30449502915144 182.02758620679379,254.4652428389527 184.51034482754767,246.9375109327957 185.00689655169845,241.02285907510668 182.5241379328072,234.0328098880127 177.06206896714866,225.42966338153929 160.17931034602225,207.6856421912089 147.76551724411547,198.5447662207298 139.32413793168962,196.3939702375792 132.37241379357874,196.3939702375792 120.95172413811088,202.84635631740093 116.97931034490466,207.14794391719624 114.99310344830155,213.06262279301882 114.99310344830155,222.20348086813465 116.97931034490466,227.04275411227718 148.26206896454096,258.7668004981242 154.22068965621293,263.06835566135123 160.17931034602225,265.2191323065199 166.6344827581197,265.7568263700232 172.59310344979167,263.60604987991974 179.5448275860399,258.7668004981242 184.01379310525954,251.23907295661047 185.00689655169845,245.32442453037947 185.00689655169845,238.8720754114911 182.02758620679379,231.88202419690788 167.13103448413312,214.6757162134163 147.76551724411547,196.3939702375792 141.8068965524435,194.78087283996865 135.35172413662076,194.78087283996865 128.8965517245233,196.3939702375792 121.44827586226165,202.30865769088268 117.47586206905544,207.14794391719624 115.48965517058969,212.52492490876466 114.49655172415078,221.1280863857828 116.48275862261653,226.50505724083632 132.86896551772952,244.24903340125456 149.75172413885593,259.84218952199444 155.71034482866526,264.1437440607697 163.1586206909269,265.7568263700232 167.6275862082839,265.2191323065199 175.0758620686829,261.99296710267663 182.02758620679379,256.0783272534609 185.00689655169845,248.01290167309344 185.50344827771187,243.1736421152018 183.02068965695798,232.41972067859024 170.11034482903779,217.90190200181678 152.23448275960982,200.15786279877648 146.77241379208863,196.3939702375792 141.31034482829273,195.31857201084495 133.86206896416843,194.78087283996865 127.40689655207098,196.9316692915745 121.94482758827507,200.69556158035994 117.97241379320621,206.0725472504273 115.48965517058969,212.52492490876466 115.48965517058969,221.1280863857828 117.47586206905544,226.50505724083632 143.7931034490466,255.00293768197298 154.22068965621293,263.06835566135123 161.66896551661193,264.68143820390105 168.62068965658545,264.1437440607697 175.0758620686829,261.45527276722714 180.5379310362041,257.69141131686047 183.02068965695798,252.85215807380155 184.51034482754767,243.71133777685463 184.01379310525954,239.40977138560265 181.531034482643,232.41972067859024 157.2000000011176,206.0725472504273 144.78620689734817,196.3939702375792 138.33103448338807,194.78087283996865 130.8827586211264,195.31857201084495 124.42758620716631,198.00706728361547 119.46206896565855,203.384054902941 114.99310344830155,214.13801844557747 114.49655172415078,218.97729695262387 116.48275862261653,226.50505724083632 119.95862068980932,232.41972067859024" stroke="#4dd2ff" stroke-linecap="round" stroke-linejoin="round" stroke-width="0.5"><title>2023-12-17 10.0km</title></polyline></svg>