<?xml version="1.0" encoding="utf-8" ?>
<svg baseProfile="full" height="300mm" version="1.1" viewBox="0,0,200,300" width="200mm" xmlns="http://www.w3.org/2000/svg" xmlns:ev="http://www.w3.org/2001/xml-events" xmlns:xlink="http://www.w3.org/1999/xlink"><defs /><rect fill="#222222" height="300" width="200" x="0" y="0" /><text fill="#FFFFFF" style="font-size:12px; font-family:Arial; font-weight:bold;" x="10" y="20">Over 10km Runs</text><text fill="#FFFFFF" style="font-size:4px; font-family:Arial" x="10" y="280">ATHLETE</text><text fill="#FFFFFF" style="font-size:9px; font-family:Arial" x="10" y="290">kilerd</text><text fill="#FFFFFF" style="font-size:4px; font-family:Arial" x="120" y="280">STATISTICS</text><text fill="#FFFFFF" style="font-size:3px; font-family:Arial" x="120" y="285">Number: 5</text><text fill="#FFFFFF" style="font-size:3px; font-family:Arial" x="120" y="290">Weekly: 1.0</text><text fill="#FFFFFF" style="font-size:3px; font-family:Arial" x="141" y="285">Total: 57.7 km</text><text fill="#FFFFFF" style="font-size:3px; font-family:Arial" x="141" y="290">Avg: 11.5 km</text><text fill="#FFFFFF" style="font-size:3px; font-family:Arial" x="167" y="285">Min: 10.0 km</text><text fill="#FFFFFF" style="font-size:3px; font-family:Arial" x="167" y="290">Max: 16.0 km</text><polyline fill="none" points="83.05543993064202,94.06090216834855 82.06377673277166,93.49236145221221 80.81933664123062,92.4395053335902 80.17767221911345,92.01836181686667 79.94433970190585,91.80778982934135 79.74989593762439,91.44981710000138 79.49711904395372,91.19713020170457 78.83601024537347,90.71281303181604 78.46656709327362,90.52329739749257 77.22212700173259,89.53360263012291 76.77490634378046,89.21774188759446 76.2887969330186,88.79659369617002 75.86102065164596,88.29121505987132 74.2860261608148,86.83824657856894 73.83880550286267,86.54344049181964 73.56658423284534,86.48026771999139 73.33325171575416,86.48026771999139 73.1388079514727,86.60661324989633 72.26381101214793,87.78583554351644 71.64159096637741,88.43861725300667 70.76659402705263,89.42831575412129 70.59159463923424,89.61783210338035 70.16381835774519,89.93369241054461 69.26937704195734,90.81809944182169 68.33604697324336,91.91307584223978 67.1693843875546,93.09227657705196 67.01382937596645,93.28179053400527 66.8777187410742,93.53447561754729 66.6443862238666,93.63976100405853 66.27494307176676,94.1872443984903 65.69161177880596,94.86106869719515 64.36939418164548,96.33505389746279 63.74717413587496,96.96675954926468 63.5527303715935,97.26155504965573 62.794399690814316,98.16699650054215 62.230512774316594,98.77764146582922 61.97773588076234,99.13560515866266 61.861069622216746,99.34617183059163 61.68607023428194,99.47251176045393 61.49162647000048,99.53568170478684 61.06385018862784,99.9147010819579 60.55829640140291,100.56745551606582 60.05274261417799,101.19915195806243 59.741632591350935,101.53605616510322 59.50830007425975,101.85190350410994 58.90552440483589,102.5046535825677 58.18608247698285,103.13634580948565 58.01108308916446,103.53641684228205 57.91386120696552,103.64169860140828 56.74719862116035,104.77873916714452 56.61108798615169,104.96824549516896 56.436088598216884,105.3051453284279 56.35831109248102,105.85260672372533 56.047201069653966,105.95788764298777 55.63886916462798,106.0 55.38609227107372,105.91577527986374 55.07498224824667,105.70521337271202 54.62776159029454,105.24197663947416 54.141652179532684,104.46289501219871 53.46109900448937,103.55747319718648 52.761101452982984,102.125637586636 51.88610451365821,100.71485147548083 51.45832823228557,100.08315397964907 51.16666258580517,99.55673834979825 50.50555378710851,98.56707438149897 50.33055439929012,98.20910998765612 49.86388936499134,97.55635025074298 48.93055929639377,95.91391603254306 48.69722677918617,95.59806223289343 48.366672379896045,94.96635360259097 48.03611798060592,94.10301625118882 47.80278546339832,93.59764685406117 46.63612287759315,91.63933212938718 45.37223840970546,89.65994683089957 45.06112838687841,89.04928268434014 43.70002203679178,86.83824657856894 43.38891201384831,86.48026771999139 42.825025097467005,85.93276978803624 42.358360063051805,85.55373215321742 40.55003305512946,83.89017223520204 39.65559173934162,83.15314897011558 38.916705435025506,82.45823960586858 38.62503978854511,82.22660278130206 37.555599084938876,81.21582174688228 36.85560153343249,80.60513983255078 36.40838087559678,80.14186304029135 35.37782892480027,79.17319099372253 34.34727697412018,78.30980666163669 32.7722824831726,76.8357299137715 32.48061683680862,76.62514690992248 32.11117368459236,76.26715545268962 31.70284177956637,75.9302219129604 30.458401688025333,74.75095144296938 29.116739714401774,73.55061764983111 28.45563091582153,72.91886102735589 27.755633364315145,72.35027889099729 26.375082637765445,71.06570033256139 26.10286136774812,70.87617186705756 25.655640709912404,70.476055811072 24.858421276323497,69.71793966554105 24.11953497189097,68.93876267388987 23.652869937592186,68.24381926724163 23.361204291228205,67.6331100508396 23.263982409145683,67.35934343305416 23.08898302121088,66.68545527325477 23.011205515475012,66.22215625547688 22.97231676254887,65.12708290846786 23.030649891938083,64.7058997512504 23.225093656103127,64.05306464916794 23.40009304403793,63.61082068084215 23.691758690518327,63.06327959540067 25.441752569167875,60.472975066528306 26.33619388495572,59.23046305961907 27.405634588561952,57.545692515268456 27.69730023504235,56.892841298671556 27.872299622860737,56.387407089583576 28.02785463433247,55.81879255156673 28.0084102578694,55.35547617790871 26.569526402046904,52.912523059290834 26.258416379336268,52.47026210537297 25.111198169877753,50.53272997707245 24.74175501766149,49.98516420360829 24.11953497189097,48.953210512627265 24.02231308980845,48.721546934495564 23.166760526946746,47.35262201308797 23.050094268284738,47.09989670565119 22.2723192111589,45.5624796734337 21.70843229466118,44.63581341569079 21.358433518907987,43.89869041426573 20.736213473253883,42.84565430470684 20.36677032103762,42.02428348459944 19.025108347297646,39.43379104248015 18.57788768946193,38.696654817060335 18.402888301643543,38.27543327541207 17.489002609392628,36.737969455396524 16.944560069357976,35.68490734008083 16.944560069357976,35.41111056364025 17.041781951556914,35.13731352861214 17.158448210102506,34.947761583694955 17.31400322157424,34.77927086186537 17.605668868054636,34.5686573220155 18.402888301643543,34.37910500523867 19.238996488042176,34.0 19.472329005249776,34.0 20.11399342736695,34.1053069956688 20.308437191764824,34.189552564625046 20.34732594457455,34.5686573220155 20.56121408531908,35.76915245009877 20.61954721447546,36.801153060703655 20.736213473253883,37.411927201988874 20.75565784960054,37.68572208909609 20.950101613881998,38.52816627382708 21.163989754626527,39.91819382744143 21.30010038963519,40.29729109465552 21.28065601317212,40.402595803141594 22.408429846167564,41.350336458621314 22.544540481059812,41.53988421801478 22.64176236325875,41.7083710112056 22.933428009739146,42.529742726139375 23.147316150483675,42.80353278077382 23.322315538302064,43.16156553909241 23.536203679046594,43.47747642932518 24.21675685408991,44.8253590274835 25.18897567561362,46.15217484116147 25.772306968457997,46.78398976160679 26.10286136774812,47.24731982842786 26.53063764923718,47.75276996615867 28.066743387142196,48.974270828752196 28.68896343302913,49.41653711379331 29.233405972947367,49.87986297473253 29.913959148107097,50.406368736497825 30.55562357022427,50.84863283767481 31.27506549807731,51.43831725679047 31.566731144557707,51.585738174268045 32.07228493178263,52.00694038264919 32.383394954609685,52.19648117684119 32.67506060109008,52.512382225264446 32.86950436537154,52.638742548253504 33.316725023207255,53.05994322744664 33.51116878760513,53.16524330167158 33.76394568104297,53.27054333759588 34.34727697412018,53.64962315057346 34.81394200830255,54.00764251909277 35.24171828990802,54.30248166715319 35.78616082982626,54.76579972283798 36.00004897057079,54.871099177747965 37.205600309185684,55.797732732462464 37.49726595566608,55.98727104945283 38.66392854147125,56.91390103826416 38.99448294076137,57.124498350181966 39.5000367279863,57.50357312624692 40.12225677375682,58.03006504903897 40.511144302319735,58.32490010833135 43.17502387310378,60.136023183804355 43.38891201384831,60.325558666008874 43.46668951958418,60.49403454620915 43.60280015459284,60.66251032859145 43.93335455399938,60.83098601308302 44.43890834110789,61.23111537161458 45.25557215115987,61.778659915260505 46.247235349030234,62.55785613776243 47.06389915908221,63.084338887012564 47.647230452043004,63.61082068084215 49.300002448493615,64.93755056343798 49.82500061218161,65.27449686900945 50.25277689367067,65.716738301242 50.894441315787844,66.26427437858365 51.94443764293101,67.0434585530893 52.27499204222113,67.38040241280396 52.50832455942873,67.46463831659639 52.93610084080137,67.97005322574114 53.30554399313405,68.18064251133183 54.29720719100442,69.10723355210212 54.54998408455867,69.40205735361087 54.76387222518679,69.50735149579123 54.919427236774936,69.63370441598818 55.113871001056395,69.92852768243756 55.56109165889211,70.34970325768518 56.74719862116035,71.25522867421387 57.27219678473193,71.76063698012149 57.66108431329485,72.07651672429347 57.89441683050245,72.35027889099729 58.127749347593635,72.39239612447273 58.10830497124698,72.43451335189457 58.127749347593635,72.41345473896945 58.555525629082695,72.81356812317972 58.6721918877447,73.08732959449117 58.769413769827224,73.15050528197025 58.983301910571754,73.21368095568323 59.79996572062373,74.01390496539534 60.77218454214744,74.77200988627737 61.47218209353741,75.48799604836677 62.230512774316594,76.0776303847233 62.755510937888175,76.5830302908289 63.02773220802192,76.77255502867047 63.222175972303376,77.08842931668914 64.15550604090095,77.9939337031974 64.81661483948119,78.54144661262399 65.10828048596159,78.66779559891438 65.45827926159836,78.94155154703185 66.06105493102223,79.51012076798361 66.79994123533834,80.12080498668365" stroke="#4dd2ff" stroke-linecap="round" stroke-linejoin="round" stroke-width="0.5"><title>2024-01-15 10.5km</title></polyline><polyline fill="none" points="182.32167099951766,91.64606325206114 181.99133134051226,91.40011770118144 181.3925907087978,91.15417195399641 180.7732038483955,90.57284486226854 180.1538169879932,90.12566943018464 179.38990652677603,89.65613452816615 178.1924252633471,88.58290920886793 177.38722234487068,87.97921832435532 176.60266565496568,87.17429530550726 176.04521748051047,86.68239687019377 175.48776930617169,86.23521579307271 174.7651513023302,85.49736559719895 174.22834935667925,85.18433770764386 173.95994838385377,85.13961941175512 173.71219363971613,85.18433770764386 173.5263775815256,85.34085169219179 172.67988220555708,86.34701112320181 171.87467928708065,87.17429530550726 170.8836603104137,88.3146022950823 169.74811773293186,89.38782854872989 169.10808464384172,90.17038700261037 167.68349486484658,91.73549794926657 167.353155206074,92.20502968342043 167.0641080045607,92.49569182706182 166.71312211698387,92.78635369660333 166.52730605879333,93.00993956357706 166.36213622940704,93.30060094807413 164.40074450464454,95.44701499454095 163.38907929928973,96.47549976143637 162.87292358232662,97.1686071253207 161.6754423188977,98.51010082138237 161.510272489395,98.89018964051502 161.179932830506,99.06905480500427 160.35408368334174,99.82923059613677 160.20956008252688,100.07516942138318 159.92051288101356,100.38818218783126 159.34241847798694,101.170712713385 159.01207881909795,101.48372436739737 158.4133381873835,102.1768204702239 157.79395132686477,102.73576780522126 157.2984418385895,103.47357673553051 156.47259269142523,104.30081495144987 156.20419171848334,104.52439246661379 155.91514451697003,105.01626242915518 155.85320583090652,105.32927017853945 155.83255960221868,105.68699293158716 155.791267144843,105.7540659015649 155.5641586293932,105.9329270835151 155.31640388513915,106.0 155.1718802844407,105.9776423627336 154.96541799756233,105.88821179771912 154.6557245674776,105.66463527164888 153.95375279232394,104.94918929866981 153.1485498737311,103.63008143313345 152.79756398615427,103.11585141406977 151.39362043584697,100.67883661494125 150.46454014535993,99.2926361146383 149.4941673973808,97.63813058298547 148.89542676554993,96.81087448695325 148.35862481989898,95.78239083907101 147.9250540175708,95.17871405612095 147.38825207180344,94.1949419506418 147.03726618434303,93.18880814034492 146.89274258352816,92.89814665034646 145.1171669170726,89.92444027404417 144.53907251392957,89.07480461083469 144.1055017117178,88.26988445344614 143.2590063357493,86.88362814317225 142.61897324665915,85.83275226887781 142.28863358777016,85.38556995888939 141.978940157569,85.05018280050717 139.54268517321907,82.85897771673626 137.18901510362048,80.84663279217784 135.55796303786337,79.28146654297598 135.14503846422303,78.96843233914115 134.7940525766462,78.56595932404161 134.13337325886823,77.96224881568924 133.5552788558416,77.47033567502513 132.58490610786248,76.57594613463152 131.80034941795748,75.92751209446578 131.57324090250768,75.68155399803072 130.8506228986662,75.07783783818013 129.07504723209422,73.400842298317 127.85691973997746,72.34992044098908 126.08134407340549,70.69527025142452 124.2851221782621,69.1300524333783 124.03736743412446,68.86172858040663 122.83988617069554,67.83315164560918 121.78692850784864,66.7598503131594 121.45658884907607,66.35736134942272 121.22948033362627,65.99959294014843 120.89914067462087,65.28405487514101 120.63073970179539,64.41199061120278 120.5275085583562,63.96477721061092 120.42427741491701,63.047987709520385 120.44492364372127,62.734937011031434 120.40363118634559,62.310081982868724 120.6926783878589,61.303844052308705 120.83720198855735,60.923708867572714 121.27077279088553,60.073993228928884 121.76628227927722,59.33608037780505 122.4889002830023,58.37455491931178 122.83988617069554,57.79316597664729 123.19087205827236,57.32358179872972 124.18189103482291,55.82537987382966 124.75998543784954,55.04273417938384 125.23484869755339,54.21536371129332 125.46195721300319,53.633966917550424 125.75100441463292,52.672423657844774 125.79229687189218,52.15810858894838 125.70971195725724,51.93449307369883 125.17291001160629,51.04002938908525 124.71869298047386,50.23500985177816 124.16124480625149,49.40762646784424 123.58315040310845,48.289537282282254 122.81923994189128,47.19380594190443 121.74563605058938,45.33776232719538 121.10560296138283,44.42091737757437 120.7959095312981,43.682967020606156 120.07329152734019,42.408321329567116 119.49519712431356,41.2902067299583 119.18550369411241,40.79823501990177 118.29771586088464,39.21050277547329 118.02931488805916,38.584352597012185 117.59574408573098,37.824025668465765 117.18281951209065,36.86243304054369 116.97635722532868,36.526993045175914 116.68731002381537,35.94556285417639 116.66666379512753,35.81138650031062 116.70795625250321,35.721935565263266 117.0382959113922,35.11814107387909 117.24475819815416,34.961601567978505 117.4925129422918,34.961601567978505 117.6576827717945,34.8274247852969 117.90543751593214,34.78269917811849 117.90543751593214,34.49198257277021 117.84349882986862,34.17890284466557 117.8847912872443,34.067088578944094 117.94672997330781,34.0 118.049961116747,34.0 118.09125357412267,34.044725720916176 118.19448471744545,34.335442748561036 118.31836208957247,35.565396366408095 118.50417814776301,36.12446456833277 118.38030077563599,36.30336617855937 119.78424432582688,37.30968579923501 119.92876792664174,37.46622411123826 120.05264529876877,37.73457531820168 120.27975381421857,38.427814853494056 120.46556987229269,38.785615293250885 120.9197869033087,39.545939847273985 121.10560296138283,39.9708262803033 121.49788130633533,40.641698401857866 121.91080587997567,41.156032705213875 122.81923994189128,42.45304582911194 123.74832023261115,43.57115620622062 124.09930612018798,43.9513128096296 124.73933920927811,44.46564158477122 125.1316175541142,44.82343500870047 125.95746670139488,45.42721046882798 126.20522144553252,45.56138263255707 127.5472263097763,46.56767199697788 128.20790562755428,47.08199640226667 129.19892460422125,47.95410973497201 129.48797180573456,48.110642635816475 131.05708518554457,49.36290297837695 131.6971182746347,49.76541414987878 132.2545664489735,50.23500985177816 133.12170805351343,50.861136340448866 133.8856185147306,51.30836876729154 135.4547318945406,52.53825459224754 136.466397099779,53.25382226676447 137.35418493312318,53.99174968976877 137.97357179352548,54.37189342980855 138.24197276635095,54.61786854095408 138.7787747120019,54.97565017017769 139.54268517321907,55.57940572701045 140.40982677787542,56.160798848373815 141.83441655675415,57.23413711224566 142.16475621564314,57.43538762029493 142.5363883319078,57.77080484153703 144.00227056827862,58.88885960771586 144.2706715411041,59.112470073916484 145.86043114948552,60.23051997006405 146.64498783939052,60.99079158133827 147.78053041687235,61.79578300684807 148.56508710666094,62.44424679194344 149.63869099807926,63.226873680076096 150.13420048635453,63.71880956352106 150.98069586232305,64.36726930039003 151.41426666465122,64.85920336269191 151.88912992423866,65.19461250014137 152.1368846683763,65.53002127239597 152.4052856413182,65.64182411538786 153.62341313343495,66.67040836668457 153.8711678775726,66.98345506581245 154.18086130789015,67.13997829606524 154.30473867990077,67.29650144680636 154.46990850940347,67.58718708722154 154.7176632534247,67.74371001074906 155.31640388513915,68.25799905671738 155.68803600152023,68.48160272196401 156.41065400536172,69.15241274394793 156.94745595101267,69.55489805605612 157.15391823777463,69.756140514859 157.46361166797578,70.15862503819517 157.67007395485416,70.18098527411348 157.67007395485416,70.20334550834377 157.62878149747849,70.18098527411348 157.64942772616632,70.22570574094425 157.89718247030396,70.40458754362771 158.12429098587018,70.67291005284642 158.22752212919295,70.94123232839047 158.66109293152113,71.18719420899288 158.88820144697092,71.25427468784619 159.23918733454775,71.65675725403707 160.31279122596607,72.55116107413778 161.179932830506,73.400842298317 162.1296593499137,74.20580129660084 162.3567678653635,74.42940064510913 162.54258392343763,74.49648041801993 162.43935277999844,74.56356017634971 162.50129146606196,74.518840339093 162.76969243900385,74.74243946041679 163.1413245551521,75.23435695617809 163.90523501625285,75.90515227557626 164.6072067915229,76.41942769815796 165.30917856667656,77.06786070312955 165.63951822556555,77.22437881023507 165.80468805495184,77.31381769289146 166.69247588817962,78.25292439330951 168.11706566717476,79.48270264899475 168.32352795405313,79.57214087611646 168.5919289268786,79.92989352508448 168.7570987562649,80.19820773921674 169.25260824465659,80.69011652501649 170.63590556627605,81.76336933195125 171.48240094212815,82.36707239315729 172.59729729092214,83.48503790193354 172.76246712030843,83.68627126282081 172.84505203505978,83.90986373188207 172.92763694981113,84.0216599055857 173.2992690660758,84.13345603868947 173.54702381021343,84.26761134489789 173.7534860969754,84.49120339215733 173.93930215516593,84.87130950018764 173.9805946124252,84.9160278349591 174.4348116434412,85.07254195580026 175.03355227515567,85.51972472001216 175.69423159293365,86.16813857553643 176.7265430269763,87.04014126464608 177.0775289145531,87.4649621937424 177.59368463163264,87.9568593800359 178.70858098042663,88.80649812528281 179.57572258496657,89.54434039845364 180.25704813143238,90.05859305942431 180.50480287557002,90.3045396808302 181.10354350728448,90.68463861884084 181.59905299567617,91.04237836765242 182.07391625538003,91.31068290671101 183.33333620475605,92.2273883195594" stroke="#4dd2ff" stroke-linecap="round" stroke-linejoin="round" stroke-width="0.5"><title>2024-01-08 11.0km</title></polyline><polyline fill="none" points="80.46817864163313,174.7047534459125 78.9565270000603,173.74072333086224 78.38545860216254,173.19504426444473 77.05856438347837,172.08549316691642 76.50429211487062,171.57618937952793 76.05079662252683,171.19421086001967 75.53011661261553,170.66671575728105 75.00943660276243,170.17559862950293 74.32079529942712,169.57534305572335 73.7833191601676,169.1569822604215 73.64895012538182,169.06603416906728 73.49778496118961,169.0114652984048 73.31302753835917,168.99327567222645 73.16186237416696,169.0296549233026 72.70836688176496,169.39344714356412 72.35564816539409,169.61172222229652 72.23807525989832,169.73904926382238 71.73419137945166,170.39387302732212 70.84399652382126,171.44886327099812 70.50807393679861,171.88540965950233 69.51710230513709,172.95858296685037 68.55972293217201,173.94080535764806 68.15661582775647,174.45010434178403 67.83748937008204,174.7956994917913 67.7367125939927,174.90483470339677 67.46797452442115,175.0685374316963 67.03127516130917,175.72334727612906 66.0067112709512,176.9238275495154 65.28447770886123,177.72414453877718 64.76379769900814,178.17886896288837 64.39428285328904,178.70634826179594 62.479524107300676,180.79806559202552 62.21078603778733,181.18002948143112 61.8916595801129,181.45286047481932 61.15262988867471,182.25316300967825 60.51437697332585,183.0534629905742 60.1784543863032,183.3990462837246 59.389036306820344,184.472170316556 59.22107501333812,184.76318621190148 58.750783391529694,185.27246321627172 58.70039500348503,185.41797074186616 58.515637580654584,185.72717395343352 58.29728789906949,185.90905801745248 58.0789382175426,186.0 57.91097692400217,185.9818116061506 57.67583111312706,185.8544928120973 57.42388917290373,185.59985503015923 57.17194723262219,185.2542747696716 55.64349946175935,182.6896905885951 55.40835365082603,182.18040833932173 54.83728525292827,181.38010557224334 54.417382019164506,180.5616114641889 54.18223620823119,180.21602426085155 54.01427491474897,179.8886254184181 53.846313621266745,179.72492583686835 53.678352327726316,179.52484842546983 53.37602199945832,178.96099304346717 53.107283929828554,178.54264790847083 52.872138118953444,178.08792414405616 52.687380696006585,177.88784542649228 52.51941940252436,177.63319955505722 52.133108427457046,176.88744944384962 51.78038971120259,176.39634450089943 51.52844777092105,175.79610381992825 50.856602596875746,174.57742892614624 49.932815482548904,173.06771897808358 49.66407741303556,172.576606553499 49.00902836833848,171.55799993941037 48.82427094550803,171.33972655510297 47.63174576155143,169.35706794528232 47.211842527845874,168.9205171542999 46.741550906037446,168.50215526625107 46.43922057771124,168.1929308133549 46.0361134732957,167.86551627099107 44.74281151330797,166.7013722128322 44.44048118503997,166.41033535357565 44.289316020847764,166.1556778246013 44.02057795127621,165.97377943120955 43.29834438918624,165.33713401498972 40.762128857313655,162.9906269472849 39.9055262603797,162.24483327919734 38.25950558407931,160.7350490605604 37.839602350315545,160.38943452655803 37.55406815139577,160.08020006585866 35.824066828296054,158.53402203960286 35.353775206487626,158.07926198137284 34.09406550513813,157.00602497247746 31.272315774287563,154.45934249236598 30.986781575367786,154.1682914183475 30.61726672964869,153.7499049072212 30.21415962523315,153.149609997301 29.979013814299833,152.54931364947697 29.81105252081761,151.74891628227488 29.743868003424723,150.65746120714175 29.844644779514056,150.12992288345413 29.945421555661596,149.80248474459222 30.163771237130277,149.18398931501724 30.398917048063595,148.76559448232 32.02814159501577,146.4189322561433 32.61600612231996,145.527558674381 33.0191132267355,144.98181818173907 33.43901646044105,144.32692802160454 33.75814291817369,143.76299345649022 34.043677117093466,142.8898019483022 34.16125002258923,142.07118214550428 34.14445389324101,141.50724250318308 34.060473246499896,141.2161763847107 34.01008485845523,140.8523432610673 33.89251195290126,140.39755111355043 33.791735176870134,140.10648370583658 33.43901646044105,139.34243015178072 33.27105516695883,139.06955331774952 32.985520968039054,138.68752525080345 32.31367579399375,137.88708360244345 31.8937725602882,137.34132646677608 31.65862674935488,137.10483133875823 31.440277067827992,136.79556814217358 30.76843189378269,136.44992058827484 30.499693824152928,136.2498086285923 30.34852865996072,136.04969650902785 30.11338284908561,135.59489564283285 29.928625426255167,135.32201472680026 28.971246053290088,133.43003220025275 28.685711854312103,132.97522657783702 27.795516998739913,131.24695768175297 26.88852601387771,129.57325433239748 26.73736084974371,129.33675187035988 26.01512728765374,127.91773240841576 25.67920470063109,127.35376090256614 25.141728561371565,126.33497044706019 24.604252422170248,125.44352539900865 24.36910661123693,124.91593397792894 23.66366917855339,123.47869653790258 23.26056207413785,122.51446932859835 23.17658142739674,122.25976718173479 23.025416263204534,121.51385226148705 22.50473625335144,120.62239005227457 22.068036890239455,119.51260613289196 21.513764621748123,118.38462399458513 21.194638164073694,117.60231081786333 20.942696223850362,117.20205661954242 20.472404601983726,116.14683793899894 20.27085104980506,115.58283992412908 19.95172459213063,114.94606644500163 19.54861748771509,114.0 19.53182135836687,114.0545808536117 19.582209746411536,114.12735530656937 19.766967169300187,114.36387213264243 19.985316850885283,114.69135659994208 20.82512331829639,116.56528725817043 21.07706525863614,117.18386323167942 21.950463984860107,119.05777523684083 22.487940124061424,120.29491334165505 22.639105288137216,120.54961748696223 22.94143561652163,121.20456981372263 23.142989168758504,121.64120374666527 23.243765944847837,122.09602995056775 23.394931109040044,122.58724132296629 23.613280790508725,123.07845173191163 23.680465307901613,123.29676715990354 23.83163047209382,123.64243286509009 24.23473757650936,124.33376284415135 24.55386403418379,124.97051245236071 24.621048551576678,125.17063342338952 24.772213715710677,125.37075423458009 24.923378879844677,125.77099537718459 25.36007824295666,126.4623194806627 25.712796959327534,127.17183433944592 26.23347696912242,128.08146583357302 26.41823439206928,128.49989521152747 26.65338020294439,128.88193881566986 26.80454536707839,129.20940429827897 28.03066280967323,131.39249657488836 28.41697378474055,132.13838207510707 28.58493507822277,132.52042012973106 29.105615088075865,133.41183999119676 29.62629509792896,134.44879379787017 29.911829296848737,134.97636513972247 30.180567366536707,135.34020679710375 30.34852865996072,135.70404792601767 30.61726672964869,136.17704060363758 30.902800928626675,136.79556814217358 31.32270416233223,137.35951839042536 32.01134546572575,138.56018243235303 32.498433216824196,139.30604659106757 33.25425903761061,140.56127638173348 33.52299710724037,141.0888348515582 33.74134678882547,141.39809274839354 33.92610421165591,141.72554187016794 33.92610421165591,141.79830828355625 33.89251195290126,141.79830828355625 33.84212356485659,141.74373347547953 33.6909584007808,141.39809274839354 33.11989000288304,140.5430846905656 32.81755967455683,139.99733334081247 32.59920999297174,139.70626546813583 32.246491276600864,139.0877451159613 31.927364818926435,138.65114159496443 31.020373834006023,137.06844745308626 30.667655117693357,136.48630456380488 30.53328608290758,136.21342461874883 30.264548013277818,135.83139219631266 29.760664132772945,134.95817304302182 29.609498968580738,134.5943308307469 29.256780252209865,133.93941351695685 28.165031844517216,131.95645898718794 27.946682162873913,131.44707363803172 27.64435183466412,131.0104568000388 27.409206023730803,130.55564678444352 27.358817635686137,130.3737225469813 27.106875695404597,129.97348875946773 27.07328343676636,129.88252644582826" stroke="#4dd2ff" stroke-linecap="round" stroke-linejoin="round" stroke-width="0.5"><title>2023-12-31 10.1km</title></polyline><polyline fill="none" points="181.2571146096452,175.7130171994213 181.0423458517762,175.64145407726755 180.64584968338022,175.30152896336222 179.9024193675723,174.8184766797931 179.10942703078035,174.1386237149418 178.1512279571034,173.4050960456516 177.2095495571848,172.8683671005274 176.96173945185728,172.77891216275748 176.9286981045152,172.74313017858367 176.89565675717313,172.56422017978912 176.86261540977284,172.528438164416 175.7392095992691,171.68755930944462 175.35923410457326,171.3297376504197 174.48363839939702,170.6498750679457 174.12018357828492,170.2562695582601 173.83933212567354,169.88055462205375 173.59152202040423,169.71953375985322 172.26986812567338,168.556602188939 171.989016673062,168.3597978420148 171.80728926253505,168.27034126875515 171.60904117830796,168.2524499502324 171.4603551151231,168.28823258598277 170.98125557834283,168.71762381048757 169.9900151573238,169.91633702156832 169.64308100997005,170.39939890720416 169.16398147313157,170.98980659346853 168.38750980998157,171.72334144677734 167.39626938896254,172.9399310273584 166.83456648373976,173.4945507562661 166.55371503112838,173.6376782258012 165.9094087574049,174.33542345011665 165.711160673236,174.60378647231846 165.56247461010935,174.8363675220171 165.1824991153553,175.1941840932559 163.92692791536683,176.60755447456904 163.69563848379767,176.84013363467238 162.98524951539002,177.734666821867 161.96096774702892,178.87966456737195 161.72967831545975,179.23747527282103 161.4653475366067,179.3984899209172 161.26709945237963,179.55950446389033 160.2758590313024,180.72238415363245 159.73067679972155,181.2412056311441 159.53242871555267,181.5274514964549 159.00376715767197,182.0462712807057 158.49162627349142,182.70821217972843 158.06208875769516,183.1017978181044 157.6325512418989,183.5490534631681 157.51690652611433,183.72795549410512 157.3847411366296,183.7637358846987 157.33517911552917,183.8174064608902 157.20301372610265,183.9963082971808 157.15345170506043,184.4435623203899 156.98824496829184,184.74769459296658 156.6908728419221,185.01604628676432 156.62479014717974,185.03393638931448 156.39350071555236,184.9981561829627 156.14569061034126,185.14127697735967 155.81527713668766,185.48118853123742 155.61702905251877,185.7674294765311 155.41878096829168,186.0 155.7491944419453,185.48118853123742 156.09612858929904,185.06971659051487 156.11264926294098,184.90870564429497 156.03004589455668,184.67613409197656 155.7987564629875,184.37200173117162 155.6335497261607,183.9963082971808 155.40226029459154,183.60272408601304 155.2205328840646,183.44171218229167 154.79099536832655,182.86922456225147 154.37797852617223,182.1715034789231 153.98148235777626,181.42010933588608 153.40325877891155,180.4361373540596 152.90763856831472,179.7205189017841 152.4946217262186,178.9691172924213 152.21377027360722,178.57552505964122 151.98248084203806,178.18193219878594 151.51990197895793,177.50208850529452 151.2225298525882,176.92958709936647 150.42953751579626,175.65934485972684 150.18172741052695,175.05105752703093 150.06608269480057,174.60378647231846 149.90087595785735,174.2638599282218 148.7774701474118,172.528438164416 148.14968454744667,171.45497529013664 147.81927107379306,170.97191547224065 147.68710568425013,170.72143963859708 146.72890661063138,169.20068804427865 146.3654517895775,168.556602188939 145.9193936001393,168.07353669340955 144.8620704843197,167.16107706430194 143.32564783177804,165.7476525414968 142.38396943185944,164.96042524374207 141.90486989496276,164.47735270300473 140.48409195814747,163.2249380045978 139.04679334774846,161.8472744885512 138.18771831615595,161.13160209140915 137.62601541093318,160.5948464302346 136.89910576876719,159.9865219349158 136.42000623198692,159.50343964877538 133.90886383206816,157.26693524763687 132.91762341104914,156.35443562410364 132.52112724259496,156.01448392047314 131.8437796215876,155.37036361733044 131.33163873740705,154.94094914691232 130.67081179004163,154.33261069998844 129.91086080059176,153.58113172229787 129.44828193745343,152.97278991957137 129.25003385328455,152.61494109901832 128.8700583585305,151.5950691102771 128.85353768483037,151.45192884436983 128.787454990088,150.70044108449656 128.80397566372994,150.25312585398206 128.80397566372994,149.66266850668762 128.8700583585305,149.57320514885942 128.8204963374883,149.55531247339968 128.88657903217245,149.39427833577793 128.91962037957273,149.2153513928206 128.8204963374883,149.35849295760272 128.787454990088,149.286922185609 128.8204963374883,149.19745869140024 128.9030997058726,149.03642431997287 129.0683064427576,148.87538984336425 129.48132328485372,148.12389422803244 130.05954686371842,147.21136075757386 131.3977214320912,145.3683907012164 132.4550445479108,143.77591033028148 132.86806139000691,142.93493339820998 133.08283014781773,142.27288570937526 133.09935082151787,142.07606037786172 133.066309474234,141.77187546537607 132.76893734786427,141.30665075530123 132.63677195843775,141.03825148462784 132.47156522161094,140.8414251669601 132.2898378110258,140.4298787221196 131.97594501107233,139.92886473113322 131.64553153741872,139.55310356942937 131.52988682151772,139.2847023888171 131.3977214320912,139.05208779583336 131.26555604266468,138.78368606952426 130.88558054791065,138.26477523639915 130.7038531374419,137.90690505962993 130.38996033748845,137.33431169575488 129.36567856895272,135.70599204517202 129.21699250588426,135.34811815214925 128.0935866953223,133.36190859798808 127.8457765901112,132.80719856494397 127.35015637957258,132.00197210120677 127.15190829534549,131.53672894489137 126.30935393751133,130.05152375924808 126.16066787432646,129.7115357706789 125.71460968494648,128.85261665692087 125.51636160071939,128.56630962023337 124.98770004278049,127.51054954669962 124.72336926392745,127.06319221862941 124.42599713755772,126.49057365319459 124.22774905333063,125.97163692864706 123.25302930601174,124.30745316202228 122.3774336008355,122.2316813084326 122.21222686395049,121.5516832768335 121.60096193762729,120.19168158186949 121.46879654820077,119.79799547928269 121.25402779027354,119.33272927397047 120.9896970113623,118.88535709392454 120.27930804295465,117.2390204739786 119.96541524300119,116.5947988009575 119.13938155880896,114.69791408936726 118.742885390413,114.01789525779895 119.65152244298952,115.93268032553897 119.99845659028506,116.5947988009575 120.21322534821229,117.18533539889904 120.6262421903084,118.06219015955867 121.05577970610466,119.06430606346112 121.61748261138564,120.15589196221845 121.9313754113391,120.92536763958924 122.17918551660841,121.44431499496568 122.4600369692198,122.41062784685346 122.97217785340035,123.66324997592892 123.63300480076578,125.07691587085719 124.44251781125786,126.3832075240498 125.15290677960729,127.68949225047254 125.41723755857674,128.24421380620333 125.69808901118813,128.69156898974325 126.24327124282718,129.65785341378069 126.63976741116494,130.49887566102552 126.95366021117661,131.01780284947017 127.03626357961912,131.25042502742144 127.21799099014606,131.6083048722503 127.99446265323786,132.86088023564662 128.30835545330774,133.45137784119288 128.40747949539218,133.7376792011055 129.36567856895272,135.47337407381565 129.7621747374651,136.2606955521769 130.27431562164566,137.01222734387557 131.21599402162246,138.62264489343215 131.562928168918,139.12366154014308 132.63677195843775,140.94878499607148 133.1489128426183,141.71819573592802 133.16543351626024,142.00448749103816 133.066309474234,142.43392450010288 132.8184993689065,143.16754432609014 132.63677195843775,143.5432999765908 132.27331713744206,144.1516650532285 131.79421760054538,144.79581467394019 131.38120075844927,145.4399626110826 131.0673079584376,145.86939363388228 130.40648101107217,146.83561069943244 130.73689448472578,146.28093099527177 132.2072344426415,144.1874511874339 132.6202512846794,143.4717275159055 132.8184993689065,143.06018546356063 133.08283014781773,142.1297400293406 133.08283014781773,141.71819573592802 132.90110273729078,141.43190364823386 132.65329263207968,140.9666782963468 132.40548252681037,140.62670536844234 131.94290366367204,139.85729122067278 131.69509355846094,139.5352101664903 131.52988682151772,139.1773418347293 130.91862189525273,138.26477523639915 130.2908362952876,137.22695029186434 129.96042282163398,136.6185681197967 129.563926653238,136.0101844455785 129.21699250588426,135.38390556482773 128.72137229534565,134.3281747053261 128.30835545330774,133.6839977214404 128.010983326938,133.05771292807185 127.18494964274578,131.590410892386 126.95366021117661,131.08937892758695 126.63976741116494,130.58834594390646 125.86329574813135,129.06734671608137 125.36767553753452,128.20842535643897 124.98770004278049,127.47476099037158 124.60772454808466,126.83056608693732 124.12862501124619,125.88216496909445 123.78169086395064,125.32743809458043 123.071301895543,124.03903537255246 122.294830232393,122.16010265667865 122.14614416920813,121.49799914174946 121.58444126398535,120.29905040976882 121.28706913767383,119.52957277576206 120.9896970113623,118.90325199675863 120.60972151660826,118.16955991568102 120.14714265346993,117.0242801035347 119.94889456930105,116.72006425824657 119.66804311663145,116.11163144039165 119.3211089692777,115.14529387558287 119.04025751666632,114.6263332481467 118.90809212718159,114.23263824953756 118.75940606405493,114.0 118.84200943249743,114.25053349039808 119.10634021140868,114.71580929640913 119.96541524300119,116.55900865865988 120.39495275879744,117.63271066683228 120.65928353765048,118.1337700021686 121.35315183241619,119.63694189226953 121.7661686744541,120.442208774155 122.24526821140898,121.67694621317787 122.90609515865799,123.52009348358843 123.36867402185453,124.52218718298536 124.11210433760425,125.79269297704741 124.52512117964216,126.65162275926559 125.45027890591882,128.29789647113648 125.69808901118813,128.65578060495318 125.81373372703092,128.90629918925697 126.14414720074274,129.47891213970433 126.4580400006962,130.12310011817317 126.80497414799174,130.7493923712318 127.15190829534549,131.5188349597738 127.44928042171523,131.96618419731385 127.6805698532844,132.4493204615428 129.36567856895272,135.4912677717366 129.6465300216223,136.09965272716363 130.0099848426762,136.69014257095114 130.22475360054523,136.9585465776181 131.1829526742804,138.58685795111523 131.74465557950316,139.46363654171 132.38896185311023,140.55513206070464 132.93414408469107,141.41401038171898 132.86806139000691,141.27086420278647 132.7358960005222,141.14561122799932 132.58720993733732,140.91299839159183 132.2898378110258,140.3761987003818 131.33163873740705,138.85525989183225 131.10034930583788,138.42581664636964 129.25003385328455,135.43758667413204 129.00222374795703,134.90077505490626 128.30835545330774,133.64821006187412 127.82925591646926,132.87877412326634 127.58144581114175,132.37774477846688 127.16842896910384,131.69777475224691 126.35891595855355,130.05152375924808 125.91285776911536,129.24628828908317 125.51636160071939,128.4052617658599 123.7651701901923,125.34533252936671 123.10434324282687,124.02114084282948 122.82349179021548,123.28746400606178 122.42699562181951,122.44641713896999 122.09658214822412,121.31905194032879 122.19570619025035,121.48010442747909 122.49307831656188,122.3748385496001 122.6252437060466,122.64325815247139 122.92261583235813,123.53798804966209 123.1539052639273,124.05692990096577 123.46779806393897,124.68323757589678 123.89733557961881,125.36322696288698 124.07906299020397,125.75690417113947 123.88081490603508,125.48848796103266 123.63300480076578,125.00533804582665" stroke="#4dd2ff" stroke-linecap="round" stroke-linejoin="round" stroke-width="0.5"><title>2023-12-24 16.0km</title></polyline><polyline fill="none" points="22.441379310563207,227.58045094367117 24.924137933179736,231.88202419690788 45.77931034564972,256.0783272534609 53.22758620604873,262.5306614008732 57.20000000111759,264.1437440607697 65.14482758753002,265.2191323065199 72.0965517256409,263.06835566135123 78.05517241358757,258.2291059261188 82.02758620679379,252.3144630738534 84.51034482754767,246.39981550443918 84.51034482754767,241.5605548932217 83.02068965695798,234.5705062127672 78.05517241358757,227.04275411227718 59.186206897720695,207.14794391719624 49.751724138855934,198.5447662207298 43.29655172675848,196.3939702375792 35.84827586263418,196.9316692915745 31.875862071290612,198.5447662207298 25.917241379618645,202.30865769088268 21.944827588275075,208.22334042564034 19.462068965658545,214.6757162134163 18.96551724150777,221.66578364698216 20.951724138110876,228.1181477373466 39.32413793168962,249.6259874915704 55.213793102651834,264.68143820390105 59.68275862187147,265.7568263700232 66.6344827581197,265.2191323065199 80.04137931205332,258.2291059261188 85.50344827771187,245.86212003650144 85.50344827771187,239.40977138560265 83.51724137924612,232.95741711976007 58.68965517356992,204.9971504281275 49.25517241470516,198.00706728361547 43.29655172675848,195.85627114400268 36.84137930907309,195.31857201084495 30.386206896975636,196.9316692915745 24.924137933179736,200.69556158035994 17.972413793206215,214.13801844557747 17.475862069055438,220.05269174696878 19.462068965658545,228.65584449097514 41.806896552443504,252.85215807380155 53.724137930199504,263.06835566135123 63.15862069092691,264.68143820390105 71.60000000149012,263.60604987991974 75.57241379469633,261.45527276722714 82.52413793280721,254.4652428389527 85.00689655169845,248.5505969855003 85.00689655169845,242.63594641303644 83.51724137924612,237.25898725399747 80.5379310362041,231.34432767610997 55.213793102651834,202.30865769088268 46.77241379208863,195.85627114400268 40.317241379991174,194.78087283996865 34.85517241433263,195.31857201084495 25.420689653605223,201.23326032282785 21.944827588275075,206.0725472504273 18.96551724150777,214.13801844557747 18.46896551735699,222.74117805203423 20.455172415822744,228.1181477373466 37.83448275923729,248.5505969855003 50.74482758529484,259.84218952199444 58.68965517356992,261.99296710267663 67.6275862082839,261.99296710267663 73.0896551720798,259.84218952199444 78.05517241358757,256.0783272534609 80.5379310362041,252.85215807380155 84.01379310525954,243.71133777685463 85.00689655169845,239.94746732059866 83.51724137924612,236.18359495466575 65.6413793116808,212.52492490876466 48.75862069055438,196.9316692915745 43.29655172675848,195.31857201084495 34.85517241433263,195.85627114400268 28.40000000037253,198.00706728361547 24.427586207166314,201.77095902664587 18.46896551735699,211.44952902151272 16.97931034490466,217.3642044677399 17.475862069055438,222.74117805203423 19.462068965658545,229.19354120548815 49.25517241470516,259.30449502915144 56.703448275104165,263.60604987991974 64.6482758615166,265.7568263700232 71.10344827733934,263.60604987991974 78.05517241358757,259.30449502915144 84.01379310525954,251.23907295661047 86.0,242.63594641303644 83.51724137924612,234.0328098880127 59.186206897720695,205.534848859068 50.74482758529484,198.00706728361547 46.77241379208863,195.85627114400268 40.81379310414195,194.78087283996865 32.372413793578744,195.31857201084495 26.9103448279202,198.5447662207298 20.951724138110876,204.4594519585371 17.972413793206215,209.83643489982933 16.97931034490466,217.3642044677399 17.475862069055438,222.74117805203423 19.958620689809322,228.65584449097514 34.35862069018185,245.32442453037947 49.751724138855934,259.84218952199444 54.71724138222635,263.06835566135123 60.675862070173025,265.2191323065199 66.6344827581197,264.68143820390105 75.07586206868291,261.45527276722714 79.5448275860399,258.2291059261188 84.51034482754767,247.47520632250234 85.00689655169845,241.5605548932217 83.51724137924612,235.64589874679223 80.5379310362041,230.26893451949582 60.17931034602225,206.61024560360238 49.25517241470516,198.00706728361547 43.79310344904661,195.31857201084495 38.331034483388066,194.78087283996865 31.37931034527719,196.3939702375792 25.420689653605223,199.6201639790088 20.455172415822744,206.61024560360238 17.475862069055438,214.13801844557747 17.475862069055438,220.59038908500224 19.462068965658545,227.58045094367117 27.903448276221752,237.796683346387 41.806896552443504,252.85215807380155 54.71724138222635,263.60604987991974 60.675862070173025,265.2191323065199 67.13103448413312,264.68143820390105 73.58620689809322,262.5306614008732 78.55172413960099,258.7668004981242 82.52413793280721,253.92754795681685 85.00689655169845,248.01290167309344 85.00689655169845,241.5605548932217 83.51724137924612,235.1082024979405 66.13793103583157,216.2888092827052 60.17931034602225,208.22334042564034 49.25517241470516,198.5447662207298 41.806896552443504,195.85627114400268 36.34482758678496,194.78087283996865 28.896551724523306,196.3939702375792 24.427586207166314,200.15786279877648 20.455172415822744,204.9971504281275 17.972413793206215,210.91183102037758 16.97931034490466,216.82650689408183 18.46896551735699,225.42966338153929 21.448275862261653,230.26893451949582 33.86206896416843,244.24903340125456 54.71724138222635,263.60604987991974 61.1724137943238,265.2191323065199 66.6344827581197,264.68143820390105 72.0965517256409,263.06835566135123 77.06206896714866,259.84218952199444 81.53103448264301,254.4652428389527 84.01379310525954,248.5505969855003 85.00689655169845,239.94746732059866 83.51724137924612,235.1082024979405 82.02758620679379,232.41972067859024 60.675862070173025,209.83643489982933 48.26206896454096,198.5447662207298 42.303448274731636,195.85627114400268 36.84137930907309,195.31857201084495 30.386206896975636,196.3939702375792 25.420689653605223,199.08246511826292 20.951724138110876,203.384054902941 17.475862069055438,210.37413297966123 16.48275862261653,217.90190200181678 17.972413793206215,224.8919663936831 20.951724138110876,229.7312378808856 40.81379310414195,251.23907295661047 55.213793102651834,263.60604987991974 63.655172415077686,264.68143820390105 69.61379310302436,264.1437440607697 75.57241379469633,261.45527276722714 80.04137931205332,257.1537166670896 83.02068965695798,252.3144630738534 84.51034482754767,245.32442453037947 84.01379310525954,238.33437939779833 83.02068965695798,234.5705062127672 61.668965516611934,210.37413297966123 46.275862069800496,196.9316692915745 40.81379310414195,194.78087283996865 35.35172413662076,194.24317362951115 29.88965517282486,195.85627114400268 21.944827588275075,201.77095902664587 15.986206896603107,211.44952902151272 16.48275862261653,220.59038908500224 18.46896551735699,225.96736033027992 48.26206896454096,258.7668004981242 54.220689656212926,262.5306614008732 59.186206897720695,264.68143820390105 65.6413793116808,265.2191323065199 71.60000000149012,263.60604987991974 77.55862069129944,258.7668004981242 83.51724137924612,249.6259874915704 85.00689655169845,242.63594641303644 84.01379310525954,236.72129112342373 79.04827586375177,230.26893451949582 62.66206896677613,212.52492490876466 55.71034482866526,203.384054902941 50.24827586300671,198.00706728361547 45.77931034564972,195.31857201084495 33.86206896416843,194.78087283996865 28.40000000037253,196.9316692915745 23.434482760727406,200.69556158035994 19.462068965658545,205.534848859068 16.48275862261653,212.52492490876466 16.48275862261653,220.05269174696878 17.972413793206215,225.96736033027992 39.8206896558404,249.6259874915704 53.22758620604873,261.99296710267663 60.675862070173025,264.68143820390105 66.13793103583157,265.2191323065199 71.60000000149012,264.1437440607697 78.05517241358757,259.84218952199444 83.51724137924612,250.16368268523365 84.51034482754767,242.09825067222118 83.51724137924612,236.18359495466575 55.71034482866526,204.9971504281275 48.26206896454096,198.00706728361547 39.8206896558404,195.31857201084495 35.84827586263418,195.31857201084495 28.40000000037253,196.9316692915745 23.434482760727406,200.15786279877648 16.97931034490466,209.2987367818132 15.489655170589685,218.43959949584678 17.972413793206215,226.50505724083632 21.944827588275075,231.34432767610997 49.25517241470516,258.7668004981242 55.213793102651834,263.06835566135123 60.17931034602225,264.68143820390105 69.11724138073623,265.2191323065199 75.07586206868291,262.5306614008732 79.5448275860399,258.2291059261188 83.02068965695798,253.3898530350998 84.51034482754767,246.9375109327957 84.51034482754767,241.02285907510668 82.02758620679379,233.495113523677 58.68965517356992,207.6856421912089 50.74482758529484,200.15786279877648 44.28965517319739,196.3939702375792 38.82758620753884,194.24317362951115 32.372413793578744,195.31857201084495 27.406896552070975,197.46936830691993 21.448275862261653,202.30865769088268 16.97931034490466,208.22334042564034 14.496551724150777,214.6757162134163 14.993103448301554,222.20348086813465 17.972413793206215,228.1181477373466 48.26206896454096,258.7668004981242 53.22758620604873,262.5306614008732 62.16551724076271,265.2191323065199 68.62068965658545,264.68143820390105 76.06896551884711,260.91757838986814 80.5379310362041,257.1537166670896 83.02068965695798,252.3144630738534 84.51034482754767,245.86212003650144 81.53103448264301,233.495113523677 78.55172413960099,228.65584449097514 63.655172415077686,215.2134139421396 50.74482758529484,200.69556158035994 43.79310344904661,195.85627114400268 37.83448275923729,194.78087283996865 30.882758621126413,195.31857201084495 25.917241379618645,198.00706728361547 19.958620689809322,202.84635631740093 16.48275862261653,209.2987367818132 14.993103448301554,216.82650689408183 15.986206896603107,223.81657230015844 18.46896551735699,228.65584449097514 37.33793103508651,248.01290167309344 50.24827586300671,260.3798839757219 55.213793102651834,263.60604987991974 60.675862070173025,264.68143820390105 70.11034482903779,264.1437440607697 74.57931034639478,262.5306614008732 81.03448275849223,256.61602197913453 84.01379310525954,249.6259874915704 84.51034482754767,243.71133777685463 84.51034482754767,237.796683346387 82.02758620679379,232.41972067859024 54.71724138222635,202.84635631740093 45.77931034564972,196.3939702375792 40.317241379991174,195.31857201084495 33.36551724374294,195.31857201084495 26.413793105632067,198.00706728361547 20.455172415822744,203.92175345029682 16.48275862261653,209.83643489982933 14.993103448301554,215.75111163267866 15.986206896603107,223.27887519588694 17.475862069055438,227.04275411227718 47.26896551810205,257.69141131686047 55.213793102651834,262.5306614008732 60.675862070173025,264.68143820390105 66.6344827581197,264.68143820390105 75.57241379469633,261.45527276722714 80.04137931205332,257.1537166670896 83.51724137924612,252.3144630738534 84.51034482754767,248.5505969855003 85.00689655169845,241.02285907510668 83.51724137924612,235.1082024979405 60.17931034602225,207.14794391719624 47.26896551810205,196.3939702375792 39.32413793168962,194.24317362951115 32.372413793578744,194.78087283996865 26.9103448279202,196.9316692915745 20.455172415822744,202.84635631740093 16.97931034490466,208.22334042564034 14.993103448301554,214.6757162134163 15.489655170589685,223.27887519588694 17.972413793206215,228.1181477373466 49.25517241470516,259.84218952199444 54.220689656212926,263.60604987991974 60.17931034602225,265.2191323065199 67.6275862082839,265.7568263700232 76.06896551884711,261.99296710267663 80.04137931205332,258.2291059261188 84.51034482754767,248.01290167309344 84.01379310525954,237.796683346387 82.52413793280721,232.95741711976007 69.61379310302436,217.3642044677399 55.213793102651834,201.77095902664587 48.75862069055438,196.3939702375792 42.80000000074506,194.24317362951115 36.34482758678496,194.24317362951115 28.40000000037253,196.9316692915745 20.455172415822744,203.384054902941 14.0,214.6757162134163 14.0,219.51499436888844 15.489655170589685,225.42966338153929 47.26896551810205,257.1537166670896 53.22758620604873,261.99296710267663 64.15172413922846,265.7568263700232 78.55172413960099,259.30449502915144 80.5379310362041,256.61602197913453 83.51724137924612,248.01290167309344 84.01379310525954,242.09825067222118 82.02758620679379,235.64589874679223 64.6482758615166,214.13801844557747 47.26896551810205,196.3939702375792 42.303448274731636,194.24317362951115 35.84827586263418,194.24317362951115 28.40000000037253,195.85627114400268 22.937931034713984,199.08246511826292 17.972413793206215,204.4594519585371 15.489655170589685,209.2987367818132 14.0,216.82650689408183 14.993103448301554,223.81657230015844 18.46896551735699,228.65584449097514 39.8206896558404,250.16368268523365 49.751724138855934,259.30449502915144 54.71724138222635,263.06835566135123 64.6482758615166,264.68143820390105 72.0965517256409,263.60604987991974 77.06206896714866,260.3798839757219 81.03448275849223,255.5406324872747 84.51034482754767,248.01290167309344 85.00689655169845,240.48516321647912 83.51724137924612,234.5705062127672 80.04137931205332,229.19354120548815 66.13793103583157,213.6003206395544 47.76551724411547,196.9316692915745 43.29655172675848,195.31857201084495 34.35862069018185,194.78087283996865 28.896551724523306,195.85627114400268 22.441379310563207,199.6201639790088 18.46896551735699,203.92175345029682 14.993103448301554,211.98722698539495 14.0,216.82650689408183 15.489655170589685,224.35426936578006 23.931034481152892,235.1082024979405 52.23448275960982,261.45527276722714 58.193103447556496,264.1437440607697 66.6344827581197,264.68143820390105 71.60000000149012,263.06835566135123 78.05517241358757,259.30449502915144 81.53103448264301,254.4652428389527 84.51034482754767,246.9375109327957 83.51724137924612,237.25898725399747 81.53103448264301,231.88202419690788 59.186206897720695,204.9971504281275 47.76551724411547,196.3939702375792 42.303448274731636,194.78087283996865 36.34482758678496,194.24317362951115 30.386206896975636,195.85627114400268 21.448275862261653,200.69556158035994 18.46896551735699,204.9971504281275 14.993103448301554,211.98722698539495 14.496551724150777,220.05269174696878 15.986206896603107,225.96736033027992 18.96551724150777,230.26893451949582 41.31034482829273,253.3898530350998 54.220689656212926,264.1437440607697 58.68965517356992,265.7568263700232 67.13103448413312,265.7568263700232 70.60689655132592,264.68143820390105 78.05517241358757,259.30449502915144 82.02758620679379,254.4652428389527 84.51034482754767,246.9375109327957 85.00689655169845,241.02285907510668 82.52413793280721,234.0328098880127 77.06206896714866,225.42966338153929 60.17931034602225,207.6856421912089 47.76551724411547,198.5447662207298 39.32413793168962,196.3939702375792 32.372413793578744,196.3939702375792 20.951724138110876,202.84635631740093 16.97931034490466,207.14794391719624 14.993103448301554,213.06262279301882 14.993103448301554,222.20348086813465 16.97931034490466,227.04275411227718 48.26206896454096,258.7668004981242 54.220689656212926,263.06835566135123 60.17931034602225,265.2191323065199 66.6344827581197,265.7568263700232 72.59310344979167,263.60604987991974 79.5448275860399,258.7668004981242 84.01379310525954,251.23907295661047 85.00689655169845,245.32442453037947 85.00689655169845,238.8720754114911 82.02758620679379,231.88202419690788 67.13103448413312,214.6757162134163 47.76551724411547,196.3939702375792 41.806896552443504,194.78087283996865 35.35172413662076,194.78087283996865 28.896551724523306,196.3939702375792 21.448275862261653,202.30865769088268 17.475862069055438,207.14794391719624 15.489655170589685,212.52492490876466 14.496551724150777,221.1280863857828 16.48275862261653,226.50505724083632 32.86896551772952,244.24903340125456 49.751724138855934,259.84218952199444 55.71034482866526,264.1437440607697 63.15862069092691,265.7568263700232 67.6275862082839,265.2191323065199 75.07586206868291,261.99296710267663 82.02758620679379,256.0783272534609 85.00689655169845,248.01290167309344 85.50344827771187,243.1736421152018 83.02068965695798,232.41972067859024 70.11034482903779,217.90190200181678 52.23448275960982,200.15786279877648 46.77241379208863,196.3939702375792 41.31034482829273,195.31857201084495 33.86206896416843,194.78087283996865 27.406896552070975,196.9316692915745 21.944827588275075,200.69556158035994 17.972413793206215,206.0725472504273 15.489655170589685,212.52492490876466 15.489655170589685,221.1280863857828 17.475862069055438,226.50505724083632 43.79310344904661,255.00293768197298 54.220689656212926,263.06835566135123 61.668965516611934,264.68143820390105 68.62068965658545,264.1437440607697 75.07586206868291,261.45527276722714 80.5379310362041,257.69141131686047 83.02068965695798,252.85215807380155 84.51034482754767,243.71133777685463 84.01379310525954,239.40977138560265 81.53103448264301,232.41972067859024 57.20000000111759,206.0725472504273 44.786206897348166,196.3939702375792 38.331034483388066,194.78087283996865 30.882758621126413,195.31857201084495 24.427586207166314,198.00706728361547 19.462068965658545,203.384054902941 14.993103448301554,214.13801844557747 14.496551724150777,218.97729695262387 16.48275862261653,226.50505724083632 19.958620689809322,232.41972067859024" stroke="#4dd2ff" stroke-linecap="round" stroke-linejoin="round" stroke-width="0.5"><title>2023-12-17 10.0km</title></polyline></svg>