<?xml version="1.0" encoding="utf-8" ?>
<svg baseProfile="full" height="200mm" version="1.1" viewBox="0,0,200,200" width="200mm" xmlns="http://www.w3.org/2000/svg" xmlns:ev="http://www.w3.org/2001/xml-events" xmlns:xlink="http://www.w3.org/1999/xlink"><defs /><rect fill="#1a1a1a" height="200" width="200" x="0" y="0" /><text alignment-baseline="middle" fill="#e1ed5e" style="dominant-baseline: central; font-size:9.0px; font-family:Arial;" text-anchor="middle" x="100.0" y="100.0">2024</text><line stroke="#e1ed5e" stroke-width="0.3" x1="100.0" x2="100.0" y1="15.0" y2="10.0" /><path d="M 100.0 14.0 a86.0,86.0 0 0,1 42.35913384403234,11.155469271406648" fill="none" id="id13" stroke="none" /><text fill="#e1ed5e" style="font-size:6.75px; font-family:Arial;" text-anchor="middle"><textPath startOffset="22.145653131862478" xlink:href="#id13">January</textPath></text><path d="M 101.08105385017728 79.02784411241856 l 1.2757497381639236 -24.74920410109778 a45.782062888957014,45.782062888957014 0 0,0 0.7845206619818085,0.047194814888166604 l -1.7004147522781945 24.723657308384922" fill="#f1ff19" stroke="none" /><path d="M 102.51750503828377 79.15144685158666 l 5.949020952035665 -49.266427519879976 a70.62430584763223,70.62430584763223 0 0,0 1.202369316861732,0.15567078034008866 l -6.793868090788189 49.15704514333949" fill="#3bff9a" stroke="none" /><path d="M 102.87502721639298 79.19773525538626 l 3.4076324692990054 -24.655931037631774 a45.890297193450195,45.890297193450195 0 0,0 0.779424614528854,0.11454857737504609 l -3.8303821894355417 24.593801386957846" fill="#efff19" stroke="none" /><path d="M 103.58742460773223 79.30868818359171 l 1.0663381109689314 -6.150354855743031 a27.242110365771072,27.242110365771072 0 0,0 0.4600871586432286,0.08384320661443088 l -1.1717600031632136 6.131143475197234" fill="#ff0000" stroke="none" /><path d="M 104.9986988182912 79.60360301121754 l 11.266501767731326 -45.97117191549923 a68.33162483336778,68.33162483336778 0 0,0 1.136890858194614,0.2889932103759536 l -12.053997919151335 45.77099347328801" fill="#38ff7e" stroke="none" /><path d="M 107.40779381753099 80.34994680014964 l 15.861600081241768 -42.07477868694713 a65.96529059944825,65.96529059944825 0 0,0 1.0561600196290273,0.40854538449385974 l -16.58153236336432 41.79629341431523" fill="#35ff61" stroke="none" /><line stroke="#e1ed5e" stroke-width="0.3" x1="143.13028292997686" x2="145.6673583964461" y1="26.7553504044142" y2="22.446841604673864" /><path d="M 143.63769802327073 25.89364864446614 a86.0,86.0 0 0,1 29.32050498858742,28.57503671076993" fill="none" id="id14" stroke="none" /><text fill="#e1ed5e" style="font-size:6.75px; font-family:Arial;" text-anchor="middle"><textPath startOffset="20.669276256404974" xlink:href="#id14">February</textPath></text><line stroke="#e1ed5e" stroke-width="0.3" x1="172.87174338648825" x2="177.1583165268699" y1="56.24261187166439" y2="53.66864786411523" /><path d="M 173.72905801456457 55.72781907015455 a86.0,86.0 0 0,1 12.242430191666344,42.057860355516425" fill="none" id="id15" stroke="none" /><text fill="#e1ed5e" style="font-size:6.75px; font-family:Arial;" text-anchor="middle"><textPath startOffset="22.145653131862474" xlink:href="#id15">March</textPath></text><path d="M 119.58574465831526 92.42381321644754 l 21.033463749284497 -8.136195628487588 a43.55225657439817,43.55225657439817 0 0,0 0.2637386041382975,0.699597981507954 l -21.170033037237236 7.773929366785476" fill="#fff016" stroke="none" /><path d="M 120.51834098615036 95.52812308129327 l 43.907631985318794 -9.56946403038872 a65.93834429957442,65.93834429957442 0 0,0 0.23154497395722293,1.1080265206094593 l -44.06543467010038 8.814321058493856" fill="#34ff61" stroke="none" /><path d="M 120.86939407059847 97.66154086499901 l 22.5400881546226 -2.5256638918502707 a43.68114970879462,43.68114970879462 0 0,0 0.0771026530169136,0.7458982260502857 l -22.580123200121182 2.1383611435170535" fill="#fff216" stroke="none" /><path d="M 120.9064616781168 98.02013634271609 l 44.77976039261304 -4.2406898665218 a65.98011106437885,65.98011106437885 0 0,0 0.09710505747622189,1.1285079612448137 l -44.845959072787004 3.471360857901324" fill="#35ff61" stroke="none" /><path d="M 120.96210409425399 98.7389718711861 l 45.270577631451864 -2.723365533546946 a66.3524191076355,66.3524191076355 0 0,0 0.05863787782614531,1.1375591645922647 l -45.31065709873458 1.9458345755779507" fill="#35ff66" stroke="none" /><line stroke="#e1ed5e" stroke-width="0.3" x1="184.99686870605535" x2="189.99668451229388" y1="99.2704041080226" y2="99.22748670261217" /><path d="M 185.99683186730306 99.26182062694052 a86.0,86.0 0 0,1 -10.086455211305974,41.156179273409016" fill="none" id="id16" stroke="none" /><text fill="#e1ed5e" style="font-size:6.75px; font-family:Arial;" text-anchor="middle"><textPath startOffset="21.40746469413373" xlink:href="#id16">April</textPath></text><path d="M 120.99303781780057 100.54070618675476 l 44.935567593421155 1.1573808237746912 a65.95047013451764,65.95047013451764 0 0,0 -0.03886465288665852,1.1315019637389723 l -44.90907825353765 -1.9285890520777742" fill="#35ff61" stroke="none" /><path d="M 120.96210409425399 101.26102812881392 l 44.94870213890471 2.704002303202671 a66.02996171914542,66.02996171914542 0 0,0 -0.07777712844542767,1.13086237786322 l -44.89566104929421 -3.4752081052202346" fill="#35ff62" stroke="none" /><path d="M 120.9064616781168 101.97986365728391 l 62.7193850343504 5.939590971851738 a84.0,84.0 0 0,0 -0.14827043007333573,1.4343819108682743 l -62.6081822117954 -7.015377405002943" fill="#4dd2ff" stroke="none" /><path d="M 120.86939407059847 102.33845913500097 l 20.114383164416598 2.2538585881612554 a41.240264045224166,41.240264045224166 0 0,0 -0.08487229400643773,0.702864346053997 l -20.072728784150495 -2.598816611138661" fill="#ffd013" stroke="none" /><path d="M 120.77682067341334 103.0534771498775 l 46.387826434826586 6.81741303338475 a67.88611267545392,67.88611267545392 0 0,0 -0.17934382075083935,1.151515981796659 l -46.26396112193748 -7.61271719711286" fill="#37ff79" stroke="none" /><path d="M 120.43855184770803 104.8234425847677 l 43.80682518297809 10.33829146338203 a66.01020109923795,66.01020109923795 0 0,0 -0.26973803007058733,1.100623211016485 l -43.6228996263912 -11.088770499006614" fill="#35ff61" stroke="none" /><line stroke="#e1ed5e" stroke-width="0.3" x1="174.33088141563837" x2="178.70328620479359" y1="141.23008692659167" y2="143.65538615756765" /><path d="M 175.20536237346943 141.71514677278685 a86.0,86.0 0 0,1 -30.301960400862466,31.631185727798858" fill="none" id="id17" stroke="none" /><text fill="#e1ed5e" style="font-size:6.75px; font-family:Arial;" text-anchor="middle"><textPath startOffset="22.145653131862474" xlink:href="#id17">May</textPath></text><line stroke="#e1ed5e" stroke-width="0.3" x1="143.1302829299769" x2="145.66735839644613" y1="173.24464959558577" y2="177.55315839532614" /><path d="M 143.63769802327073 174.10635135553383 a86.0,86.0 0 0,1 -40.68552437913181,11.842963189579606" fill="none" id="id18" stroke="none" /><text fill="#e1ed5e" style="font-size:6.75px; font-family:Arial;" text-anchor="middle"><textPath startOffset="21.407464694133747" xlink:href="#id18">June</textPath></text><line stroke="#e1ed5e" stroke-width="0.3" x1="101.45913802915013" x2="101.54496967792366" y1="184.9874750549273" y2="189.98673829345242" /><path d="M 101.47630435890484 185.9873277026323 a86.0,86.0 0 0,1 -42.54439059252881,-10.42667462771756" fill="none" id="id19" stroke="none" /><text fill="#e1ed5e" style="font-size:6.75px; font-family:Arial;" text-anchor="middle"><textPath startOffset="22.145653131862474" xlink:href="#id19">July</textPath></text><line stroke="#e1ed5e" stroke-width="0.3" x1="58.13341422392154" x2="55.67067388415222" y1="173.97424548756322" y2="178.32567169271397" /><path d="M 57.64086615596768 174.84453072859336 a86.0,86.0 0 0,1 -31.369924170532247,-30.572349798747897" fill="none" id="id20" stroke="none" /><text fill="#e1ed5e" style="font-size:6.75px; font-family:Arial;" text-anchor="middle"><textPath startOffset="22.145653131862474" xlink:href="#id20">August</textPath></text><line stroke="#e1ed5e" stroke-width="0.3" x1="26.387840678322732" x2="22.057713659400548" y1="142.50000000000003" y2="145.00000000000006" /><path d="M 25.521815274538298 143.00000000000003 a86.0,86.0 0 0,1 -11.493303480769221,-40.785679425670985" fill="none" id="id21" stroke="none" /><text fill="#e1ed5e" style="font-size:6.75px; font-family:Arial;" text-anchor="middle"><textPath startOffset="21.40746469413373" xlink:href="#id21">September</textPath></text><line stroke="#e1ed5e" stroke-width="0.3" x1="15.003131293944662" x2="10.003315487706104" y1="100.72959589197737" y2="100.7725132973878" /><path d="M 14.003168132696942 100.73817937305945 a86.0,86.0 0 0,1 10.791469493833604,-42.45332614584628" fill="none" id="id22" stroke="none" /><text fill="#e1ed5e" style="font-size:6.75px; font-family:Arial;" text-anchor="middle"><textPath startOffset="22.145653131862435" xlink:href="#id22">October</textPath></text><line stroke="#e1ed5e" stroke-width="0.3" x1="26.387840678322718" x2="22.05771365940052" y1="57.49999999999999" y2="54.99999999999999" /><path d="M 25.521815274538284 56.99999999999999 a86.0,86.0 0 0,1 29.574782752854787,-30.34633250058573" fill="none" id="id23" stroke="none" /><text fill="#e1ed5e" style="font-size:6.75px; font-family:Arial;" text-anchor="middle"><textPath startOffset="21.40746469413373" xlink:href="#id23">November</textPath></text><line stroke="#e1ed5e" stroke-width="0.3" x1="56.869717070023135" x2="54.33264160355391" y1="26.7553504044142" y2="22.446841604673864" /><path d="M 56.362301976729285 25.89364864446614 a86.0,86.0 0 0,1 42.16139366436587,-11.88097634709845" fill="none" id="id24" stroke="none" /><text fill="#e1ed5e" style="font-size:6.75px; font-family:Arial;" text-anchor="middle"><textPath startOffset="22.145653131862474" xlink:href="#id24">December</textPath></text></svg>