<?xml version="1.0" encoding="utf-8" ?>
<svg baseProfile="full" height="300mm" version="1.1" viewBox="0,0,200,300" width="200mm" xmlns="http://www.w3.org/2000/svg" xmlns:ev="http://www.w3.org/2001/xml-events" xmlns:xlink="http://www.w3.org/1999/xlink"><defs /><rect fill="#222222" height="300" width="200" x="0" y="0" /><text fill="#FFFFFF" style="font-size:12px; font-family:Arial; font-weight:bold;" x="10" y="20">Over 10km Runs</text><text fill="#FFFFFF" style="font-size:4px; font-family:Arial" x="10" y="280">ATHLETE</text><text fill="#FFFFFF" style="font-size:9px; font-family:Arial" x="10" y="290">kilerd</text><text fill="#FFFFFF" style="font-size:4px; font-family:Arial" x="120" y="280">STATISTICS</text><text fill="#FFFFFF" style="font-size:3px; font-family:Arial" x="120" y="285">Number: 9</text><text fill="#FFFFFF" style="font-size:3px; font-family:Arial" x="120" y="290">Weekly: 1.1</text><text fill="#FFFFFF" style="font-size:3px; font-family:Arial" x="141" y="285">Total: 97.8 km</text><text fill="#FFFFFF" style="font-size:3px; font-family:Arial" x="141" y="290">Avg: 10.9 km</text><text fill="#FFFFFF" style="font-size:3px; font-family:Arial" x="167" y="285">Min: 10.0 km</text><text fill="#FFFFFF" style="font-size:3px; font-family:Arial" x="167" y="290">Max: 16.0 km</text><polyline fill="none" points="13.996923076920211,43.44795375759713 14.661538460291922,46.68643384263851 14.661538460291922,49.92490970226936 15.160000000149012,51.72406113171019 14.661538460291922,54.242870941758156 14.495384614914656,58.5608246687334 13.166153845377266,69.35567612224258 13.0,83.3889128237497 13.498461537994444,84.64830198138952 16.987692307680845,85.18803999619558 21.307692307047546,85.00812733732164 33.27076923009008,85.18803999619558 36.26153846178204,85.90769049990922 40.083076923154294,86.08760309335776 46.23076923098415,86.26751567330211 48.55692307651043,85.90769049990922 52.87692307680845,85.90769049990922 56.03384615294635,85.18803999619558 60.353846153244376,85.00812733732164 61.683076922781765,84.46838928340003 63.01230769138783,82.30943589401431 64.50769230723381,76.91204420500435 66.33538461476564,75.11291103367694 66.33538461476564,65.93731157504953 66.00307692307979,57.12150759482756 67.0,40.02955352771096 66.66769230738282,37.690645394148305 65.00615384522825,36.071400011191145 64.00923076830804,35.35173505707644 54.704615384340286,34.99190250155516 51.87999999988824,35.17181878583506 23.467692307196558,34.4521535707172 17.486153846606612,35.17181878583506 16.32307692244649,35.71156755997799 15.658461537212133,36.61114858975634 14.993846153840423,39.849637595470995 14.163076922297478,48.485587619710714 13.498461537994444,60.53988428320736 13.166153845377266,72.4142088314984 13.332307692617178,81.76969725359231 13.830769230611622,83.92865111213177 14.495384614914656,84.46838928340003 15.658461537212133,84.64830198138952 19.81230769213289,84.28847657283768 31.941538461484015,84.64830198138952 35.098461537621915,85.36795264156535 45.566153845749795,86.08760309335776 48.55692307651043,85.90769049990922 53.541538461111486,85.90769049990922 60.52000000048429,84.64830198138952 61.51692307647318,84.28847657283768 62.846153846010566,81.94961014646105 64.17538461554796,77.2718706827145 65.50461538415402,75.83256445871666 65.8369230767712,74.7530842430424 66.00307692307979,64.67791292350739 65.67076923046261,58.74073924450204 66.16923076938838,54.06295604025945 66.66769230738282,39.12997373729013 66.50153846107423,37.51072929287329 64.83999999985099,35.71156755997799 63.01230769138783,35.17181878583506 49.38769230712205,35.531651315046474 44.73538461513817,35.17181878583506 38.42153846099973,35.17181878583506 33.27076923009008,34.63206989411265 24.46461538504809,34.2722372347489 16.821538461372256,34.63206989411265 15.990769230760634,34.99190250155516 15.326153845526278,36.071400011191145 15.160000000149012,38.770141729852185 15.326153845526278,41.64879632857628 13.0,66.29713964369148 13.332307692617178,78.89108918700367 14.329230768606067,83.56882559973747 15.160000000149012,84.46838928340003 17.65230769198388,84.82821466587484 32.27384615316987,85.00812733732164 36.593846153467894,85.72777789342217 45.566153845749795,86.44742824090645 48.72307692281902,85.90769049990922 52.87692307680845,86.08760309335776 56.69846153818071,84.82821466587484 60.52000000048429,85.18803999619558 62.01538461539894,84.10856384900399 62.846153846010566,82.30943589401431 64.00923076830804,77.09195745037869 65.67076923046261,75.11291103367694 66.00307692307979,73.67360355751589 65.50461538415402,66.65696766041219 65.50461538415402,58.200995478313416 66.50153846107423,40.38938535260968 66.33538461476564,38.59022570634261 66.00307692307979,37.51072929287329 63.67692307662219,35.531651315046474 61.683076922781765,35.17181878583506 49.71999999880791,35.531651315046474 43.57230769190937,35.35173505707644 33.104615384712815,34.63206989411265 18.981538461521268,34.63206989411265 17.15384615305811,34.81198620470241 16.32307692244649,35.35173505707644 15.824615384452045,36.251316216541454 15.492307691834867,38.770141729852185 15.492307691834867,42.188543694326654 13.830769230611622,67.01679562474601 13.0,75.47273777215742 13.498461537994444,83.3889128237497 14.329230768606067,84.10856384900399 16.32307692244649,84.64830198138952 26.126153846271336,84.46838928340003 32.27384615316987,85.18803999619558 35.264615383930504,85.90769049990922 38.587692307308316,85.72777789342217 45.732307692058384,86.44742824090645 48.55692307651043,86.08760309335776 53.20923076849431,86.26751567330211 56.69846153818071,85.36795264156535 60.85230769217014,85.18803999619558 61.683076922781765,84.64830198138952 62.846153846010566,83.2090000344906 64.00923076830804,77.63169710850343 65.17230769246817,75.65265112207271 65.50461538415402,73.49369006464258 65.50461538415402,54.96253041783348 65.8369230767712,45.60694095073268 66.50153846107423,39.669721650891006 66.33538461476564,37.87056148308329 66.00307692307979,36.61114858975634 64.34153846092522,35.35173505707644 62.51384615339339,34.99190250155516 58.52615384571254,35.531651315046474 56.03384615294635,35.531651315046474 46.729230768978596,34.99190250155516 26.292307691648602,34.4521535707172 19.978461537510157,34.09232088527642 16.987692307680845,34.2722372347489 15.658461537212133,35.17181878583506 15.326153845526278,36.251316216541454 15.160000000149012,38.23039362067357 15.492307691834867,45.06719432841055 14.329230768606067,56.76167819532566 14.329230768606067,65.39756937418133 13.830769230611622,66.4770536585711 14.163076922297478,75.29282440966927 13.664615384303033,80.5103066349402 13.996923076920211,83.56882559973747 14.329230768606067,84.10856384900399 15.326153845526278,84.28847657283768 18.316923077218235,84.10856384900399 27.455384614877403,84.28847657283768 36.427692307159305,85.5478652738966 45.566153845749795,86.08760309335776 48.72307692281902,85.72777789342217 53.3753846148029,85.72777789342217 55.86769230756909,85.18803999619558 59.68923076894134,85.18803999619558 61.184615383856,84.46838928340003 61.849230769090354,83.56882559973747 62.51384615339339,82.12952302675694 63.5107692303136,77.63169710850343 64.83999999985099,75.29282440966927 65.33846153784543,74.03343050507829 65.50461538415402,65.21765528083779 65.00615384522825,56.58176347636618 65.50461538415402,53.52321125683375 65.50461538415402,47.76592626539059 66.33538461476564,38.59022570634261 66.00307692307979,37.51072929287329 64.6738461535424,36.251316216541454 63.67692307662219,35.531651315046474 61.683076922781765,35.17181878583506 47.22769230790436,35.17181878583506 18.64923076890409,33.91240452299826 17.320000000298023,34.09232088527642 16.156923077069223,34.63206989411265 15.658461537212133,36.251316216541454 14.993846153840423,45.06719432841055 14.495384614914656,48.84541821829043 13.996923076920211,68.27619308978319 13.996923076920211,81.58978434721939 14.329230768606067,83.56882559973747 15.326153845526278,84.28847657283768 31.941538461484015,85.18803999619558 36.593846153467894,85.90769049990922 45.39999999944121,86.44742824090645 49.221538461744785,85.90769049990922 53.04307692311704,85.72777789342217 56.200000000186265,85.00812733732164 60.0215384606272,84.82821466587484 61.184615383856,84.46838928340003 62.51384615339339,82.489348748466 64.00923076830804,77.81161030149087 64.50769230723381,76.7321309465915 65.8369230767712,75.29282440966927 65.8369230767712,74.57317082816735 65.8369230767712,65.75739752105437 66.50153846107423,48.84541821829043 66.16923076938838,38.05047755804844 65.67076923046261,36.97098090988584 64.17538461554796,35.71156755997799 61.35076923016459,35.71156755997799 56.200000000186265,34.81198620470241 39.08615384623408,34.99190250155516 26.95692307688296,34.2722372347489 18.64923076890409,34.4521535707172 16.821538461372256,34.81198620470241 15.990769230760634,35.891483791870996 15.824615384452045,36.61114858975634 14.993846153840423,47.94584162323736 14.329230768606067,51.90397620247677 13.996923076920211,59.820226424140856 14.329230768606067,68.99584849667735 14.163076922297478,83.02908723265864 14.495384614914656,84.10856384900399 14.827692307531834,84.64830198138952 16.821538461372256,85.00812733732164 27.289230769500136,84.82821466587484 32.77230769209564,85.18803999619558 38.587692307308316,86.08760309335776 45.89846153836697,86.26751567330211 48.72307692281902,85.90769049990922 52.87692307680845,85.90769049990922 55.53538461495191,85.00812733732164 59.02461538463831,85.00812733732164 61.01846153847873,84.64830198138952 61.683076922781765,83.92865111213177 62.34769230801612,82.66926158918068 64.00923076830804,76.5522176749073 64.34153846092522,75.83256445871666 65.8369230767712,74.93299764511175 66.00307692307979,73.49369006464258 65.67076923046261,56.94159290147945 66.16923076938838,51.36423094989732 66.16923076938838,41.828712130198255 65.8369230767712,37.330813178326935 64.6738461535424,35.891483791870996 62.67999999970198,34.99190250155516 44.403076922520995,34.81198620470241 24.29846153780818,34.2722372347489 18.150769229978323,34.4521535707172 16.655384615063667,34.99190250155516 15.824615384452045,36.251316216541454 15.658461537212133,39.48980569234118 14.993846153840423,42.54837520653382 14.495384614914656,47.22618011268787 14.329230768606067,52.44372133817524 14.495384614914656,57.48133694124408 13.996923076920211,65.75739752105437 13.664615384303033,82.66926158918068 13.996923076920211,83.92865111213177 14.993846153840423,84.46838928340003 15.658461537212133,84.64830198138952 18.150769229978323,84.46838928340003 25.461538461968303,84.82821466587484 29.781538461335003,84.46838928340003 35.264615383930504,85.36795264156535 46.23076923098415,85.90769049990922 53.541538461111486,85.18803999619558 55.7015384612605,84.46838928340003 60.0215384606272,84.64830198138952 61.184615383856,84.10856384900399 62.01538461539894,82.66926158918068 63.34461538493633,78.71117607224733 65.8369230767712,75.11291103367694 65.8369230767712,54.422785830218345 65.50461538415402,50.824485579971224 66.50153846107423,42.36845945683308 66.50153846107423,37.87056148308329 66.00307692307979,36.97098090988584 63.67692307662219,35.35173505707644 62.18153846077621,34.99190250155516 59.68923076894134,34.63206989411265 54.704615384340286,34.99190250155516 47.39384615328163,35.17181878583506 37.92307692207396,34.81198620470241 22.8030769219622,33.55257175932638 18.981538461521268,34.09232088527642 17.818461538292468,34.63206989411265 17.15384615305811,35.531651315046474 16.655384615063667,36.97098090988584 15.824615384452045,40.20946944667958 15.160000000149012,44.887278761481866 14.661538460291922,49.92490970226936 14.661538460291922,55.32236007764004 13.996923076920211,62.33902801782824 14.163076922297478,66.11722561600618 13.498461537994444,76.91204420500435 13.996923076920211,83.92865111213177 14.329230768606067,84.46838928340003 15.326153845526278,84.82821466587484 23.467692307196558,85.18803999619558 32.938461538404226,84.46838928340003" stroke="#4dd2ff" stroke-linecap="round" stroke-linejoin="round" stroke-width="0.5"><title>2024-03-29 10.1km</title></polyline><polyline fill="none" points="125.16385653801262,77.55531612715276 124.72558908013161,77.41293082886841 124.02436114760349,77.38128963884083 123.64452935080044,77.31800724499044 123.00173707923386,77.01741562354437 122.60729636723408,76.7801061560458 122.27129131619586,76.60607904905919 120.88344436633633,75.56191349097935 119.94847378967097,74.77087564872636 118.88202297553653,73.72670130322513 117.83018107671523,72.80908941742382 117.39191361883422,72.50849158068013 117.2019977204618,72.47684967904934 117.01208182203118,72.49267063043953 116.88060158467852,72.60341725811304 116.70529460156104,72.77744755937601 116.50076978781726,73.10968683975807 116.09172016062075,73.56849263288314 115.55119029583875,74.15386413979286 114.70387321076123,75.1505741711444 113.91499178658705,76.00489342927176 113.30141734558856,76.62189970091276 113.22837276931386,76.7010029428202 113.06767470145132,77.03323624553741 112.76088748092297,77.38128963884083 112.39566459937487,77.72934247666853 112.08887737890473,77.84008644493588 112.05965954839485,77.82426588145609 112.074268463708,77.82426588145609 112.05965954839485,77.8717275683739 111.92817931098398,77.9982920163311 111.53373859892599,78.52036958774261 110.61337693751557,79.56452098116279 109.97058466594899,80.2289783560409 108.94796059769578,81.49460585096676 108.67039120773552,81.77937102518626 108.37821290246211,82.11159659185796 107.86690086836461,82.60202388452308 107.73542063095374,82.76022600170108 107.45785124099348,83.32975267364236 107.39941557997372,83.40885348271695 107.15106402052334,83.61451545197633 106.81505896948511,83.78853696680744 106.68357873213245,83.99419857804605 106.42061825742712,84.31060067824728 106.11383103695698,84.62700231952476 105.77782598591875,84.89594335372385 105.63173683331115,85.06996384623926 105.48564768070355,85.29144427223946 105.12042479915544,85.70276446682692 104.52145927341189,86.31974330439698 104.4484146971372,86.4937626610481 104.27310771396151,86.71524164140283 104.053973985021,86.90508058847627 103.93710266298149,86.95254029943317 103.70336001884425,87.0 103.49883520510048,86.98418010096066 103.19204798463034,86.81016113558144 102.94369642517995,86.38302308649872 102.44699330633739,85.62366448961257 100.59166106808698,82.44382165254501 99.94886879657861,81.47878555256466 98.79476449091453,79.56452098116279 98.47336835513124,79.10572780277289 98.29806137201376,78.77349765729741 98.07892764313146,78.15649747298448 97.75753150734818,77.55531612715276 97.40691754105501,76.98577437612403 97.1877838121145,76.59025839609967 96.57420937117422,75.60937567026122 96.32585781172384,75.16639492852846 95.94602601492079,74.61266773594252 95.3324515739805,73.5843135050527 94.99644652294228,72.96729863874498 94.79192170931492,72.66670102009084 93.87156004778808,71.87565267513855 93.40407475939719,71.41684332015575 92.717455742124,70.83146446559113 92.22075262322323,70.35683180819615 91.89935648743995,70.11951509206847 91.154301809147,69.45502691272122 90.93516808014829,69.23353040292568 90.59916302916827,68.94874884544697 90.00019750348292,68.3633633646532 89.53271221509203,67.87290404907253 88.6123505536234,67.12930233715451 88.15947418054566,66.65466162050143 87.79425129899755,66.36987669450173 87.15145902743097,65.76866285139113 86.69858265435323,65.42059092123236 86.2895330270403,65.0092324691941 85.7782209928846,64.55040866468335 85.41299811133649,64.26562098992872 84.85785933135776,63.711866113008 83.80601743259467,62.82585538420244 83.39696780522354,62.398670353300986 82.78339336428326,61.892375899347826 81.43937316018855,60.674100050513516 81.13258593977662,60.34184181917226 80.6212739055627,59.89883005626325 80.31448668509256,59.598214418656426 79.80317465087865,58.87040642129432 79.65708549827104,58.5856113260088 79.52560526097659,58.19006196530245 79.45256068464369,58.04766401971574 79.3502982778009,57.762867849494796 79.33568936254596,57.28820673885639 79.29186261678115,57.01923165067274 79.277253701468,56.54456892062444 79.29186261678115,56.30723716797365 79.45256068464369,55.75346207343682 79.64247658313252,55.215507777247694 79.87621922726976,54.83577453343605 80.19761536293663,54.34528478095308 80.60666499024956,53.82314931535802 81.39554641442373,52.589005969668506 81.99451194016729,51.766239856529864 82.60808638116578,50.80106795702886 82.76878444902832,50.405504468188155 83.06096275424352,49.53526226549002 83.10478950006654,49.345390777569264 83.07557166949846,49.09222853639221 83.03174492373364,48.98146996338619 82.84182902536122,48.74412997455511 82.35973482165718,47.90552661035326 81.95068519434426,47.27261627400003 81.5270266517764,46.49729860678781 80.82579871924827,45.45298881713825 80.22683319350472,44.40867402247386 79.61325875250623,43.41182341297099 79.24803587101633,42.65231512558239 78.70750600629253,41.68710285676934 78.54680793842999,41.481401328681386 78.13775831117528,40.64277001208393 78.03549590427428,40.37377437771647 77.7140997685492,39.89907538921398 77.14435207331553,38.696499989251606 76.72069353080587,37.968622180167586 75.94642102182843,36.40209429846436 75.72728729294613,36.11726983699191 75.30362875037827,35.35773611905461 75.20136634359369,35.05708662410325 74.92379695357522,34.55072864203248 74.85075237724232,34.32919665479858 74.83614346198738,34.09184070414631 74.89457912306534,33.82283698076208 74.96762369939825,33.71207064516784 75.11371285194764,33.58548047838849 75.3912822419079,33.44306645281904 76.26781715761172,33.11076669770409 76.93982725968817,33.0 77.11513424280565,33.0158238173899 77.26122339547146,33.12659050706134 77.46574820909882,34.23425430554198 77.43653037853073,34.56655234681966 77.55340170068666,35.24697056393779 77.52418387006037,35.40520705397648 77.6410551922163,35.84826861473266 77.75792651431402,36.63944773191179 77.88940675172489,37.01921268751903 77.88940675172489,37.288212463856325 78.0062780737644,37.71544672003074 77.99166915845126,37.79456408294209 77.91862458217656,37.88950488049886 77.97706024325453,38.03191599926504 77.96245132799959,38.20597390686453 77.99166915845126,38.31673795748793 78.03549590427428,38.38003167542047 78.0793226500391,38.38003167542047 78.64907034521457,38.19015046648565 78.72211492154747,38.20597390686453 78.75133275211556,38.237620784246246 78.78055058256723,38.41167852751096 79.01429322682088,38.74397019665048 79.43795176938875,39.74084216319898 80.109961871407,40.92758855706779 80.50440258352319,41.402285304662655 81.20563051605131,42.39914510808012 81.58546231285436,42.8580155481759 82.12599217751995,43.3801772872248 82.40356156748021,43.61752311853343 82.63730421167566,43.75993049326644 82.92948251694907,44.0447449634521 83.51383912732126,44.50361193792196 84.18584922933951,44.96247794601368 84.49263644986786,45.19982205379347 84.7263790940633,45.40552007142105 85.36917136557167,45.88020706329553 85.57369617919903,46.10172730560589 86.04118146758992,46.48147576850897 86.45023109490285,46.70299539959524 86.56710241700057,46.877046380293905 86.62553807807853,46.924514805476065 86.93232529854868,47.0985656092671 87.16606794274412,47.288439054842456 87.44363733270438,47.39919848833233 87.69198889215477,47.55742615283816 88.14486526523251,47.93717207889131 88.87531102838693,48.47514434138429 89.24053390987683,48.80742066350649 89.7372370287776,49.13969647898921 90.43846496130573,49.693488378994516 90.75986109708901,49.8833595635806 91.47569794487208,50.405504468188155 91.8117029958521,50.70613278519886 92.06005455530249,50.88018056862347 92.38145069108577,51.16498573264107 92.70284682686906,51.37067811959423 93.02424296259414,51.63966017882922 93.94460462406278,52.288380250000046 94.5727879803162,52.81051939242752 94.87957520078635,53.03203259014117 95.1133178449818,53.17443381260091 95.46393181133317,53.490880640558316 95.75611011654837,53.66492620004283 96.15055082854815,53.99719460956112 96.86638767638942,54.40857384329138 97.42152645630995,54.8515967651183 97.801358253113,55.231329981354065 99.04311605036492,56.16483799235721 99.64208157610847,56.702789945484255 99.90504205081379,56.90847710613161 100.13878469500924,57.145808204077184 100.98610178014496,57.747045829106355 101.30749791587004,58.095130011904985 101.51202272955561,58.19006196530245 101.71654754318297,58.41156969573058 101.77498320426093,58.569789365370525 101.97950801788829,58.66472111204348 102.38855764520122,58.98115996895649 102.78299835731741,59.360885990885436 103.00213208619971,59.61403630468703 103.23587473045336,59.75643322696851 103.49883520510048,60.05704864636937 104.01014723925618,60.48423826601356 104.22928096819669,60.62663461991178 105.33955852809595,61.57594126847107 105.52947442646837,61.781623830785975 105.66095466387924,61.84491073398385 105.67556357913418,61.892375899347826 105.64634574856609,61.90819761880266 105.58791008754633,61.892375899347826 105.44182093493873,61.781623830785975" stroke="#4dd2ff" stroke-linecap="round" stroke-linejoin="round" stroke-width="0.5"><title>2024-03-27 10.0km</title></polyline><polyline fill="none" points="186.3108289068332,86.4172590753733 185.96689650282497,86.29669181001373 185.11611634551082,85.77423295701738 184.7721839415026,85.61347615695558 183.01631851046113,85.5732869400963 182.31035199703183,85.61347615695558 182.0388264148496,85.67375996970804 181.6948940108996,85.85461131649208 181.15184284665156,86.33688090527721 180.75360532623017,86.57801533445308 180.24675757298246,86.79905501418398 179.61319788137916,86.93971652201435 179.1244518336025,86.93971652201435 178.6900109021226,86.8794330288074 178.14695973799098,86.71867697250855 177.6582136900979,86.4775426852575 177.13326423132094,86.09574623256049 176.53590795071796,85.53309771641216 175.26878856745316,83.82504945962864 174.92485616350314,83.48343834270781 174.18268623907352,82.80021464308084 173.36810949270148,82.29784302896587 172.8069566229824,82.03660937202221 172.19149863690836,81.89594497690268 171.5036338288919,81.81556528534566 170.68905708251987,81.7552804988809 170.38132808945375,81.63471088041842 170.20031103480142,81.47395129447978 170.0917008019169,81.2930966309068 170.01929397997446,81.05195686644583 169.9649888635613,79.74577891163062 169.67536157602444,78.94197354289645 169.6934632814373,78.76111696213775 169.83827692520572,78.07787975444808 169.78397180885077,76.73149483038287 169.6934632814373,76.51044583400653 169.5305479321396,76.32958741192124 169.20471723366063,76.16882425520453 168.6254626584705,76.02815640423796 167.66607226838823,75.94777473797149 166.6161733508343,75.74682045384543 165.87400342640467,75.48557963169878 165.27664714574348,75.20424304221524 164.5525789267267,74.90281061419228 164.3172567555448,74.8224285691249 164.1181379953632,74.84252408289467 163.91901923512341,74.92290612119541 163.73800218041288,75.08367011665541 163.48457830381813,75.40519778283488 163.3397646599915,75.46548417203303 163.0139339614543,75.50567508974927 162.52518791356124,75.46548417203303 162.39847597532207,75.40519778283488 162.14505209872732,75.22433852385439 161.78301798924804,74.78223753644852 161.4390855851816,74.46070903159853 161.13135659211548,74.09898894622165 160.91413612640463,73.7171727061941 160.64261054433882,72.97363406582735 160.47969519504113,72.79277296544751 159.9366440307931,72.5918160265719 158.9591519352398,72.39085891866125 158.65142294217367,72.29038030123047 158.09027007239638,71.98894419551652 156.31630293600028,70.40137442613195 156.00857394293416,70.2004154749302 155.37501425133087,69.91907265919144 154.37942045019008,69.67792141043174 153.70965734764468,69.31619408076222 153.5105385874631,69.17552219345816 153.1485044779838,68.75350603432162 152.5149447863805,68.15062451327685 152.15291067684302,67.90947147866245 151.6098595126532,67.62812596383446 150.9400964101078,67.36687626042112 150.72287594439695,67.22620322479634 150.57806230062852,67.06543393977336 150.17982478026533,66.42235571719357 149.89019749255385,66.02043094865803 149.56436679407489,65.73908320815826 149.0032139243558,65.45773513622407 148.67738322587684,65.19648305827286 148.0619252397446,64.29214673500974 147.6274843083229,63.729446849785745 146.48707686341368,62.483463813507115 145.79921205539722,61.59921384336485 145.726805233513,61.438440769692534 145.70870352798374,61.21737761663098 145.7630086444551,60.43360660652979 145.6906018225709,59.9713814714778 145.5276864733314,59.58954264150816 145.2561608912074,59.16750954001327 144.64070290507516,58.52441004614229 144.4596858503064,58.30334419499559 144.20626197371166,57.3788847818214 144.1881602682406,56.71568343248509 144.13385515182745,56.37403353357513 144.06144832988502,56.173062776375446 143.80802445323206,55.77112075453624 143.39168522733962,55.34908090328099 142.70382041932316,54.50499896267138 142.6133118919679,54.42461005075893 142.50470165902516,54.40451281858259 142.43229483725736,54.40451281858259 142.1788709606044,54.58538784745906 141.99785390577745,54.64567949336197 141.76253173471196,54.54519340847037 141.3823959197034,54.223637652612524 141.25568398134783,54.14324864595255 141.16517545393435,54.123151390085695 140.9117515773396,54.16334590013139 140.73073452268727,54.082956873229705 140.45920894050505,53.68101133251912 140.2781918857945,53.35945441262447 140.26009018032346,53.25896778635797 140.29629359120736,53.098189096330316 140.53161576244747,52.87711822081474 140.56781917338958,52.79672876074619 140.58592087880243,52.67614451992267 140.5135140569182,52.475170649864594 140.35059870767873,52.354586246598046 140.0428697146126,52.19380694752908 139.28259808471194,51.34971385083918 138.72144521505106,51.088446335095796 138.504224749282,51.06834882205294 138.14219063980272,51.088446335095796 137.67154629749712,51.028153790859506 137.38191900996026,50.88747112842975 137.07419001689414,50.686495752539486 136.7664610237698,50.2845444931736 136.1329013321665,49.259565718472004 135.55364675697638,48.37526676870766 135.44503652409185,48.15419151939568 135.37262970232405,47.95321384241106 135.30022288032342,47.61155140309711 135.31832458579447,47.18949712651374 135.426934818679,46.66695270250784 135.71656210627407,46.00372159399558 135.78896892815828,45.64195839445165 135.75276551715797,45.44097860228794 135.55364675697638,44.85813624795992 135.53554505144712,44.737547996934154 135.5898501679767,44.59686162714206 135.6622569898609,44.53656744326872 136.18720644863788,44.31548863874923 136.3320200924063,44.194900113594485 136.44063032523263,44.094409629455185 136.51303714711685,43.873330415415694 136.4949354416458,43.61205471663561 136.27771497593494,43.06940427455993 136.11479962663725,42.22527891259233 136.00618939386914,41.24046221708704 136.04239280475304,41.0595770762593 136.22340985952178,40.5973144267482 136.5311388525879,40.135050881974166 136.54924055811716,40.01446024481265 136.4949354416458,39.69288491443149 136.51303714711685,39.5521955712029 136.74835931829875,39.21052110653545 136.7664610237698,39.130127043812536 136.78456272918265,38.88894469301158 136.7302576127695,38.687959214512375 136.5311388525879,38.40657926037966 136.42252861970337,38.04480454606528 136.20530815405073,37.48204278938647 136.0242910993402,36.79868744377745 135.98808768839808,36.718292568592005 135.8613757500425,36.65799639445322 135.71656210627407,36.6378976663691 135.426934818679,36.65799639445322 135.31832458579447,36.597700205034926 135.11920582561288,36.33641654168605 134.90198535996024,36.09523136775533 134.57615466136485,35.53246501403919 134.30462907924084,35.150587089694454 134.1236120245303,34.94959846299025 133.70727279863786,34.34663156737224 133.6891710931086,34.18584013788495 133.7253745041089,34.02504860008776 134.06930690811714,33.7235641747684 134.1236120245303,33.602970297972206 134.10551031900104,33.36178236156411 133.99690008617472,33.040198067290476 133.94259496976156,33.0 133.9606966752326,33.10049515546416 134.1598154354724,33.42207936855266 134.17791714100167,33.64316826366121 134.1236120245303,33.78386109029816 133.8882898533484,33.96475174550142 133.79778132599313,34.085345439467346 133.79778132599313,34.28633479400014 133.8158830315224,34.36673048841476 134.44944272312569,35.150587089694454 134.70286659966223,35.53246501403919 135.06490070919972,36.15552768409543 135.26401946943952,36.37661404698156 135.44503652409185,36.61779893653875 135.57174846250564,36.67809512084932 135.95188427739777,36.67809512084932 136.1329013321665,36.818786158328294 136.65785079094348,38.44677641699673 136.89317296206718,38.84874761090032 136.9293763730675,38.989437368829385 136.9293763730675,39.19042259339767 136.89317296206718,39.29091514222091 136.6940542018856,39.5521955712029 136.63974908541422,39.672786441937205 136.67595249635633,40.07475557104044 136.65785079094348,40.21544460627774 136.35012179781916,40.5973144267482 136.22340985952178,40.87869179829431 136.16910474316683,41.119872138428036 136.18720644863788,41.38115056518291 136.3320200924063,42.1850823922432 136.3682235032902,42.868422316299984 136.58544396900106,43.672349134038086 136.62164738000138,43.89342853424023 136.60354567453032,43.99391910301347 136.5311388525879,44.15470392501447 136.38632520881947,44.29539055543137 135.64415528433165,44.576763567572925 135.5898501679767,44.63705774125992 135.55364675697638,44.7777440873906 135.5898501679767,44.93852838144812 135.77086722268723,45.36058663800941 135.84327404457144,45.76254618857638 135.77086722268723,46.02381953340955 135.49934164056322,46.58656115112535 135.37262970232405,47.12920359749114 135.3545279967948,47.45076890954806 135.3907314077369,47.79243157891324 135.55364675697638,48.29487579263514 135.75276551715797,48.63653725392942 136.71215590741485,50.16395898342307 137.01988490048097,50.6061055547907 137.18280024966225,50.76688592317805 137.47242753725732,50.967861231358256 137.70774970843922,51.028153790859506 138.01547870150534,51.088446335095796 138.79385203681886,51.088446335095796 139.04727591347182,51.14873886409623 139.26449637918267,51.22912887910206 139.42741172848037,51.32961635981337 139.55412366677774,51.45020128079341 140.16958165290998,52.254099197423784 140.2419884747942,52.29429402209644 140.49541235138895,52.394781054448686 140.58592087880243,52.455073253571754 140.6764294062159,52.67614451992267 140.6764294062159,52.81682612828445 140.58592087880243,52.97760500779259 140.33249700220767,53.178578454928356 140.29629359120736,53.29916244195192 140.33249700220767,53.41974636813393 140.85744646092644,54.06285961224057 140.96605669375276,54.14324864595255 141.27378568681888,54.10305413250171 141.41859933064552,54.14324864595255 141.52720956353005,54.223637652612524 141.72632832371164,54.4648045100912 141.96165049489355,54.58538784745906 142.16076925507514,54.58538784745906 142.50470165902516,54.42461005075893 142.64951530291,54.42461005075893 142.93914259050507,54.66577670526749 143.5908039875212,55.409372356312815 143.9166346861166,55.85150921305467 144.1519568572985,56.31374232414237 144.26056709012482,56.976944790018024 144.24246538465377,57.80092104493815 144.31487220647978,58.08227813921985 144.6226011995459,58.504313159006415 145.4190762405051,59.32828414280084 145.63629670621594,59.66992981436488 145.70870352798374,59.890994400077034 145.78111034998437,60.11205878124747 145.81731376086827,60.41350988014892 145.81731376086827,60.71496059848869 145.7630086444551,61.31786089335219 145.83541546639754,61.59921384336485 146.19744957587682,62.041339237752254 146.70429732912453,62.74471885984531 147.82660306850448,63.95050767714565 148.17053547262913,64.39262871786195 148.71358663676074,65.21657938203134 149.05751904082717,65.51802403663169 149.600570205017,65.7792757628049 149.96260431455448,66.02043094865803 150.16172307473607,66.30177835765062 150.59616400615778,67.02524160161556 150.84958788281074,67.30658782673709 151.03060493746307,67.42716467889841 152.0080970330746,67.80899097571091 152.4787413754384,68.07024019546225 152.85887719044695,68.39177730439405 153.67345393676078,69.21571416968072 154.0173863407108,69.47696185047971 154.56043750501703,69.73820924546453 155.73704836081015,70.03964819227986 156.3525063469424,70.36118264941615 156.56972681265324,70.50185383828648 158.30749053810723,72.02913569819066 158.48850759287598,72.14971016587515 159.24877922283486,72.43105035372719 160.38918666768586,72.77267727917933 160.64261054433882,72.91334704759356 160.78742418810725,73.07411239572684 161.02274635928916,73.69707709766226 161.4390855851816,74.38032683772326 161.58389922900824,74.56118673585297 161.85542481113225,74.80233305365255 162.19935721508227,75.20424304221524 162.4708827972063,75.4252932476229 162.7062049683882,75.50567508974927 163.28545954352012,75.4252932476229 163.48457830381813,75.30472043366171 163.75610388588393,75.00328813244414 163.90091752965236,74.92290612119541 164.19054481724743,74.84252408289467 164.40776528295828,74.86261959504918 164.6792908651405,74.92290612119541 166.52566482347902,75.70662957677268 166.8876989329583,75.82720218783652 167.3221398642636,75.887488470471 168.5892592475284,76.00806099022157 169.34953087742906,76.22911045166256 169.65725987049518,76.38987356785219 169.83827692520572,76.59082731086528 169.91068374708993,76.85206692408246 169.9287854526192,78.03768926960765 169.74776839790866,79.00225903942192 169.78397180885077,79.16302028896462 170.03739568550372,79.74577891163062 170.01929397997446,80.48929646938632 170.05549739091657,80.89119688826031 170.14600591827184,81.25290668701928 170.27271785656922,81.51414120105619 170.45373491139617,81.67490076003014 170.7976673153462,81.7954703582509 172.06478669855278,81.89594497690268 172.6440412737429,82.0165144634957 173.11468561604852,82.19736857930548 173.9835674787755,82.67964555202343 174.65333058132092,83.20211117365398 175.23258515656926,83.74467041727621 175.54031414963538,84.10637589507678 176.22817895771004,85.17139439903258 176.73502671095775,85.75413836291409 177.20567105326336,86.15602992354252 178.0564512105775,86.67848794150632 178.52709555294132,86.8794330288074 178.9253330733045,86.9598110163497 179.5588927649078,87.0 180.01143540180055,86.91962202599098 180.427774627693,86.79905501418398 180.91652067546966,86.5378262798622 181.83970765466802,85.79432754944719 182.27414858608972,85.65366536710644 182.65428440098185,85.61347615695558 183.5050645583542,85.61347615695558 184.08431913348613,85.67375996970804 184.82648905791575,85.69385457050521 185.0799129345105,85.79432754944719 185.85828626994044,86.19621904240921" stroke="#4dd2ff" stroke-linecap="round" stroke-linejoin="round" stroke-width="0.5"><title>2024-03-20 10.0km</title></polyline><polyline fill="none" points="64.14575795381097,168.88920877566852 64.05112172447843,168.75744232886063 63.21291512140306,168.15717187146947 62.888448049197905,167.8643563663063 62.604539360967465,167.67402606015094 62.185436059429776,167.43977312921197 61.42834622442024,166.8541396123328 60.92812615481671,166.41491335943283 60.171036319748964,165.71214936644537 59.562660559487995,165.24363867813372 59.04892102855956,164.73120386741357 58.46758419089019,164.2187677554466 58.048480889352504,163.7795357666182 57.832169507863,163.58920160788693 57.53474135842407,163.36958504779614 57.3860272836755,163.34030282174353 57.25083267025184,163.3549439353228 57.08859913417837,163.4720728055836 56.84524883009726,163.79417684831424 56.33150929911062,164.39446028326347 55.966483842988964,164.67263980615826 55.804250306857284,164.93617794783495 55.304030237253755,165.59502179634 55.12827723985538,165.7853540632059 54.722693399642594,166.16601805847313 54.330629020754714,166.6491674799763 53.789850567118265,167.2201607595489 53.31666942022275,167.82043400389375 52.89756611868506,168.20109416058403 52.627176891837735,168.36214247228054 52.51902120112209,168.46462769461505 52.27567089704098,168.83064592105802 50.78853014961351,170.60216475582274 49.78809001040645,171.6709247973049 49.2337920954451,172.3443871223717 48.922844484623056,172.54935347095306 48.530780105735175,173.07640884014836 48.21983249497134,173.31065522914287 47.949443268124014,173.74986647583137 47.65201511856867,174.11587511803373 47.15179504908156,174.54044431159855 46.89492528355913,174.87717096801498 46.66509444080293,175.08213474477816 46.61101659544511,175.21389706277114 46.52989982737927,175.30173856031615 46.1648743711994,175.68238460806606 45.556498610938434,176.38511388731422 45.47538184287259,176.57543597948097 45.44834292016458,176.82431844461826 45.38074561342364,176.82431844461826 45.326667768124025,176.8975191112986 45.19147315470036,176.9707197513635 45.015720157301985,177.0 44.79940877581248,176.9707197513635 44.623655778414104,176.88287898009003 44.33974709024187,176.59007613298309 43.974721634120215,175.97518877171387 43.460982103133574,175.2578178163385 43.25819018302718,174.8478904115036 42.93372311088024,174.29155903054925 42.71741172944894,173.98411208331527 42.4199835798936,173.35457639681408 41.960321894381195,172.7250387469394 41.716971590183675,172.2711848045874 41.39250451809494,171.78804884135025 41.28434882737929,171.56844120302412 40.986920677823946,171.17314685194287 40.63541468302719,170.63144592828758 40.52725899225334,170.3825558272365 39.93240269337548,169.41627370261995 39.634974543820135,168.6549572551885 39.45922154642176,168.288938710175 38.864365247427486,167.35192821000237 37.904483492311556,165.6828674802673 37.45834126806585,165.0240239186096 36.71477089432301,163.76489468384534 36.49845951289171,163.4720728055836 36.28214813146042,163.23781499706092 35.40338314429391,162.46183406382625 35.078916072205175,162.110445489845 33.05099687108304,160.3534934411582 31.76664804382017,159.18218357618025 31.090674976760056,158.5379602520552 29.23850877309451,156.88346819934668 28.23806863394566,155.93176308413967 27.92712102306541,155.69749652108294 26.805005731876008,154.64329362093122 26.453499737021048,154.3651002703118 25.601773672620766,153.5305179167044 25.006917373626493,153.04733708128333 24.804125453461893,152.84235092267045 24.3715026905993,152.47630369279068 24.033516157069243,152.1395396546577 23.776646391663235,151.9638364551356 23.64145177823957,151.8027750543988 23.465698780841194,151.6417135250813 23.10067332460312,151.27566411656153 22.897881404554937,151.02675013936823 22.735647868423257,150.76319382872316 22.505817025667056,150.29464842626476 22.357102950918488,149.79681774361234 22.275986182852648,149.63575461263827 22.24894726020284,149.44540711025184 22.275986182852648,149.1964908745431 22.221908337494824,148.7572261798632 22.221908337494824,148.56687784846872 22.262466721527744,148.288676117867 22.411180796218105,147.70298700973217 22.762686791073065,147.02944243290403 22.951959249854553,146.7219539435464 24.18223023187602,144.90629806899233 24.83116437616991,143.9838214838528 25.290826061798725,143.25169420674501 25.453059597872198,142.90027216970338 25.628812595270574,142.3584953295358 25.696409901953302,141.99242907301232 25.709929363336414,141.69957558938768 25.10155360295903,140.67458504767274 24.844683837494813,140.29387294816843 24.614852994738612,139.8545888632798 24.1416718478431,139.07851797471812 23.884802082378883,138.72708866535686 23.72256854630541,138.37565874354914 23.14123170863604,137.4824382689112 22.951959249854553,137.1017201427021 22.695089484390337,136.6917152028036 22.505817025667056,136.45742629145388 22.086713724129368,135.60812670565792 21.50537688646,134.4952459713968 21.343143350386526,134.2609545077721 21.045715200947598,133.6459381205059 20.81588435813319,133.29449934259173 20.31566428852966,132.28410944384814 20.04527506174054,131.84480790853559 19.85600260295905,131.37621854904864 19.450418762746267,130.5854715352907 19.07187384518329,129.98508747195592 18.61221215967089,129.12111702347465 18.4229397008894,128.84288846376876 18.098472628742456,128.16928088683926 17.787525017920416,127.64210816958803 17.463057945715263,127.01242783943599 17.003396260202862,125.8116366416798 16.800604340038262,125.13801893542404 16.273345347784925,124.09830023096583 16.13815073436126,123.74684480819269 16.029995043645613,123.36610074194323 15.854242046189029,123.0 15.867761507513933,123.07322020159336 15.894800430221949,123.16108440842072 16.029995043645613,123.38074475777103 16.192228579777293,123.74684480819269 16.36798157711746,124.06901230245421 16.624851342639886,124.66941398601921 16.800604340038262,125.03551169583807 17.03043518285267,125.7091297446459 17.233227102959063,126.2216637085512 17.395460639032535,126.57311481633224 17.49009686836507,126.83670274511678 17.706408249854576,127.3199463859346 17.922719631285872,127.77390147816914 19.058354383858386,129.82400851661805 19.409860378713347,130.55618454929208 20.112872368423268,131.7715908928658 20.35622267256258,132.28410944384814 20.802364896750078,133.06020648368576 21.099793046247214,133.68986792468058 21.383701734419446,134.14380867387808 21.883921803964768,135.1102597680292 22.843803559138905,136.8527886714728 23.465698780841194,137.92172752138868 23.736088007630315,138.31708703035838 24.79060599213699,140.08887382762623 25.331384445773438,140.95279728127935 25.561215288529638,141.28957999787235 25.655851517920382,141.45064979394374 25.655851517920382,141.4799351975962 25.53417636587983,141.39207897389133 25.290826061798725,141.0113682289084 25.0339562962763,140.54280017148994 23.965918850386515,138.87351761870377 23.600893394264858,138.24387236495386 23.37106255145045,137.90708456168068 22.776206252456177,136.91136080998695 22.6004532550578,136.57457078114385 22.316544566885568,136.09134932240704 21.289065505028702,134.0852357314143 21.045715200947598,133.7484409819881 20.477897824603133,132.7234100219939 19.49097714672098,130.83441074450093 18.57165377563797,129.17969140820787 18.38238131685648,128.79895760344516 18.017355860676616,128.18392455371213 17.936239092610776,128.00820048060268 17.67936932714656,127.52495848966646 17.53065525239799,127.114934073732 17.57121363643091,127.20279651875899 17.77400555659551,127.45173990511103 17.895680708577856,127.67139557893097" stroke="#4dd2ff" stroke-linecap="round" stroke-linejoin="round" stroke-width="0.5"><title>2024-01-22 10.0km</title></polyline><polyline fill="none" points="124.79157994798152,168.04567662626505 124.04783254954964,167.6192710891628 123.11450248089386,166.82962900018902 122.63325416430598,166.51377136264637 122.45825477642938,166.35584237200965 122.31242195318919,166.0873628249974 122.12283928296529,165.89784765127115 121.6270076840301,165.53460977386567 121.34992531995522,165.3924730481085 120.41659525129944,164.65020197258855 120.08117975783534,164.4133064156922 119.71659769979306,164.09744527212752 119.39576548873447,163.7184112949035 118.214519620582,162.62868493392307 117.8791041271761,162.4075803688611 117.67493817466311,162.3602007899899 117.49993878678652,162.3602007899899 117.35410596360452,162.45495993741497 116.69785825908184,163.3393766576337 116.23119322478306,163.82896293974773 115.57494552026037,164.57123681558005 115.44369597942568,164.71337407753163 115.12286376830889,164.9502693079121 114.45203278149711,165.61357458136627 113.75203522999072,166.4348068816762 112.87703829066595,167.3192074327817 112.76037203200394,167.46134290049667 112.65828905580565,167.65085671316774 112.48328966792906,167.72982075304026 112.20620730385417,168.140433298875 111.76870883413358,168.64580152288545 110.777045636205,169.7512904230971 110.31038060190622,170.22506966194487 110.16454777872423,170.44616628723452 109.59579976811074,171.12524737539934 109.17288458073745,171.58323109937191 108.98330191057175,171.85170386898972 108.89580221666256,172.00962887294008 108.76455267576966,172.10438382033317 108.61871985252947,172.15176127858285 108.29788764147088,172.43602581146115 107.91872230108129,172.92559163704573 107.5395569606917,173.39936396855046 107.3062244434841,173.65204212382378 107.13122505566571,173.88892762808246 106.67914330365602,174.37849018692214 106.13956185773714,174.8522593571106 106.00831231684424,175.15231263170426 105.93539590522414,175.23127395105257 105.06039896584116,176.0840543753584 104.95831598958466,176.22618412137672 104.82706644869177,176.47885899631365 104.76873331941897,176.889455042794 104.53540080221137,176.96841573223355 104.22915187350009,177.0 104.03956920327619,176.9368314598978 103.806236686185,176.77891002953402 103.47082119277911,176.43148247960198 103.10623913467862,175.8471712591563 102.59582425339613,175.1681048978935 102.07082608976634,174.094228189977 101.41457838524366,173.03613860660698 101.09374617418507,172.56236548472953 100.87499693932477,172.16755376235233 100.37916534038959,171.4253057861206 100.24791579943849,171.1568324907421 99.89791702380171,170.66726268804632 99.19791947229533,169.43543702439638 99.02292008441873,169.19854667467007 98.77500428498024,168.72476520194323 98.52708848548355,168.07726218839525 98.35208909760695,167.69823514054588 97.47709215822397,166.2294990970404 96.5291788073373,164.74496012316376 96.2958462901297,164.2869620132551 95.27501652756473,162.62868493392307 95.04168401041534,162.3602007899899 94.61876882310025,161.94957734101627 94.26877004728885,161.66529911490215 92.9125247913762,160.41762917640153 92.24169380450621,159.86486172759032 91.68752907624003,159.3436797043978 91.46877984143794,159.16995208598382 90.66669931373326,158.41186631015444 90.14170115010347,157.95385487441672 89.80628565675579,157.60639728022215 89.0333716935711,156.8798932452919 88.26045773056103,156.23235499623115 87.07921186240856,155.126797435325 86.86046262760647,154.9688601824455 86.58338026347337,154.70036658951722 86.27713133470388,154.44766643471667 85.3438012660481,153.5632135822234 84.33755478583043,152.66296323736606 83.84172318683704,152.189145770506 83.31672502326546,151.7627091682516 82.28131197835319,150.7992752494174 82.0771460258402,150.65712890028954 81.7417305324343,150.35704185831128 81.14381595724262,149.7884547491558 80.58965122897644,149.20407200542104 80.23965245322324,148.6828644504276 80.02090321842115,148.22483253812243 79.94798680685926,148.01950757479062 79.81673726590816,147.51409145494108 79.75840413657716,147.16661719160038 79.72923757194076,146.34531218133634 79.77298741892446,146.02942481344508 79.91882024210645,145.53979848687595 80.05006978299934,145.20811551062798 80.26881901791785,144.7974596965505 81.58131442690501,142.85473129988532 82.25214541371679,141.9228472947143 83.05422594147967,140.65926938645134 83.27297517633997,140.16963097399275 83.40422471717466,139.79055531718768 83.52089097577846,139.3640944136714 83.50630769343115,139.01660713342426 82.42714480159339,137.18439229446813 82.1938122845022,136.85269657902245 81.33339862740831,135.39954748279706 81.05631626327522,134.98887315270258 80.58965122897644,134.2149078844668 80.51673481735634,134.04116020086803 79.87507039518096,133.01446650980506 79.78757070127176,132.8249225292384 79.20423940836918,131.67185975506436 78.78132422105409,130.9768600617681 78.5188251392101,130.4240178106993 78.05216010491131,129.6342407285265 77.77507774077822,129.01821261344594 76.76883126050234,127.07534328186011 76.43341576709645,126.52249111280253 76.30216622620355,126.20657495656633 75.61675195710268,125.05347709154012 75.20842005201848,124.26368050505698 75.20842005201848,124.05833292273746 75.28133646363858,123.85298514645547 75.36883615760598,123.71082118776394 75.48550241615158,123.58445314639539 75.70425165101187,123.42649299150798 76.30216622620355,123.284328753929 76.92924736603163,123.0 77.10424675390823,123.0 77.58549507055432,123.07898024674796 77.73132789379451,123.14216442346515 77.76049445843091,123.42649299150798 77.92091056401841,124.32686433757772 77.9646604108857,125.10086479553138 78.05216010491131,125.55894540149893 78.0667433872004,125.7642915668257 78.2125762103824,126.39612470536667 78.3729923159699,127.43864537056652 78.47507529222639,127.722968320988 78.4604920099373,127.8019468523562 79.30632238462567,128.5127523439587 79.40840536082396,128.65491316351108 79.48132177250227,128.78127825840784 79.70007100736257,129.39730704460817 79.86048711289186,129.60264958557673 79.99173665372655,129.87117415432294 80.15215275931405,130.10810732199752 80.66256764059654,131.11901927061263 81.39173175673932,132.1141311308602 81.8292302264017,132.5879923212051 82.0771460258402,132.9354898713209 82.39797823695699,133.31457747462264 83.55005754041485,134.2307031215605 84.01672257477185,134.56240283534862 84.42505447973963,134.90989723104576 84.93546936108032,135.30477655238064 85.4167176776682,135.63647462824883 85.95629912358709,136.0787379425892 86.17504835844738,136.18930363070103 86.55421369883697,136.5052052869869 86.78754621592816,136.64736088261998 87.00629545084666,136.88428666895197 87.15212827402866,136.9790569111792 87.48754376743454,137.29495742058498 87.63337659067474,137.37393247625732 87.82295926084043,137.4529075032042 88.26045773056103,137.73721736292646 88.61045650625601,138.00573188930866 88.93128871743102,138.22686125035398 89.3396206223988,138.57434979213576 89.50003672792809,138.65332438331097 90.40420023188926,139.34829954933957 90.62294946674956,139.49045328708598 91.49794640613254,140.18542577869084 91.74586220557103,140.34337376263284 92.12502754596062,140.62767984469247 92.59169258031761,141.02254878677195 92.8833582267398,141.2436750812485 94.88126790488604,142.60201738784963 95.04168401041534,142.74416899950302 95.10001713968813,142.87052590964595 95.20210011600284,142.99688274644723 95.45001591549953,143.123239509805 95.82918125588913,143.4233365287073 96.4416791133699,143.83399493644538 97.18542651180178,144.41839210332546 97.79792436928255,144.81325416525942 98.23542283906136,145.20811551062798 99.47500183642842,146.20316292256757 99.8687504591071,146.4558726517571 100.1895826702239,146.78755372593878 100.67083098686999,147.1982057839341 101.45832823222736,147.78259391481697 101.70624403172405,148.03530180959206 101.88124341960065,148.0984787374473 102.20207563065924,148.47753991930222 102.47915799485054,148.63548188349523 103.22290539328242,149.33042516406567 103.4124880633899,149.55154301520088 103.5729041689192,149.63051362184342 103.6895704275812,149.72527831199113 103.83540325076319,149.94639576182817 104.17081874422729,150.26227744326752 105.06039896584116,150.9414215056604 105.45414758857805,151.32047773509112 105.74581323500024,151.55738754321646 105.92081262287684,151.7627091682516 106.09581201075343,151.7942970933509 106.08122872840613,151.82588501392456 106.09581201075343,151.8100910542271 106.41664422187023,152.11017609237751 106.50414391577942,152.315497195872 106.57706032739952,152.36287896147405 106.73747643298702,152.41026071675878 107.3499742904678,153.01042872405378 108.07913840661058,153.57900741470803 108.60413657018216,154.1159970362787 109.17288458073745,154.55822278854612 109.56663320347434,154.93727271811804 109.77079915598733,155.07941627150285 109.91663197922753,155.31632198751322 110.61662953067571,155.99545027740533 111.1124611296691,156.406084959468 111.3312103645294,156.5008466991858 111.59370944625698,156.7061636602739 112.04579119832488,157.1325905759877 112.59995592647465,157.59060374001274" stroke="#4dd2ff" stroke-linecap="round" stroke-linejoin="round" stroke-width="0.5"><title>2024-01-15 10.5km</title></polyline><polyline fill="none" points="184.24125324963825,166.2345474390604 183.9934985054424,166.05008827589336 183.54444303165656,165.86562896549003 183.07990288635483,165.42963364669413 182.6153627410531,165.09425207265303 182.04242989514023,164.7421008961246 181.14431894756854,163.93718190665822 180.5404167586821,163.48441374328104 179.95199924131157,162.88072147913044 179.53391311044106,162.5117976526526 179.11582697968697,162.17641184480453 178.57386347680585,161.6230241979065 178.17126201756764,161.38825328074745 177.96996128791943,161.35471455880906 177.7841452297871,161.38825328074745 177.6447831862024,161.50563876914384 177.00991165422602,162.26025834240136 176.4060094653396,162.88072147913044 175.66274523286847,163.735951721319 174.811088299728,164.54087141156197 174.3310634829686,165.1277902519505 173.26262114872225,166.3016234619572 173.0148664045846,166.65377226256533 172.79808100342052,166.87176887030364 172.534841587767,167.0897652724525 172.3954795441823,167.2574546726828 172.2716021721135,167.47545071106288 170.8005583785707,169.085261245913 170.0418094745255,169.85662482107 169.65469268680317,170.3764553439978 168.75658173923148,171.38257561605133 168.63270436710445,171.66764223040082 168.38494962296681,171.80179110374593 167.7655627625645,172.37192294711713 167.65717006189516,172.55637706603738 167.44038466078928,172.79113664088072 167.0068138585193,173.37803453503875 166.75905911432346,173.61279327556258 166.31000364053762,174.1326153526752 165.84546349517768,174.55182585390867 165.47383137902943,175.10518255164789 164.85444451856893,175.72561121359468 164.6531437888625,175.89329434996762 164.43635838775663,176.26219682187366 164.389904373209,176.49695263391186 164.3744197016931,176.76524469869037 164.34345035866136,176.81554942618823 164.1731189721031,176.94969531265087 163.98730291391257,177.0 163.87891021341784,176.98323177204293 163.72406349825906,176.91615884828207 163.4917934256373,176.7484764537512 162.96531459427206,176.21189197400236 162.36141240532743,175.22256107484282 162.0981729896739,174.83688856057415 161.04521532700164,173.0091274612205 160.34840510901995,171.96947708599328 159.6206255480647,170.72859793725365 159.17157007422065,170.10815586523677 158.76896861498244,169.3367931293178 158.4437905132072,168.88403554211254 158.04118905391078,168.14620646297408 157.77794963825727,167.39160610527324 157.66955693770433,167.1736099877744 156.33787518786266,164.9433302055404 155.90430438547628,164.3061034581333 155.57912628381746,163.7024133400846 154.94425475184107,162.66272110737918 154.46422993502347,161.8745642016729 154.21647519088583,161.53917746916704 153.98420511820586,161.28763710038038 152.1570138799725,159.64423328757402 150.39176132774446,158.1349745941552 149.16847227845574,156.96109990724653 148.8587788482546,156.72632425435586 148.59553943254286,156.42446949302393 148.10002994420938,155.97168661176693 147.6664591419394,155.60275175627612 146.93867958092596,154.9319596009882 146.35026206355542,154.44563407084206 146.17993067693897,154.2611654985376 145.63796717405785,153.80837837864237 144.30628542415798,152.55063172375958 143.3926898050704,151.7624403307418 142.06100805511232,150.5214526885684 140.71384163369657,149.34753932505555 140.52802557562245,149.1462964352977 139.62991462805076,148.37486373420688 138.8401963809738,147.56988773486228 138.59244163683616,147.2680210120743 138.4221102502197,146.99969470512588 138.17435550602386,146.46304115635576 137.97305477643386,145.80899295842391 137.89563141885446,145.4735829079582 137.81820806127507,144.7859907821403 137.83369273279095,144.55120275827358 137.8027233897592,144.2325614871661 138.0195087909815,143.47788303924608 138.12790149147622,143.19278165067954 138.45307959325146,142.5554949216894 138.82471170945792,142.00206028335379 139.36667521233903,141.28091618948383 139.62991462805076,140.84487448250002 139.89315404370427,140.49268634905457 140.63641827611718,139.36903490537952 141.06998907844536,138.78205063454516 141.42613652319415,138.16152278347 141.5964679098106,137.7254751881701 141.8132533110329,137.00431774339813 141.84422265400644,136.61858144172584 141.78228396800114,136.4508698052814 141.37968250876293,135.78002204181394 141.0390197354136,135.1762573888409 140.62093360471772,134.55571985089045 140.18736280238954,133.71715296170441 139.61442995647667,132.89535445644287 138.80922703800024,131.5033217454038 138.32920222112443,130.81568803318078 138.09693214850267,130.26222526546917 137.55496864556335,129.30624099717534 137.12139784329338,128.46765504746872 136.8891277706134,128.09867626494088 136.22328689572169,126.90787708161224 136.02198616607348,126.43826444777369 135.69680806429824,125.86801925137115 135.3871146340971,125.14682478041505 135.23226791905472,124.89524478388194 135.01548251794884,124.45917214063229 134.99999784637475,124.35853987524752 135.0309671894065,124.29145167395473 135.27872193360236,123.83860580541659 135.43356864864472,123.72120117599843 135.61938470677705,123.72120117599843 135.74326207884587,123.62056858898723 135.9290781369782,123.58702438358159 135.9290781369782,123.36898692959221 135.88262412248878,123.13417713349918 135.91359346546233,123.05031643420807 135.96004748006817,123.0 136.03747083758935,123.0 136.0684401806211,123.03354429069441 136.1458635381423,123.25158206142078 136.23877156723756,124.17404727480607 136.37813361082226,124.59334842626413 136.285225581727,124.7275246339268 137.33818324445747,125.48226434942626 137.4465759450104,125.59966808343597 137.53948397410568,125.80093148864398 137.70981536066392,126.32086114012054 137.84917740430683,126.58921146995272 138.18984017753974,127.15945488546276 138.32920222112443,127.47811971022747 138.6234109798097,127.98127380141523 138.93310441006906,128.36702452892496 139.61442995647667,129.33978437184123 140.31124017451657,130.1783671546582 140.57447959017009,130.46348460721492 141.0545044069877,130.84923118857841 141.34871316561475,131.1175762565399 141.96810002607526,131.57040785162826 142.1539160842076,131.67103697441053 143.16041973239044,132.42575399772613 143.65592922072392,132.81149730170728 144.39919345319504,133.46558230124356 144.61597885435913,133.58298197686963 145.79281388921663,134.52217723379727 146.27283870603424,134.82406061241636 146.69092483673012,135.1762573888409 147.34128104022238,135.64585225534393 147.91421388607705,135.98127657546138 149.09104892093455,136.90369094417838 149.84979782492155,137.44036670007335 150.5156386998715,137.99381226733385 150.9801788451732,138.27892007234914 151.18147957482142,138.46340140570828 151.58408103405964,138.73173762764782 152.1570138799725,139.18455429526512 152.80737008346478,139.6205991362949 153.87581241765292,140.42560283419152 154.12356716184877,140.5765407152212 154.40229124895995,140.82810363116732 155.50170292629628,141.66664470577962 155.70300365588628,141.83435255545191 156.89532336214324,142.67288997754804 157.4837408796302,143.2430936860037 158.33539781265426,143.84683725514333 158.9238153300248,144.33318509395758 159.72901824861765,144.92015526007162 160.1006503647659,145.28910717264807 160.73552189674228,145.77545197530708 161.06069999851752,146.1444025220262 161.4168474432081,146.39595937510603 161.60266350134043,146.64751595430425 161.80396423098864,146.73136808654817 162.7175598500762,147.50280627500615 162.90337590826675,147.73759129935934 163.13564598094672,147.85498372206348 163.22855400992557,147.97237608511932 163.3524313820526,148.19039031541615 163.53824744012672,148.30778250808362 163.98730291391257,148.6934992925526 164.26602700114017,148.861202041473 164.8079905040213,149.36430955796095 165.2105919633177,149.66617354204936 165.36543867836008,149.81710538614425 165.59770875104005,150.1189687786391 165.75255546619883,150.13573895557784 165.75255546619883,150.1525091312651 165.72158612310886,150.13573895557784 165.73707079468295,150.16927930571546 165.92288685275707,150.30344065773534 166.09321823943174,150.50468253962754 166.17064159695292,150.70592424630013 166.49581969866995,150.89039565675193 166.6661510852864,150.94070601588464 166.92939050099812,151.24256794054236 167.73459341947455,151.91337080560334 168.38494962296681,152.55063172375958 169.09724451246439,153.1543509724579 169.26757589908084,153.32205048383912 169.40693794260733,153.37236031351495 169.32951458502794,153.42267013226228 169.37596859957557,153.38913025431975 169.577269329282,153.5568295953126 169.85599341645138,153.92576771714084 170.42892626224784,154.4288642066822 170.9554050936713,154.81457077362575 171.48188392503653,155.30089552735444 171.72963866917416,155.41828410766902 171.85351604124298,155.48536326967587 172.51935691619292,156.18969329497486 173.58779925043928,157.11202698675334 173.74264596559806,157.17910565709462 173.94394669518806,157.4474201438279 174.06782406725688,157.6486558044271 174.43945618352154,158.01758739376965 175.47692917473614,158.822526998978 176.11180070665432,159.2753042948607 176.94797296827892,160.11377842645743 177.07185034028953,160.26470344713016 177.13378902635304,160.43239779891155 177.19572771235835,160.516244929182 177.47445179958595,160.60009202902438 177.66026785766007,160.7007085086807 177.81511457281886,160.86840254413255 177.95447661640355,161.15348212515528 177.9854459593771,161.18702087621205 178.32610873266822,161.3044064668502 178.77516420639586,161.6397935400164 179.27067369478755,162.1261039316596 180.04490727029042,162.78010594847728 180.30814668600215,163.0987216453068 180.6952634737827,163.4676445350342 181.53143573534908,164.10487359395484 182.18179193872493,164.65825529885478 182.6927860986325,165.04394479456823 182.87860215676483,165.22840476062265 183.32765763049247,165.51347896414518 183.69928974681534,165.7817837757466 184.05543719156412,165.98301218003326 185.00000215362525,166.6705412396841" stroke="#4dd2ff" stroke-linecap="round" stroke-linejoin="round" stroke-width="0.5"><title>2024-01-08 11.0km</title></polyline><polyline fill="none" points="62.851133981195744,258.52856508443074 61.71739525004523,257.80554249814304 61.28909395163646,257.3962831983372 60.293923287594225,256.5641198751837 59.87821908615297,256.1821420346387 59.53809746686602,255.89565814500384 59.14758745941799,255.5000368179608 58.75707745202817,255.1316989721381 58.24059647455579,254.68150729179615 57.83748937008204,254.36773669531976 57.736712593992706,254.2995256268041 57.623338720877655,254.25859897379996 57.484770653769374,254.2449567541771 57.37139678065432,254.27224119247694 57.03127516130917,254.54508535767673 56.76673612400191,254.7087916667224 56.67855644488009,254.80428694786679 56.30064353457419,255.2954047704843 55.632997392851394,256.0866474532522 55.38105545256985,256.414057244634 54.63782672880916,257.2189372251305 53.9197921990999,257.95560401823604 53.6174618708319,258.337578256338 53.37811702757608,258.59677461883985 53.30253444547998,258.6786260275403 53.10098089330131,258.8014030737686 52.77345637092367,259.2925104570895 52.005033453169744,260.1928706621402 51.463358281645924,260.79310840409016 51.0728482742561,261.13415172217356 50.795712139923126,261.52976119634695 49.3596430804464,263.0985491940228 49.158089528325945,263.385022111077 48.91874468507012,263.5896453561145 48.36447241646238,264.18987225726596 47.88578272995073,264.7900972429343 47.6338407897274,265.0492847127898 47.041777230100706,265.854127737417 46.915806259959936,266.07238965891884 46.56308754364727,266.4543474122038 46.52529625262832,266.5634780563996 46.386728185461834,266.79538046507514 46.222965924302116,266.93179351309664 46.0592036631424,267.0 45.93323269300163,266.98635870461294 45.75687333481619,266.89086960908026 45.567916879663244,266.69989127261215 45.37896042445209,266.44070607725007 44.232624596275855,264.51726794143906 44.05626523809042,264.1353062544804 43.62796393968165,263.53507917918614 43.313036514329724,262.9212085981417 43.13667715614429,262.66201819563867 43.010706186061725,262.41646906381357 42.884735215920955,262.29369437765854 42.758764245780185,262.14363631910237 42.53201649955008,261.72074478260765 42.330462947371416,261.40698593134584 42.15410358918598,261.0659431080421 42.01553552201949,260.91588406986557 41.88956455187872,260.72489966629655 41.59983132057823,260.1655870828836 41.33529228338739,259.7972583756782 41.146335828176234,259.3470778649498 40.642451947613154,258.4330716946133 39.949611611897126,257.3007892335736 39.74805805971846,256.9324549151206 39.256771276239306,256.16849995455414 39.11820320907282,256.0047949163272 38.223809321119916,254.5178009589581 37.9088818958262,254.1903878657322 37.55616317951353,253.87661644969194 37.32941543322522,253.64469811001618 37.02708510495722,253.39913720324694 36.057108634966426,252.52602915962052 35.83036088873632,252.30775151518174 35.71698701562127,252.1167583684437 35.515433463442605,251.9803345734108 34.973758291918784,251.5028505112423 33.07159664295614,249.74297021047096 32.429144695284776,249.18362495939073 31.194629188044928,248.05128679542395 30.87970176275121,247.79207589491853 30.66555111348862,247.560150049394 29.368050121178385,246.4005165296985 29.01533140486572,246.05944648603327 28.07054912886815,245.2545187293581 25.95423683070112,243.3445068692672 25.740086181496736,243.12621856376063 25.462950047221966,242.81242868040863 25.16061971889576,242.3622074979794 24.984260360710323,241.91198523710773 24.858289390569553,241.3116872117098 24.807901002524886,240.49309590535995 24.88348358462099,240.09744216258696 24.959066166717093,239.8518635584478 25.122828427818604,239.38799198626657 25.29918778600404,239.07419586174365 26.521106196276378,237.31419919211476 26.962004591710865,236.64566900579666 27.264334920037072,236.23636363630067 27.57926234533079,235.74519601619977 27.81860718858661,235.32224509236403 28.032757837790996,234.66735146123392 28.120937516971026,234.0533866091282 28.1083404198871,233.63043187739095 28.045354934874922,233.41213228853303 28.007563643797766,233.13925744580047 27.919383964675944,232.7981633351592 27.84380138263805,232.57986277937016 27.57926234533079,232.00682261382462 27.45329137519002,231.80216498831578 27.239140725985635,231.5156439380953 26.735256845480762,230.91531270182168 26.420329420187045,230.5059948500857 26.24397006200161,230.3286235040723 26.08020780084189,230.0966761066229 25.576323920337018,229.8374404412025 25.374770368100144,229.68735647144786 25.261396494985092,229.5372723817709 25.085037136799656,229.19617173212464 24.946469069691375,228.9915110451111 24.22843453992391,227.5725241501932 24.014283890719526,227.23141993337777 23.346637749054935,225.935218261322 22.666394510422833,224.67994074930903 22.553020637249574,224.502563902759 22.011345465725753,223.4382993063191 21.759403525444213,223.01532067691733 21.356296421028674,222.25122783529514 20.953189316613134,221.58264404925285 20.776829958427697,221.1869504834467 20.247751883929595,220.10902240342693 19.94542155554518,219.38585199645604 19.882436070533004,219.19482538629381 19.769062197417952,218.63538919611892 19.37855219002813,217.96679253919865 19.051027667650487,217.13445459966897 18.635323466267437,216.28846799593884 18.395978623011615,215.7017331133975 18.207022167858668,215.40154246464954 17.854303451487795,214.61012845425284 17.703138287353795,214.18712994309317 17.463793444097973,213.70954983374395 17.161463115771767,213.0 17.148866018746048,213.04093564020877 17.186657309764996,213.0955164799234 17.325225376931485,213.27290409947454 17.48898763814941,213.5185174499493 18.118842488736846,214.92396544363874 18.307798943948,215.38789742375957 18.96284798864508,216.79333142763062 19.365955093002412,217.72118500624492 19.479328966117464,217.91221311521076 19.706076712347567,218.40342736028833 19.857241876539774,218.73090280999895 19.932824458635878,219.0720224629331 20.04619833175093,219.44043099222472 20.20996059285244,219.80883879892644 20.260348980897106,219.9725753699313 20.373722854070365,220.23182464881393 20.676053182338364,220.7503221331135 20.915398025594186,221.22788433927053 20.965786413638853,221.37797506754578 21.079160286753904,221.5280656759278 21.192534159868956,221.82824653289572 21.52005868218839,222.34673961049702 21.784597719437443,222.87887575458444 22.175107726827264,223.56109937517613 22.313675793993752,223.87492140864197 22.49003515217919,224.16145411175967 22.60340902529424,224.40705322370923 23.52299710724037,226.04437243116263 23.81273033854086,226.60378655634122 23.938701308623422,226.89031509729102 24.329211316013243,227.55887999340484 24.719721323403064,228.33659534840262 24.93387197260745,228.7322738547955 25.13542552490253,229.00515509782417 25.261396494985092,229.2780359445169 25.462950047221966,229.63278045272455 25.67710069642635,230.0966761066229 25.992028121778276,230.51963879282994 26.50850909925066,231.42013682426477 26.873824912589043,231.97953494329704 27.44069427822251,232.92095728630375 27.642247830401175,233.31662613866501 27.8060100916191,233.54856956128788 27.94457815872738,233.79415640262596 27.94457815872738,233.8487312126672 27.919383964675944,233.8487312126672 27.881592673656996,233.80780010661692 27.768218800541945,233.54856956128788 27.339917502133176,232.90731351792056 27.113169755903073,232.49800000560936 26.949407494685147,232.27969910109823 26.684868457436096,231.81580883696734 26.445523614180274,231.48835619623424 25.765280375489965,230.3013355898147 25.500741338240914,229.86472842285002 25.39996456215158,229.66006846405799 25.198411009914707,229.37354414723814 24.820498099550605,228.71862978226272 24.707124226435553,228.44574812306382 24.442585189186502,227.95456013771764 23.623773883329704,226.46734424038732 23.46001162211178,226.0853052285238 23.233263875939883,225.75784260002547 23.056904517812654,225.41673508833628 23.0191132267355,225.2802919102396 22.830156771524344,224.98011656959716 22.804962577531114,224.9118948343821" stroke="#4dd2ff" stroke-linecap="round" stroke-linejoin="round" stroke-width="0.5"><title>2023-12-31 10.1km</title></polyline><polyline fill="none" points="123.44283595721936,259.284762899566 123.28175938886125,259.2310905579361 122.98438726254972,258.976146722518 122.42681452567922,258.6138575098448 121.83207027311437,258.10396778619906 121.11342096782755,257.55382203424233 120.4071621678886,257.1512753253919 120.22130458895117,257.0841841220681 120.19652357837185,257.0573476339341 120.17174256790895,256.9231651348382 120.14696155732963,256.8963286233047 119.30440719949547,256.2656694820762 119.0194255784154,255.99730323781841 118.36272879951866,255.48740630094835 118.09013768372824,255.19220216869144 117.8794990942697,254.91041596654395 117.69364151533227,254.78965031988628 116.70240109425504,253.91745164171152 116.4917625047965,253.76984838150383 116.3554669469595,253.70275595155545 116.20678088377463,253.68933746266703 116.09526633640053,253.71617443948344 115.73594168381533,254.0382178578584 114.9925113680074,254.93725276617624 114.73231075750664,255.29954918040312 114.37298610486323,255.74235494509048 113.79063235752983,256.292506085083 113.0472020417219,257.2049482705188 112.62592486280482,257.6209130671923 112.41528627334628,257.72825866934727 111.93205656809732,258.2515675875766 111.78337050497066,258.45283985423157 111.67185595759656,258.6272756415128 111.38687433651648,258.8956380699383 110.44519593653968,259.95566585591587 110.2717288628919,260.13010022600065 109.73893713654252,260.80100011639297 108.97072581027169,261.6597484255326 108.79725873662392,261.9281064546085 108.59901065245504,262.0488674406806 108.45032458927017,262.1696283479105 107.70689427352045,263.0417881152098 107.29800759983482,263.4309042233508 107.14932153670816,263.64558862234117 106.75282536825398,264.034703460522 106.36871970514767,264.53115913479996 106.04656656831503,264.82634836358193 105.72441343142418,265.1617900973797 105.6376798946294,265.29596662057156 105.53855585248675,265.3228019135131 105.50138433667598,265.36305484565673 105.40226029459154,265.4972312228783 105.36508877878077,265.8326717402815 105.24118372623343,266.0607709447213 105.01815463148523,266.26203471506597 104.96859261044301,266.27545229198586 104.79512553667882,266.24861713721475 104.6092679577996,266.3559577330161 104.3614578525303,266.6108913984208 104.21277178940363,266.8255721073947 104.06408572621876,267.0 104.31189583148807,266.6108913984208 104.57209644198883,266.30228744288615 104.58448694722028,266.1815292332176 104.52253442094661,266.0071005689824 104.34906734729884,265.7790012983751 104.22516229463508,265.4972312228783 104.05169522098731,265.20204306450614 103.9153996630339,265.0812841367151 103.59324652625946,264.6519184216886 103.28348389465827,264.12862760918506 102.98611176834675,263.5650820019073 102.55244408419821,262.8271030155447 102.18072892626515,262.29038917632715 101.87096629472217,261.7268379693123 101.66032770526363,261.4316437947273 101.48686063155765,261.1364491490822 101.1399264842039,260.62656637896725 100.9168973894557,260.1971903245285 100.32215313689085,259.24450864479877 100.13629555789521,258.78829314527684 100.04956202110043,258.45283985423157 99.92565696843667,258.1978949461627 99.08310261060251,256.8963286233047 98.612263410585,256.0912314675952 98.3644533053739,255.7289366041805 98.26532926323125,255.54107972895144 97.54667995800264,254.4005160332017 97.27408884221222,253.91745164171152 96.93954520014813,253.55515252005716 96.14655286329798,252.8708077982301 94.99423587386264,251.8107394061226 94.28797707386548,251.22031893279927 93.92865242128028,250.85801452724263 92.86306896863971,249.91870350344107 91.7850950108259,248.88545586640248 91.14078873710241,248.34870156855322 90.71951155818533,247.94613482267596 90.1743293266045,247.48989145118685 89.81500467401929,247.12757973658154 87.93164787406567,245.45020143572765 87.18821755831596,244.76582671808137 86.89084543194622,244.5108629403403 86.38283471617615,244.02777271300147 85.99872905306984,243.7057118601806 85.50310884253122,243.24945802499133 84.93314560048748,242.68584879171976 84.58621145307552,242.2295924396749 84.43752538994886,241.96120582426374 84.15254376892699,241.19630183270783 84.14015326363733,241.08894663327374 84.09059124259511,240.52533081336878 84.10298174782656,240.18984439047927 84.10298174782656,239.7470013800048 84.15254376892699,239.67990386163 84.11537225311622,239.6664843550534 84.16493427415844,239.5457087518298 84.18971528473776,239.41151354461908 84.11537225311622,239.5188697181875 84.09059124259511,239.4651916392031 84.11537225311622,239.3980940185429 84.17732477938989,239.2773182399833 84.30122983211186,239.15654238252318 84.61099246365484,238.59292067101342 85.04466014780337,237.90852056817675 86.04829107411206,236.52629302590503 86.8412834109622,235.33193274770747 87.15104604250519,234.70120004864293 87.3121226108633,234.20466428203508 87.32451311615296,234.05704528339265 87.29973210569005,233.82890659902478 87.07670301094186,233.479988066465 86.97757896885742,233.27868861347088 86.85367391619366,233.1310688752128 86.71737835829845,232.8224090415897 86.4819587583188,232.44664854834264 86.23414865304949,232.16482767707203 86.1474151161965,231.96352679161646 86.04829107411206,231.78906584686774 85.94916703202762,231.58776455213956 85.66418541094754,231.19858142729208 85.52788985311054,230.9301787947188 85.29247025313089,230.50073377181252 84.52425892674364,229.27949403387902 84.41274437942775,229.01108861410466 83.57019002153538,227.52143144849106 83.38433244259795,227.10539892369707 83.01261728472309,226.50147907590144 82.86393122153822,226.15254670866125 82.2320154531626,225.03864281943243 82.1205009057885,224.78365182800917 81.78595726372441,224.1394624926761 81.63727120053954,223.92473221517866 81.24077503208537,223.1329121600138 81.0425269479747,222.79739416396478 80.81949785316829,222.36793023989594 80.67081178998342,221.97872769647802 79.93977197952336,220.73058987151308 79.28307520062663,219.1737609813281 79.15917014796287,218.66376245762513 78.70072145323502,217.6437611864094 78.60159741115058,217.34849660945474 78.44052084273426,216.99954695548513 78.24227275850717,216.66401782043977 77.70948103221599,215.42926535547304 77.47406143223634,214.94609910072177 76.85453616909217,213.52343556702544 76.55716404278064,213.01342144334922 77.23864183225669,214.4495102441433 77.49884244275745,214.94609910072177 77.65991901117377,215.38900154917792 77.96968164277496,216.04664261966536 78.2918347796076,216.79822954759584 78.71311195852468,217.6169189716602 78.94853155850433,218.19402572969557 79.13438913749997,218.58323624622426 79.3450277269585,219.30797088514373 79.72913339006482,220.24743748194305 80.22475360060344,221.30768690313562 80.83188835845795,222.28740564303007 81.36468008474912,223.26711918784713 81.56292816897621,223.68316035464522 81.77356675843475,224.01867674230016 82.18245343217859,224.7433900603355 82.4798255583737,225.37415674576187 82.71524515841156,225.76335213710263 82.77719768474344,225.9378187705588 82.91349324263865,226.20622865419136 83.49584698991384,227.1456601767277 83.73126659000991,227.58853338088375 83.80560962157324,227.80325940082548 84.52425892674364,229.10503055535082 84.82163105311338,229.69552166412177 85.20573671621969,230.2591705079103 85.91199551621685,231.46698367007775 86.17219612671761,231.84274615510367 86.97757896885742,233.21158874705725 87.36168463196373,233.78864680194238 87.37407513719518,234.00336561827862 87.29973210569005,234.32544337506988 87.11387452669442,234.87565824456397 86.97757896885742,235.15747498243582 86.704987853067,235.61374878991046 86.34566320042359,236.09686100545514 86.0359005688224,236.57997195831558 85.80048096884275,236.90204522540444 85.30486075830413,237.62670802457433 85.55267086357344,237.21069824644655 86.65542583196657,235.64058839056815 86.96518846350955,235.1037956369255 87.11387452669442,234.79513909766683 87.3121226108633,234.0973050219909 87.3121226108633,233.78864680194238 87.1758270530263,233.57392773617175 86.98996947408887,233.22500872226374 86.80411189509323,232.97002902632812 86.45717774779769,232.39296841550095 86.27132016886026,232.15140762487135 86.1474151161965,231.88300637605425 85.68896642146865,231.19858142729208 85.21812722150935,230.42021271889098 84.97031711624004,229.96392608984024 84.67294498992851,229.50763833418023 84.41274437942775,229.03792917361716 84.04102922155289,228.24613102899457 83.73126659000991,227.76299829107302 83.5082374952035,227.2932846960466 82.88871223205933,226.1928081692895 82.71524515841156,225.81703419568657 82.4798255583737,225.44125945791893 81.89747181109851,224.30051003706467 81.52575665316544,223.65631901733286 81.24077503208537,223.10607074278232 80.9557934110635,222.62292456519208 80.5964687584783,221.9116237268172 80.33626814797753,221.49557857093168 79.80347642168636,220.52927652941435 79.22112267429475,219.12007699250535 79.10960812692065,218.6234993563121 78.68833094800357,217.7242878073157 78.46530185331358,217.14717958182155 78.24227275850717,216.6774389975617 77.9572911374853,216.12716993674985 77.61035699013155,215.2682100776583 77.46167092700489,215.0400481936813 77.25103233748814,214.5837235802901 76.99083172698738,213.8589704066835 76.78019313752884,213.46974993610638 76.68106909538619,213.17447868714225 76.5695545480703,213.0 76.63150707440218,213.18790011778765 76.82975515857106,213.5368569722923 77.47406143223634,214.91925649398763 77.79621456912719,215.72453300011693 77.99446265323786,216.10032750162645 78.51486387429759,217.22770641920215 78.82462650589878,217.83165658061625 79.18395115854219,218.75770965986885 79.6795713690226,220.14007011268404 80.02650551643455,220.89164038724266 80.58407825324684,221.84451973278192 80.89384088478982,222.48871706944192 81.58770917943912,223.7234223533451 81.77356675843475,223.9918354537076 81.86030029528774,224.17972439194273 82.10811040055705,224.6091841047746 82.3435300005367,225.09232508862624 82.60373061103746,225.56204427841294 82.86393122153822,226.1391262198158 83.08696031628642,226.4746381479781 83.2604273899924,226.83699034614256 84.52425892674364,229.1184508287988 84.73489751620218,229.57473954536545 85.00748863205081,230.01760692820244 85.16856520046713,230.21890993321722 85.88721450569574,231.4401434633328 86.30849168467103,232.09772740627523 86.79172138986178,232.91634904552484 87.2006080635474,233.5605077862856 87.15104604250519,233.45314815208258 87.05192200042075,233.35920842099586 86.94040745304665,233.18474879369023 86.71737835829845,232.7821490252827 85.99872905306984,231.64144491887419 85.82526197936386,231.31936248476268 84.43752538994886,229.0781900055881 84.25166781101143,228.67558129117242 83.73126659000991,227.73615754640196 83.3719419373665,227.15908059244975 83.18608435837086,226.78330858385016 82.87632172682788,226.2733310641779 82.26918696891516,225.03864281943243 81.93464332685107,224.43471621681238 81.63727120053954,223.8039463243913 80.32387764268788,221.50899939701776 79.82825743214926,220.51585563212575 79.61761884269072,219.96559800453542 79.32024671637919,219.33481285421294 79.07243661116809,218.48928895524296 79.14677964273142,218.61007832060568 79.36980873742141,219.2811289122037 79.46893277956406,219.482443614339 79.69196187425405,220.15349103724293 79.86542894796003,220.5426974257134 80.10084854793968,221.0124281819153 80.42300168477232,221.52242022215796 80.55929724266753,221.81767812834005 80.41061117954087,221.61636597076722 80.22475360060344,221.25400353436999" stroke="#4dd2ff" stroke-linecap="round" stroke-linejoin="round" stroke-width="0.5"><title>2023-12-24 16.0km</title></polyline><polyline fill="none" points="139.33103448338807,238.1853382079862 141.19310344941914,241.41151814814657 156.8344827592373,259.5587454405613 162.42068965546787,264.397996051237 165.40000000037253,265.6078080460429 171.35862069018185,266.414349230472 176.57241379469633,264.8012667465955 181.04137931019068,261.1718294452876 184.02068965509534,256.73584730597213 185.8827586211264,252.29986162902787 185.8827586211264,248.67041617026553 184.76551724225283,243.42787965992466 181.04137931019068,237.7820655843243 166.88965517282486,222.86095793824643 159.81379310414195,216.4085746658966 154.97241379506886,214.79547767853364 149.38620689697564,215.19875196926296 146.40689655207098,216.4085746658966 141.93793103471398,219.23149326862767 138.95862068980932,223.66750531969592 137.09655172377825,228.50678716041148 136.72413793206215,233.74933773558587 138.21379310451448,238.58861080324277 151.99310344830155,254.7194906193763 163.9103448279202,266.01107865339145 167.2620689664036,266.8176197777502 172.47586206905544,266.414349230472 182.53103448450565,261.1718294452876 186.6275862082839,251.89659002795815 186.6275862082839,247.05732853943482 185.13793103396893,242.21806284040213 166.51724138110876,221.24786282144487 159.4413793105632,216.00530046317726 154.97241379506886,214.39220335846767 150.13103448227048,213.98892900859937 145.2896551731974,215.19875196926296 141.19310344941914,218.0216711857356 135.97931034490466,228.10351383453235 135.60689655132592,232.53951881080866 137.09655172377825,238.99188336869702 153.85517241433263,257.1391185554676 162.79310344718397,264.8012667465955 169.86896551959217,266.01107865339145 176.2000000011176,265.20453741028905 179.17931034602225,263.5914545757696 184.39310344867408,258.3489321297966 186.2551724128425,253.91294773947448 186.2551724128425,249.47695981012657 185.13793103396893,245.44424044108018 182.90344827622175,241.00824575778097 163.9103448279202,219.23149326862767 157.57931034453213,214.39220335846767 152.73793103545904,213.5856546307914 148.64137930981815,213.98892900859937 141.56551724113524,218.42494524270296 138.95862068980932,222.05441043851897 136.72413793206215,228.10351383453235 136.35172413662076,234.55588353937492 137.84137931093574,238.58861080324277 150.87586206942797,253.91294773947448 160.5586206894368,262.3816421418451 166.51724138110876,263.99472532747313 173.22068965621293,263.99472532747313 177.31724137999117,262.3816421418451 181.04137931019068,259.5587454405613 182.90344827622175,257.1391185554676 185.51034482754767,250.28350333310664 186.2551724128425,247.4606004911475 185.13793103396893,244.63769621634856 171.7310344837606,226.893693682272 159.0689655188471,215.19875196926296 154.97241379506886,213.98892900859937 148.64137930981815,214.39220335846767 143.7999999988824,216.00530046317726 140.8206896558404,218.82821927033365 136.35172413662076,226.08714676694945 135.23448275774717,230.52315335115418 135.60689655132592,234.55588353937492 137.09655172377825,239.39515590434894 159.4413793105632,261.97837127232924 165.02758620679379,265.20453741028905 170.9862068966031,266.8176197777502 175.82758620753884,265.20453741028905 181.04137931019068,261.97837127232924 185.51034482754767,255.92930471803993 187.0,249.47695981012657 185.13793103396893,243.02460741670802 166.88965517282486,221.6511366451159 160.5586206894368,216.00530046317726 157.57931034453213,214.39220335846767 153.11034482717514,213.5856546307914 146.77931034564972,213.98892900859937 142.68275862000883,216.4085746658966 138.21379310451448,220.8445889693685 135.97931034490466,224.87732617510483 135.23448275774717,230.52315335115418 135.60689655132592,234.55588353937492 137.468965517357,238.99188336869702 148.26896551810205,251.49331839801744 159.81379310414195,262.3816421418451 163.5379310362041,264.8012667465955 168.00689655169845,266.414349230472 172.47586206905544,266.01107865339145 178.80689655058086,263.5914545757696 182.15862068906426,261.1718294452876 185.8827586211264,253.106404742226 186.2551724128425,248.67041617026553 185.13793103396893,244.23442406021059 182.90344827622175,240.2017008899711 167.63448275998235,222.45768420305103 159.4413793105632,216.00530046317726 155.34482758678496,213.98892900859937 151.24827586114407,213.5856546307914 146.03448275849223,214.79547767853364 141.56551724113524,217.21512298472226 137.84137931093574,222.45768420305103 135.60689655132592,228.10351383453235 135.60689655132592,232.9427918139845 137.09655172377825,238.1853382079862 143.4275862071663,245.8475125101395 153.85517241433263,257.1391185554676 163.5379310362041,265.20453741028905 168.00689655169845,266.414349230472 172.84827586263418,266.01107865339145 177.68965517356992,264.397996051237 181.41379310376942,261.5751003739424 184.39310344867408,257.94566096784547 186.2551724128425,253.50967625528574 186.2551724128425,248.67041617026553 185.13793103396893,243.8311518742703 172.1034482754767,229.71660696249455 167.63448275998235,223.66750531969592 159.4413793105632,216.4085746658966 153.85517241433263,214.39220335846767 149.75862069055438,213.5856546307914 144.1724137943238,214.79547767853364 140.8206896558404,217.6183970994316 137.84137931093574,221.24786282144487 135.97931034490466,225.68387326598167 135.23448275774717,230.11988017102703 136.35172413662076,236.57224753685296 138.58620689623058,240.2017008899711 147.89655172266066,250.686775051523 163.5379310362041,265.20453741028905 168.3793103452772,266.414349230472 172.47586206905544,266.01107865339145 176.57241379469633,264.8012667465955 180.29655172489583,262.3816421418451 183.6482758615166,258.3489321297966 185.51034482754767,253.91294773947448 186.2551724128425,247.4606004911475 185.13793103396893,243.8311518742703 184.02068965509534,241.8147905091755 168.00689655169845,224.87732617510483 158.69655172340572,216.4085746658966 154.22758620604873,214.39220335846767 150.13103448227048,213.98892900859937 145.2896551731974,214.79547767853364 141.56551724113524,216.81184883927926 138.21379310451448,220.0380411776714 135.60689655132592,225.28059973521158 134.86206896603107,230.92642650194466 135.97931034490466,236.1689747958444 138.21379310451448,239.79842841112986 153.11034482717514,255.92930471803993 163.9103448279202,265.20453741028905 170.24137931130826,266.01107865339145 174.71034482866526,265.6078080460429 179.17931034602225,263.5914545757696 182.53103448450565,260.3652875008993 184.76551724225283,256.73584730597213 185.8827586211264,251.49331839801744 185.51034482754767,246.25078454893082 184.76551724225283,243.42787965992466 168.7517241369933,225.28059973521158 157.2068965509534,215.19875196926296 153.11034482717514,213.5856546307914 149.0137931033969,213.18238022271544 144.91724137961864,214.39220335846767 138.95862068980932,218.82821927033365 134.48965517245233,226.08714676694945 134.86206896603107,232.9427918139845 136.35172413662076,236.97552024805918 158.69655172340572,261.5751003739424 163.16551724262536,264.397996051237 166.88965517282486,266.01107865339145 171.7310344837606,266.414349230472 176.2000000011176,265.20453741028905 180.66896551847458,261.5751003739424 185.13793103396893,254.7194906193763 186.2551724128425,249.47695981012657 185.51034482754767,245.04096834314987 181.78620689734817,240.2017008899711 169.49655172415078,226.893693682272 164.28275862149894,220.0380411776714 160.1862068977207,216.00530046317726 156.8344827592373,213.98892900859937 147.89655172266066,213.5856546307914 143.7999999988824,215.19875196926296 140.07586207054555,218.0216711857356 137.09655172377825,221.6511366451159 134.86206896603107,226.893693682272 134.86206896603107,232.53951881080866 135.97931034490466,236.97552024805918 152.3655172418803,254.7194906193763 162.42068965546787,263.99472532747313 168.00689655169845,266.01107865339145 172.1034482754767,266.414349230472 176.2000000011176,265.6078080460429 181.04137931019068,262.3816421418451 185.13793103396893,255.12276201415807 185.8827586211264,249.07368800463155 185.13793103396893,244.63769621634856 164.28275862149894,221.24786282144487 158.69655172340572,216.00530046317726 152.3655172418803,213.98892900859937 149.38620689697564,213.98892900859937 143.7999999988824,215.19875196926296 140.07586207054555,217.6183970994316 135.23448275774717,224.47405258659273 134.1172413788736,231.32969962246716 135.97931034490466,237.37879293132573 138.95862068980932,241.00824575778097 159.4413793105632,261.5751003739424 163.9103448279202,264.8012667465955 167.63448275998235,266.01107865339145 174.3379310350865,266.414349230472 178.80689655058086,264.397996051237 182.15862068906426,261.1718294452876 184.76551724225283,257.5423897765577 185.8827586211264,252.7031331998296 185.8827586211264,248.26714430656284 184.02068965509534,242.6213351432234 166.51724138110876,223.26423164410517 160.5586206894368,217.6183970994316 155.7172413803637,214.79547767853364 151.62068965658545,213.18238022271544 146.77931034564972,213.98892900859937 143.05517241358757,215.6020262306556 138.58620689623058,219.23149326862767 135.23448275774717,223.66750531969592 133.37241379357874,228.50678716041148 133.74482758529484,234.15261065168306 135.97931034490466,238.58861080324277 158.69655172340572,261.5751003739424 162.42068965546787,264.397996051237 169.12413793057203,266.414349230472 173.96551724150777,266.01107865339145 179.55172413773835,263.18818379286677 182.90344827622175,260.3652875008993 184.76551724225283,256.73584730597213 185.8827586211264,251.89659002795815 183.6482758615166,242.6213351432234 181.41379310376942,238.99188336869702 170.24137931130826,228.91006045695394 160.5586206894368,218.0216711857356 155.34482758678496,214.39220335846767 150.87586206942797,213.5856546307914 145.66206896677613,213.98892900859937 141.93793103471398,216.00530046317726 137.468965517357,219.63476723851636 134.86206896603107,224.47405258659273 133.74482758529484,230.11988017102703 134.48965517245233,235.36242922535166 136.35172413662076,238.99188336869702 150.50344827584922,253.50967625528574 160.1862068977207,262.78491298202425 163.9103448279202,265.20453741028905 168.00689655169845,266.01107865339145 175.082758622244,265.6078080460429 178.4344827607274,264.397996051237 183.2758620698005,259.96201648470014 185.51034482754767,254.7194906193763 185.8827586211264,250.28350333310664 185.8827586211264,245.8475125101395 184.02068965509534,241.8147905091755 163.5379310362041,219.63476723851636 156.8344827592373,214.79547767853364 152.73793103545904,213.98892900859937 147.5241379328072,213.98892900859937 142.31034482829273,216.00530046317726 137.84137931093574,220.44131508795545 134.86206896603107,224.87732617510483 133.74482758529484,229.31333372509107 134.48965517245233,234.95915639726445 135.60689655132592,237.7820655843243 157.95172413811088,260.7685584882274 163.9103448279202,264.397996051237 168.00689655169845,266.01107865339145 172.47586206905544,266.01107865339145 179.17931034602225,263.5914545757696 182.53103448450565,260.3652875008993 185.13793103396893,256.73584730597213 185.8827586211264,253.91294773947448 186.2551724128425,248.26714430656284 185.13793103396893,243.8311518742703 167.63448275998235,222.86095793824643 157.95172413811088,214.79547767853364 151.99310344830155,213.18238022271544 146.77931034564972,213.5856546307914 142.68275862000883,215.19875196926296 137.84137931093574,219.63476723851636 135.23448275774717,223.66750531969592 133.74482758529484,228.50678716041148 134.1172413788736,234.95915639726445 135.97931034490466,238.58861080324277 159.4413793105632,262.3816421418451 163.16551724262536,265.20453741028905 167.63448275998235,266.414349230472 173.22068965621293,266.8176197777502 179.55172413773835,263.99472532747313 182.53103448450565,261.1718294452876 185.8827586211264,253.50967625528574 185.51034482754767,245.8475125101395 184.39310344867408,242.21806284040213 174.71034482866526,230.52315335115418 163.9103448279202,218.82821927033365 159.0689655188471,214.79547767853364 154.59999999962747,213.18238022271544 149.75862069055438,213.18238022271544 143.7999999988824,215.19875196926296 137.84137931093574,220.0380411776714 133.0,228.50678716041148 133.0,232.13624577689916 134.1172413788736,236.57224753685296 157.95172413811088,260.3652875008993 162.42068965546787,263.99472532747313 170.613793104887,266.8176197777502 181.41379310376942,261.97837127232924 182.90344827622175,259.96201648470014 185.13793103396893,253.50967625528574 185.51034482754767,249.07368800463155 184.02068965509534,244.23442406021059 170.9862068966031,228.10351383453235 157.95172413811088,214.79547767853364 154.22758620604873,213.18238022271544 149.38620689697564,213.18238022271544 143.7999999988824,214.39220335846767 139.70344827510417,216.81184883927926 135.97931034490466,220.8445889693685 134.1172413788736,224.47405258659273 133.0,230.11988017102703 133.74482758529484,235.36242922535166 136.35172413662076,238.99188336869702 152.3655172418803,255.12276201415807 159.81379310414195,261.97837127232924 163.5379310362041,264.8012667465955 170.9862068966031,266.01107865339145 176.57241379469633,265.20453741028905 180.29655172489583,262.78491298202425 183.2758620698005,259.15547436568886 185.8827586211264,253.50967625528574 186.2551724128425,247.86387241259217 185.13793103396893,243.42787965992466 182.53103448450565,239.39515590434894 172.1034482754767,227.70024048024788 158.32413793355227,215.19875196926296 154.97241379506886,213.98892900859937 148.26896551810205,213.5856546307914 144.1724137943238,214.39220335846767 139.33103448338807,217.21512298472226 136.35172413662076,220.44131508795545 133.74482758529484,226.49042023951188 133.0,230.11988017102703 134.1172413788736,235.76570202456787 140.448275860399,243.8311518742703 161.67586207017303,263.5914545757696 166.14482758566737,265.6078080460429 172.47586206905544,266.01107865339145 176.2000000011176,264.8012667465955 181.04137931019068,261.97837127232924 183.6482758615166,258.3489321297966 185.8827586211264,252.7031331998296 185.13793103396893,245.44424044108018 183.6482758615166,241.41151814814657 166.88965517282486,221.24786282144487 158.32413793355227,214.79547767853364 154.22758620604873,213.5856546307914 149.75862069055438,213.18238022271544 145.2896551731974,214.39220335846767 138.58620689623058,218.0216711857356 136.35172413662076,221.24786282144487 133.74482758529484,226.49042023951188 133.37241379357874,232.53951881080866 134.48965517245233,236.97552024805918 136.72413793206215,240.2017008899711 153.48275862075388,257.5423897765577 163.16551724262536,265.6078080460429 166.51724138110876,266.8176197777502 172.84827586263418,266.8176197777502 175.4551724139601,266.01107865339145 181.04137931019068,261.97837127232924 184.02068965509534,258.3489321297966 185.8827586211264,252.7031331998296 186.2551724128425,248.26714430656284 184.39310344867408,243.02460741670802 180.29655172489583,236.57224753685296 167.63448275998235,223.26423164410517 158.32413793355227,216.4085746658966 151.99310344830155,214.79547767853364 146.77931034564972,214.79547767853364 138.21379310451448,219.63476723851636 135.23448275774717,222.86095793824643 133.74482758529484,227.29696709522977 133.74482758529484,234.15261065168306 135.23448275774717,237.7820655843243 158.69655172340572,261.5751003739424 163.16551724262536,264.8012667465955 167.63448275998235,266.414349230472 172.47586206905544,266.8176197777502 176.94482758641243,265.20453741028905 182.15862068906426,261.5751003739424 185.51034482754767,255.92930471803993 186.2551724128425,251.49331839801744 186.2551724128425,246.65405655885115 184.02068965509534,241.41151814814657 172.84827586263418,228.50678716041148 158.32413793355227,214.79547767853364 153.85517241433263,213.5856546307914 149.0137931033969,213.5856546307914 144.1724137943238,214.79547767853364 138.58620689623058,219.23149326862767 135.60689655132592,222.86095793824643 134.1172413788736,226.893693682272 133.37241379357874,233.34606478968635 134.86206896603107,237.37879293132573 147.15172413736582,250.686775051523 159.81379310414195,262.3816421418451 164.28275862149894,265.6078080460429 169.86896551959217,266.8176197777502 173.22068965621293,266.414349230472 178.80689655058086,263.99472532747313 184.02068965509534,259.5587454405613 186.2551724128425,253.50967625528574 186.6275862082839,249.8802315867506 184.76551724225283,241.8147905091755 175.082758622244,230.92642650194466 161.67586207017303,217.6183970994316 157.57931034453213,214.79547767853364 153.48275862075388,213.98892900859937 147.89655172266066,213.5856546307914 143.05517241358757,215.19875196926296 138.95862068980932,218.0216711857356 135.97931034490466,222.05441043851897 134.1172413788736,226.893693682272 134.1172413788736,233.34606478968635 135.60689655132592,237.37879293132573 155.34482758678496,258.7522032619454 163.16551724262536,264.8012667465955 168.7517241369933,266.01107865339145 173.96551724150777,265.6078080460429 178.80689655058086,263.5914545757696 182.90344827622175,260.7685584882274 184.76551724225283,257.1391185554676 185.8827586211264,250.28350333310664 185.51034482754767,247.05732853943482 183.6482758615166,241.8147905091755 165.40000000037253,222.05441043851897 156.0896551720798,214.79547767853364 151.24827586114407,213.5856546307914 145.66206896677613,213.98892900859937 140.8206896558404,216.00530046317726 137.09655172377825,220.0380411776714 133.74482758529484,228.10351383453235 133.37241379357874,231.73297271504998 134.86206896603107,237.37879293132573 137.468965517357,241.8147905091755" stroke="#4dd2ff" stroke-linecap="round" stroke-linejoin="round" stroke-width="0.5"><title>2023-12-17 10.0km</title></polyline></svg>