<?xml version="1.0" encoding="utf-8" ?>
<svg baseProfile="full" height="300mm" version="1.1" viewBox="0,0,200,300" width="200mm" xmlns="http://www.w3.org/2000/svg" xmlns:ev="http://www.w3.org/2001/xml-events" xmlns:xlink="http://www.w3.org/1999/xlink"><defs /><rect fill="#222222" height="300" width="200" x="0" y="0" /><text fill="#FFFFFF" style="font-size:12px; font-family:Arial; font-weight:bold;" x="10" y="20">Over 10km Runs</text><text fill="#FFFFFF" style="font-size:4px; font-family:Arial" x="10" y="280">ATHLETE</text><text fill="#FFFFFF" style="font-size:9px; font-family:Arial" x="10" y="290">kilerd</text><text fill="#FFFFFF" style="font-size:4px; font-family:Arial" x="120" y="280">STATISTICS</text><text fill="#FFFFFF" style="font-size:3px; font-family:Arial" x="120" y="285">Number: 2</text><text fill="#FFFFFF" style="font-size:3px; font-family:Arial" x="120" y="290">Weekly: 1.0</text><text fill="#FFFFFF" style="font-size:3px; font-family:Arial" x="141" y="285">Total: 26.0 km</text><text fill="#FFFFFF" style="font-size:3px; font-family:Arial" x="141" y="290">Avg: 13.0 km</text><text fill="#FFFFFF" style="font-size:3px; font-family:Arial" x="167" y="285">Min: 10.0 km</text><text fill="#FFFFFF" style="font-size:3px; font-family:Arial" x="167" y="290">Max: 16.0 km</text><polyline fill="none" points="146.88567191443872,128.56952579913195 146.5635187777225,128.46218111587223 145.96877452509943,127.95229344503605 144.85362905135844,127.22771501968964 143.66414054622874,126.20793557239813 142.2268419356551,125.10764406848466 140.8143243357772,124.30255065078381 140.44260917790234,124.16836824413622 140.3930471567437,124.11469526786823 140.3434851358179,123.8463302696764 140.29392311465926,123.79265724660945 138.60881439899094,122.53133896415238 138.0388511568308,121.99460647563683 136.72545759903733,120.9748126018967 136.1802753674565,120.38440433738288 135.7589981885394,119.8208319330879 135.38728303066455,119.57930063977255 133.40480218851008,117.83490328342305 132.983525009593,117.53969676300767 132.710933893919,117.40551190311089 132.41356176754925,117.37867492533405 132.19053267280106,117.43234887896688 131.47188336763065,118.0764357157168 129.9850227360148,119.87450553235249 129.46462151501328,120.59909836080624 128.74597220972646,121.48470989018097 127.58126471505966,122.58501217016601 126.0944040834438,124.4098965410376 125.25184972560965,125.24182613438461 124.83057254669257,125.45651733869454 123.86411313619465,126.50313517515315 123.56674100994132,126.90567970846314 123.34371191519313,127.25455128302565 122.77374867303297,127.79127613987657 120.89039187307935,129.91133171183174 120.54345772578381,130.2602004520013 119.47787427308504,131.60200023278594 117.94145162054338,133.3194968510652 117.59451747324783,133.856212909217 117.19802130491007,134.09773488136125 116.90064917854033,134.33925669582095 115.4137885470409,136.08357623041957 114.59601519966964,136.86180844670162 114.29864307341632,137.29117724468233 113.50565073650796,138.069406921044 112.73743941029534,139.06231826959993 112.09313313663006,139.65269672716386 111.44882686284836,140.32358019475942 111.2753597892588,140.59193324114312 111.0771117049735,140.6456038270262 111.00276867335197,140.72610969131347 110.80452058918308,140.99446244575665 110.73017755756155,141.66534348056302 110.48236745246686,142.1215418894426 110.03630926297046,142.52406943013193 109.93718522088602,142.55090458397171 109.59025107335765,142.4972342744295 109.2185359155992,142.71191546603222 108.72291570506059,143.22178279684158 108.42554357880726,143.65114421478938 108.12817145243753,144.0 108.62379166297615,143.22178279684158 109.14419288397767,142.6045748857723 109.16897389444057,142.36305846643518 109.04506884189323,142.01420113796485 108.69813469459768,141.55800259675016 108.45032458927017,140.99446244575665 108.10339044197462,140.40408612901228 107.83079932606779,140.16256827343022 107.18649305251893,139.3038368433772 106.56696778931655,138.25725521837012 105.97222353669349,137.13016400381457 105.10488816839643,135.65420603108942 104.3614578525303,134.5807783526543 103.74193258944433,133.45367593862466 103.32065541052725,132.86328758945456 102.9737212631153,132.27289829816436 102.2798529684078,131.2531327579345 101.8337947789114,130.39438064905698 100.6443062737817,128.48901728959754 100.27259111579042,127.57658629055368 100.09912404220086,126.90567970846314 99.85131393687334,126.39578989232541 98.16620522120502,123.79265724660945 97.22452682117,122.18246293519042 96.7289066107478,121.45787320836098 96.5306585264625,121.08215945790289 95.09335991600528,118.80103206640342 94.54817768442445,117.83490328342305 93.87909040029626,117.11030504011433 92.29310572659597,115.74161559646018 89.98847174772527,113.62147881224519 88.57595414773095,112.44063786559855 87.85730484256055,111.71602905448526 85.72613793727942,109.83740700688213 83.5701900216518,107.77091173280496 82.28157747420482,106.69740313710645 81.43902311637066,105.89226964535192 80.34865865320899,104.9797829023737 79.63000934803858,104.25515947316308 75.86329574813135,100.9004028714553 74.37643511663191,99.53165343616274 73.78169086389244,99.0217258806806 72.7656694323523,98.05554542600294 71.99745810613967,97.4114237203612 71.00621768506244,96.49891604998265 69.86629120097496,95.37169758343953 69.17242290615104,94.45918487934978 68.87505077989772,93.92241164852749 68.30508753785398,92.39260366541566 68.28030652727466,92.17789326654747 68.18118248519022,91.05066162673756 68.20596349565312,90.37968878095853 68.20596349565312,89.49400276000961 68.30508753785398,89.35980772326002 68.23074450623244,89.3329687101068 68.32986854831688,89.09141750365961 68.37943056947552,88.82302708923817 68.23074450623244,89.03773943637498 68.18118248519022,88.93038327840623 68.23074450623244,88.79618803708581 68.35464955877978,88.55463647996658 68.60245966422372,88.31308476504637 69.22198492730968,87.18584134202683 70.08932029560674,85.81704113635351 72.09658214822412,83.05258605181007 73.68256682192441,80.66386549541494 74.30209208501037,79.40240009728586 74.6242452217266,78.40932856407017 74.64902623230591,78.11409056678531 74.59946421138011,77.65781319804955 74.15340602188371,76.95997613293002 73.95515793771483,76.55737722694175 73.70734783238731,76.26213775042561 73.4347567165969,75.64481808317942 72.9639175166376,74.89329709668527 72.46829730609898,74.32965535414405 72.294830232393,73.92705358323292 72.09658214822412,73.57813169373549 71.89833406405523,73.17552910427912 71.32837082189508,72.39716285458417 71.05577970622107,71.86035758943763 70.58494050626177,71.00146754362504 69.04851785348728,68.55898806775804 68.8254887588555,68.02217722820933 67.14038004307076,65.04286289698211 66.7686648851959,64.21079784739413 66.02523456944618,63.002958151802886 65.72786244307645,62.305093417322496 64.4640309063252,60.07728563886485 64.24100181157701,59.56730365601834 63.571914527448826,58.278924985352205 63.27454240107909,57.84946443035733 62.48155006417073,56.265824320027605 62.085053895949386,55.594788327929564 61.63899570633657,54.73586047979188 61.341623579966836,53.957455392956035 59.879543959046714,51.46117974302615 58.56615040125325,48.347521962656174 58.318340295925736,47.32752491525025 57.40144290647004,45.287522372818785 57.20319482230116,44.69699321890948 56.88104168546852,43.99909391097026 56.48454551701434,43.328035640879534 55.41896206443198,40.85853071094607 54.94812286447268,39.892198201443534 53.70907233818434,37.04687113405089 53.11432808556128,36.02684288669843 54.47728366451338,38.899020488286624 54.9976848855149,39.892198201443534 55.31983802234754,40.77800309835584 55.939363285549916,42.093285239330726 56.583669559215195,43.596459095191676 57.426223917049356,45.233837943320395 57.897063117008656,46.388051459391136 58.26877827499993,47.16647249244852 58.69005545391701,48.61594177028746 59.458266780129634,50.494874963886105 60.44950720120687,52.615373806271236 61.66377671691589,54.57481128606014 62.72936016949825,56.53423837569426 63.12585633795243,57.36632070929045 63.54713351686951,58.03735348460032 64.36490686435718,59.48678012067103 64.95965111674741,60.74831349152373 65.43049031682312,61.52670427420526 65.55439536948688,61.87563754111761 65.8269864852773,62.41245730838273 66.99169397982769,64.29132035345538 67.46253318001982,65.17706676176749 67.61121924314648,65.60651880165096 69.04851785348728,68.21006111070164 69.64326210622676,69.39104332824354 70.41147343243938,70.51834101582062 71.8239910324337,72.9339673401555 72.34439225343522,73.68549231020734 73.95515793771483,76.4231774941145 74.72336926392745,77.57729360388475 74.74815027439035,78.00673123655724 74.59946421138011,78.65088675013976 74.22774905338883,79.75131648912793 73.95515793771483,80.31494996487163 73.40997570613399,81.22749757982092 72.69132640084717,82.19372201091028 72.0718011376448,83.15994391663116 71.6009619376855,83.80409045080887 70.60972151660826,85.25341604914865 71.10534172714688,84.42139649289311 73.31085166393314,81.28117678113631 73.9303769270191,80.207591273851 74.22774905338883,79.59027819533367 74.6242452217266,78.19461004398181 74.6242452217266,77.57729360388475 74.35165410605259,77.14785547234351 73.97993894817773,76.45001744452748 73.60822379018646,75.94005805265624 72.91435549559537,74.78593683100189 72.54264033772051,74.30281524974271 72.294830232393,73.76601275210851 71.3779328429373,72.39716285458417 70.4362544430187,70.84042543778196 69.94063423248008,69.92785217968049 69.34588997985702,69.01527666836046 68.8254887588555,68.07585834723432 68.08205844310578,66.49226205798914 67.46253318001982,65.52599658214604 67.016474990407,64.58656939209322 65.77742446411867,62.385616338578984 65.43049031682312,61.63406839137315 64.95965111674741,60.88251891583786 63.794943622197025,58.60102007412934 63.05151330633089,57.312638034665724 62.48155006417073,56.21214148556464 61.91158682212699,55.24584913038416 61.19293751695659,53.823247453634394 60.67253629595507,52.99115714186337 59.60695284337271,51.05855305882869 58.442245348589495,48.24015398501069 58.219216253841296,47.24699871262419 57.376661896007136,45.44857561463141 56.93060370662715,44.294359163643094 56.48454551701434,43.35487799512339 55.9145822749706,42.2543398734997 55.2207139802631,40.53642015531659 54.92334185400978,40.08009638736257 54.50206467497628,39.167447160580195 53.98166345397476,37.71794081336702 53.56038627505768,36.939499872212764 53.362138190772384,36.34895737428451 53.1391090961406,36.0 53.26301414880436,36.3758002355753 53.65951031714212,37.0737139445846 54.94812286447268,39.838512987975264 55.592429138254374,41.44906600023387 55.98892530647572,42.200655003252905 57.02972774859518,44.4554128384043 57.649253011797555,45.66331316123251 58.36790231708437,47.5154193197377 59.35914273804519,50.280140225368086 60.05301103286911,51.78328077448532 61.16815650649369,53.68903946556384 61.78768176957965,54.97743413888384 63.17541835887823,57.44684470669017 63.54713351686951,57.98367090741522 63.720600590575486,58.359448783885455 64.2162208011141,59.218368209549226 64.6870600010734,60.18465017725248 65.20746122207493,61.12408855682588 65.72786244307645,62.278252439631615 66.17392063257284,62.949276295956224 66.5208547799848,63.67398069228511 69.04851785348728,68.23690165759763 69.46979503240436,69.14947909073089 70.01497726410162,70.03521385640488 70.33713040093426,70.43781986643444 71.77442901139148,72.88028692666558 72.61698336934205,74.19545481255045 73.58344277972355,75.83269809104968 74.40121612709481,77.1210155725712 74.30209208501037,76.90629630416515 74.10384400084149,76.71841684199171 73.88081490609329,76.36949758738047 73.4347567165969,75.56429805056541 71.99745810613967,73.28288983774837 71.65052395872772,72.63872496952536 68.87505077989772,68.15638001117622 68.50333562202286,67.35116258234484 67.46253318001982,65.47231509280391 66.743883874733,64.31816118489951 66.37216871674173,63.566617167700315 65.75264345365576,62.54666212835582 64.53837393783033,60.07728563886485 63.86928665370215,58.86943243362475 63.27454240107909,57.60789264878258 60.64775528537575,53.01799879403552 59.656514864298515,51.0317112642515 59.235237685381435,49.931196009070845 58.640493432758376,48.66962570842588 58.14487322233617,46.97857791048591 58.293559285462834,47.22015664121136 58.73961747484282,48.562257824407425 58.93786555912811,48.96488722867798 59.383923748508096,50.30698207448586 59.73085789592005,51.08539485142683 60.201697095879354,52.02485636383062 60.84600336954463,53.04484044431592 61.11859448533505,53.6353562566801 60.82122235908173,53.23273194153444 60.44950720120687,52.50800706873997" stroke="#4dd2ff" stroke-linecap="round" stroke-linejoin="round" stroke-width="0.5"><title>2023-12-24 16.0km</title></polyline><polyline fill="none" points="58.66206896677613,206.3706764159724 62.38620689883828,212.82303629629314 93.66896551847458,249.11749088112265 104.84137931093574,258.795992102474 110.80000000074506,261.21561609208584 122.7172413803637,262.828698460944 133.14482758939266,259.602533493191 142.08275862038136,252.34365889057517 148.04137931019068,243.47169461194426 151.76551724225283,234.59972325805575 151.76551724225283,227.34083234053105 149.53103448450565,216.8557593198493 142.08275862038136,205.5641311686486 113.77931034564972,175.72191587649286 99.6275862082839,162.8171493317932 89.94482759013772,159.5909553570673 78.77241379395127,160.39750393852592 72.81379310414195,162.8171493317932 63.87586206942797,168.46298653725535 57.917241379618645,177.33501063939184 54.193103447556496,187.01357432082295 53.4482758641243,197.49867547117174 56.42758620902896,207.17722160648555 83.98620689660311,239.4389812387526 107.8206896558404,262.0221573067829 114.52413793280721,263.63523955550045 124.95172413811088,262.828698460944 145.0620689690113,252.34365889057517 153.2551724165678,233.7931800559163 153.2551724165678,224.11465707886964 150.27586206793785,214.43612568080425 113.03448276221752,172.49572564288974 98.88275862112641,162.01060092635453 89.94482759013772,158.78440671693534 80.26206896454096,157.97785801719874 70.57931034639478,160.39750393852592 62.38620689883828,166.04334237147123 51.95862068980932,186.2070276690647 51.213793102651834,195.07903762161732 54.193103447556496,207.98376673739403 87.71034482866526,244.27823711093515 105.58620689436793,259.602533493191 119.73793103918433,262.0221573067829 132.40000000223517,260.4090748205781 138.3586206920445,257.1829091515392 148.78620689734817,246.6978642595932 152.51034482568502,237.82589547894895 152.51034482568502,228.95391962025315 150.27586206793785,220.88848088216037 145.8068965524435,212.01649151556194 107.8206896558404,168.46298653725535 95.15862068906426,158.78440671693534 85.47586207091808,157.1713092615828 77.2827586196363,157.97785801719874 63.13103448227048,166.84989048540592 57.917241379618645,174.10882087703794 53.4482758641243,186.2070276690647 52.70344827324152,199.11176707874984 55.68275862187147,207.17722160648555 81.75172413885593,237.82589547894895 101.11724137887359,254.76328428369015 113.03448276221752,257.98945065494627 126.44137931242585,257.98945065494627 134.63448275998235,254.76328428369015 142.08275862038136,249.11749088112265 145.8068965524435,244.27823711093515 151.02068965509534,230.56700666621327 152.51034482568502,224.92120098229498 150.27586206793785,219.27539243269712 123.46206896752119,183.78738736454397 98.13793103769422,160.39750393852592 89.94482759013772,157.97785801719874 77.2827586196363,158.78440671693534 67.59999999776483,162.01060092635453 61.641379311680794,167.6564385406673 52.70344827324152,182.1742935338989 50.46896551549435,191.04630670230836 51.213793102651834,199.11176707874984 54.193103447556496,208.79031180869788 98.88275862112641,253.95674254465848 110.05517241358757,260.4090748205781 121.97241379320621,263.63523955550045 131.6551724150777,260.4090748205781 142.08275862038136,253.95674254465848 151.02068965509534,241.85860943607986 154.0,228.95391962025315 150.27586206793785,216.04921483341604 113.77931034564972,173.30227329023182 101.11724137887359,162.01060092635453 95.15862068906426,158.78440671693534 86.22068965435028,157.1713092615828 73.55862069129944,157.97785801719874 65.36551724001765,162.8171493317932 56.42758620902896,171.68917793873698 51.95862068980932,179.75465235020965 50.46896551549435,191.04630670230836 51.213793102651834,199.11176707874984 54.93793103471398,207.98376673739403 76.5379310362041,232.98663679603487 99.6275862082839,254.76328428369015 107.0758620724082,259.602533493191 116.01379310339689,262.828698460944 124.95172413811088,262.0221573067829 137.61379310116172,257.1829091515392 144.31724137812853,252.34365889057517 151.76551724225283,236.212809484452 152.51034482568502,227.34083234053105 150.27586206793785,218.46884812042117 145.8068965524435,210.40340177994221 115.2689655199647,174.91536840610206 98.88275862112641,162.01060092635453 90.68965517356992,157.97785801719874 82.49655172228813,157.1713092615828 72.06896551698446,159.5909553570673 63.13103448227048,164.4302459694445 55.68275862187147,174.91536840610206 51.213793102651834,186.2070276690647 51.213793102651834,195.88558362796903 54.193103447556496,206.3706764159724 66.85517241433263,221.695025020279 87.71034482866526,244.27823711093515 107.0758620724082,260.4090748205781 116.01379310339689,262.828698460944 125.69655172526836,262.0221573067829 135.37931034713984,258.795992102474 142.82758620753884,253.1502007478848 148.78620689734817,245.89132193569094 152.51034482568502,237.01935251057148 152.51034482568502,227.34083234053105 150.27586206793785,217.66230374854058 124.20689655095339,189.4332139249891 115.2689655199647,177.33501063939184 98.88275862112641,162.8171493317932 87.71034482866526,158.78440671693534 79.51724138110876,157.1713092615828 68.3448275886476,159.5909553570673 61.641379311680794,165.2367941988632 55.68275862187147,172.49572564288974 51.95862068980932,181.36774653196335 50.46896551549435,190.23976034205407 52.70344827324152,203.1444950737059 57.17241379246116,210.40340177994221 75.79310344532132,231.373550103046 107.0758620724082,260.4090748205781 116.75862069055438,262.828698460944 124.95172413811088,262.0221573067829 133.14482758939266,259.602533493191 140.59310344979167,254.76328428369015 147.2965517230332,246.6978642595932 151.02068965509534,237.82589547894895 152.51034482568502,224.92120098229498 150.27586206793785,217.66230374854058 148.04137931019068,213.62958101835102 116.01379310339689,179.75465235020965 97.39310344681144,162.8171493317932 88.45517241209745,158.78440671693534 80.26206896454096,157.97785801719874 70.57931034639478,159.5909553570673 63.13103448227048,163.62369767855853 56.42758620902896,170.0760823553428 51.213793102651834,180.56119947042316 49.72413793206215,191.85285300388932 51.95862068980932,202.3379495916888 56.42758620902896,209.59685682225972 86.22068965435028,241.85860943607986 107.8206896558404,260.4090748205781 120.48275862261653,262.0221573067829 129.4206896573305,261.21561609208584 138.3586206920445,257.1829091515392 145.0620689690113,250.73057500179857 149.53103448450565,243.47169461194426 151.76551724225283,232.98663679603487 151.02068965509534,222.50156909786165 149.53103448450565,216.8557593198493 117.50344827398658,180.56119947042316 94.41379310190678,160.39750393852592 86.22068965435028,157.1713092615828 78.02758620679379,156.36476044543087 69.83448275923729,158.78440671693534 57.917241379618645,167.6564385406673 48.97931034490466,182.1742935338989 49.72413793206215,195.88558362796903 52.70344827324152,203.95104049611837 97.39310344681144,253.1502007478848 106.33103448525071,258.795992102474 113.77931034564972,262.0221573067829 123.46206896752119,262.828698460944 132.40000000223517,260.4090748205781 141.33793103694916,253.1502007478848 150.27586206793785,239.4389812387526 152.51034482568502,228.95391962025315 151.02068965509534,220.08193668629974 143.57241379469633,210.40340177994221 118.99310344830155,183.78738736454397 108.56551724299788,170.0760823553428 100.37241379544139,162.01060092635453 93.66896551847458,157.97785801719874 75.79310344532132,157.1713092615828 67.59999999776483,160.39750393852592 60.15172414109111,166.04334237147123 54.193103447556496,173.30227329023182 49.72413793206215,183.78738736454397 49.72413793206215,195.07903762161732 51.95862068980932,203.95104049611837 84.7310344837606,239.4389812387526 104.84137931093574,257.98945065494627 116.01379310339689,262.0221573067829 124.20689655095339,262.828698460944 132.40000000223517,261.21561609208584 142.08275862038136,254.76328428369015 150.27586206793785,240.24552402831614 151.76551724225283,228.1473760092631 150.27586206793785,219.27539243269712 108.56551724299788,172.49572564288974 97.39310344681144,162.01060092635453 84.7310344837606,157.97785801719874 78.77241379395127,157.97785801719874 67.59999999776483,160.39750393852592 60.15172414109111,165.2367941988632 50.46896551549435,178.94810517318547 48.23448275774717,192.65939924493432 51.95862068980932,204.75758586265147 57.917241379618645,212.01649151556194 98.88275862112641,253.1502007478848 107.8206896558404,259.602533493191 115.2689655199647,262.0221573067829 128.67586207017303,262.828698460944 137.61379310116172,258.795992102474 144.31724137812853,252.34365889057517 149.53103448450565,245.08477955311537 151.76551724225283,235.40626639965922 151.76551724225283,226.53428861312568 148.04137931019068,215.2426702864468 113.03448276221752,176.52846328821033 101.11724137887359,165.2367941988632 91.4344827607274,159.5909553570673 83.24137931317091,156.36476044543087 73.55862069129944,157.97785801719874 66.11034482717514,161.20405246131122 57.17241379246116,168.46298653725535 50.46896551549435,177.33501063939184 46.74482758715749,187.01357432082295 47.489655170589685,198.30522130336612 51.95862068980932,207.17722160648555 97.39310344681144,253.1502007478848 104.84137931093574,258.795992102474 118.24827586114407,262.828698460944 127.93103448301554,262.0221573067829 139.1034482754767,256.37636758573353 145.8068965524435,250.73057500179857 149.53103448450565,243.47169461194426 151.76551724225283,233.7931800559163 147.2965517230332,215.2426702864468 142.82758620753884,207.98376673739403 120.48275862261653,187.82012091390789 101.11724137887359,166.04334237147123 90.68965517356992,158.78440671693534 81.75172413885593,157.1713092615828 71.32413793355227,157.97785801719874 63.87586206942797,162.01060092635453 54.93793103471398,169.26953447703272 49.72413793206215,178.94810517318547 47.489655170589685,190.23976034205407 48.97931034490466,200.72485845070332 52.70344827324152,207.98376673739403 81.00689655169845,237.01935251057148 100.37241379544139,255.5698259640485 107.8206896558404,260.4090748205781 116.01379310339689,262.0221573067829 130.165517244488,261.21561609208584 136.8689655214548,258.795992102474 146.551724139601,249.9240329694003 151.02068965509534,239.4389812387526 151.76551724225283,230.56700666621327 151.76551724225283,221.695025020279 148.04137931019068,213.62958101835102 107.0758620724082,169.26953447703272 93.66896551847458,159.5909553570673 85.47586207091808,157.97785801719874 75.04827586561441,157.97785801719874 64.62068965658545,162.01060092635453 55.68275862187147,170.8826301759109 49.72413793206215,179.75465235020965 47.489655170589685,188.62666745018214 48.97931034490466,199.9183127945289 51.213793102651834,205.5641311686486 95.90344827622175,251.53711697645485 107.8206896558404,258.795992102474 116.01379310339689,262.0221573067829 124.95172413811088,262.0221573067829 138.3586206920445,257.1829091515392 145.0620689690113,250.73057500179857 150.27586206793785,243.47169461194426 151.76551724225283,237.82589547894895 152.51034482568502,226.53428861312568 150.27586206793785,217.66230374854058 115.2689655199647,175.72191587649286 95.90344827622175,159.5909553570673 83.98620689660311,156.36476044543087 73.55862069129944,157.1713092615828 65.36551724001765,160.39750393852592 55.68275862187147,169.26953447703272 50.46896551549435,177.33501063939184 47.489655170589685,187.01357432082295 48.23448275774717,199.9183127945289 51.95862068980932,207.17722160648555 98.88275862112641,254.76328428369015 106.33103448525071,260.4090748205781 115.2689655199647,262.828698460944 126.44137931242585,263.63523955550045 139.1034482754767,257.98945065494627 145.0620689690113,252.34365889057517 151.76551724225283,237.01935251057148 151.02068965509534,221.695025020279 148.78620689734817,214.43612568080425 129.4206896573305,191.04630670230836 107.8206896558404,167.6564385406673 98.13793103769422,159.5909553570673 89.19999999925494,156.36476044543087 79.51724138110876,156.36476044543087 67.59999999776483,160.39750393852592 55.68275862187147,170.0760823553428 46.0,187.01357432082295 46.0,194.27249155379832 48.23448275774717,203.1444950737059 95.90344827622175,250.73057500179857 104.84137931093574,257.98945065494627 121.22758620977402,263.63523955550045 142.82758620753884,253.95674254465848 145.8068965524435,249.9240329694003 150.27586206793785,237.01935251057148 151.02068965509534,228.1473760092631 148.04137931019068,218.46884812042117 121.97241379320621,186.2070276690647 95.90344827622175,159.5909553570673 88.45517241209745,156.36476044543087 78.77241379395127,156.36476044543087 67.59999999776483,158.78440671693534 59.40689655020833,163.62369767855853 51.95862068980932,171.68917793873698 48.23448275774717,178.94810517318547 46.0,190.23976034205407 47.489655170589685,200.72485845070332 52.70344827324152,207.98376673739403 84.7310344837606,240.24552402831614 99.6275862082839,253.95674254465848 107.0758620724082,259.602533493191 121.97241379320621,262.0221573067829 133.14482758939266,260.4090748205781 140.59310344979167,255.5698259640485 146.551724139601,248.31094873137772 151.76551724225283,237.01935251057148 152.51034482568502,225.72774482518435 150.27586206793785,216.8557593198493 145.0620689690113,208.79031180869788 124.20689655095339,185.40048096049577 96.64827586710453,160.39750393852592 89.94482759013772,157.97785801719874 76.5379310362041,157.1713092615828 68.3448275886476,158.78440671693534 58.66206896677613,164.4302459694445 52.70344827324152,170.8826301759109 47.489655170589685,182.98084047902375 46.0,190.23976034205407 48.23448275774717,201.53140404913574 60.896551720798016,217.66230374854058 103.35172414034605,257.1829091515392 112.28965517133474,261.21561609208584 124.95172413811088,262.0221573067829 132.40000000223517,259.602533493191 142.08275862038136,253.95674254465848 147.2965517230332,246.6978642595932 151.76551724225283,235.40626639965922 150.27586206793785,220.88848088216037 147.2965517230332,212.82303629629314 113.77931034564972,172.49572564288974 96.64827586710453,159.5909553570673 88.45517241209745,157.1713092615828 79.51724138110876,156.36476044543087 70.57931034639478,158.78440671693534 57.17241379246116,166.04334237147123 52.70344827324152,172.49572564288974 47.489655170589685,182.98084047902375 46.74482758715749,195.07903762161732 48.97931034490466,203.95104049611837 53.4482758641243,210.40340177994221 86.96551724150777,245.08477955311537 106.33103448525071,261.21561609208584 113.03448276221752,263.63523955550045 125.69655172526836,263.63523955550045 130.9103448279202,262.0221573067829 142.08275862038136,253.95674254465848 148.04137931019068,246.6978642595932 151.76551724225283,235.40626639965922 152.51034482568502,226.53428861312568 148.78620689734817,216.04921483341604 140.59310344979167,203.1444950737059 115.2689655199647,176.52846328821033 96.64827586710453,162.8171493317932 83.98620689660311,159.5909553570673 73.55862069129944,159.5909553570673 56.42758620902896,169.26953447703272 50.46896551549435,175.72191587649286 47.489655170589685,184.59393419045955 47.489655170589685,198.30522130336612 50.46896551549435,205.5641311686486 97.39310344681144,253.1502007478848 106.33103448525071,259.602533493191 115.2689655199647,262.828698460944 124.95172413811088,263.63523955550045 133.88965517282486,260.4090748205781 144.31724137812853,253.1502007478848 151.02068965509534,241.85860943607986 152.51034482568502,232.98663679603487 152.51034482568502,223.3081131177023 148.04137931019068,212.82303629629314 125.69655172526836,187.01357432082295 96.64827586710453,159.5909553570673 87.71034482866526,157.1713092615828 78.02758620679379,157.1713092615828 68.3448275886476,159.5909553570673 57.17241379246116,168.46298653725535 51.213793102651834,175.72191587649286 48.23448275774717,183.78738736454397 46.74482758715749,196.6921295793727 49.72413793206215,204.75758586265147 74.30344827473164,231.373550103046 99.6275862082839,254.76328428369015 108.56551724299788,261.21561609208584 119.73793103918433,263.63523955550045 126.44137931242585,262.828698460944 137.61379310116172,257.98945065494627 148.04137931019068,249.11749088112265 152.51034482568502,237.01935251057148 153.2551724165678,229.7604631735012 149.53103448450565,213.62958101835102 130.165517244488,191.85285300388932 103.35172414034605,165.2367941988632 95.15862068906426,159.5909553570673 86.96551724150777,157.97785801719874 75.79310344532132,157.1713092615828 66.11034482717514,160.39750393852592 57.917241379618645,166.04334237147123 51.95862068980932,174.10882087703794 48.23448275774717,183.78738736454397 48.23448275774717,196.6921295793727 51.213793102651834,204.75758586265147 90.68965517356992,247.5044065238908 106.33103448525071,259.602533493191 117.50344827398658,262.0221573067829 127.93103448301554,261.21561609208584 137.61379310116172,257.1829091515392 145.8068965524435,251.53711697645485 149.53103448450565,244.27823711093515 151.76551724225283,230.56700666621327 151.02068965509534,224.11465707886964 147.2965517230332,213.62958101835102 110.80000000074506,174.10882087703794 92.1793103441596,159.5909553570673 82.49655172228813,157.1713092615828 71.32413793355227,157.97785801719874 61.641379311680794,162.01060092635453 54.193103447556496,170.0760823553428 47.489655170589685,186.2070276690647 46.74482758715749,193.46594543009996 49.72413793206215,204.75758586265147 54.93793103471398,213.62958101835102" stroke="#4dd2ff" stroke-linecap="round" stroke-linejoin="round" stroke-width="0.5"><title>2023-12-17 10.0km</title></polyline></svg>