<?xml version="1.0" encoding="utf-8" ?>
<svg baseProfile="full" height="300mm" version="1.1" viewBox="0,0,200,300" width="200mm" xmlns="http://www.w3.org/2000/svg" xmlns:ev="http://www.w3.org/2001/xml-events" xmlns:xlink="http://www.w3.org/1999/xlink"><defs /><rect fill="#222222" height="300" width="200" x="0" y="0" /><text fill="#FFFFFF" style="font-size:12px; font-family:Arial; font-weight:bold;" x="10" y="20">Over 10km Runs</text><text fill="#FFFFFF" style="font-size:4px; font-family:Arial" x="10" y="280">ATHLETE</text><text fill="#FFFFFF" style="font-size:9px; font-family:Arial" x="10" y="290">kilerd</text><text fill="#FFFFFF" style="font-size:4px; font-family:Arial" x="120" y="280">STATISTICS</text><text fill="#FFFFFF" style="font-size:3px; font-family:Arial" x="120" y="285">Number: 8</text><text fill="#FFFFFF" style="font-size:3px; font-family:Arial" x="120" y="290">Weekly: 1.0</text><text fill="#FFFFFF" style="font-size:3px; font-family:Arial" x="141" y="285">Total: 87.7 km</text><text fill="#FFFFFF" style="font-size:3px; font-family:Arial" x="141" y="290">Avg: 11.0 km</text><text fill="#FFFFFF" style="font-size:3px; font-family:Arial" x="167" y="285">Min: 10.0 km</text><text fill="#FFFFFF" style="font-size:3px; font-family:Arial" x="167" y="290">Max: 16.0 km</text><polyline fill="none" points="65.16385653801262,77.55531612715276 64.72558908013161,77.41293082886841 64.02436114760349,77.38128963884083 63.64452935080044,77.31800724499044 63.00173707923386,77.01741562354437 62.607296367234085,76.7801061560458 62.27129131619586,76.60607904905919 60.883444366336334,75.56191349097935 59.94847378967097,74.77087564872636 58.88202297553653,73.72670130322513 57.830181076715235,72.80908941742382 57.391913618834224,72.50849158068013 57.201997720461804,72.47684967904934 57.01208182203118,72.49267063043953 56.880601584678516,72.60341725811304 56.705294601561036,72.77744755937601 56.50076978781726,73.10968683975807 56.09172016062075,73.56849263288314 55.55119029583875,74.15386413979286 54.70387321076123,75.1505741711444 53.91499178658705,76.00489342927176 53.30141734558856,76.62189970091276 53.228372769313864,76.7010029428202 53.067674701451324,77.03323624553741 52.760887480922975,77.38128963884083 52.39566459937487,77.72934247666853 52.088877378904726,77.84008644493588 52.05965954839485,77.82426588145609 52.074268463707995,77.82426588145609 52.05965954839485,77.8717275683739 51.92817931098398,77.9982920163311 51.53373859892599,78.52036958774261 50.61337693751557,79.56452098116279 49.97058466594899,80.2289783560409 48.94796059769578,81.49460585096676 48.67039120773552,81.77937102518626 48.37821290246211,82.11159659185796 47.86690086836461,82.60202388452308 47.73542063095374,82.76022600170108 47.45785124099348,83.32975267364236 47.39941557997372,83.40885348271695 47.151064020523336,83.61451545197633 46.81505896948511,83.78853696680744 46.683578732132446,83.99419857804605 46.42061825742712,84.31060067824728 46.11383103695698,84.62700231952476 45.77782598591875,84.89594335372385 45.63173683331115,85.06996384623926 45.48564768070355,85.29144427223946 45.120424799155444,85.70276446682692 44.52145927341189,86.31974330439698 44.448414697137196,86.4937626610481 44.27310771396151,86.71524164140283 44.053973985021,86.90508058847627 43.93710266298149,86.95254029943317 43.70336001884425,87.0 43.49883520510048,86.98418010096066 43.192047984630335,86.81016113558144 42.94369642517995,86.38302308649872 42.44699330633739,85.62366448961257 40.59166106808698,82.44382165254501 39.94886879657861,81.47878555256466 38.79476449091453,79.56452098116279 38.47336835513124,79.10572780277289 38.29806137201376,78.77349765729741 38.078927643131465,78.15649747298448 37.757531507348176,77.55531612715276 37.40691754105501,76.98577437612403 37.1877838121145,76.59025839609967 36.57420937117422,75.60937567026122 36.325857811723836,75.16639492852846 35.94602601492079,74.61266773594252 35.33245157398051,73.5843135050527 34.99644652294228,72.96729863874498 34.79192170931492,72.66670102009084 33.87156004778808,71.87565267513855 33.40407475939719,71.41684332015575 32.717455742124,70.83146446559113 32.220752623223234,70.35683180819615 31.899356487439945,70.11951509206847 31.154301809147,69.45502691272122 30.935168080148287,69.23353040292568 30.599163029168267,68.94874884544697 30.000197503482923,68.3633633646532 29.532712215092033,67.87290404907253 28.6123505536234,67.12930233715451 28.159474180545658,66.65466162050143 27.79425129899755,66.36987669450173 27.151459027430974,65.76866285139113 26.69858265435323,65.42059092123236 26.289533027040306,65.0092324691941 25.7782209928846,64.55040866468335 25.412998111336492,64.26562098992872 24.85785933135776,63.711866113008 23.806017432594672,62.82585538420244 23.39696780522354,62.398670353300986 22.783393364283256,61.892375899347826 21.439373160188552,60.674100050513516 21.132585939776618,60.34184181917226 20.621273905562703,59.89883005626325 20.31448668509256,59.598214418656426 19.803174650878645,58.87040642129432 19.657085498271044,58.5856113260088 19.52560526097659,58.19006196530245 19.452560684643686,58.04766401971574 19.350298277800903,57.762867849494796 19.335689362545963,57.28820673885639 19.291862616781145,57.01923165067274 19.277253701468,56.54456892062444 19.291862616781145,56.30723716797365 19.452560684643686,55.75346207343682 19.64247658313252,55.215507777247694 19.876219227269758,54.83577453343605 20.19761536293663,54.34528478095308 20.606664990249556,53.82314931535802 21.395546414423734,52.589005969668506 21.994511940167286,51.766239856529864 22.608086381165776,50.80106795702886 22.768784449028317,50.405504468188155 23.06096275424352,49.53526226549002 23.104789500066545,49.345390777569264 23.07557166949846,49.09222853639221 23.03174492373364,48.98146996338619 22.84182902536122,48.74412997455511 22.359734821657185,47.90552661035326 21.95068519434426,47.27261627400003 21.527026651776396,46.49729860678781 20.82579871924827,45.45298881713825 20.226833193504717,44.40867402247386 19.613258752506226,43.41182341297099 19.248035871016327,42.65231512558239 18.707506006292533,41.68710285676934 18.546807938429993,41.481401328681386 18.137758311175276,40.64277001208393 18.035495904274285,40.37377437771647 17.714099768549204,39.89907538921398 17.14435207331553,38.696499989251606 16.720693530805875,37.968622180167586 15.946421021828428,36.40209429846436 15.72728729294613,36.11726983699191 15.303628750378266,35.35773611905461 15.20136634359369,35.05708662410325 14.92379695357522,34.55072864203248 14.850752377242316,34.32919665479858 14.836143461987376,34.09184070414631 14.894579123065341,33.82283698076208 14.967623699398246,33.71207064516784 15.11371285194764,33.58548047838849 15.391282241907902,33.44306645281904 16.267817157611717,33.11076669770409 16.939827259688172,33.0 17.115134242805652,33.0158238173899 17.26122339547146,33.12659050706134 17.46574820909882,34.23425430554198 17.436530378530733,34.56655234681966 17.553401700686663,35.24697056393779 17.52418387006037,35.40520705397648 17.6410551922163,35.84826861473266 17.757926514314022,36.63944773191179 17.88940675172489,37.01921268751903 17.88940675172489,37.288212463856325 18.006278073764406,37.71544672003074 17.99166915845126,37.79456408294209 17.918624582176562,37.88950488049886 17.977060243254527,38.03191599926504 17.962451327999588,38.20597390686453 17.99166915845126,38.31673795748793 18.035495904274285,38.38003167542047 18.079322650039103,38.38003167542047 18.649070345214568,38.19015046648565 18.722114921547472,38.20597390686453 18.75133275211556,38.237620784246246 18.78055058256723,38.41167852751096 19.014293226820882,38.74397019665048 19.437951769388746,39.74084216319898 20.109961871406995,40.92758855706779 20.504402583523188,41.402285304662655 21.205630516051315,42.39914510808012 21.58546231285436,42.8580155481759 22.125992177519947,43.3801772872248 22.40356156748021,43.61752311853343 22.637304211675655,43.75993049326644 22.929482516949065,44.0447449634521 23.513839127321262,44.50361193792196 24.18584922933951,44.96247794601368 24.49263644986786,45.19982205379347 24.726379094063304,45.40552007142105 25.369171365571674,45.88020706329553 25.573696179199032,46.10172730560589 26.041181467589922,46.48147576850897 26.450231094902847,46.70299539959524 26.56710241700057,46.877046380293905 26.625538078078534,46.924514805476065 26.932325298548676,47.0985656092671 27.16606794274412,47.288439054842456 27.443637332704384,47.39919848833233 27.691988892154768,47.55742615283816 28.14486526523251,47.93717207889131 28.875311028386932,48.47514434138429 29.24053390987683,48.80742066350649 29.7372370287776,49.13969647898921 30.438464961305726,49.693488378994516 30.759861097089015,49.8833595635806 31.47569794487208,50.405504468188155 31.8117029958521,50.70613278519886 32.060054555302486,50.88018056862347 32.381450691085774,51.16498573264107 32.70284682686906,51.37067811959423 33.024242962594144,51.63966017882922 33.94460462406278,52.288380250000046 34.57278798031621,52.81051939242752 34.87957520078635,53.03203259014117 35.11331784498179,53.17443381260091 35.46393181133317,53.490880640558316 35.75611011654837,53.66492620004283 36.15055082854815,53.99719460956112 36.86638767638942,54.40857384329138 37.42152645630995,54.8515967651183 37.801358253112994,55.231329981354065 39.043116050364915,56.16483799235721 39.64208157610847,56.702789945484255 39.90504205081379,56.90847710613161 40.138784695009235,57.145808204077184 40.98610178014496,57.747045829106355 41.307497915870044,58.095130011904985 41.51202272955561,58.19006196530245 41.71654754318297,58.41156969573058 41.774983204260934,58.569789365370525 41.97950801788829,58.66472111204348 42.38855764520122,58.98115996895649 42.78299835731741,59.360885990885436 43.00213208619971,59.61403630468703 43.23587473045336,59.75643322696851 43.49883520510048,60.05704864636937 44.010147239256185,60.48423826601356 44.22928096819669,60.62663461991178 45.33955852809595,61.57594126847107 45.52947442646837,61.781623830785975 45.66095466387924,61.84491073398385 45.67556357913418,61.892375899347826 45.64634574856609,61.90819761880266 45.587910087546334,61.892375899347826 45.44182093493873,61.781623830785975" stroke="#4dd2ff" stroke-linecap="round" stroke-linejoin="round" stroke-width="0.5"><title>2024-03-27 10.0km</title></polyline><polyline fill="none" points="186.3108289068332,86.4172590753733 185.96689650282497,86.29669181001373 185.11611634551082,85.77423295701738 184.7721839415026,85.61347615695558 183.01631851046113,85.5732869400963 182.31035199703183,85.61347615695558 182.0388264148496,85.67375996970804 181.6948940108996,85.85461131649208 181.15184284665156,86.33688090527721 180.75360532623017,86.57801533445308 180.24675757298246,86.79905501418398 179.61319788137916,86.93971652201435 179.1244518336025,86.93971652201435 178.6900109021226,86.8794330288074 178.14695973799098,86.71867697250855 177.6582136900979,86.4775426852575 177.13326423132094,86.09574623256049 176.53590795071796,85.53309771641216 175.26878856745316,83.82504945962864 174.92485616350314,83.48343834270781 174.18268623907352,82.80021464308084 173.36810949270148,82.29784302896587 172.8069566229824,82.03660937202221 172.19149863690836,81.89594497690268 171.5036338288919,81.81556528534566 170.68905708251987,81.7552804988809 170.38132808945375,81.63471088041842 170.20031103480142,81.47395129447978 170.0917008019169,81.2930966309068 170.01929397997446,81.05195686644583 169.9649888635613,79.74577891163062 169.67536157602444,78.94197354289645 169.6934632814373,78.76111696213775 169.83827692520572,78.07787975444808 169.78397180885077,76.73149483038287 169.6934632814373,76.51044583400653 169.5305479321396,76.32958741192124 169.20471723366063,76.16882425520453 168.6254626584705,76.02815640423796 167.66607226838823,75.94777473797149 166.6161733508343,75.74682045384543 165.87400342640467,75.48557963169878 165.27664714574348,75.20424304221524 164.5525789267267,74.90281061419228 164.3172567555448,74.8224285691249 164.1181379953632,74.84252408289467 163.91901923512341,74.92290612119541 163.73800218041288,75.08367011665541 163.48457830381813,75.40519778283488 163.3397646599915,75.46548417203303 163.0139339614543,75.50567508974927 162.52518791356124,75.46548417203303 162.39847597532207,75.40519778283488 162.14505209872732,75.22433852385439 161.78301798924804,74.78223753644852 161.4390855851816,74.46070903159853 161.13135659211548,74.09898894622165 160.91413612640463,73.7171727061941 160.64261054433882,72.97363406582735 160.47969519504113,72.79277296544751 159.9366440307931,72.5918160265719 158.9591519352398,72.39085891866125 158.65142294217367,72.29038030123047 158.09027007239638,71.98894419551652 156.31630293600028,70.40137442613195 156.00857394293416,70.2004154749302 155.37501425133087,69.91907265919144 154.37942045019008,69.67792141043174 153.70965734764468,69.31619408076222 153.5105385874631,69.17552219345816 153.1485044779838,68.75350603432162 152.5149447863805,68.15062451327685 152.15291067684302,67.90947147866245 151.6098595126532,67.62812596383446 150.9400964101078,67.36687626042112 150.72287594439695,67.22620322479634 150.57806230062852,67.06543393977336 150.17982478026533,66.42235571719357 149.89019749255385,66.02043094865803 149.56436679407489,65.73908320815826 149.0032139243558,65.45773513622407 148.67738322587684,65.19648305827286 148.0619252397446,64.29214673500974 147.6274843083229,63.729446849785745 146.48707686341368,62.483463813507115 145.79921205539722,61.59921384336485 145.726805233513,61.438440769692534 145.70870352798374,61.21737761663098 145.7630086444551,60.43360660652979 145.6906018225709,59.9713814714778 145.5276864733314,59.58954264150816 145.2561608912074,59.16750954001327 144.64070290507516,58.52441004614229 144.4596858503064,58.30334419499559 144.20626197371166,57.3788847818214 144.1881602682406,56.71568343248509 144.13385515182745,56.37403353357513 144.06144832988502,56.173062776375446 143.80802445323206,55.77112075453624 143.39168522733962,55.34908090328099 142.70382041932316,54.50499896267138 142.6133118919679,54.42461005075893 142.50470165902516,54.40451281858259 142.43229483725736,54.40451281858259 142.1788709606044,54.58538784745906 141.99785390577745,54.64567949336197 141.76253173471196,54.54519340847037 141.3823959197034,54.223637652612524 141.25568398134783,54.14324864595255 141.16517545393435,54.123151390085695 140.9117515773396,54.16334590013139 140.73073452268727,54.082956873229705 140.45920894050505,53.68101133251912 140.2781918857945,53.35945441262447 140.26009018032346,53.25896778635797 140.29629359120736,53.098189096330316 140.53161576244747,52.87711822081474 140.56781917338958,52.79672876074619 140.58592087880243,52.67614451992267 140.5135140569182,52.475170649864594 140.35059870767873,52.354586246598046 140.0428697146126,52.19380694752908 139.28259808471194,51.34971385083918 138.72144521505106,51.088446335095796 138.504224749282,51.06834882205294 138.14219063980272,51.088446335095796 137.67154629749712,51.028153790859506 137.38191900996026,50.88747112842975 137.07419001689414,50.686495752539486 136.7664610237698,50.2845444931736 136.1329013321665,49.259565718472004 135.55364675697638,48.37526676870766 135.44503652409185,48.15419151939568 135.37262970232405,47.95321384241106 135.30022288032342,47.61155140309711 135.31832458579447,47.18949712651374 135.426934818679,46.66695270250784 135.71656210627407,46.00372159399558 135.78896892815828,45.64195839445165 135.75276551715797,45.44097860228794 135.55364675697638,44.85813624795992 135.53554505144712,44.737547996934154 135.5898501679767,44.59686162714206 135.6622569898609,44.53656744326872 136.18720644863788,44.31548863874923 136.3320200924063,44.194900113594485 136.44063032523263,44.094409629455185 136.51303714711685,43.873330415415694 136.4949354416458,43.61205471663561 136.27771497593494,43.06940427455993 136.11479962663725,42.22527891259233 136.00618939386914,41.24046221708704 136.04239280475304,41.0595770762593 136.22340985952178,40.5973144267482 136.5311388525879,40.135050881974166 136.54924055811716,40.01446024481265 136.4949354416458,39.69288491443149 136.51303714711685,39.5521955712029 136.74835931829875,39.21052110653545 136.7664610237698,39.130127043812536 136.78456272918265,38.88894469301158 136.7302576127695,38.687959214512375 136.5311388525879,38.40657926037966 136.42252861970337,38.04480454606528 136.20530815405073,37.48204278938647 136.0242910993402,36.79868744377745 135.98808768839808,36.718292568592005 135.8613757500425,36.65799639445322 135.71656210627407,36.6378976663691 135.426934818679,36.65799639445322 135.31832458579447,36.597700205034926 135.11920582561288,36.33641654168605 134.90198535996024,36.09523136775533 134.57615466136485,35.53246501403919 134.30462907924084,35.150587089694454 134.1236120245303,34.94959846299025 133.70727279863786,34.34663156737224 133.6891710931086,34.18584013788495 133.7253745041089,34.02504860008776 134.06930690811714,33.7235641747684 134.1236120245303,33.602970297972206 134.10551031900104,33.36178236156411 133.99690008617472,33.040198067290476 133.94259496976156,33.0 133.9606966752326,33.10049515546416 134.1598154354724,33.42207936855266 134.17791714100167,33.64316826366121 134.1236120245303,33.78386109029816 133.8882898533484,33.96475174550142 133.79778132599313,34.085345439467346 133.79778132599313,34.28633479400014 133.8158830315224,34.36673048841476 134.44944272312569,35.150587089694454 134.70286659966223,35.53246501403919 135.06490070919972,36.15552768409543 135.26401946943952,36.37661404698156 135.44503652409185,36.61779893653875 135.57174846250564,36.67809512084932 135.95188427739777,36.67809512084932 136.1329013321665,36.818786158328294 136.65785079094348,38.44677641699673 136.89317296206718,38.84874761090032 136.9293763730675,38.989437368829385 136.9293763730675,39.19042259339767 136.89317296206718,39.29091514222091 136.6940542018856,39.5521955712029 136.63974908541422,39.672786441937205 136.67595249635633,40.07475557104044 136.65785079094348,40.21544460627774 136.35012179781916,40.5973144267482 136.22340985952178,40.87869179829431 136.16910474316683,41.119872138428036 136.18720644863788,41.38115056518291 136.3320200924063,42.1850823922432 136.3682235032902,42.868422316299984 136.58544396900106,43.672349134038086 136.62164738000138,43.89342853424023 136.60354567453032,43.99391910301347 136.5311388525879,44.15470392501447 136.38632520881947,44.29539055543137 135.64415528433165,44.576763567572925 135.5898501679767,44.63705774125992 135.55364675697638,44.7777440873906 135.5898501679767,44.93852838144812 135.77086722268723,45.36058663800941 135.84327404457144,45.76254618857638 135.77086722268723,46.02381953340955 135.49934164056322,46.58656115112535 135.37262970232405,47.12920359749114 135.3545279967948,47.45076890954806 135.3907314077369,47.79243157891324 135.55364675697638,48.29487579263514 135.75276551715797,48.63653725392942 136.71215590741485,50.16395898342307 137.01988490048097,50.6061055547907 137.18280024966225,50.76688592317805 137.47242753725732,50.967861231358256 137.70774970843922,51.028153790859506 138.01547870150534,51.088446335095796 138.79385203681886,51.088446335095796 139.04727591347182,51.14873886409623 139.26449637918267,51.22912887910206 139.42741172848037,51.32961635981337 139.55412366677774,51.45020128079341 140.16958165290998,52.254099197423784 140.2419884747942,52.29429402209644 140.49541235138895,52.394781054448686 140.58592087880243,52.455073253571754 140.6764294062159,52.67614451992267 140.6764294062159,52.81682612828445 140.58592087880243,52.97760500779259 140.33249700220767,53.178578454928356 140.29629359120736,53.29916244195192 140.33249700220767,53.41974636813393 140.85744646092644,54.06285961224057 140.96605669375276,54.14324864595255 141.27378568681888,54.10305413250171 141.41859933064552,54.14324864595255 141.52720956353005,54.223637652612524 141.72632832371164,54.4648045100912 141.96165049489355,54.58538784745906 142.16076925507514,54.58538784745906 142.50470165902516,54.42461005075893 142.64951530291,54.42461005075893 142.93914259050507,54.66577670526749 143.5908039875212,55.409372356312815 143.9166346861166,55.85150921305467 144.1519568572985,56.31374232414237 144.26056709012482,56.976944790018024 144.24246538465377,57.80092104493815 144.31487220647978,58.08227813921985 144.6226011995459,58.504313159006415 145.4190762405051,59.32828414280084 145.63629670621594,59.66992981436488 145.70870352798374,59.890994400077034 145.78111034998437,60.11205878124747 145.81731376086827,60.41350988014892 145.81731376086827,60.71496059848869 145.7630086444551,61.31786089335219 145.83541546639754,61.59921384336485 146.19744957587682,62.041339237752254 146.70429732912453,62.74471885984531 147.82660306850448,63.95050767714565 148.17053547262913,64.39262871786195 148.71358663676074,65.21657938203134 149.05751904082717,65.51802403663169 149.600570205017,65.7792757628049 149.96260431455448,66.02043094865803 150.16172307473607,66.30177835765062 150.59616400615778,67.02524160161556 150.84958788281074,67.30658782673709 151.03060493746307,67.42716467889841 152.0080970330746,67.80899097571091 152.4787413754384,68.07024019546225 152.85887719044695,68.39177730439405 153.67345393676078,69.21571416968072 154.0173863407108,69.47696185047971 154.56043750501703,69.73820924546453 155.73704836081015,70.03964819227986 156.3525063469424,70.36118264941615 156.56972681265324,70.50185383828648 158.30749053810723,72.02913569819066 158.48850759287598,72.14971016587515 159.24877922283486,72.43105035372719 160.38918666768586,72.77267727917933 160.64261054433882,72.91334704759356 160.78742418810725,73.07411239572684 161.02274635928916,73.69707709766226 161.4390855851816,74.38032683772326 161.58389922900824,74.56118673585297 161.85542481113225,74.80233305365255 162.19935721508227,75.20424304221524 162.4708827972063,75.4252932476229 162.7062049683882,75.50567508974927 163.28545954352012,75.4252932476229 163.48457830381813,75.30472043366171 163.75610388588393,75.00328813244414 163.90091752965236,74.92290612119541 164.19054481724743,74.84252408289467 164.40776528295828,74.86261959504918 164.6792908651405,74.92290612119541 166.52566482347902,75.70662957677268 166.8876989329583,75.82720218783652 167.3221398642636,75.887488470471 168.5892592475284,76.00806099022157 169.34953087742906,76.22911045166256 169.65725987049518,76.38987356785219 169.83827692520572,76.59082731086528 169.91068374708993,76.85206692408246 169.9287854526192,78.03768926960765 169.74776839790866,79.00225903942192 169.78397180885077,79.16302028896462 170.03739568550372,79.74577891163062 170.01929397997446,80.48929646938632 170.05549739091657,80.89119688826031 170.14600591827184,81.25290668701928 170.27271785656922,81.51414120105619 170.45373491139617,81.67490076003014 170.7976673153462,81.7954703582509 172.06478669855278,81.89594497690268 172.6440412737429,82.0165144634957 173.11468561604852,82.19736857930548 173.9835674787755,82.67964555202343 174.65333058132092,83.20211117365398 175.23258515656926,83.74467041727621 175.54031414963538,84.10637589507678 176.22817895771004,85.17139439903258 176.73502671095775,85.75413836291409 177.20567105326336,86.15602992354252 178.0564512105775,86.67848794150632 178.52709555294132,86.8794330288074 178.9253330733045,86.9598110163497 179.5588927649078,87.0 180.01143540180055,86.91962202599098 180.427774627693,86.79905501418398 180.91652067546966,86.5378262798622 181.83970765466802,85.79432754944719 182.27414858608972,85.65366536710644 182.65428440098185,85.61347615695558 183.5050645583542,85.61347615695558 184.08431913348613,85.67375996970804 184.82648905791575,85.69385457050521 185.0799129345105,85.79432754944719 185.85828626994044,86.19621904240921" stroke="#4dd2ff" stroke-linecap="round" stroke-linejoin="round" stroke-width="0.5"><title>2024-03-20 10.0km</title></polyline><polyline fill="none" points="64.14575795381097,138.88920877566852 64.05112172447843,138.75744232886063 63.21291512140306,138.15717187146947 62.888448049197905,137.8643563663063 62.604539360967465,137.67402606015094 62.185436059429776,137.43977312921197 61.42834622442024,136.8541396123328 60.92812615481671,136.41491335943283 60.171036319748964,135.71214936644537 59.562660559487995,135.24363867813372 59.04892102855956,134.73120386741357 58.46758419089019,134.2187677554466 58.048480889352504,133.7795357666182 57.832169507863,133.58920160788693 57.53474135842407,133.36958504779614 57.3860272836755,133.34030282174353 57.25083267025184,133.3549439353228 57.08859913417837,133.4720728055836 56.84524883009726,133.79417684831424 56.33150929911062,134.39446028326347 55.966483842988964,134.67263980615826 55.804250306857284,134.93617794783495 55.304030237253755,135.59502179634 55.12827723985538,135.7853540632059 54.722693399642594,136.16601805847313 54.330629020754714,136.6491674799763 53.789850567118265,137.2201607595489 53.31666942022275,137.82043400389375 52.89756611868506,138.20109416058403 52.627176891837735,138.36214247228054 52.51902120112209,138.46462769461505 52.27567089704098,138.83064592105802 50.78853014961351,140.60216475582274 49.78809001040645,141.6709247973049 49.2337920954451,142.3443871223717 48.922844484623056,142.54935347095306 48.530780105735175,143.07640884014836 48.21983249497134,143.31065522914287 47.949443268124014,143.74986647583137 47.65201511856867,144.11587511803373 47.15179504908156,144.54044431159855 46.89492528355913,144.87717096801498 46.66509444080293,145.08213474477816 46.61101659544511,145.21389706277114 46.52989982737927,145.30173856031615 46.1648743711994,145.68238460806606 45.556498610938434,146.38511388731422 45.47538184287259,146.57543597948097 45.44834292016458,146.82431844461826 45.38074561342364,146.82431844461826 45.326667768124025,146.8975191112986 45.19147315470036,146.9707197513635 45.015720157301985,147.0 44.79940877581248,146.9707197513635 44.623655778414104,146.88287898009003 44.33974709024187,146.59007613298309 43.974721634120215,145.97518877171387 43.460982103133574,145.2578178163385 43.25819018302718,144.8478904115036 42.93372311088024,144.29155903054925 42.71741172944894,143.98411208331527 42.4199835798936,143.35457639681408 41.960321894381195,142.7250387469394 41.716971590183675,142.2711848045874 41.39250451809494,141.78804884135025 41.28434882737929,141.56844120302412 40.986920677823946,141.17314685194287 40.63541468302719,140.63144592828758 40.52725899225334,140.3825558272365 39.93240269337548,139.41627370261995 39.634974543820135,138.6549572551885 39.45922154642176,138.288938710175 38.864365247427486,137.35192821000237 37.904483492311556,135.6828674802673 37.45834126806585,135.0240239186096 36.71477089432301,133.76489468384534 36.49845951289171,133.4720728055836 36.28214813146042,133.23781499706092 35.40338314429391,132.46183406382625 35.078916072205175,132.110445489845 33.05099687108304,130.3534934411582 31.76664804382017,129.18218357618025 31.090674976760056,128.5379602520552 29.23850877309451,126.88346819934668 28.23806863394566,125.93176308413967 27.92712102306541,125.69749652108294 26.805005731876008,124.64329362093122 26.453499737021048,124.36510027031181 25.601773672620766,123.53051791670441 25.006917373626493,123.04733708128333 24.804125453461893,122.84235092267045 24.3715026905993,122.47630369279068 24.033516157069243,122.13953965465771 23.776646391663235,121.9638364551356 23.64145177823957,121.80277505439881 23.465698780841194,121.64171352508129 23.10067332460312,121.27566411656153 22.897881404554937,121.02675013936823 22.735647868423257,120.76319382872316 22.505817025667056,120.29464842626476 22.357102950918488,119.79681774361234 22.275986182852648,119.63575461263827 22.24894726020284,119.44540711025184 22.275986182852648,119.19649087454309 22.221908337494824,118.75722617986321 22.221908337494824,118.56687784846872 22.262466721527744,118.288676117867 22.411180796218105,117.70298700973217 22.762686791073065,117.02944243290403 22.951959249854553,116.7219539435464 24.18223023187602,114.90629806899233 24.83116437616991,113.98382148385281 25.290826061798725,113.25169420674501 25.453059597872198,112.90027216970338 25.628812595270574,112.3584953295358 25.696409901953302,111.99242907301232 25.709929363336414,111.69957558938768 25.10155360295903,110.67458504767274 24.844683837494813,110.29387294816843 24.614852994738612,109.85458886327979 24.1416718478431,109.07851797471812 23.884802082378883,108.72708866535686 23.72256854630541,108.37565874354914 23.14123170863604,107.48243826891121 22.951959249854553,107.1017201427021 22.695089484390337,106.6917152028036 22.505817025667056,106.45742629145388 22.086713724129368,105.60812670565792 21.50537688646,104.4952459713968 21.343143350386526,104.26095450777211 21.045715200947598,103.64593812050589 20.81588435813319,103.29449934259173 20.31566428852966,102.28410944384814 20.04527506174054,101.84480790853559 19.85600260295905,101.37621854904864 19.450418762746267,100.58547153529071 19.07187384518329,99.98508747195592 18.61221215967089,99.12111702347465 18.4229397008894,98.84288846376876 18.098472628742456,98.16928088683926 17.787525017920416,97.64210816958803 17.463057945715263,97.01242783943599 17.003396260202862,95.8116366416798 16.800604340038262,95.13801893542404 16.273345347784925,94.09830023096583 16.13815073436126,93.74684480819269 16.029995043645613,93.36610074194323 15.854242046189029,93.0 15.867761507513933,93.07322020159336 15.894800430221949,93.16108440842072 16.029995043645613,93.38074475777103 16.192228579777293,93.74684480819269 16.36798157711746,94.06901230245421 16.624851342639886,94.66941398601921 16.800604340038262,95.03551169583807 17.03043518285267,95.7091297446459 17.233227102959063,96.2216637085512 17.395460639032535,96.57311481633224 17.49009686836507,96.83670274511678 17.706408249854576,97.3199463859346 17.922719631285872,97.77390147816914 19.058354383858386,99.82400851661805 19.409860378713347,100.55618454929208 20.112872368423268,101.77159089286579 20.35622267256258,102.28410944384814 20.802364896750078,103.06020648368576 21.099793046247214,103.68986792468058 21.383701734419446,104.14380867387808 21.883921803964768,105.11025976802921 22.843803559138905,106.85278867147281 23.465698780841194,107.92172752138868 23.736088007630315,108.31708703035838 24.79060599213699,110.08887382762623 25.331384445773438,110.95279728127935 25.561215288529638,111.28957999787235 25.655851517920382,111.45064979394374 25.655851517920382,111.4799351975962 25.53417636587983,111.39207897389133 25.290826061798725,111.0113682289084 25.0339562962763,110.54280017148994 23.965918850386515,108.87351761870377 23.600893394264858,108.24387236495386 23.37106255145045,107.90708456168068 22.776206252456177,106.91136080998695 22.6004532550578,106.57457078114385 22.316544566885568,106.09134932240704 21.289065505028702,104.08523573141429 21.045715200947598,103.7484409819881 20.477897824603133,102.72341002199391 19.49097714672098,100.83441074450093 18.57165377563797,99.17969140820787 18.38238131685648,98.79895760344516 18.017355860676616,98.18392455371213 17.936239092610776,98.00820048060268 17.67936932714656,97.52495848966646 17.53065525239799,97.114934073732 17.57121363643091,97.20279651875899 17.77400555659551,97.45173990511103 17.895680708577856,97.67139557893097" stroke="#4dd2ff" stroke-linecap="round" stroke-linejoin="round" stroke-width="0.5"><title>2024-01-22 10.0km</title></polyline><polyline fill="none" points="184.79157994798152,138.04567662626505 184.04783254954964,137.6192710891628 183.11450248089386,136.82962900018902 182.63325416430598,136.51377136264637 182.45825477642938,136.35584237200965 182.3124219531892,136.0873628249974 182.1228392829653,135.89784765127115 181.6270076840301,135.53460977386567 181.34992531995522,135.3924730481085 180.41659525129944,134.65020197258855 180.08117975783534,134.4133064156922 179.71659769979306,134.09744527212752 179.39576548873447,133.7184112949035 178.214519620582,132.62868493392307 177.8791041271761,132.4075803688611 177.6749381746631,132.3602007899899 177.49993878678652,132.3602007899899 177.35410596360452,132.45495993741497 176.69785825908184,133.3393766576337 176.23119322478306,133.82896293974773 175.57494552026037,134.57123681558005 175.44369597942568,134.71337407753163 175.1228637683089,134.9502693079121 174.4520327814971,135.61357458136627 173.75203522999072,136.4348068816762 172.87703829066595,137.3192074327817 172.76037203200394,137.46134290049667 172.65828905580565,137.65085671316774 172.48328966792906,137.72982075304026 172.20620730385417,138.140433298875 171.76870883413358,138.64580152288545 170.777045636205,139.7512904230971 170.31038060190622,140.22506966194487 170.16454777872423,140.44616628723452 169.59579976811074,141.12524737539934 169.17288458073745,141.58323109937191 168.98330191057175,141.85170386898972 168.89580221666256,142.00962887294008 168.76455267576966,142.10438382033317 168.61871985252947,142.15176127858285 168.29788764147088,142.43602581146115 167.9187223010813,142.92559163704573 167.5395569606917,143.39936396855046 167.3062244434841,143.65204212382378 167.1312250556657,143.88892762808246 166.67914330365602,144.37849018692214 166.13956185773714,144.8522593571106 166.00831231684424,145.15231263170426 165.93539590522414,145.23127395105257 165.06039896584116,146.0840543753584 164.95831598958466,146.22618412137672 164.82706644869177,146.47885899631365 164.76873331941897,146.889455042794 164.53540080221137,146.96841573223355 164.2291518735001,147.0 164.0395692032762,146.9368314598978 163.806236686185,146.77891002953402 163.4708211927791,146.43148247960198 163.10623913467862,145.8471712591563 162.59582425339613,145.1681048978935 162.07082608976634,144.094228189977 161.41457838524366,143.03613860660698 161.09374617418507,142.56236548472953 160.87499693932477,142.16755376235233 160.3791653403896,141.4253057861206 160.2479157994385,141.1568324907421 159.8979170238017,140.66726268804632 159.19791947229533,139.43543702439638 159.02292008441873,139.19854667467007 158.77500428498024,138.72476520194323 158.52708848548355,138.07726218839525 158.35208909760695,137.69823514054588 157.47709215822397,136.2294990970404 156.5291788073373,134.74496012316376 156.2958462901297,134.2869620132551 155.27501652756473,132.62868493392307 155.04168401041534,132.3602007899899 154.61876882310025,131.94957734101627 154.26877004728885,131.66529911490215 152.9125247913762,130.41762917640153 152.2416938045062,129.86486172759032 151.68752907624003,129.3436797043978 151.46877984143794,129.16995208598382 150.66669931373326,128.41186631015444 150.14170115010347,127.95385487441672 149.8062856567558,127.60639728022215 149.0333716935711,126.8798932452919 148.26045773056103,126.23235499623115 147.07921186240856,125.12679743532499 146.86046262760647,124.9688601824455 146.58338026347337,124.70036658951722 146.27713133470388,124.44766643471667 145.3438012660481,123.5632135822234 144.33755478583043,122.66296323736606 143.84172318683704,122.189145770506 143.31672502326546,121.7627091682516 142.2813119783532,120.7992752494174 142.0771460258402,120.65712890028954 141.7417305324343,120.35704185831128 141.14381595724262,119.78845474915579 140.58965122897644,119.20407200542104 140.23965245322324,118.68286445042759 140.02090321842115,118.22483253812243 139.94798680685926,118.01950757479062 139.81673726590816,117.51409145494108 139.75840413657716,117.16661719160038 139.72923757194076,116.34531218133634 139.77298741892446,116.02942481344508 139.91882024210645,115.53979848687595 140.05006978299934,115.20811551062798 140.26881901791785,114.7974596965505 141.581314426905,112.85473129988532 142.2521454137168,111.9228472947143 143.05422594147967,110.65926938645134 143.27297517633997,110.16963097399275 143.40422471717466,109.79055531718768 143.52089097577846,109.36409441367141 143.50630769343115,109.01660713342426 142.42714480159339,107.18439229446813 142.1938122845022,106.85269657902245 141.33339862740831,105.39954748279706 141.05631626327522,104.98887315270258 140.58965122897644,104.21490788446681 140.51673481735634,104.04116020086803 139.87507039518096,103.01446650980506 139.78757070127176,102.82492252923839 139.20423940836918,101.67185975506436 138.7813242210541,100.9768600617681 138.5188251392101,100.4240178106993 138.0521601049113,99.63424072852649 137.77507774077822,99.01821261344594 136.76883126050234,97.07534328186011 136.43341576709645,96.52249111280253 136.30216622620355,96.20657495656633 135.61675195710268,95.05347709154012 135.20842005201848,94.26368050505698 135.20842005201848,94.05833292273746 135.28133646363858,93.85298514645547 135.36883615760598,93.71082118776394 135.48550241615158,93.58445314639539 135.70425165101187,93.42649299150798 136.30216622620355,93.284328753929 136.92924736603163,93.0 137.10424675390823,93.0 137.58549507055432,93.07898024674796 137.73132789379451,93.14216442346515 137.7604944584309,93.42649299150798 137.9209105640184,94.32686433757772 137.9646604108857,95.10086479553138 138.0521601049113,95.55894540149893 138.0667433872004,95.7642915668257 138.2125762103824,96.39612470536667 138.3729923159699,97.43864537056652 138.4750752922264,97.722968320988 138.4604920099373,97.8019468523562 139.30632238462567,98.51275234395871 139.40840536082396,98.65491316351108 139.48132177250227,98.78127825840784 139.70007100736257,99.39730704460817 139.86048711289186,99.60264958557673 139.99173665372655,99.87117415432294 140.15215275931405,100.10810732199752 140.66256764059654,101.11901927061263 141.39173175673932,102.11413113086019 141.8292302264017,102.58799232120509 142.0771460258402,102.9354898713209 142.397978236957,103.31457747462264 143.55005754041485,104.23070312156051 144.01672257477185,104.56240283534862 144.42505447973963,104.90989723104576 144.93546936108032,105.30477655238064 145.4167176776682,105.63647462824883 145.9562991235871,106.07873794258921 146.17504835844738,106.18930363070103 146.55421369883697,106.5052052869869 146.78754621592816,106.64736088261998 147.00629545084666,106.88428666895197 147.15212827402866,106.97905691117921 147.48754376743454,107.29495742058498 147.63337659067474,107.37393247625732 147.82295926084043,107.45290750320419 148.26045773056103,107.73721736292646 148.610456506256,108.00573188930866 148.93128871743102,108.22686125035398 149.3396206223988,108.57434979213576 149.5000367279281,108.65332438331097 150.40420023188926,109.34829954933957 150.62294946674956,109.49045328708598 151.49794640613254,110.18542577869084 151.74586220557103,110.34337376263284 152.12502754596062,110.62767984469247 152.5916925803176,111.02254878677195 152.8833582267398,111.24367508124851 154.88126790488604,112.60201738784963 155.04168401041534,112.74416899950302 155.10001713968813,112.87052590964595 155.20210011600284,112.99688274644723 155.45001591549953,113.12323950980499 155.82918125588913,113.4233365287073 156.4416791133699,113.83399493644538 157.18542651180178,114.41839210332546 157.79792436928255,114.81325416525942 158.23542283906136,115.20811551062798 159.47500183642842,116.20316292256757 159.8687504591071,116.45587265175709 160.1895826702239,116.78755372593878 160.67083098687,117.1982057839341 161.45832823222736,117.78259391481697 161.70624403172405,118.03530180959206 161.88124341960065,118.0984787374473 162.20207563065924,118.47753991930222 162.47915799485054,118.63548188349523 163.22290539328242,119.33042516406567 163.4124880633899,119.55154301520088 163.5729041689192,119.63051362184342 163.6895704275812,119.72527831199113 163.8354032507632,119.94639576182817 164.1708187442273,120.26227744326752 165.06039896584116,120.9414215056604 165.45414758857805,121.32047773509112 165.74581323500024,121.55738754321646 165.92081262287684,121.7627091682516 166.09581201075343,121.7942970933509 166.08122872840613,121.82588501392456 166.09581201075343,121.81009105422709 166.41664422187023,122.11017609237751 166.50414391577942,122.31549719587201 166.57706032739952,122.36287896147405 166.73747643298702,122.41026071675878 167.3499742904678,123.01042872405378 168.07913840661058,123.57900741470803 168.60413657018216,124.11599703627871 169.17288458073745,124.55822278854612 169.56663320347434,124.93727271811804 169.77079915598733,125.07941627150285 169.91663197922753,125.31632198751322 170.6166295306757,125.99545027740533 171.1124611296691,126.40608495946799 171.3312103645294,126.50084669918579 171.59370944625698,126.70616366027389 172.04579119832488,127.1325905759877 172.59995592647465,127.59060374001274" stroke="#4dd2ff" stroke-linecap="round" stroke-linejoin="round" stroke-width="0.5"><title>2024-01-15 10.5km</title></polyline><polyline fill="none" points="64.24125324963825,196.2345474390604 63.9934985054424,196.05008827589336 63.544443031656556,195.86562896549003 63.07990288635483,195.42963364669413 62.615362741053104,195.09425207265303 62.04242989514023,194.7421008961246 61.144318947568536,193.93718190665822 60.54041675868211,193.48441374328104 59.95199924131157,192.88072147913044 59.53391311044106,192.5117976526526 59.11582697968697,192.17641184480453 58.573863476805855,191.6230241979065 58.17126201756764,191.38825328074745 57.96996128791943,191.35471455880906 57.7841452297871,191.38825328074745 57.6447831862024,191.50563876914384 57.009911654226016,192.26025834240136 56.406009465339594,192.88072147913044 55.662745232868474,193.735951721319 54.811088299728,194.54087141156197 54.3310634829686,195.1277902519505 53.262621148722246,196.3016234619572 53.01486640458461,196.65377226256533 52.79808100342052,196.87176887030364 52.534841587767005,197.0897652724525 52.39547954418231,197.2574546726828 52.27160217211349,197.47545071106288 50.80055837857071,199.085261245913 50.04180947452551,199.85662482107 49.65469268680317,200.3764553439978 48.75658173923148,201.38257561605133 48.63270436710445,201.66764223040082 48.384949622966815,201.80179110374593 47.765562762564514,202.37192294711713 47.65717006189516,202.55637706603738 47.44038466078928,202.79113664088072 47.00681385851931,203.37803453503875 46.75905911432346,203.61279327556258 46.310003640537616,204.1326153526752 45.84546349517768,204.55182585390867 45.473831379029434,205.10518255164789 44.854444518568926,205.72561121359468 44.65314378886251,205.89329434996762 44.43635838775663,206.26219682187366 44.38990437320899,206.49695263391186 44.374419701693114,206.76524469869037 44.34345035866136,206.81554942618823 44.17311897210311,206.94969531265087 43.98730291391257,207.0 43.87891021341784,206.98323177204293 43.724063498259056,206.91615884828207 43.4917934256373,206.7484764537512 42.96531459427206,206.21189197400236 42.36141240532743,205.22256107484282 42.09817298967391,204.83688856057415 41.04521532700164,203.0091274612205 40.34840510901995,201.96947708599328 39.62062554806471,200.72859793725365 39.171570074220654,200.10815586523677 38.76896861498244,199.3367931293178 38.443790513207205,198.88403554211254 38.041189053910784,198.14620646297408 37.77794963825727,197.39160610527324 37.66955693770433,197.1736099877744 36.337875187862664,194.9433302055404 35.90430438547628,194.3061034581333 35.57912628381746,193.7024133400846 34.94425475184107,192.66272110737918 34.46422993502347,191.8745642016729 34.21647519088583,191.53917746916704 33.984205118205864,191.28763710038038 32.15701387997251,189.64423328757402 30.39176132774446,188.1349745941552 29.168472278455738,186.96109990724653 28.858778848254588,186.72632425435586 28.595539432542864,186.42446949302393 28.100029944209382,185.97168661176693 27.666459141939413,185.60275175627612 26.938679580925964,184.9319596009882 26.35026206355542,184.44563407084206 26.179930676938966,184.2611654985376 25.63796717405785,183.80837837864237 24.306285424157977,182.55063172375958 23.392689805070404,181.7624403307418 22.061008055112325,180.5214526885684 20.713841633696575,179.34753932505555 20.52802557562245,179.1462964352977 19.629914628050756,178.37486373420688 18.840196380973794,177.56988773486228 18.592441636836156,177.2680210120743 18.422110250219703,176.99969470512588 18.174355506023858,176.46304115635576 17.973054776433855,175.80899295842391 17.895631418854464,175.4735829079582 17.818208061275072,174.7859907821403 17.83369273279095,174.55120275827358 17.802723389759194,174.2325614871661 18.01950879098149,173.47788303924608 18.127901491476223,173.19278165067954 18.45307959325146,172.5554949216894 18.824711709457915,172.00206028335379 19.366675212339032,171.28091618948383 19.629914628050756,170.84487448250002 19.89315404370427,170.49268634905457 20.636418276117183,169.36903490537952 21.06998907844536,168.78205063454516 21.426136523194145,168.16152278347 21.5964679098106,167.7254751881701 21.813253311032895,167.00431774339813 21.844222654006444,166.61858144172584 21.78228396800114,166.4508698052814 21.379682508762926,165.78002204181394 21.039019735413603,165.1762573888409 20.62093360471772,164.55571985089045 20.187362802389544,163.71715296170441 19.61442995647667,162.89535445644287 18.809227038000245,161.5033217454038 18.329202221124433,160.81568803318078 18.096932148502674,160.26222526546917 17.55496864556335,159.30624099717534 17.12139784329338,158.46765504746872 16.889127770613413,158.09867626494088 16.223286895721685,156.90787708161224 16.021986166073475,156.4382644477737 15.696808064298239,155.86801925137115 15.387114634097088,155.14682478041505 15.23226791905472,154.89524478388194 15.01548251794884,154.4591721406323 14.999997846374754,154.35853987524752 15.03096718940651,154.29145167395473 15.278721933602355,153.8386058054166 15.433568648644723,153.72120117599843 15.619384706777055,153.72120117599843 15.743262078845873,153.62056858898723 15.929078136978205,153.5870243835816 15.929078136978205,153.3689869295922 15.882624122488778,153.13417713349918 15.913593465462327,153.05031643420807 15.96004748006817,153.0 16.037470837589353,153.0 16.06844018062111,153.0335442906944 16.145863538142294,153.25158206142078 16.238771567237563,154.17404727480607 16.37813361082226,154.59334842626413 16.28522558172699,154.7275246339268 17.33818324445747,155.48226434942626 17.44657594501041,155.59966808343597 17.53948397410568,155.80093148864398 17.709815360663924,156.32086114012054 17.84917740430683,156.58921146995272 18.189840177539736,157.15945488546276 18.329202221124433,157.47811971022747 18.623410979809705,157.98127380141523 18.933104410069063,158.36702452892496 19.61442995647667,159.33978437184123 20.31124017451657,160.1783671546582 20.574479590170085,160.46348460721492 21.05450440698769,160.84923118857841 21.348713165614754,161.1175762565399 21.968100026075263,161.57040785162826 22.153916084207594,161.67103697441053 23.160419732390437,162.42575399772613 23.65592922072392,162.81149730170728 24.39919345319504,163.46558230124356 24.615978854359128,163.58298197686963 25.79281388921663,164.52217723379727 26.272838706034236,164.82406061241636 26.69092483673012,165.1762573888409 27.341281040222384,165.64585225534393 27.91421388607705,165.98127657546138 29.091048920934554,166.90369094417838 29.849797824921552,167.44036670007335 30.515638699871488,167.99381226733385 30.980178845173214,168.27892007234914 31.181479574821424,168.46340140570828 31.584081034059636,168.73173762764782 32.15701387997251,169.18455429526512 32.807370083464775,169.6205991362949 33.875812417652924,170.42560283419152 34.12356716184877,170.5765407152212 34.402291248959955,170.82810363116732 35.501702926296275,171.66664470577962 35.70300365588628,171.83435255545191 36.895323362143245,172.67288997754804 37.483740879630204,173.2430936860037 38.335397812654264,173.84683725514333 38.92381533002481,174.33318509395758 39.72901824861765,174.92015526007162 40.1006503647659,175.28910717264807 40.735521896742284,175.77545197530708 41.06069999851752,176.1444025220262 41.4168474432081,176.39595937510603 41.60266350134043,176.64751595430425 41.80396423098864,176.73136808654817 42.71755985007621,177.50280627500615 42.90337590826675,177.73759129935934 43.13564598094672,177.85498372206348 43.228554009925574,177.97237608511932 43.3524313820526,178.19039031541615 43.538247440126725,178.30778250808362 43.98730291391257,178.6934992925526 44.26602700114017,178.861202041473 44.80799050402129,179.36430955796095 45.21059196331771,179.66617354204936 45.36543867836008,179.81710538614425 45.597708751040045,180.1189687786391 45.75255546619883,180.13573895557784 45.75255546619883,180.1525091312651 45.721586123108864,180.13573895557784 45.73707079468295,180.16927930571546 45.922886852757074,180.30344065773534 46.093218239431735,180.50468253962754 46.17064159695292,180.70592424630013 46.49581969866995,180.89039565675193 46.6661510852864,180.94070601588464 46.929390500998124,181.24256794054236 47.73459341947455,181.91337080560334 48.384949622966815,182.55063172375958 49.097244512464385,183.1543509724579 49.26757589908084,183.32205048383912 49.40693794260733,183.37236031351495 49.32951458502794,183.42267013226228 49.37596859957557,183.38913025431975 49.57726932928199,183.5568295953126 49.85599341645138,183.92576771714084 50.42892626224784,184.4288642066822 50.95540509367129,184.81457077362575 51.48188392503653,185.30089552735444 51.729638669174165,185.41828410766902 51.85351604124298,185.48536326967587 52.51935691619292,186.18969329497486 53.587799250439275,187.11202698675334 53.74264596559806,187.17910565709462 53.94394669518806,187.4474201438279 54.06782406725688,187.6486558044271 54.43945618352154,188.01758739376965 55.47692917473614,188.822526998978 56.11180070665432,189.2753042948607 56.94797296827892,190.11377842645743 57.07185034028953,190.26470344713016 57.13378902635304,190.43239779891155 57.19572771235835,190.516244929182 57.47445179958595,190.60009202902438 57.660267857660074,190.7007085086807 57.81511457281886,190.86840254413255 57.954476616403554,191.15348212515528 57.9854459593771,191.18702087621205 58.32610873266822,191.3044064668502 58.77516420639586,191.6397935400164 59.27067369478755,192.1261039316596 60.04490727029042,192.78010594847728 60.30814668600215,193.0987216453068 60.69526347378269,193.4676445350342 61.53143573534908,194.10487359395484 62.18179193872493,194.65825529885478 62.692786098632496,195.04394479456823 62.87860215676483,195.22840476062265 63.32765763049247,195.51347896414518 63.69928974681534,195.7817837757466 64.05543719156412,195.98301218003326 65.00000215362525,196.6705412396841" stroke="#4dd2ff" stroke-linecap="round" stroke-linejoin="round" stroke-width="0.5"><title>2024-01-08 11.0km</title></polyline><polyline fill="none" points="182.85113398119574,198.52856508443074 181.71739525004523,197.80554249814304 181.28909395163646,197.3962831983372 180.29392328759423,196.56411987518368 179.87821908615297,196.18214203463867 179.53809746686602,195.89565814500384 179.147587459418,195.5000368179608 178.75707745202817,195.1316989721381 178.2405964745558,194.68150729179615 177.83748937008204,194.36773669531976 177.7367125939927,194.2995256268041 177.62333872087765,194.25859897379996 177.48477065376937,194.2449567541771 177.37139678065432,194.27224119247694 177.03127516130917,194.54508535767673 176.7667361240019,194.7087916667224 176.6785564448801,194.80428694786679 176.3006435345742,195.2954047704843 175.6329973928514,196.08664745325223 175.38105545256985,196.41405724463402 174.63782672880916,197.2189372251305 173.9197921990999,197.95560401823604 173.6174618708319,198.33757825633802 173.37811702757608,198.59677461883985 173.30253444547998,198.6786260275403 173.1009808933013,198.8014030737686 172.77345637092367,199.29251045708952 172.00503345316974,200.1928706621402 171.46335828164592,200.79310840409016 171.0728482742561,201.13415172217356 170.79571213992313,201.52976119634695 169.3596430804464,203.09854919402278 169.15808952832595,203.38502211107698 168.91874468507012,203.5896453561145 168.36447241646238,204.18987225726596 167.88578272995073,204.79009724293428 167.6338407897274,205.0492847127898 167.0417772301007,205.854127737417 166.91580625995994,206.07238965891884 166.56308754364727,206.4543474122038 166.52529625262832,206.56347805639962 166.38672818546183,206.79538046507514 166.22296592430212,206.93179351309664 166.0592036631424,207.0 165.93323269300163,206.98635870461294 165.7568733348162,206.89086960908026 165.56791687966324,206.69989127261215 165.3789604244521,206.44070607725007 164.23262459627585,204.51726794143906 164.05626523809042,204.13530625448038 163.62796393968165,203.53507917918614 163.31303651432972,202.92120859814167 163.1366771561443,202.66201819563867 163.01070618606173,202.41646906381357 162.88473521592095,202.29369437765854 162.75876424578018,202.14363631910237 162.53201649955008,201.72074478260765 162.33046294737142,201.40698593134584 162.15410358918598,201.06594310804212 162.0155355220195,200.91588406986557 161.88956455187872,200.72489966629655 161.59983132057823,200.16558708288358 161.3352922833874,199.7972583756782 161.14633582817623,199.34707786494982 160.64245194761315,198.43307169461332 159.94961161189713,197.3007892335736 159.74805805971846,196.93245491512062 159.2567712762393,196.16849995455414 159.11820320907282,196.00479491632723 158.22380932111992,194.5178009589581 157.9088818958262,194.1903878657322 157.55616317951353,193.87661644969194 157.32941543322522,193.64469811001618 157.02708510495722,193.39913720324694 156.05710863496643,192.52602915962052 155.83036088873632,192.30775151518174 155.71698701562127,192.1167583684437 155.5154334634426,191.9803345734108 154.97375829191878,191.5028505112423 153.07159664295614,189.74297021047096 152.42914469528478,189.18362495939073 151.19462918804493,188.05128679542395 150.8797017627512,187.79207589491853 150.66555111348862,187.560150049394 149.36805012117838,186.4005165296985 149.01533140486572,186.05944648603327 148.07054912886815,185.2545187293581 145.95423683070112,183.3445068692672 145.74008618149674,183.12621856376063 145.46295004722197,182.81242868040863 145.16061971889576,182.3622074979794 144.98426036071032,181.91198523710773 144.85828939056955,181.3116872117098 144.8079010025249,180.49309590535995 144.883483584621,180.09744216258696 144.9590661667171,179.8518635584478 145.1228284278186,179.38799198626657 145.29918778600404,179.07419586174365 146.52110619627638,177.31419919211476 146.96200459171087,176.64566900579666 147.26433492003707,176.23636363630067 147.5792623453308,175.74519601619977 147.8186071885866,175.32224509236403 148.032757837791,174.66735146123392 148.12093751697103,174.0533866091282 148.1083404198871,173.63043187739095 148.04535493487492,173.41213228853303 148.00756364379777,173.13925744580047 147.91938396467594,172.7981633351592 147.84380138263805,172.57986277937016 147.5792623453308,172.00682261382462 147.45329137519002,171.80216498831578 147.23914072598564,171.5156439380953 146.73525684548076,170.91531270182168 146.42032942018704,170.5059948500857 146.2439700620016,170.3286235040723 146.0802078008419,170.0966761066229 145.57632392033702,169.8374404412025 145.37477036810014,169.68735647144786 145.2613964949851,169.5372723817709 145.08503713679966,169.19617173212464 144.94646906969137,168.9915110451111 144.2284345399239,167.5725241501932 144.01428389071953,167.23141993337777 143.34663774905493,165.935218261322 142.66639451042283,164.67994074930903 142.55302063724957,164.502563902759 142.01134546572575,163.4382993063191 141.7594035254442,163.01532067691733 141.35629642102867,162.25122783529514 140.95318931661313,161.58264404925285 140.7768299584277,161.1869504834467 140.2477518839296,160.10902240342693 139.94542155554518,159.38585199645604 139.882436070533,159.19482538629381 139.76906219741795,158.63538919611892 139.37855219002813,157.96679253919865 139.0510276676505,157.13445459966897 138.63532346626744,156.28846799593884 138.39597862301162,155.7017331133975 138.20702216785867,155.40154246464954 137.8543034514878,154.61012845425284 137.7031382873538,154.18712994309317 137.46379344409797,153.70954983374395 137.16146311577177,153.0 137.14886601874605,153.04093564020877 137.186657309765,153.0955164799234 137.32522537693148,153.27290409947454 137.4889876381494,153.5185174499493 138.11884248873685,154.92396544363874 138.307798943948,155.38789742375957 138.96284798864508,156.79333142763062 139.3659550930024,157.72118500624492 139.47932896611746,157.91221311521076 139.70607671234757,158.40342736028833 139.85724187653977,158.73090280999895 139.93282445863588,159.0720224629331 140.04619833175093,159.44043099222472 140.20996059285244,159.80883879892644 140.2603489808971,159.9725753699313 140.37372285407037,160.23182464881393 140.67605318233836,160.7503221331135 140.9153980255942,161.22788433927053 140.96578641363885,161.37797506754578 141.0791602867539,161.5280656759278 141.19253415986896,161.82824653289572 141.5200586821884,162.34673961049702 141.78459771943744,162.87887575458444 142.17510772682726,163.56109937517613 142.31367579399375,163.87492140864197 142.4900351521792,164.16145411175967 142.60340902529424,164.40705322370923 143.52299710724037,166.04437243116263 143.81273033854086,166.60378655634122 143.93870130862342,166.89031509729102 144.32921131601324,167.55887999340484 144.71972132340306,168.33659534840262 144.93387197260745,168.7322738547955 145.13542552490253,169.00515509782417 145.2613964949851,169.2780359445169 145.46295004722197,169.63278045272455 145.67710069642635,170.0966761066229 145.99202812177828,170.51963879282994 146.50850909925066,171.42013682426477 146.87382491258904,171.97953494329704 147.4406942782225,172.92095728630375 147.64224783040117,173.31662613866501 147.8060100916191,173.54856956128788 147.94457815872738,173.79415640262596 147.94457815872738,173.8487312126672 147.91938396467594,173.8487312126672 147.881592673657,173.80780010661692 147.76821880054194,173.54856956128788 147.33991750213318,172.90731351792056 147.11316975590307,172.49800000560936 146.94940749468515,172.27969910109823 146.6848684574361,171.81580883696734 146.44552361418027,171.48835619623424 145.76528037548997,170.3013355898147 145.5007413382409,169.86472842285002 145.39996456215158,169.66006846405799 145.1984110099147,169.37354414723814 144.8204980995506,168.71862978226272 144.70712422643555,168.44574812306382 144.4425851891865,167.95456013771764 143.6237738833297,166.46734424038732 143.46001162211178,166.0853052285238 143.23326387593988,165.75784260002547 143.05690451781265,165.41673508833628 143.0191132267355,165.2802919102396 142.83015677152434,164.98011656959716 142.80496257753111,164.9118948343821" stroke="#4dd2ff" stroke-linecap="round" stroke-linejoin="round" stroke-width="0.5"><title>2023-12-31 10.1km</title></polyline><polyline fill="none" points="63.44283595721936,259.284762899566 63.281759388861246,259.2310905579361 62.98438726254972,258.976146722518 62.42681452567922,258.6138575098448 61.83207027311437,258.10396778619906 61.11342096782755,257.55382203424233 60.4071621678886,257.1512753253919 60.22130458895117,257.0841841220681 60.19652357837185,257.0573476339341 60.17174256790895,256.9231651348382 60.14696155732963,256.8963286233047 59.30440719949547,256.2656694820762 59.019425578415394,255.99730323781841 58.36272879951866,255.48740630094835 58.090137683728244,255.19220216869144 57.879499094269704,254.91041596654395 57.693641515332274,254.78965031988628 56.70240109425504,253.91745164171152 56.4917625047965,253.76984838150383 56.355466946959496,253.70275595155545 56.20678088377463,253.68933746266703 56.09526633640053,253.71617443948344 55.73594168381533,254.0382178578584 54.9925113680074,254.93725276617624 54.73231075750664,255.29954918040312 54.37298610486323,255.74235494509048 53.79063235752983,256.292506085083 53.0472020417219,257.2049482705188 52.62592486280482,257.6209130671923 52.41528627334628,257.72825866934727 51.93205656809732,258.2515675875766 51.78337050497066,258.45283985423157 51.67185595759656,258.6272756415128 51.386874336516485,258.8956380699383 50.445195936539676,259.95566585591587 50.271728862891905,260.13010022600065 49.73893713654252,260.80100011639297 48.97072581027169,261.6597484255326 48.79725873662392,261.9281064546085 48.599010652455036,262.0488674406806 48.45032458927017,262.1696283479105 47.70689427352045,263.0417881152098 47.29800759983482,263.4309042233508 47.14932153670816,263.64558862234117 46.75282536825398,264.034703460522 46.36871970514767,264.53115913479996 46.04656656831503,264.82634836358193 45.72441343142418,265.1617900973797 45.6376798946294,265.29596662057156 45.53855585248675,265.3228019135131 45.50138433667598,265.36305484565673 45.40226029459154,265.4972312228783 45.36508877878077,265.8326717402815 45.24118372623343,266.0607709447213 45.01815463148523,266.26203471506597 44.96859261044301,266.27545229198586 44.795125536678825,266.24861713721475 44.6092679577996,266.3559577330161 44.36145785253029,266.6108913984208 44.21277178940363,266.8255721073947 44.064085726218764,267.0 44.31189583148807,266.6108913984208 44.57209644198883,266.30228744288615 44.584486947220284,266.1815292332176 44.52253442094661,266.0071005689824 44.34906734729884,265.7790012983751 44.22516229463508,265.4972312228783 44.05169522098731,265.20204306450614 43.915399663033895,265.0812841367151 43.59324652625946,264.6519184216886 43.283483894658275,264.12862760918506 42.986111768346746,263.5650820019073 42.552444084198214,262.8271030155447 42.18072892626515,262.29038917632715 41.870966294722166,261.7268379693123 41.660327705263626,261.4316437947273 41.48686063155765,261.1364491490822 41.1399264842039,260.62656637896725 40.9168973894557,260.1971903245285 40.32215313689085,259.24450864479877 40.13629555789521,258.78829314527684 40.04956202110043,258.45283985423157 39.92565696843667,258.1978949461627 39.08310261060251,256.8963286233047 38.612263410585,256.0912314675952 38.3644533053739,255.7289366041805 38.26532926323125,255.54107972895144 37.54667995800264,254.4005160332017 37.27408884221222,253.91745164171152 36.93954520014813,253.55515252005716 36.146552863297984,252.8708077982301 34.994235873862635,251.8107394061226 34.28797707386548,251.22031893279927 33.928652421280276,250.85801452724263 32.86306896863971,249.91870350344107 31.7850950108259,248.88545586640248 31.14078873710241,248.34870156855322 30.71951155818533,247.94613482267596 30.174329326604493,247.48989145118685 29.815004674019292,247.12757973658154 27.931647874065675,245.45020143572765 27.188217558315955,244.76582671808137 26.890845431946218,244.5108629403403 26.38283471617615,244.02777271300147 25.998729053069837,243.7057118601806 25.50310884253122,243.24945802499133 24.933145600487478,242.68584879171976 24.58621145307552,242.2295924396749 24.43752538994886,241.96120582426374 24.15254376892699,241.19630183270783 24.14015326363733,241.08894663327374 24.09059124259511,240.52533081336878 24.10298174782656,240.18984439047927 24.10298174782656,239.7470013800048 24.15254376892699,239.67990386163 24.11537225311622,239.6664843550534 24.16493427415844,239.5457087518298 24.18971528473776,239.41151354461908 24.11537225311622,239.5188697181875 24.09059124259511,239.4651916392031 24.11537225311622,239.3980940185429 24.17732477938989,239.2773182399833 24.301229832111858,239.15654238252318 24.61099246365484,238.59292067101342 25.04466014780337,237.90852056817675 26.048291074112058,236.52629302590503 26.841283410962205,235.33193274770747 27.151046042505186,234.70120004864293 27.312122610863298,234.20466428203508 27.324513116152957,234.05704528339265 27.299732105690055,233.82890659902478 27.076703010941856,233.479988066465 26.977578968857415,233.27868861347088 26.853673916193657,233.1310688752128 26.717378358298447,232.8224090415897 26.481958758318797,232.44664854834264 26.234148653049488,232.16482767707203 26.1474151161965,231.96352679161646 26.048291074112058,231.78906584686774 25.949167032027617,231.58776455213956 25.66418541094754,231.19858142729208 25.527889853110537,230.9301787947188 25.292470253130887,230.50073377181252 24.52425892674364,229.27949403387902 24.41274437942775,229.01108861410466 23.57019002153538,227.52143144849106 23.38433244259795,227.10539892369707 23.012617284723092,226.50147907590144 22.863931221538223,226.15254670866125 22.232015453162603,225.03864281943243 22.120500905788504,224.78365182800917 21.785957263724413,224.1394624926761 21.637271200539544,223.92473221517866 21.240775032085367,223.1329121600138 21.042526947974693,222.79739416396478 20.819497853168286,222.36793023989594 20.670811789983418,221.97872769647802 19.939771979523357,220.73058987151308 19.283075200626627,219.1737609813281 19.159170147962868,218.66376245762513 18.70072145323502,217.6437611864094 18.60159741115058,217.34849660945474 18.44052084273426,216.99954695548513 18.24227275850717,216.66401782043977 17.70948103221599,215.42926535547304 17.47406143223634,214.94609910072177 16.85453616909217,213.52343556702544 16.55716404278064,213.01342144334922 17.23864183225669,214.4495102441433 17.49884244275745,214.94609910072177 17.65991901117377,215.38900154917792 17.969681642774958,216.04664261966536 18.291834779607598,216.79822954759584 18.713111958524678,217.6169189716602 18.948531558504328,218.19402572969557 19.134389137499966,218.58323624622426 19.345027726958506,219.30797088514373 19.729133390064817,220.24743748194305 20.224753600603435,221.30768690313562 20.831888358457945,222.28740564303007 21.364680084749125,223.26711918784713 21.562928168976214,223.68316035464522 21.773566758434754,224.01867674230016 22.18245343217859,224.7433900603355 22.479825558373705,225.37415674576187 22.715245158411562,225.76335213710263 22.77719768474344,225.9378187705588 22.91349324263865,226.20622865419136 23.495846989913844,227.1456601767277 23.73126659000991,227.58853338088375 23.80560962157324,227.80325940082548 24.52425892674364,229.10503055535082 24.82163105311338,229.69552166412177 25.20573671621969,230.2591705079103 25.911995516216848,231.46698367007775 26.17219612671761,231.84274615510367 26.977578968857415,233.21158874705725 27.361684631963726,233.78864680194238 27.374075137195177,234.00336561827862 27.299732105690055,234.32544337506988 27.113874526694417,234.87565824456397 26.977578968857415,235.15747498243582 26.704987853066996,235.61374878991046 26.345663200423587,236.09686100545514 26.0359005688224,236.57997195831558 25.80048096884275,236.90204522540444 25.30486075830413,237.62670802457433 25.55267086357344,237.21069824644655 26.655425831966568,235.64058839056815 26.96518846350955,235.1037956369255 27.113874526694417,234.79513909766683 27.312122610863298,234.0973050219909 27.312122610863298,233.78864680194238 27.175827053026296,233.57392773617175 26.989969474088866,233.22500872226374 26.80411189509323,232.97002902632812 26.457177747797687,232.39296841550095 26.271320168860257,232.15140762487135 26.1474151161965,231.88300637605425 25.68896642146865,231.19858142729208 25.21812722150935,230.42021271889098 24.97031711624004,229.96392608984024 24.67294498992851,229.50763833418023 24.41274437942775,229.03792917361716 24.04102922155289,228.24613102899457 23.73126659000991,227.76299829107302 23.508237495203502,227.2932846960466 22.888712232059333,226.1928081692895 22.715245158411562,225.81703419568657 22.479825558373705,225.44125945791893 21.897471811098512,224.30051003706467 21.525756653165445,223.65631901733286 21.240775032085367,223.10607074278232 20.955793411063496,222.62292456519208 20.596468758478295,221.9116237268172 20.336268147977535,221.49557857093168 19.803476421686355,220.52927652941435 19.221122674294747,219.12007699250535 19.109608126920648,218.6234993563121 18.688330948003568,217.7242878073157 18.465301853313576,217.14717958182155 18.24227275850717,216.6774389975617 17.9572911374853,216.12716993674985 17.61035699013155,215.2682100776583 17.46167092700489,215.0400481936813 17.25103233748814,214.5837235802901 16.99083172698738,213.8589704066835 16.78019313752884,213.46974993610638 16.681069095386192,213.17447868714225 16.5695545480703,213.0 16.63150707440218,213.18790011778765 16.82975515857106,213.5368569722923 17.47406143223634,214.91925649398763 17.796214569127187,215.72453300011693 17.99446265323786,216.10032750162645 18.51486387429759,217.22770641920215 18.824626505898777,217.83165658061625 19.183951158542186,218.75770965986885 19.679571369022597,220.14007011268404 20.026505516434554,220.89164038724266 20.584078253246844,221.84451973278192 20.893840884789824,222.48871706944192 21.587709179439116,223.7234223533451 21.773566758434754,223.9918354537076 21.860300295287743,224.17972439194273 22.108110400557052,224.6091841047746 22.343530000536703,225.09232508862624 22.603730611037463,225.56204427841294 22.863931221538223,226.1391262198158 23.086960316286422,226.4746381479781 23.2604273899924,226.83699034614256 24.52425892674364,229.1184508287988 24.73489751620218,229.57473954536545 25.00748863205081,230.01760692820244 25.16856520046713,230.21890993321722 25.887214505695738,231.4401434633328 26.308491684671026,232.09772740627523 26.791721389861777,232.91634904552484 27.200608063547406,233.5605077862856 27.151046042505186,233.45314815208258 27.051922000420745,233.35920842099586 26.940407453046646,233.18474879369023 26.717378358298447,232.7821490252827 25.998729053069837,231.64144491887419 25.82526197936386,231.31936248476268 24.43752538994886,229.0781900055881 24.25166781101143,228.67558129117242 23.73126659000991,227.73615754640196 23.3719419373665,227.15908059244975 23.186084358370863,226.78330858385016 22.876321726827882,226.2733310641779 22.269186968915164,225.03864281943243 21.934643326851074,224.43471621681238 21.637271200539544,223.8039463243913 20.323877642687876,221.50899939701776 19.828257432149258,220.51585563212575 19.617618842690717,219.96559800453542 19.320246716379188,219.33481285421294 19.072436611168087,218.48928895524296 19.146779642731417,218.61007832060568 19.36980873742141,219.2811289122037 19.468932779564057,219.482443614339 19.691961874254048,220.15349103724293 19.865428947960027,220.5426974257134 20.100848547939677,221.0124281819153 20.423001684772316,221.52242022215796 20.559297242667526,221.81767812834005 20.410611179540865,221.61636597076722 20.224753600603435,221.25400353436999" stroke="#4dd2ff" stroke-linecap="round" stroke-linejoin="round" stroke-width="0.5"><title>2023-12-24 16.0km</title></polyline><polyline fill="none" points="139.33103448338807,238.1853382079862 141.19310344941914,241.41151814814657 156.8344827592373,259.5587454405613 162.42068965546787,264.397996051237 165.40000000037253,265.6078080460429 171.35862069018185,266.414349230472 176.57241379469633,264.8012667465955 181.04137931019068,261.1718294452876 184.02068965509534,256.73584730597213 185.8827586211264,252.29986162902787 185.8827586211264,248.67041617026553 184.76551724225283,243.42787965992466 181.04137931019068,237.7820655843243 166.88965517282486,222.86095793824643 159.81379310414195,216.4085746658966 154.97241379506886,214.79547767853364 149.38620689697564,215.19875196926296 146.40689655207098,216.4085746658966 141.93793103471398,219.23149326862767 138.95862068980932,223.66750531969592 137.09655172377825,228.50678716041148 136.72413793206215,233.74933773558587 138.21379310451448,238.58861080324277 151.99310344830155,254.7194906193763 163.9103448279202,266.01107865339145 167.2620689664036,266.8176197777502 172.47586206905544,266.414349230472 182.53103448450565,261.1718294452876 186.6275862082839,251.89659002795815 186.6275862082839,247.05732853943482 185.13793103396893,242.21806284040213 166.51724138110876,221.24786282144487 159.4413793105632,216.00530046317726 154.97241379506886,214.39220335846767 150.13103448227048,213.98892900859937 145.2896551731974,215.19875196926296 141.19310344941914,218.0216711857356 135.97931034490466,228.10351383453235 135.60689655132592,232.53951881080866 137.09655172377825,238.99188336869702 153.85517241433263,257.1391185554676 162.79310344718397,264.8012667465955 169.86896551959217,266.01107865339145 176.2000000011176,265.20453741028905 179.17931034602225,263.5914545757696 184.39310344867408,258.3489321297966 186.2551724128425,253.91294773947448 186.2551724128425,249.47695981012657 185.13793103396893,245.44424044108018 182.90344827622175,241.00824575778097 163.9103448279202,219.23149326862767 157.57931034453213,214.39220335846767 152.73793103545904,213.5856546307914 148.64137930981815,213.98892900859937 141.56551724113524,218.42494524270296 138.95862068980932,222.05441043851897 136.72413793206215,228.10351383453235 136.35172413662076,234.55588353937492 137.84137931093574,238.58861080324277 150.87586206942797,253.91294773947448 160.5586206894368,262.3816421418451 166.51724138110876,263.99472532747313 173.22068965621293,263.99472532747313 177.31724137999117,262.3816421418451 181.04137931019068,259.5587454405613 182.90344827622175,257.1391185554676 185.51034482754767,250.28350333310664 186.2551724128425,247.4606004911475 185.13793103396893,244.63769621634856 171.7310344837606,226.893693682272 159.0689655188471,215.19875196926296 154.97241379506886,213.98892900859937 148.64137930981815,214.39220335846767 143.7999999988824,216.00530046317726 140.8206896558404,218.82821927033365 136.35172413662076,226.08714676694945 135.23448275774717,230.52315335115418 135.60689655132592,234.55588353937492 137.09655172377825,239.39515590434894 159.4413793105632,261.97837127232924 165.02758620679379,265.20453741028905 170.9862068966031,266.8176197777502 175.82758620753884,265.20453741028905 181.04137931019068,261.97837127232924 185.51034482754767,255.92930471803993 187.0,249.47695981012657 185.13793103396893,243.02460741670802 166.88965517282486,221.6511366451159 160.5586206894368,216.00530046317726 157.57931034453213,214.39220335846767 153.11034482717514,213.5856546307914 146.77931034564972,213.98892900859937 142.68275862000883,216.4085746658966 138.21379310451448,220.8445889693685 135.97931034490466,224.87732617510483 135.23448275774717,230.52315335115418 135.60689655132592,234.55588353937492 137.468965517357,238.99188336869702 148.26896551810205,251.49331839801744 159.81379310414195,262.3816421418451 163.5379310362041,264.8012667465955 168.00689655169845,266.414349230472 172.47586206905544,266.01107865339145 178.80689655058086,263.5914545757696 182.15862068906426,261.1718294452876 185.8827586211264,253.106404742226 186.2551724128425,248.67041617026553 185.13793103396893,244.23442406021059 182.90344827622175,240.2017008899711 167.63448275998235,222.45768420305103 159.4413793105632,216.00530046317726 155.34482758678496,213.98892900859937 151.24827586114407,213.5856546307914 146.03448275849223,214.79547767853364 141.56551724113524,217.21512298472226 137.84137931093574,222.45768420305103 135.60689655132592,228.10351383453235 135.60689655132592,232.9427918139845 137.09655172377825,238.1853382079862 143.4275862071663,245.8475125101395 153.85517241433263,257.1391185554676 163.5379310362041,265.20453741028905 168.00689655169845,266.414349230472 172.84827586263418,266.01107865339145 177.68965517356992,264.397996051237 181.41379310376942,261.5751003739424 184.39310344867408,257.94566096784547 186.2551724128425,253.50967625528574 186.2551724128425,248.67041617026553 185.13793103396893,243.8311518742703 172.1034482754767,229.71660696249455 167.63448275998235,223.66750531969592 159.4413793105632,216.4085746658966 153.85517241433263,214.39220335846767 149.75862069055438,213.5856546307914 144.1724137943238,214.79547767853364 140.8206896558404,217.6183970994316 137.84137931093574,221.24786282144487 135.97931034490466,225.68387326598167 135.23448275774717,230.11988017102703 136.35172413662076,236.57224753685296 138.58620689623058,240.2017008899711 147.89655172266066,250.686775051523 163.5379310362041,265.20453741028905 168.3793103452772,266.414349230472 172.47586206905544,266.01107865339145 176.57241379469633,264.8012667465955 180.29655172489583,262.3816421418451 183.6482758615166,258.3489321297966 185.51034482754767,253.91294773947448 186.2551724128425,247.4606004911475 185.13793103396893,243.8311518742703 184.02068965509534,241.8147905091755 168.00689655169845,224.87732617510483 158.69655172340572,216.4085746658966 154.22758620604873,214.39220335846767 150.13103448227048,213.98892900859937 145.2896551731974,214.79547767853364 141.56551724113524,216.81184883927926 138.21379310451448,220.0380411776714 135.60689655132592,225.28059973521158 134.86206896603107,230.92642650194466 135.97931034490466,236.1689747958444 138.21379310451448,239.79842841112986 153.11034482717514,255.92930471803993 163.9103448279202,265.20453741028905 170.24137931130826,266.01107865339145 174.71034482866526,265.6078080460429 179.17931034602225,263.5914545757696 182.53103448450565,260.3652875008993 184.76551724225283,256.73584730597213 185.8827586211264,251.49331839801744 185.51034482754767,246.25078454893082 184.76551724225283,243.42787965992466 168.7517241369933,225.28059973521158 157.2068965509534,215.19875196926296 153.11034482717514,213.5856546307914 149.0137931033969,213.18238022271544 144.91724137961864,214.39220335846767 138.95862068980932,218.82821927033365 134.48965517245233,226.08714676694945 134.86206896603107,232.9427918139845 136.35172413662076,236.97552024805918 158.69655172340572,261.5751003739424 163.16551724262536,264.397996051237 166.88965517282486,266.01107865339145 171.7310344837606,266.414349230472 176.2000000011176,265.20453741028905 180.66896551847458,261.5751003739424 185.13793103396893,254.7194906193763 186.2551724128425,249.47695981012657 185.51034482754767,245.04096834314987 181.78620689734817,240.2017008899711 169.49655172415078,226.893693682272 164.28275862149894,220.0380411776714 160.1862068977207,216.00530046317726 156.8344827592373,213.98892900859937 147.89655172266066,213.5856546307914 143.7999999988824,215.19875196926296 140.07586207054555,218.0216711857356 137.09655172377825,221.6511366451159 134.86206896603107,226.893693682272 134.86206896603107,232.53951881080866 135.97931034490466,236.97552024805918 152.3655172418803,254.7194906193763 162.42068965546787,263.99472532747313 168.00689655169845,266.01107865339145 172.1034482754767,266.414349230472 176.2000000011176,265.6078080460429 181.04137931019068,262.3816421418451 185.13793103396893,255.12276201415807 185.8827586211264,249.07368800463155 185.13793103396893,244.63769621634856 164.28275862149894,221.24786282144487 158.69655172340572,216.00530046317726 152.3655172418803,213.98892900859937 149.38620689697564,213.98892900859937 143.7999999988824,215.19875196926296 140.07586207054555,217.6183970994316 135.23448275774717,224.47405258659273 134.1172413788736,231.32969962246716 135.97931034490466,237.37879293132573 138.95862068980932,241.00824575778097 159.4413793105632,261.5751003739424 163.9103448279202,264.8012667465955 167.63448275998235,266.01107865339145 174.3379310350865,266.414349230472 178.80689655058086,264.397996051237 182.15862068906426,261.1718294452876 184.76551724225283,257.5423897765577 185.8827586211264,252.7031331998296 185.8827586211264,248.26714430656284 184.02068965509534,242.6213351432234 166.51724138110876,223.26423164410517 160.5586206894368,217.6183970994316 155.7172413803637,214.79547767853364 151.62068965658545,213.18238022271544 146.77931034564972,213.98892900859937 143.05517241358757,215.6020262306556 138.58620689623058,219.23149326862767 135.23448275774717,223.66750531969592 133.37241379357874,228.50678716041148 133.74482758529484,234.15261065168306 135.97931034490466,238.58861080324277 158.69655172340572,261.5751003739424 162.42068965546787,264.397996051237 169.12413793057203,266.414349230472 173.96551724150777,266.01107865339145 179.55172413773835,263.18818379286677 182.90344827622175,260.3652875008993 184.76551724225283,256.73584730597213 185.8827586211264,251.89659002795815 183.6482758615166,242.6213351432234 181.41379310376942,238.99188336869702 170.24137931130826,228.91006045695394 160.5586206894368,218.0216711857356 155.34482758678496,214.39220335846767 150.87586206942797,213.5856546307914 145.66206896677613,213.98892900859937 141.93793103471398,216.00530046317726 137.468965517357,219.63476723851636 134.86206896603107,224.47405258659273 133.74482758529484,230.11988017102703 134.48965517245233,235.36242922535166 136.35172413662076,238.99188336869702 150.50344827584922,253.50967625528574 160.1862068977207,262.78491298202425 163.9103448279202,265.20453741028905 168.00689655169845,266.01107865339145 175.082758622244,265.6078080460429 178.4344827607274,264.397996051237 183.2758620698005,259.96201648470014 185.51034482754767,254.7194906193763 185.8827586211264,250.28350333310664 185.8827586211264,245.8475125101395 184.02068965509534,241.8147905091755 163.5379310362041,219.63476723851636 156.8344827592373,214.79547767853364 152.73793103545904,213.98892900859937 147.5241379328072,213.98892900859937 142.31034482829273,216.00530046317726 137.84137931093574,220.44131508795545 134.86206896603107,224.87732617510483 133.74482758529484,229.31333372509107 134.48965517245233,234.95915639726445 135.60689655132592,237.7820655843243 157.95172413811088,260.7685584882274 163.9103448279202,264.397996051237 168.00689655169845,266.01107865339145 172.47586206905544,266.01107865339145 179.17931034602225,263.5914545757696 182.53103448450565,260.3652875008993 185.13793103396893,256.73584730597213 185.8827586211264,253.91294773947448 186.2551724128425,248.26714430656284 185.13793103396893,243.8311518742703 167.63448275998235,222.86095793824643 157.95172413811088,214.79547767853364 151.99310344830155,213.18238022271544 146.77931034564972,213.5856546307914 142.68275862000883,215.19875196926296 137.84137931093574,219.63476723851636 135.23448275774717,223.66750531969592 133.74482758529484,228.50678716041148 134.1172413788736,234.95915639726445 135.97931034490466,238.58861080324277 159.4413793105632,262.3816421418451 163.16551724262536,265.20453741028905 167.63448275998235,266.414349230472 173.22068965621293,266.8176197777502 179.55172413773835,263.99472532747313 182.53103448450565,261.1718294452876 185.8827586211264,253.50967625528574 185.51034482754767,245.8475125101395 184.39310344867408,242.21806284040213 174.71034482866526,230.52315335115418 163.9103448279202,218.82821927033365 159.0689655188471,214.79547767853364 154.59999999962747,213.18238022271544 149.75862069055438,213.18238022271544 143.7999999988824,215.19875196926296 137.84137931093574,220.0380411776714 133.0,228.50678716041148 133.0,232.13624577689916 134.1172413788736,236.57224753685296 157.95172413811088,260.3652875008993 162.42068965546787,263.99472532747313 170.613793104887,266.8176197777502 181.41379310376942,261.97837127232924 182.90344827622175,259.96201648470014 185.13793103396893,253.50967625528574 185.51034482754767,249.07368800463155 184.02068965509534,244.23442406021059 170.9862068966031,228.10351383453235 157.95172413811088,214.79547767853364 154.22758620604873,213.18238022271544 149.38620689697564,213.18238022271544 143.7999999988824,214.39220335846767 139.70344827510417,216.81184883927926 135.97931034490466,220.8445889693685 134.1172413788736,224.47405258659273 133.0,230.11988017102703 133.74482758529484,235.36242922535166 136.35172413662076,238.99188336869702 152.3655172418803,255.12276201415807 159.81379310414195,261.97837127232924 163.5379310362041,264.8012667465955 170.9862068966031,266.01107865339145 176.57241379469633,265.20453741028905 180.29655172489583,262.78491298202425 183.2758620698005,259.15547436568886 185.8827586211264,253.50967625528574 186.2551724128425,247.86387241259217 185.13793103396893,243.42787965992466 182.53103448450565,239.39515590434894 172.1034482754767,227.70024048024788 158.32413793355227,215.19875196926296 154.97241379506886,213.98892900859937 148.26896551810205,213.5856546307914 144.1724137943238,214.39220335846767 139.33103448338807,217.21512298472226 136.35172413662076,220.44131508795545 133.74482758529484,226.49042023951188 133.0,230.11988017102703 134.1172413788736,235.76570202456787 140.448275860399,243.8311518742703 161.67586207017303,263.5914545757696 166.14482758566737,265.6078080460429 172.47586206905544,266.01107865339145 176.2000000011176,264.8012667465955 181.04137931019068,261.97837127232924 183.6482758615166,258.3489321297966 185.8827586211264,252.7031331998296 185.13793103396893,245.44424044108018 183.6482758615166,241.41151814814657 166.88965517282486,221.24786282144487 158.32413793355227,214.79547767853364 154.22758620604873,213.5856546307914 149.75862069055438,213.18238022271544 145.2896551731974,214.39220335846767 138.58620689623058,218.0216711857356 136.35172413662076,221.24786282144487 133.74482758529484,226.49042023951188 133.37241379357874,232.53951881080866 134.48965517245233,236.97552024805918 136.72413793206215,240.2017008899711 153.48275862075388,257.5423897765577 163.16551724262536,265.6078080460429 166.51724138110876,266.8176197777502 172.84827586263418,266.8176197777502 175.4551724139601,266.01107865339145 181.04137931019068,261.97837127232924 184.02068965509534,258.3489321297966 185.8827586211264,252.7031331998296 186.2551724128425,248.26714430656284 184.39310344867408,243.02460741670802 180.29655172489583,236.57224753685296 167.63448275998235,223.26423164410517 158.32413793355227,216.4085746658966 151.99310344830155,214.79547767853364 146.77931034564972,214.79547767853364 138.21379310451448,219.63476723851636 135.23448275774717,222.86095793824643 133.74482758529484,227.29696709522977 133.74482758529484,234.15261065168306 135.23448275774717,237.7820655843243 158.69655172340572,261.5751003739424 163.16551724262536,264.8012667465955 167.63448275998235,266.414349230472 172.47586206905544,266.8176197777502 176.94482758641243,265.20453741028905 182.15862068906426,261.5751003739424 185.51034482754767,255.92930471803993 186.2551724128425,251.49331839801744 186.2551724128425,246.65405655885115 184.02068965509534,241.41151814814657 172.84827586263418,228.50678716041148 158.32413793355227,214.79547767853364 153.85517241433263,213.5856546307914 149.0137931033969,213.5856546307914 144.1724137943238,214.79547767853364 138.58620689623058,219.23149326862767 135.60689655132592,222.86095793824643 134.1172413788736,226.893693682272 133.37241379357874,233.34606478968635 134.86206896603107,237.37879293132573 147.15172413736582,250.686775051523 159.81379310414195,262.3816421418451 164.28275862149894,265.6078080460429 169.86896551959217,266.8176197777502 173.22068965621293,266.414349230472 178.80689655058086,263.99472532747313 184.02068965509534,259.5587454405613 186.2551724128425,253.50967625528574 186.6275862082839,249.8802315867506 184.76551724225283,241.8147905091755 175.082758622244,230.92642650194466 161.67586207017303,217.6183970994316 157.57931034453213,214.79547767853364 153.48275862075388,213.98892900859937 147.89655172266066,213.5856546307914 143.05517241358757,215.19875196926296 138.95862068980932,218.0216711857356 135.97931034490466,222.05441043851897 134.1172413788736,226.893693682272 134.1172413788736,233.34606478968635 135.60689655132592,237.37879293132573 155.34482758678496,258.7522032619454 163.16551724262536,264.8012667465955 168.7517241369933,266.01107865339145 173.96551724150777,265.6078080460429 178.80689655058086,263.5914545757696 182.90344827622175,260.7685584882274 184.76551724225283,257.1391185554676 185.8827586211264,250.28350333310664 185.51034482754767,247.05732853943482 183.6482758615166,241.8147905091755 165.40000000037253,222.05441043851897 156.0896551720798,214.79547767853364 151.24827586114407,213.5856546307914 145.66206896677613,213.98892900859937 140.8206896558404,216.00530046317726 137.09655172377825,220.0380411776714 133.74482758529484,228.10351383453235 133.37241379357874,231.73297271504998 134.86206896603107,237.37879293132573 137.468965517357,241.8147905091755" stroke="#4dd2ff" stroke-linecap="round" stroke-linejoin="round" stroke-width="0.5"><title>2023-12-17 10.0km</title></polyline></svg>