<?xml version="1.0" encoding="utf-8" ?>
<svg baseProfile="full" height="300mm" version="1.1" viewBox="0,0,200,300" width="200mm" xmlns="http://www.w3.org/2000/svg" xmlns:ev="http://www.w3.org/2001/xml-events" xmlns:xlink="http://www.w3.org/1999/xlink"><defs /><rect fill="#222222" height="300" width="200" x="0" y="0" /><text fill="#FFFFFF" style="font-size:12px; font-family:Arial; font-weight:bold;" x="10" y="20">Over 10km Runs</text><text fill="#FFFFFF" style="font-size:4px; font-family:Arial" x="10" y="280">ATHLETE</text><text fill="#FFFFFF" style="font-size:9px; font-family:Arial" x="10" y="290">kilerd</text><text fill="#FFFFFF" style="font-size:4px; font-family:Arial" x="120" y="280">STATISTICS</text><text fill="#FFFFFF" style="font-size:3px; font-family:Arial" x="120" y="285">Number: 7</text><text fill="#FFFFFF" style="font-size:3px; font-family:Arial" x="120" y="290">Weekly: 1.0</text><text fill="#FFFFFF" style="font-size:3px; font-family:Arial" x="141" y="285">Total: 77.7 km</text><text fill="#FFFFFF" style="font-size:3px; font-family:Arial" x="141" y="290">Avg: 11.1 km</text><text fill="#FFFFFF" style="font-size:3px; font-family:Arial" x="167" y="285">Min: 10.0 km</text><text fill="#FFFFFF" style="font-size:3px; font-family:Arial" x="167" y="290">Max: 16.0 km</text><polyline fill="none" points="66.3108289068332,86.4172590753733 65.96689650282497,86.29669181001373 65.11611634551082,85.77423295701738 64.77218394150259,85.61347615695558 63.01631851046113,85.5732869400963 62.31035199703183,85.61347615695558 62.03882641484961,85.67375996970804 61.69489401089959,85.85461131649208 61.15184284665156,86.33688090527721 60.75360532623017,86.57801533445308 60.24675757298246,86.79905501418398 59.613197881379165,86.93971652201435 59.12445183360251,86.93971652201435 58.690010902122594,86.8794330288074 58.14695973799098,86.71867697250855 57.65821369009791,86.4775426852575 57.133264231320936,86.09574623256049 56.535907950717956,85.53309771641216 55.26878856745316,83.82504945962864 54.92485616350314,83.48343834270781 54.18268623907352,82.80021464308084 53.36810949270148,82.29784302896587 52.8069566229824,82.03660937202221 52.19149863690836,81.89594497690268 51.50363382889191,81.81556528534566 50.68905708251987,81.7552804988809 50.381328089453746,81.63471088041842 50.200311034801416,81.47395129447978 50.091700801916886,81.2930966309068 50.019293979974464,81.05195686644583 49.9649888635613,79.74577891163062 49.67536157602444,78.94197354289645 49.69346328143729,78.76111696213775 49.83827692520572,78.07787975444808 49.783971808850765,76.73149483038287 49.69346328143729,76.51044583400653 49.5305479321396,76.32958741192124 49.20471723366063,76.16882425520453 48.6254626584705,76.02815640423796 47.666072268388234,75.94777473797149 46.61617335083429,75.74682045384543 45.87400342640467,75.48557963169878 45.27664714574348,75.20424304221524 44.55257892672671,74.90281061419228 44.317256755544804,74.8224285691249 44.11813799536321,74.84252408289467 43.919019235123415,74.92290612119541 43.73800218041288,75.08367011665541 43.484578303818125,75.40519778283488 43.33976465999149,75.46548417203303 43.01393396145431,75.50567508974927 42.52518791356124,75.46548417203303 42.39847597532207,75.40519778283488 42.14505209872732,75.22433852385439 41.78301798924804,74.78223753644852 41.4390855851816,74.46070903159853 41.13135659211548,74.09898894622165 40.91413612640463,73.7171727061941 40.64261054433882,72.97363406582735 40.47969519504113,72.79277296544751 39.936644030793104,72.5918160265719 38.95915193523979,72.39085891866125 38.65142294217367,72.29038030123047 38.09027007239638,71.98894419551652 36.316302936000284,70.40137442613195 36.00857394293416,70.2004154749302 35.37501425133087,69.91907265919144 34.37942045019008,69.67792141043174 33.70965734764468,69.31619408076222 33.51053858746309,69.17552219345816 33.148504477983806,68.75350603432162 32.51494478638051,68.15062451327685 32.15291067684302,67.90947147866245 31.609859512653202,67.62812596383446 30.9400964101078,67.36687626042112 30.722875944396947,67.22620322479634 30.578062300628517,67.06543393977336 30.179824780265335,66.42235571719357 29.890197492553852,66.02043094865803 29.564366794074886,65.73908320815826 29.003213924355805,65.45773513622407 28.677383225876838,65.19648305827286 28.061925239744596,64.29214673500974 27.62748430832289,63.729446849785745 26.487076863413677,62.483463813507115 25.79921205539722,61.59921384336485 25.726805233513005,61.438440769692534 25.708703527983744,61.21737761663098 25.763008644455113,60.43360660652979 25.690601822570898,59.9713814714778 25.527686473331414,59.58954264150816 25.2561608912074,59.16750954001327 24.64070290507516,58.52441004614229 24.459685850306414,58.30334419499559 24.206261973711662,57.3788847818214 24.18816026824061,56.71568343248509 24.133855151827447,56.37403353357513 24.061448329885025,56.173062776375446 23.808024453232065,55.77112075453624 23.39168522733962,55.34908090328099 22.703820419323165,54.50499896267138 22.613311891967896,54.42461005075893 22.50470165902516,54.40451281858259 22.43229483725736,54.40451281858259 22.1788709606044,54.58538784745906 21.997853905777447,54.64567949336197 21.762531734711956,54.54519340847037 21.382395919703413,54.223637652612524 21.25568398134783,54.14324864595255 21.165175453934353,54.123151390085695 20.9117515773396,54.16334590013139 20.73073452268727,54.082956873229705 20.45920894050505,53.68101133251912 20.278191885794513,53.35945441262447 20.26009018032346,53.25896778635797 20.29629359120736,53.098189096330316 20.531615762447473,52.87711822081474 20.56781917338958,52.79672876074619 20.585920878802426,52.67614451992267 20.51351405691821,52.475170649864594 20.350598707678728,52.354586246598046 20.042869714612607,52.19380694752908 19.282598084711935,51.34971385083918 18.721445215051062,51.088446335095796 18.504224749282002,51.06834882205294 18.14219063980272,51.088446335095796 17.671546297497116,51.028153790859506 17.381919009960257,50.88747112842975 17.074190016894136,50.686495752539486 16.766461023769807,50.2845444931736 16.13290133216651,49.259565718472004 15.553646756976377,48.37526676870766 15.445036524091847,48.15419151939568 15.372629702324048,47.95321384241106 15.300222880323417,47.61155140309711 15.318324585794471,47.18949712651374 15.426934818679001,46.66695270250784 15.716562106274068,46.00372159399558 15.788968928158283,45.64195839445165 15.752765517157968,45.44097860228794 15.553646756976377,44.85813624795992 15.535545051447116,44.737547996934154 15.589850167976692,44.59686162714206 15.662256989860907,44.53656744326872 16.18720644863788,44.31548863874923 16.33202009240631,44.194900113594485 16.440630325232632,44.094409629455185 16.513037147116847,43.873330415415694 16.494935441645794,43.61205471663561 16.27771497593494,43.06940427455993 16.11479962663725,42.22527891259233 16.006189393869136,41.24046221708704 16.042392804753035,41.0595770762593 16.22340985952178,40.5973144267482 16.5311388525879,40.135050881974166 16.549240558117162,40.01446024481265 16.494935441645794,39.69288491443149 16.513037147116847,39.5521955712029 16.748359318298753,39.21052110653545 16.766461023769807,39.130127043812536 16.784562729182653,38.88894469301158 16.730257612769492,38.687959214512375 16.5311388525879,38.40657926037966 16.42252861970337,38.04480454606528 16.205308154050726,37.48204278938647 16.02429109934019,36.79868744377745 15.988087688398082,36.718292568592005 15.861375750042498,36.65799639445322 15.716562106274068,36.6378976663691 15.426934818679001,36.65799639445322 15.318324585794471,36.597700205034926 15.11920582561288,36.33641654168605 14.901985359960236,36.09523136775533 14.576154661364853,35.53246501403919 14.30462907924084,35.150587089694454 14.123612024530303,34.94959846299025 13.70727279863786,34.34663156737224 13.689171093108598,34.18584013788495 13.725374504108913,34.02504860008776 14.069306908117142,33.7235641747684 14.123612024530303,33.602970297972206 14.105510319001041,33.36178236156411 13.996900086174719,33.040198067290476 13.942594969761558,33.0 13.960696675232612,33.10049515546416 14.15981543547241,33.42207936855266 14.177917141001672,33.64316826366121 14.123612024530303,33.78386109029816 13.888289853348397,33.96475174550142 13.797781325993128,34.085345439467346 13.797781325993128,34.28633479400014 13.81588303152239,34.36673048841476 14.449442723125685,35.150587089694454 14.70286659966223,35.53246501403919 15.06490070919972,36.15552768409543 15.264019469439518,36.37661404698156 15.445036524091847,36.61779893653875 15.571748462505639,36.67809512084932 15.951884277397767,36.67809512084932 16.13290133216651,36.818786158328294 16.657850790943485,38.44677641699673 16.893172962067183,38.84874761090032 16.929376373067498,38.989437368829385 16.929376373067498,39.19042259339767 16.893172962067183,39.29091514222091 16.694054201885592,39.5521955712029 16.639749085414223,39.672786441937205 16.67595249635633,40.07475557104044 16.657850790943485,40.21544460627774 16.350121797819156,40.5973144267482 16.22340985952178,40.87869179829431 16.169104743166827,41.119872138428036 16.18720644863788,41.38115056518291 16.33202009240631,42.1850823922432 16.36822350329021,42.868422316299984 16.585443969001062,43.672349134038086 16.621647380001377,43.89342853424023 16.603545674530324,43.99391910301347 16.5311388525879,44.15470392501447 16.38632520881947,44.29539055543137 15.644155284331646,44.576763567572925 15.589850167976692,44.63705774125992 15.553646756976377,44.7777440873906 15.589850167976692,44.93852838144812 15.77086722268723,45.36058663800941 15.843274044571444,45.76254618857638 15.77086722268723,46.02381953340955 15.499341640563216,46.58656115112535 15.372629702324048,47.12920359749114 15.354527996794786,47.45076890954806 15.390731407736894,47.79243157891324 15.553646756976377,48.29487579263514 15.752765517157968,48.63653725392942 16.712155907414854,50.16395898342307 17.019884900480974,50.6061055547907 17.18280024966225,50.76688592317805 17.472427537257317,50.967861231358256 17.707749708439223,51.028153790859506 18.015478701505344,51.088446335095796 18.793852036818862,51.088446335095796 19.04727591347182,51.14873886409623 19.264496379182674,51.22912887910206 19.427411728480365,51.32961635981337 19.55412366677774,51.45020128079341 20.169581652909983,52.254099197423784 20.241988474794198,52.29429402209644 20.49541235138895,52.394781054448686 20.585920878802426,52.455073253571754 20.676429406215902,52.67614451992267 20.676429406215902,52.81682612828445 20.585920878802426,52.97760500779259 20.332497002207674,53.178578454928356 20.29629359120736,53.29916244195192 20.332497002207674,53.41974636813393 20.85744646092644,54.06285961224057 20.966056693752762,54.14324864595255 21.273785686818883,54.10305413250171 21.41859933064552,54.14324864595255 21.52720956353005,54.223637652612524 21.72632832371164,54.4648045100912 21.961650494893547,54.58538784745906 22.160769255075138,54.58538784745906 22.50470165902516,54.42461005075893 22.649515302910004,54.42461005075893 22.93914259050507,54.66577670526749 23.590803987521213,55.409372356312815 23.916634686116595,55.85150921305467 24.1519568572985,56.31374232414237 24.260567090124823,56.976944790018024 24.24246538465377,57.80092104493815 24.314872206479777,58.08227813921985 24.622601199545898,58.504313159006415 25.419076240505092,59.32828414280084 25.636296706215944,59.66992981436488 25.708703527983744,59.890994400077034 25.781110349984374,60.11205878124747 25.817313760868274,60.41350988014892 25.817313760868274,60.71496059848869 25.763008644455113,61.31786089335219 25.835415466397535,61.59921384336485 26.197449575876817,62.041339237752254 26.70429732912453,62.74471885984531 27.826603068504483,63.95050767714565 28.170535472629126,64.39262871786195 28.713586636760738,65.21657938203134 29.057519040827174,65.51802403663169 29.600570205016993,65.7792757628049 29.962604314554483,66.02043094865803 30.161723074736074,66.30177835765062 30.596164006157778,67.02524160161556 30.849587882810738,67.30658782673709 31.030604937463067,67.42716467889841 32.00809703307459,67.80899097571091 32.4787413754384,68.07024019546225 32.85887719044695,68.39177730439405 33.67345393676078,69.21571416968072 34.0173863407108,69.47696185047971 34.560437505017035,69.73820924546453 35.73704836081015,70.03964819227986 36.35250634694239,70.36118264941615 36.56972681265324,70.50185383828648 38.30749053810723,72.02913569819066 38.488507592875976,72.14971016587515 39.248779222834855,72.43105035372719 40.38918666768586,72.77267727917933 40.64261054433882,72.91334704759356 40.78742418810725,73.07411239572684 41.02274635928916,73.69707709766226 41.4390855851816,74.38032683772326 41.58389922900824,74.56118673585297 41.85542481113225,74.80233305365255 42.19935721508227,75.20424304221524 42.470882797206286,75.4252932476229 42.70620496838819,75.50567508974927 43.28545954352012,75.4252932476229 43.484578303818125,75.30472043366171 43.75610388588393,75.00328813244414 43.90091752965236,74.92290612119541 44.19054481724743,74.84252408289467 44.40776528295828,74.86261959504918 44.6792908651405,74.92290612119541 46.52566482347902,75.70662957677268 46.8876989329583,75.82720218783652 47.32213986426359,75.887488470471 48.58925924752839,76.00806099022157 49.34953087742906,76.22911045166256 49.65725987049518,76.38987356785219 49.83827692520572,76.59082731086528 49.910683747089934,76.85206692408246 49.928785452619195,78.03768926960765 49.74776839790866,79.00225903942192 49.783971808850765,79.16302028896462 50.037395685503725,79.74577891163062 50.019293979974464,80.48929646938632 50.05549739091657,80.89119688826031 50.14600591827184,81.25290668701928 50.272717856569216,81.51414120105619 50.45373491139617,81.67490076003014 50.79766731534619,81.7954703582509 52.06478669855278,81.89594497690268 52.644041273742914,82.0165144634957 53.11468561604852,82.19736857930548 53.98356747877551,82.67964555202343 54.653330581320915,83.20211117365398 55.23258515656926,83.74467041727621 55.54031414963538,84.10637589507678 56.22817895771004,85.17139439903258 56.735026710957754,85.75413836291409 57.20567105326336,86.15602992354252 58.05645121057751,86.67848794150632 58.52709555294132,86.8794330288074 58.9253330733045,86.9598110163497 59.558892764907796,87.0 60.011435401800554,86.91962202599098 60.427774627693,86.79905501418398 60.916520675469656,86.5378262798622 61.83970765466802,85.79432754944719 62.27414858608972,85.65366536710644 62.65428440098185,85.61347615695558 63.505064558354206,85.61347615695558 64.08431913348613,85.67375996970804 64.82648905791575,85.69385457050521 65.0799129345105,85.79432754944719 65.85828626994044,86.19621904240921" stroke="#4dd2ff" stroke-linecap="round" stroke-linejoin="round" stroke-width="0.5"><title>2024-03-20 10.0km</title></polyline><polyline fill="none" points="184.14575795381097,78.88920877566852 184.05112172447843,78.75744232886063 183.21291512140306,78.15717187146947 182.8884480491979,77.86435636630631 182.60453936096746,77.67402606015094 182.18543605942978,77.43977312921197 181.42834622442024,76.8541396123328 180.9281261548167,76.41491335943283 180.17103631974896,75.71214936644537 179.562660559488,75.24363867813372 179.04892102855956,74.73120386741357 178.4675841908902,74.2187677554466 178.0484808893525,73.77953576661821 177.832169507863,73.58920160788693 177.53474135842407,73.36958504779614 177.3860272836755,73.34030282174353 177.25083267025184,73.35494393532281 177.08859913417837,73.4720728055836 176.84524883009726,73.79417684831424 176.33150929911062,74.39446028326347 175.96648384298896,74.67263980615826 175.80425030685728,74.93617794783495 175.30403023725376,75.59502179634 175.12827723985538,75.78535406320589 174.7226933996426,76.16601805847313 174.3306290207547,76.64916747997631 173.78985056711826,77.22016075954889 173.31666942022275,77.82043400389375 172.89756611868506,78.20109416058403 172.62717689183773,78.36214247228054 172.5190212011221,78.46462769461505 172.27567089704098,78.83064592105802 170.7885301496135,80.60216475582274 169.78809001040645,81.6709247973049 169.2337920954451,82.3443871223717 168.92284448462306,82.54935347095306 168.53078010573518,83.07640884014836 168.21983249497134,83.31065522914287 167.949443268124,83.74986647583137 167.65201511856867,84.11587511803373 167.15179504908156,84.54044431159855 166.89492528355913,84.87717096801498 166.66509444080293,85.08213474477816 166.6110165954451,85.21389706277114 166.52989982737927,85.30173856031615 166.1648743711994,85.68238460806606 165.55649861093843,86.38511388731422 165.4753818428726,86.57543597948097 165.44834292016458,86.82431844461826 165.38074561342364,86.82431844461826 165.32666776812403,86.8975191112986 165.19147315470036,86.9707197513635 165.01572015730198,87.0 164.79940877581248,86.9707197513635 164.6236557784141,86.88287898009003 164.33974709024187,86.59007613298309 163.97472163412021,85.97518877171387 163.46098210313357,85.2578178163385 163.25819018302718,84.84789041150361 162.93372311088024,84.29155903054925 162.71741172944894,83.98411208331527 162.4199835798936,83.35457639681408 161.9603218943812,82.72503874693939 161.71697159018368,82.27118480458739 161.39250451809494,81.78804884135025 161.2843488273793,81.56844120302412 160.98692067782395,81.17314685194287 160.6354146830272,80.63144592828758 160.52725899225334,80.3825558272365 159.93240269337548,79.41627370261995 159.63497454382014,78.65495725518849 159.45922154642176,78.28893871017499 158.8643652474275,77.35192821000237 157.90448349231156,75.6828674802673 157.45834126806585,75.0240239186096 156.714770894323,73.76489468384534 156.4984595128917,73.4720728055836 156.28214813146042,73.23781499706092 155.4033831442939,72.46183406382625 155.07891607220517,72.110445489845 153.05099687108304,70.35349344115821 151.76664804382017,69.18218357618025 151.09067497676006,68.5379602520552 149.2385087730945,66.88346819934668 148.23806863394566,65.93176308413967 147.9271210230654,65.69749652108294 146.805005731876,64.64329362093122 146.45349973702105,64.36510027031181 145.60177367262077,63.53051791670441 145.0069173736265,63.04733708128333 144.8041254534619,62.84235092267045 144.3715026905993,62.47630369279068 144.03351615706924,62.13953965465771 143.77664639166323,61.963836455135606 143.64145177823957,61.80277505439881 143.4656987808412,61.641713525081286 143.10067332460312,61.27566411656153 142.89788140455494,61.02675013936823 142.73564786842326,60.76319382872316 142.50581702566706,60.29464842626476 142.3571029509185,59.79681774361234 142.27598618285265,59.635754612638266 142.24894726020284,59.445407110251836 142.27598618285265,59.19649087454309 142.22190833749482,58.75722617986321 142.22190833749482,58.56687784846872 142.26246672152774,58.288676117867 142.4111807962181,57.70298700973217 142.76268679107307,57.029442432904034 142.95195924985455,56.721953943546396 144.18223023187602,54.90629806899233 144.8311643761699,53.98382148385281 145.29082606179873,53.251694206745015 145.4530595978722,52.900272169703385 145.62881259527057,52.3584953295358 145.6964099019533,51.99242907301232 145.7099293633364,51.69957558938768 145.10155360295903,50.674585047672736 144.8446838374948,50.29387294816843 144.6148529947386,49.85458886327979 144.1416718478431,49.078517974718125 143.88480208237888,48.72708866535686 143.7225685463054,48.37565874354914 143.14123170863604,47.48243826891121 142.95195924985455,47.101720142702106 142.69508948439034,46.69171520280361 142.50581702566706,46.457426291453885 142.08671372412937,45.608126705657924 141.50537688646,44.4952459713968 141.34314335038653,44.26095450777211 141.0457152009476,43.64593812050589 140.8158843581332,43.294499342591735 140.31566428852966,42.28410944384814 140.04527506174054,41.844807908535586 139.85600260295905,41.376218549048644 139.45041876274627,40.58547153529071 139.0718738451833,39.98508747195592 138.6122121596709,39.12111702347465 138.4229397008894,38.84288846376876 138.09847262874246,38.16928088683926 137.78752501792042,37.64210816958803 137.46305794571526,37.012427839435986 137.00339626020286,35.8116366416798 136.80060434003826,35.13801893542404 136.27334534778493,34.09830023096583 136.13815073436126,33.74684480819269 136.0299950436456,33.36610074194323 135.85424204618903,33.0 135.86776150751393,33.07322020159336 135.89480043022195,33.16108440842072 136.0299950436456,33.380744757771026 136.1922285797773,33.74684480819269 136.36798157711746,34.06901230245421 136.6248513426399,34.66941398601921 136.80060434003826,35.03551169583807 137.03043518285267,35.70912974464591 137.23322710295906,36.221663708551205 137.39546063903254,36.573114816332236 137.49009686836507,36.83670274511678 137.70640824985458,37.3199463859346 137.92271963128587,37.77390147816914 139.0583543838584,39.82400851661805 139.40986037871335,40.556184549292084 140.11287236842327,41.77159089286579 140.35622267256258,42.28410944384814 140.80236489675008,43.06020648368576 141.0997930462472,43.689867924680584 141.38370173441945,44.143808673878084 141.88392180396477,45.11025976802921 142.8438035591389,46.85278867147281 143.4656987808412,47.921727521388675 143.73608800763031,48.31708703035838 144.790605992137,50.08887382762623 145.33138444577344,50.952797281279345 145.56121528852964,51.28957999787235 145.65585151792038,51.45064979394374 145.65585151792038,51.479935197596205 145.53417636587983,51.39207897389133 145.29082606179873,51.011368228908395 145.0339562962763,50.542800171489944 143.96591885038652,48.87351761870377 143.60089339426486,48.24387236495386 143.37106255145045,47.907084561680676 142.77620625245618,46.911360809986945 142.6004532550578,46.57457078114385 142.31654456688557,46.09134932240704 141.2890655050287,44.085235731414286 141.0457152009476,43.7484409819881 140.47789782460313,42.723410021993914 139.49097714672098,40.83441074450093 138.57165377563797,39.17969140820787 138.38238131685648,38.79895760344516 138.01735586067662,38.18392455371213 137.93623909261078,38.00820048060268 137.67936932714656,37.52495848966646 137.530655252398,37.114934073732 137.5712136364309,37.20279651875899 137.7740055565955,37.451739905111026 137.89568070857786,37.67139557893097" stroke="#4dd2ff" stroke-linecap="round" stroke-linejoin="round" stroke-width="0.5"><title>2024-01-22 10.0km</title></polyline><polyline fill="none" points="64.79157994798152,138.04567662626505 64.04783254954964,137.6192710891628 63.11450248089386,136.82962900018902 62.63325416430598,136.51377136264637 62.458254776429385,136.35584237200965 62.31242195318919,136.0873628249974 62.12283928296529,135.89784765127115 61.627007684030104,135.53460977386567 61.34992531995522,135.3924730481085 60.41659525129944,134.65020197258855 60.08117975783534,134.4133064156922 59.716597699793056,134.09744527212752 59.39576548873447,133.7184112949035 58.214519620581996,132.62868493392307 57.879104127176106,132.4075803688611 57.67493817466311,132.3602007899899 57.499938786786515,132.3602007899899 57.354105963604525,132.45495993741497 56.69785825908184,133.3393766576337 56.231193224783055,133.82896293974773 55.57494552026037,134.57123681558005 55.443695979425684,134.71337407753163 55.12286376830889,134.9502693079121 54.45203278149711,135.61357458136627 53.752035229990724,136.4348068816762 52.87703829066595,137.3192074327817 52.76037203200394,137.46134290049667 52.65828905580565,137.65085671316774 52.48328966792906,137.72982075304026 52.20620730385417,138.140433298875 51.76870883413358,138.64580152288545 50.777045636205,139.7512904230971 50.31038060190622,140.22506966194487 50.16454777872423,140.44616628723452 49.59579976811074,141.12524737539934 49.172884580737446,141.58323109937191 48.983301910571754,141.85170386898972 48.89580221666256,142.00962887294008 48.764552675769664,142.10438382033317 48.618719852529466,142.15176127858285 48.29788764147088,142.43602581146115 47.91872230108129,142.92559163704573 47.5395569606917,143.39936396855046 47.3062244434841,143.65204212382378 47.13122505566571,143.88892762808246 46.67914330365602,144.37849018692214 46.139561857737135,144.8522593571106 46.00831231684424,145.15231263170426 45.93539590522414,145.23127395105257 45.06039896584116,146.0840543753584 44.95831598958466,146.22618412137672 44.82706644869177,146.47885899631365 44.76873331941897,146.889455042794 44.53540080221137,146.96841573223355 44.229151873500086,147.0 44.03956920327619,146.9368314598978 43.806236686185,146.77891002953402 43.47082119277911,146.43148247960198 43.10623913467862,145.8471712591563 42.59582425339613,145.1681048978935 42.07082608976634,144.094228189977 41.41457838524366,143.03613860660698 41.09374617418507,142.56236548472953 40.874996939324774,142.16755376235233 40.37916534038959,141.4253057861206 40.24791579943849,141.1568324907421 39.89791702380171,140.66726268804632 39.197919472295325,139.43543702439638 39.02292008441873,139.19854667467007 38.77500428498024,138.72476520194323 38.527088485483546,138.07726218839525 38.35208909760695,137.69823514054588 37.47709215822397,136.2294990970404 36.5291788073373,134.74496012316376 36.2958462901297,134.2869620132551 35.27501652756473,132.62868493392307 35.04168401041534,132.3602007899899 34.618768823100254,131.94957734101627 34.268770047288854,131.66529911490215 32.9125247913762,130.41762917640153 32.24169380450621,129.86486172759032 31.687529076240025,129.3436797043978 31.468779841437936,129.16995208598382 30.66669931373326,128.41186631015444 30.141701150103472,127.95385487441672 29.80628565675579,127.60639728022215 29.033371693571098,126.8798932452919 28.26045773056103,126.23235499623115 27.079211862408556,125.12679743532499 26.860462627606466,124.9688601824455 26.583380263473373,124.70036658951722 26.27713133470388,124.44766643471667 25.343801266048104,123.5632135822234 24.337554785830434,122.66296323736606 23.841723186837044,122.189145770506 23.316725023265462,121.7627091682516 22.281311978353187,120.7992752494174 22.077146025840193,120.65712890028954 21.741730532434303,120.35704185831128 21.143815957242623,119.78845474915579 20.589651228976436,119.20407200542104 20.239652453223243,118.68286445042759 20.020903218421154,118.22483253812243 19.947986806859262,118.01950757479062 19.81673726590816,117.51409145494108 19.758404136577155,117.16661719160038 19.729237571940757,116.34531218133634 19.77298741892446,116.02942481344508 19.91882024210645,115.53979848687595 20.050069782999344,115.20811551062798 20.26881901791785,114.7974596965505 21.58131442690501,112.85473129988532 22.25214541371679,111.9228472947143 23.05422594147967,110.65926938645134 23.27297517633997,110.16963097399275 23.404224717174657,109.79055531718768 23.520890975778457,109.36409441367141 23.506307693431154,109.01660713342426 22.427144801593386,107.18439229446813 22.1938122845022,106.85269657902245 21.333398627408314,105.39954748279706 21.05631626327522,104.98887315270258 20.589651228976436,104.21490788446681 20.516734817356337,104.04116020086803 19.875070395180956,103.01446650980506 19.78757070127176,102.82492252923839 19.204239408369176,101.67185975506436 18.781324221054092,100.9768600617681 18.518825139210094,100.4240178106993 18.05216010491131,99.63424072852649 17.775077740778215,99.01821261344594 16.76883126050234,97.07534328186011 16.43341576709645,96.52249111280253 16.302166226203553,96.20657495656633 15.616751957102679,95.05347709154012 15.208420052018482,94.26368050505698 15.208420052018482,94.05833292273746 15.281336463638581,93.85298514645547 15.368836157605983,93.71082118776394 15.485502416151576,93.58445314639539 15.704251651011873,93.42649299150798 16.302166226203553,93.284328753929 16.929247366031632,93.0 17.104246753908228,93.0 17.585495070554316,93.07898024674796 17.731327893794514,93.14216442346515 17.760494458430912,93.42649299150798 17.920910564018413,94.32686433757772 17.9646604108857,95.10086479553138 18.05216010491131,95.55894540149893 18.066743387200404,95.7642915668257 18.212576210382394,96.39612470536667 18.372992315969896,97.43864537056652 18.475075292226393,97.722968320988 18.460492009937298,97.8019468523562 19.306322384625673,98.51275234395871 19.408405360823963,98.65491316351108 19.48132177250227,98.78127825840784 19.700071007362567,99.39730704460817 19.86048711289186,99.60264958557673 19.991736653726548,99.87117415432294 20.15215275931405,100.10810732199752 20.662567640596535,101.11901927061263 21.39173175673932,102.11413113086019 21.829230226401705,102.58799232120509 22.077146025840193,102.9354898713209 22.397978236956988,103.31457747462264 23.550057540414855,104.23070312156051 24.016722574771848,104.56240283534862 24.42505447973963,104.90989723104576 24.935469361080322,105.30477655238064 25.416717677668203,105.63647462824883 25.956299123587087,106.07873794258921 26.175048358447384,106.18930363070103 26.554213698836975,106.5052052869869 26.78754621592816,106.64736088261998 27.006295450846665,106.88428666895197 27.152128274028655,106.97905691117921 27.487543767434545,107.29495742058498 27.633376590674743,107.37393247625732 27.822959260840435,107.45290750320419 28.26045773056103,107.73721736292646 28.610456506256014,108.00573188930866 28.931288717431016,108.22686125035398 29.339620622398797,108.57434979213576 29.50003672792809,108.65332438331097 30.404200231889263,109.34829954933957 30.62294946674956,109.49045328708598 31.49794640613254,110.18542577869084 31.74586220557103,110.34337376263284 32.12502754596062,110.62767984469247 32.59169258031761,111.02254878677195 32.8833582267398,111.24367508124851 34.881267904886045,112.60201738784963 35.04168401041534,112.74416899950302 35.100017139688134,112.87052590964595 35.20210011600284,112.99688274644723 35.450015915499534,113.12323950980499 35.829181255889125,113.4233365287073 36.4416791133699,113.83399493644538 37.18542651180178,114.41839210332546 37.797924369282555,114.81325416525942 38.23542283906136,115.20811551062798 39.47500183642842,116.20316292256757 39.868750459107105,116.45587265175709 40.1895826702239,116.78755372593878 40.67083098686999,117.1982057839341 41.45832823222736,117.78259391481697 41.706244031724054,118.03530180959206 41.88124341960065,118.0984787374473 42.20207563065924,118.47753991930222 42.47915799485054,118.63548188349523 43.22290539328242,119.33042516406567 43.4124880633899,119.55154301520088 43.572904168919194,119.63051362184342 43.6895704275812,119.72527831199113 43.83540325076319,119.94639576182817 44.17081874422729,120.26227744326752 45.06039896584116,120.9414215056604 45.45414758857805,121.32047773509112 45.74581323500024,121.55738754321646 45.92081262287684,121.7627091682516 46.095812010753434,121.7942970933509 46.08122872840613,121.82588501392456 46.095812010753434,121.81009105422709 46.41664422187023,122.11017609237751 46.50414391577942,122.31549719587201 46.57706032739952,122.36287896147405 46.73747643298702,122.41026071675878 47.3499742904678,123.01042872405378 48.07913840661058,123.57900741470803 48.60413657018216,124.11599703627871 49.172884580737446,124.55822278854612 49.56663320347434,124.93727271811804 49.77079915598733,125.07941627150285 49.91663197922753,125.31632198751322 50.61662953067571,125.99545027740533 51.1124611296691,126.40608495946799 51.3312103645294,126.50084669918579 51.59370944625698,126.70616366027389 52.04579119832488,127.1325905759877 52.59995592647465,127.59060374001274" stroke="#4dd2ff" stroke-linecap="round" stroke-linejoin="round" stroke-width="0.5"><title>2024-01-15 10.5km</title></polyline><polyline fill="none" points="184.24125324963825,136.2345474390604 183.9934985054424,136.05008827589336 183.54444303165656,135.86562896549003 183.07990288635483,135.42963364669413 182.6153627410531,135.09425207265303 182.04242989514023,134.7421008961246 181.14431894756854,133.93718190665822 180.5404167586821,133.48441374328104 179.95199924131157,132.88072147913044 179.53391311044106,132.5117976526526 179.11582697968697,132.17641184480453 178.57386347680585,131.6230241979065 178.17126201756764,131.38825328074745 177.96996128791943,131.35471455880906 177.7841452297871,131.38825328074745 177.6447831862024,131.50563876914384 177.00991165422602,132.26025834240136 176.4060094653396,132.88072147913044 175.66274523286847,133.735951721319 174.811088299728,134.54087141156197 174.3310634829686,135.1277902519505 173.26262114872225,136.3016234619572 173.0148664045846,136.65377226256533 172.79808100342052,136.87176887030364 172.534841587767,137.0897652724525 172.3954795441823,137.2574546726828 172.2716021721135,137.47545071106288 170.8005583785707,139.085261245913 170.0418094745255,139.85662482107 169.65469268680317,140.3764553439978 168.75658173923148,141.38257561605133 168.63270436710445,141.66764223040082 168.38494962296681,141.80179110374593 167.7655627625645,142.37192294711713 167.65717006189516,142.55637706603738 167.44038466078928,142.79113664088072 167.0068138585193,143.37803453503875 166.75905911432346,143.61279327556258 166.31000364053762,144.1326153526752 165.84546349517768,144.55182585390867 165.47383137902943,145.10518255164789 164.85444451856893,145.72561121359468 164.6531437888625,145.89329434996762 164.43635838775663,146.26219682187366 164.389904373209,146.49695263391186 164.3744197016931,146.76524469869037 164.34345035866136,146.81554942618823 164.1731189721031,146.94969531265087 163.98730291391257,147.0 163.87891021341784,146.98323177204293 163.72406349825906,146.91615884828207 163.4917934256373,146.7484764537512 162.96531459427206,146.21189197400236 162.36141240532743,145.22256107484282 162.0981729896739,144.83688856057415 161.04521532700164,143.0091274612205 160.34840510901995,141.96947708599328 159.6206255480647,140.72859793725365 159.17157007422065,140.10815586523677 158.76896861498244,139.3367931293178 158.4437905132072,138.88403554211254 158.04118905391078,138.14620646297408 157.77794963825727,137.39160610527324 157.66955693770433,137.1736099877744 156.33787518786266,134.9433302055404 155.90430438547628,134.3061034581333 155.57912628381746,133.7024133400846 154.94425475184107,132.66272110737918 154.46422993502347,131.8745642016729 154.21647519088583,131.53917746916704 153.98420511820586,131.28763710038038 152.1570138799725,129.64423328757402 150.39176132774446,128.1349745941552 149.16847227845574,126.96109990724653 148.8587788482546,126.72632425435586 148.59553943254286,126.42446949302393 148.10002994420938,125.97168661176693 147.6664591419394,125.60275175627612 146.93867958092596,124.9319596009882 146.35026206355542,124.44563407084206 146.17993067693897,124.2611654985376 145.63796717405785,123.80837837864237 144.30628542415798,122.55063172375958 143.3926898050704,121.76244033074181 142.06100805511232,120.52145268856839 140.71384163369657,119.34753932505555 140.52802557562245,119.1462964352977 139.62991462805076,118.37486373420688 138.8401963809738,117.56988773486228 138.59244163683616,117.26802101207431 138.4221102502197,116.99969470512588 138.17435550602386,116.46304115635576 137.97305477643386,115.80899295842391 137.89563141885446,115.47358290795819 137.81820806127507,114.78599078214029 137.83369273279095,114.55120275827358 137.8027233897592,114.2325614871661 138.0195087909815,113.47788303924608 138.12790149147622,113.19278165067954 138.45307959325146,112.55549492168939 138.82471170945792,112.00206028335379 139.36667521233903,111.28091618948383 139.62991462805076,110.84487448250002 139.89315404370427,110.49268634905457 140.63641827611718,109.36903490537952 141.06998907844536,108.78205063454516 141.42613652319415,108.16152278346999 141.5964679098106,107.7254751881701 141.8132533110329,107.00431774339813 141.84422265400644,106.61858144172584 141.78228396800114,106.4508698052814 141.37968250876293,105.78002204181394 141.0390197354136,105.1762573888409 140.62093360471772,104.55571985089045 140.18736280238954,103.71715296170441 139.61442995647667,102.89535445644287 138.80922703800024,101.50332174540381 138.32920222112443,100.81568803318078 138.09693214850267,100.26222526546917 137.55496864556335,99.30624099717534 137.12139784329338,98.46765504746872 136.8891277706134,98.09867626494088 136.22328689572169,96.90787708161224 136.02198616607348,96.43826444777369 135.69680806429824,95.86801925137115 135.3871146340971,95.14682478041505 135.23226791905472,94.89524478388194 135.01548251794884,94.45917214063229 134.99999784637475,94.35853987524752 135.0309671894065,94.29145167395473 135.27872193360236,93.83860580541659 135.43356864864472,93.72120117599843 135.61938470677705,93.72120117599843 135.74326207884587,93.62056858898723 135.9290781369782,93.58702438358159 135.9290781369782,93.36898692959221 135.88262412248878,93.13417713349918 135.91359346546233,93.05031643420807 135.96004748006817,93.0 136.03747083758935,93.0 136.0684401806211,93.03354429069441 136.1458635381423,93.25158206142078 136.23877156723756,94.17404727480607 136.37813361082226,94.59334842626413 136.285225581727,94.7275246339268 137.33818324445747,95.48226434942626 137.4465759450104,95.59966808343597 137.53948397410568,95.80093148864398 137.70981536066392,96.32086114012054 137.84917740430683,96.58921146995272 138.18984017753974,97.15945488546276 138.32920222112443,97.47811971022747 138.6234109798097,97.98127380141523 138.93310441006906,98.36702452892496 139.61442995647667,99.33978437184123 140.31124017451657,100.17836715465819 140.57447959017009,100.46348460721492 141.0545044069877,100.84923118857841 141.34871316561475,101.1175762565399 141.96810002607526,101.57040785162826 142.1539160842076,101.67103697441053 143.16041973239044,102.42575399772613 143.65592922072392,102.81149730170728 144.39919345319504,103.46558230124356 144.61597885435913,103.58298197686963 145.79281388921663,104.52217723379727 146.27283870603424,104.82406061241636 146.69092483673012,105.1762573888409 147.34128104022238,105.64585225534393 147.91421388607705,105.98127657546138 149.09104892093455,106.90369094417838 149.84979782492155,107.44036670007335 150.5156386998715,107.99381226733385 150.9801788451732,108.27892007234914 151.18147957482142,108.46340140570828 151.58408103405964,108.73173762764782 152.1570138799725,109.18455429526512 152.80737008346478,109.62059913629491 153.87581241765292,110.42560283419152 154.12356716184877,110.5765407152212 154.40229124895995,110.82810363116732 155.50170292629628,111.66664470577962 155.70300365588628,111.83435255545191 156.89532336214324,112.67288997754804 157.4837408796302,113.2430936860037 158.33539781265426,113.84683725514333 158.9238153300248,114.33318509395758 159.72901824861765,114.92015526007162 160.1006503647659,115.28910717264807 160.73552189674228,115.77545197530708 161.06069999851752,116.14440252202621 161.4168474432081,116.39595937510603 161.60266350134043,116.64751595430425 161.80396423098864,116.73136808654817 162.7175598500762,117.50280627500615 162.90337590826675,117.73759129935934 163.13564598094672,117.85498372206348 163.22855400992557,117.97237608511932 163.3524313820526,118.19039031541615 163.53824744012672,118.30778250808362 163.98730291391257,118.69349929255259 164.26602700114017,118.861202041473 164.8079905040213,119.36430955796095 165.2105919633177,119.66617354204936 165.36543867836008,119.81710538614425 165.59770875104005,120.1189687786391 165.75255546619883,120.13573895557784 165.75255546619883,120.1525091312651 165.72158612310886,120.13573895557784 165.73707079468295,120.16927930571546 165.92288685275707,120.30344065773534 166.09321823943174,120.50468253962754 166.17064159695292,120.70592424630013 166.49581969866995,120.89039565675193 166.6661510852864,120.94070601588464 166.92939050099812,121.24256794054236 167.73459341947455,121.91337080560334 168.38494962296681,122.55063172375958 169.09724451246439,123.1543509724579 169.26757589908084,123.32205048383912 169.40693794260733,123.37236031351495 169.32951458502794,123.42267013226228 169.37596859957557,123.38913025431975 169.577269329282,123.55682959531259 169.85599341645138,123.92576771714084 170.42892626224784,124.42886420668219 170.9554050936713,124.81457077362575 171.48188392503653,125.30089552735444 171.72963866917416,125.41828410766902 171.85351604124298,125.48536326967587 172.51935691619292,126.18969329497486 173.58779925043928,127.11202698675334 173.74264596559806,127.17910565709462 173.94394669518806,127.44742014382791 174.06782406725688,127.64865580442711 174.43945618352154,128.01758739376965 175.47692917473614,128.822526998978 176.11180070665432,129.2753042948607 176.94797296827892,130.11377842645743 177.07185034028953,130.26470344713016 177.13378902635304,130.43239779891155 177.19572771235835,130.516244929182 177.47445179958595,130.60009202902438 177.66026785766007,130.7007085086807 177.81511457281886,130.86840254413255 177.95447661640355,131.15348212515528 177.9854459593771,131.18702087621205 178.32610873266822,131.3044064668502 178.77516420639586,131.6397935400164 179.27067369478755,132.1261039316596 180.04490727029042,132.78010594847728 180.30814668600215,133.0987216453068 180.6952634737827,133.4676445350342 181.53143573534908,134.10487359395484 182.18179193872493,134.65825529885478 182.6927860986325,135.04394479456823 182.87860215676483,135.22840476062265 183.32765763049247,135.51347896414518 183.69928974681534,135.7817837757466 184.05543719156412,135.98301218003326 185.00000215362525,136.6705412396841" stroke="#4dd2ff" stroke-linecap="round" stroke-linejoin="round" stroke-width="0.5"><title>2024-01-08 11.0km</title></polyline><polyline fill="none" points="62.851133981195744,198.52856508443074 61.71739525004523,197.80554249814304 61.28909395163646,197.3962831983372 60.293923287594225,196.56411987518368 59.87821908615297,196.18214203463867 59.53809746686602,195.89565814500384 59.14758745941799,195.5000368179608 58.75707745202817,195.1316989721381 58.24059647455579,194.68150729179615 57.83748937008204,194.36773669531976 57.736712593992706,194.2995256268041 57.623338720877655,194.25859897379996 57.484770653769374,194.2449567541771 57.37139678065432,194.27224119247694 57.03127516130917,194.54508535767673 56.76673612400191,194.7087916667224 56.67855644488009,194.80428694786679 56.30064353457419,195.2954047704843 55.632997392851394,196.08664745325223 55.38105545256985,196.41405724463402 54.63782672880916,197.2189372251305 53.9197921990999,197.95560401823604 53.6174618708319,198.33757825633802 53.37811702757608,198.59677461883985 53.30253444547998,198.6786260275403 53.10098089330131,198.8014030737686 52.77345637092367,199.29251045708952 52.005033453169744,200.1928706621402 51.463358281645924,200.79310840409016 51.0728482742561,201.13415172217356 50.795712139923126,201.52976119634695 49.3596430804464,203.09854919402278 49.158089528325945,203.38502211107698 48.91874468507012,203.5896453561145 48.36447241646238,204.18987225726596 47.88578272995073,204.79009724293428 47.6338407897274,205.0492847127898 47.041777230100706,205.854127737417 46.915806259959936,206.07238965891884 46.56308754364727,206.4543474122038 46.52529625262832,206.56347805639962 46.386728185461834,206.79538046507514 46.222965924302116,206.93179351309664 46.0592036631424,207.0 45.93323269300163,206.98635870461294 45.75687333481619,206.89086960908026 45.567916879663244,206.69989127261215 45.37896042445209,206.44070607725007 44.232624596275855,204.51726794143906 44.05626523809042,204.13530625448038 43.62796393968165,203.53507917918614 43.313036514329724,202.92120859814167 43.13667715614429,202.66201819563867 43.010706186061725,202.41646906381357 42.884735215920955,202.29369437765854 42.758764245780185,202.14363631910237 42.53201649955008,201.72074478260765 42.330462947371416,201.40698593134584 42.15410358918598,201.06594310804212 42.01553552201949,200.91588406986557 41.88956455187872,200.72489966629655 41.59983132057823,200.16558708288358 41.33529228338739,199.7972583756782 41.146335828176234,199.34707786494982 40.642451947613154,198.43307169461332 39.949611611897126,197.3007892335736 39.74805805971846,196.93245491512062 39.256771276239306,196.16849995455414 39.11820320907282,196.00479491632723 38.223809321119916,194.5178009589581 37.9088818958262,194.1903878657322 37.55616317951353,193.87661644969194 37.32941543322522,193.64469811001618 37.02708510495722,193.39913720324694 36.057108634966426,192.52602915962052 35.83036088873632,192.30775151518174 35.71698701562127,192.1167583684437 35.515433463442605,191.9803345734108 34.973758291918784,191.5028505112423 33.07159664295614,189.74297021047096 32.429144695284776,189.18362495939073 31.194629188044928,188.05128679542395 30.87970176275121,187.79207589491853 30.66555111348862,187.560150049394 29.368050121178385,186.4005165296985 29.01533140486572,186.05944648603327 28.07054912886815,185.2545187293581 25.95423683070112,183.3445068692672 25.740086181496736,183.12621856376063 25.462950047221966,182.81242868040863 25.16061971889576,182.3622074979794 24.984260360710323,181.91198523710773 24.858289390569553,181.3116872117098 24.807901002524886,180.49309590535995 24.88348358462099,180.09744216258696 24.959066166717093,179.8518635584478 25.122828427818604,179.38799198626657 25.29918778600404,179.07419586174365 26.521106196276378,177.31419919211476 26.962004591710865,176.64566900579666 27.264334920037072,176.23636363630067 27.57926234533079,175.74519601619977 27.81860718858661,175.32224509236403 28.032757837790996,174.66735146123392 28.120937516971026,174.0533866091282 28.1083404198871,173.63043187739095 28.045354934874922,173.41213228853303 28.007563643797766,173.13925744580047 27.919383964675944,172.7981633351592 27.84380138263805,172.57986277937016 27.57926234533079,172.00682261382462 27.45329137519002,171.80216498831578 27.239140725985635,171.5156439380953 26.735256845480762,170.91531270182168 26.420329420187045,170.5059948500857 26.24397006200161,170.3286235040723 26.08020780084189,170.0966761066229 25.576323920337018,169.8374404412025 25.374770368100144,169.68735647144786 25.261396494985092,169.5372723817709 25.085037136799656,169.19617173212464 24.946469069691375,168.9915110451111 24.22843453992391,167.5725241501932 24.014283890719526,167.23141993337777 23.346637749054935,165.935218261322 22.666394510422833,164.67994074930903 22.553020637249574,164.502563902759 22.011345465725753,163.4382993063191 21.759403525444213,163.01532067691733 21.356296421028674,162.25122783529514 20.953189316613134,161.58264404925285 20.776829958427697,161.1869504834467 20.247751883929595,160.10902240342693 19.94542155554518,159.38585199645604 19.882436070533004,159.19482538629381 19.769062197417952,158.63538919611892 19.37855219002813,157.96679253919865 19.051027667650487,157.13445459966897 18.635323466267437,156.28846799593884 18.395978623011615,155.7017331133975 18.207022167858668,155.40154246464954 17.854303451487795,154.61012845425284 17.703138287353795,154.18712994309317 17.463793444097973,153.70954983374395 17.161463115771767,153.0 17.148866018746048,153.04093564020877 17.186657309764996,153.0955164799234 17.325225376931485,153.27290409947454 17.48898763814941,153.5185174499493 18.118842488736846,154.92396544363874 18.307798943948,155.38789742375957 18.96284798864508,156.79333142763062 19.365955093002412,157.72118500624492 19.479328966117464,157.91221311521076 19.706076712347567,158.40342736028833 19.857241876539774,158.73090280999895 19.932824458635878,159.0720224629331 20.04619833175093,159.44043099222472 20.20996059285244,159.80883879892644 20.260348980897106,159.9725753699313 20.373722854070365,160.23182464881393 20.676053182338364,160.7503221331135 20.915398025594186,161.22788433927053 20.965786413638853,161.37797506754578 21.079160286753904,161.5280656759278 21.192534159868956,161.82824653289572 21.52005868218839,162.34673961049702 21.784597719437443,162.87887575458444 22.175107726827264,163.56109937517613 22.313675793993752,163.87492140864197 22.49003515217919,164.16145411175967 22.60340902529424,164.40705322370923 23.52299710724037,166.04437243116263 23.81273033854086,166.60378655634122 23.938701308623422,166.89031509729102 24.329211316013243,167.55887999340484 24.719721323403064,168.33659534840262 24.93387197260745,168.7322738547955 25.13542552490253,169.00515509782417 25.261396494985092,169.2780359445169 25.462950047221966,169.63278045272455 25.67710069642635,170.0966761066229 25.992028121778276,170.51963879282994 26.50850909925066,171.42013682426477 26.873824912589043,171.97953494329704 27.44069427822251,172.92095728630375 27.642247830401175,173.31662613866501 27.8060100916191,173.54856956128788 27.94457815872738,173.79415640262596 27.94457815872738,173.8487312126672 27.919383964675944,173.8487312126672 27.881592673656996,173.80780010661692 27.768218800541945,173.54856956128788 27.339917502133176,172.90731351792056 27.113169755903073,172.49800000560936 26.949407494685147,172.27969910109823 26.684868457436096,171.81580883696734 26.445523614180274,171.48835619623424 25.765280375489965,170.3013355898147 25.500741338240914,169.86472842285002 25.39996456215158,169.66006846405799 25.198411009914707,169.37354414723814 24.820498099550605,168.71862978226272 24.707124226435553,168.44574812306382 24.442585189186502,167.95456013771764 23.623773883329704,166.46734424038732 23.46001162211178,166.0853052285238 23.233263875939883,165.75784260002547 23.056904517812654,165.41673508833628 23.0191132267355,165.2802919102396 22.830156771524344,164.98011656959716 22.804962577531114,164.9118948343821" stroke="#4dd2ff" stroke-linecap="round" stroke-linejoin="round" stroke-width="0.5"><title>2023-12-31 10.1km</title></polyline><polyline fill="none" points="183.44283595721936,199.28476289956598 183.28175938886125,199.2310905579361 182.98438726254972,198.97614672251802 182.42681452567922,198.61385750984482 181.83207027311437,198.10396778619906 181.11342096782755,197.55382203424233 180.4071621678886,197.1512753253919 180.22130458895117,197.0841841220681 180.19652357837185,197.0573476339341 180.17174256790895,196.9231651348382 180.14696155732963,196.89632862330473 179.30440719949547,196.2656694820762 179.0194255784154,195.99730323781841 178.36272879951866,195.48740630094835 178.09013768372824,195.19220216869144 177.8794990942697,194.91041596654395 177.69364151533227,194.78965031988628 176.70240109425504,193.91745164171152 176.4917625047965,193.76984838150383 176.3554669469595,193.70275595155545 176.20678088377463,193.68933746266703 176.09526633640053,193.71617443948344 175.73594168381533,194.0382178578584 174.9925113680074,194.93725276617624 174.73231075750664,195.29954918040312 174.37298610486323,195.74235494509048 173.79063235752983,196.292506085083 173.0472020417219,197.2049482705188 172.62592486280482,197.6209130671923 172.41528627334628,197.72825866934727 171.93205656809732,198.25156758757657 171.78337050497066,198.45283985423157 171.67185595759656,198.62727564151282 171.38687433651648,198.8956380699383 170.44519593653968,199.95566585591587 170.2717288628919,200.13010022600065 169.73893713654252,200.80100011639297 168.9707258102717,201.6597484255326 168.79725873662392,201.9281064546085 168.59901065245504,202.04886744068062 168.45032458927017,202.16962834791047 167.70689427352045,203.04178811520978 167.29800759983482,203.4309042233508 167.14932153670816,203.64558862234117 166.75282536825398,204.034703460522 166.36871970514767,204.53115913479996 166.04656656831503,204.82634836358193 165.72441343142418,205.1617900973797 165.6376798946294,205.29596662057156 165.53855585248675,205.3228019135131 165.50138433667598,205.36305484565673 165.40226029459154,205.49723122287833 165.36508877878077,205.8326717402815 165.24118372623343,206.0607709447213 165.01815463148523,206.26203471506597 164.968592610443,206.27545229198586 164.79512553667882,206.24861713721475 164.6092679577996,206.3559577330161 164.3614578525303,206.6108913984208 164.21277178940363,206.8255721073947 164.06408572621876,207.0 164.31189583148807,206.6108913984208 164.57209644198883,206.30228744288615 164.58448694722028,206.1815292332176 164.5225344209466,206.00710056898242 164.34906734729884,205.77900129837508 164.22516229463508,205.49723122287833 164.0516952209873,205.20204306450614 163.9153996630339,205.0812841367151 163.59324652625946,204.6519184216886 163.28348389465827,204.12862760918506 162.98611176834675,203.56508200190729 162.5524440841982,202.8271030155447 162.18072892626515,202.29038917632715 161.87096629472217,201.72683796931233 161.66032770526363,201.43164379472728 161.48686063155765,201.13644914908218 161.1399264842039,200.62656637896725 160.9168973894557,200.1971903245285 160.32215313689085,199.24450864479877 160.1362955578952,198.78829314527684 160.04956202110043,198.45283985423157 159.92565696843667,198.1978949461627 159.0831026106025,196.89632862330473 158.612263410585,196.0912314675952 158.3644533053739,195.7289366041805 158.26532926323125,195.54107972895144 157.54667995800264,194.4005160332017 157.27408884221222,193.91745164171152 156.93954520014813,193.55515252005716 156.14655286329798,192.8708077982301 154.99423587386264,191.8107394061226 154.28797707386548,191.22031893279927 153.92865242128028,190.85801452724263 152.8630689686397,189.91870350344107 151.7850950108259,188.88545586640248 151.1407887371024,188.34870156855322 150.71951155818533,187.94613482267596 150.1743293266045,187.48989145118685 149.8150046740193,187.12757973658154 147.93164787406567,185.45020143572765 147.18821755831596,184.76582671808137 146.89084543194622,184.5108629403403 146.38283471617615,184.02777271300147 145.99872905306984,183.7057118601806 145.50310884253122,183.24945802499133 144.93314560048748,182.68584879171976 144.58621145307552,182.2295924396749 144.43752538994886,181.96120582426374 144.152543768927,181.19630183270783 144.14015326363733,181.08894663327374 144.0905912425951,180.52533081336878 144.10298174782656,180.18984439047927 144.10298174782656,179.7470013800048 144.152543768927,179.67990386163 144.11537225311622,179.6664843550534 144.16493427415844,179.5457087518298 144.18971528473776,179.41151354461908 144.11537225311622,179.5188697181875 144.0905912425951,179.4651916392031 144.11537225311622,179.3980940185429 144.1773247793899,179.2773182399833 144.30122983211186,179.15654238252318 144.61099246365484,178.59292067101342 145.04466014780337,177.90852056817675 146.04829107411206,176.52629302590503 146.8412834109622,175.33193274770747 147.1510460425052,174.70120004864293 147.3121226108633,174.20466428203508 147.32451311615296,174.05704528339265 147.29973210569005,173.82890659902478 147.07670301094186,173.479988066465 146.97757896885742,173.27868861347088 146.85367391619366,173.1310688752128 146.71737835829845,172.8224090415897 146.4819587583188,172.44664854834264 146.2341486530495,172.16482767707203 146.1474151161965,171.96352679161646 146.04829107411206,171.78906584686774 145.94916703202762,171.58776455213956 145.66418541094754,171.19858142729208 145.52788985311054,170.9301787947188 145.2924702531309,170.50073377181252 144.52425892674364,169.27949403387902 144.41274437942775,169.01108861410466 143.57019002153538,167.52143144849106 143.38433244259795,167.10539892369707 143.0126172847231,166.50147907590144 142.86393122153822,166.15254670866125 142.2320154531626,165.03864281943243 142.1205009057885,164.78365182800917 141.7859572637244,164.1394624926761 141.63727120053954,163.92473221517866 141.24077503208537,163.1329121600138 141.0425269479747,162.79739416396478 140.8194978531683,162.36793023989594 140.67081178998342,161.97872769647802 139.93977197952336,160.73058987151308 139.28307520062663,159.1737609813281 139.15917014796287,158.66376245762513 138.70072145323502,157.6437611864094 138.60159741115058,157.34849660945474 138.44052084273426,156.99954695548513 138.24227275850717,156.66401782043977 137.709481032216,155.42926535547304 137.47406143223634,154.94609910072177 136.85453616909217,153.52343556702544 136.55716404278064,153.01342144334922 137.2386418322567,154.4495102441433 137.49884244275745,154.94609910072177 137.65991901117377,155.38900154917792 137.96968164277496,156.04664261966536 138.2918347796076,156.79822954759584 138.71311195852468,157.6169189716602 138.94853155850433,158.19402572969557 139.13438913749997,158.58323624622426 139.3450277269585,159.30797088514373 139.72913339006482,160.24743748194305 140.22475360060344,161.30768690313562 140.83188835845795,162.28740564303007 141.36468008474912,163.26711918784713 141.5629281689762,163.68316035464522 141.77356675843475,164.01867674230016 142.1824534321786,164.7433900603355 142.4798255583737,165.37415674576187 142.71524515841156,165.76335213710263 142.77719768474344,165.9378187705588 142.91349324263865,166.20622865419136 143.49584698991384,167.1456601767277 143.7312665900099,167.58853338088375 143.80560962157324,167.80325940082548 144.52425892674364,169.10503055535082 144.82163105311338,169.69552166412177 145.2057367162197,170.2591705079103 145.91199551621685,171.46698367007775 146.1721961267176,171.84274615510367 146.97757896885742,173.21158874705725 147.36168463196373,173.78864680194238 147.37407513719518,174.00336561827862 147.29973210569005,174.32544337506988 147.11387452669442,174.87565824456397 146.97757896885742,175.15747498243582 146.704987853067,175.61374878991046 146.3456632004236,176.09686100545514 146.0359005688224,176.57997195831558 145.80048096884275,176.90204522540444 145.30486075830413,177.62670802457433 145.55267086357344,177.21069824644655 146.65542583196657,175.64058839056815 146.96518846350955,175.1037956369255 147.11387452669442,174.79513909766683 147.3121226108633,174.0973050219909 147.3121226108633,173.78864680194238 147.1758270530263,173.57392773617175 146.98996947408887,173.22500872226374 146.80411189509323,172.97002902632812 146.4571777477977,172.39296841550095 146.27132016886026,172.15140762487135 146.1474151161965,171.88300637605425 145.68896642146865,171.19858142729208 145.21812722150935,170.42021271889098 144.97031711624004,169.96392608984024 144.6729449899285,169.50763833418023 144.41274437942775,169.03792917361716 144.0410292215529,168.24613102899457 143.7312665900099,167.76299829107302 143.5082374952035,167.2932846960466 142.88871223205933,166.1928081692895 142.71524515841156,165.81703419568657 142.4798255583737,165.44125945791893 141.8974718110985,164.30051003706467 141.52575665316544,163.65631901733286 141.24077503208537,163.10607074278232 140.9557934110635,162.62292456519208 140.5964687584783,161.9116237268172 140.33626814797753,161.49557857093168 139.80347642168636,160.52927652941435 139.22112267429475,159.12007699250535 139.10960812692065,158.6234993563121 138.68833094800357,157.7242878073157 138.46530185331358,157.14717958182155 138.24227275850717,156.6774389975617 137.9572911374853,156.12716993674985 137.61035699013155,155.2682100776583 137.4616709270049,155.0400481936813 137.25103233748814,154.5837235802901 136.99083172698738,153.8589704066835 136.78019313752884,153.46974993610638 136.6810690953862,153.17447868714225 136.5695545480703,153.0 136.63150707440218,153.18790011778765 136.82975515857106,153.5368569722923 137.47406143223634,154.91925649398763 137.7962145691272,155.72453300011693 137.99446265323786,156.10032750162645 138.5148638742976,157.22770641920215 138.82462650589878,157.83165658061625 139.1839511585422,158.75770965986885 139.6795713690226,160.14007011268404 140.02650551643455,160.89164038724266 140.58407825324684,161.84451973278192 140.89384088478982,162.48871706944192 141.58770917943912,163.7234223533451 141.77356675843475,163.9918354537076 141.86030029528774,164.17972439194273 142.10811040055705,164.6091841047746 142.3435300005367,165.09232508862624 142.60373061103746,165.56204427841294 142.86393122153822,166.1391262198158 143.08696031628642,166.4746381479781 143.2604273899924,166.83699034614256 144.52425892674364,169.1184508287988 144.73489751620218,169.57473954536545 145.0074886320508,170.01760692820244 145.16856520046713,170.21890993321722 145.88721450569574,171.4401434633328 146.30849168467103,172.09772740627523 146.79172138986178,172.91634904552484 147.2006080635474,173.5605077862856 147.1510460425052,173.45314815208258 147.05192200042075,173.35920842099586 146.94040745304665,173.18474879369023 146.71737835829845,172.7821490252827 145.99872905306984,171.64144491887419 145.82526197936386,171.31936248476268 144.43752538994886,169.0781900055881 144.25166781101143,168.67558129117242 143.7312665900099,167.73615754640196 143.3719419373665,167.15908059244975 143.18608435837086,166.78330858385016 142.87632172682788,166.2733310641779 142.26918696891516,165.03864281943243 141.93464332685107,164.43471621681238 141.63727120053954,163.8039463243913 140.32387764268788,161.50899939701776 139.82825743214926,160.51585563212575 139.61761884269072,159.96559800453542 139.3202467163792,159.33481285421294 139.0724366111681,158.48928895524296 139.14677964273142,158.61007832060568 139.3698087374214,159.2811289122037 139.46893277956406,159.482443614339 139.69196187425405,160.15349103724293 139.86542894796003,160.5426974257134 140.10084854793968,161.0124281819153 140.42300168477232,161.52242022215796 140.55929724266753,161.81767812834005 140.41061117954087,161.61636597076722 140.22475360060344,161.25400353436999" stroke="#4dd2ff" stroke-linecap="round" stroke-linejoin="round" stroke-width="0.5"><title>2023-12-24 16.0km</title></polyline><polyline fill="none" points="19.331034483388066,238.1853382079862 21.19310344941914,241.41151814814657 36.83448275923729,259.5587454405613 42.42068965546787,264.397996051237 45.40000000037253,265.6078080460429 51.35862069018185,266.414349230472 56.57241379469633,264.8012667465955 61.04137931019068,261.1718294452876 64.02068965509534,256.73584730597213 65.88275862112641,252.29986162902787 65.88275862112641,248.67041617026553 64.76551724225283,243.42787965992466 61.04137931019068,237.7820655843243 46.88965517282486,222.86095793824643 39.81379310414195,216.4085746658966 34.97241379506886,214.79547767853364 29.386206896975636,215.19875196926296 26.406896552070975,216.4085746658966 21.937931034713984,219.23149326862767 18.958620689809322,223.66750531969592 17.096551723778248,228.50678716041148 16.72413793206215,233.74933773558587 18.21379310451448,238.58861080324277 31.993103448301554,254.7194906193763 43.9103448279202,266.01107865339145 47.262068966403604,266.8176197777502 52.47586206905544,266.414349230472 62.53103448450565,261.1718294452876 66.6275862082839,251.89659002795815 66.6275862082839,247.05732853943482 65.13793103396893,242.21806284040213 46.51724138110876,221.24786282144487 39.44137931056321,216.00530046317726 34.97241379506886,214.39220335846767 30.13103448227048,213.98892900859937 25.28965517319739,215.19875196926296 21.19310344941914,218.0216711857356 15.979310344904661,228.10351383453235 15.606896551325917,232.53951881080866 17.096551723778248,238.99188336869702 33.85517241433263,257.1391185554676 42.79310344718397,264.8012667465955 49.868965519592166,266.01107865339145 56.20000000111759,265.20453741028905 59.17931034602225,263.5914545757696 64.39310344867408,258.3489321297966 66.25517241284251,253.91294773947448 66.25517241284251,249.47695981012657 65.13793103396893,245.44424044108018 62.90344827622175,241.00824575778097 43.9103448279202,219.23149326862767 37.57931034453213,214.39220335846767 32.73793103545904,213.5856546307914 28.64137930981815,213.98892900859937 21.56551724113524,218.42494524270296 18.958620689809322,222.05441043851897 16.72413793206215,228.10351383453235 16.35172413662076,234.55588353937492 17.841379310935736,238.58861080324277 30.875862069427967,253.91294773947448 40.55862068943679,262.3816421418451 46.51724138110876,263.99472532747313 53.220689656212926,263.99472532747313 57.317241379991174,262.3816421418451 61.04137931019068,259.5587454405613 62.90344827622175,257.1391185554676 65.51034482754767,250.28350333310664 66.25517241284251,247.4606004911475 65.13793103396893,244.63769621634856 51.731034483760595,226.893693682272 39.06896551884711,215.19875196926296 34.97241379506886,213.98892900859937 28.64137930981815,214.39220335846767 23.799999998882413,216.00530046317726 20.820689655840397,218.82821927033365 16.35172413662076,226.08714676694945 15.234482757747173,230.52315335115418 15.606896551325917,234.55588353937492 17.096551723778248,239.39515590434894 39.44137931056321,261.97837127232924 45.027586206793785,265.20453741028905 50.98620689660311,266.8176197777502 55.82758620753884,265.20453741028905 61.04137931019068,261.97837127232924 65.51034482754767,255.92930471803993 67.0,249.47695981012657 65.13793103396893,243.02460741670802 46.88965517282486,221.6511366451159 40.55862068943679,216.00530046317726 37.57931034453213,214.39220335846767 33.11034482717514,213.5856546307914 26.77931034564972,213.98892900859937 22.682758620008826,216.4085746658966 18.21379310451448,220.8445889693685 15.979310344904661,224.87732617510483 15.234482757747173,230.52315335115418 15.606896551325917,234.55588353937492 17.46896551735699,238.99188336869702 28.26896551810205,251.49331839801744 39.81379310414195,262.3816421418451 43.5379310362041,264.8012667465955 48.006896551698446,266.414349230472 52.47586206905544,266.01107865339145 58.80689655058086,263.5914545757696 62.158620689064264,261.1718294452876 65.88275862112641,253.106404742226 66.25517241284251,248.67041617026553 65.13793103396893,244.23442406021059 62.90344827622175,240.2017008899711 47.63448275998235,222.45768420305103 39.44137931056321,216.00530046317726 35.34482758678496,213.98892900859937 31.248275861144066,213.5856546307914 26.03448275849223,214.79547767853364 21.56551724113524,217.21512298472226 17.841379310935736,222.45768420305103 15.606896551325917,228.10351383453235 15.606896551325917,232.9427918139845 17.096551723778248,238.1853382079862 23.427586207166314,245.8475125101395 33.85517241433263,257.1391185554676 43.5379310362041,265.20453741028905 48.006896551698446,266.414349230472 52.84827586263418,266.01107865339145 57.68965517356992,264.397996051237 61.41379310376942,261.5751003739424 64.39310344867408,257.94566096784547 66.25517241284251,253.50967625528574 66.25517241284251,248.67041617026553 65.13793103396893,243.8311518742703 52.103448275476694,229.71660696249455 47.63448275998235,223.66750531969592 39.44137931056321,216.4085746658966 33.85517241433263,214.39220335846767 29.75862069055438,213.5856546307914 24.172413794323802,214.79547767853364 20.820689655840397,217.6183970994316 17.841379310935736,221.24786282144487 15.979310344904661,225.68387326598167 15.234482757747173,230.11988017102703 16.35172413662076,236.57224753685296 18.58620689623058,240.2017008899711 27.89655172266066,250.686775051523 43.5379310362041,265.20453741028905 48.37931034527719,266.414349230472 52.47586206905544,266.01107865339145 56.57241379469633,264.8012667465955 60.296551724895835,262.3816421418451 63.648275861516595,258.3489321297966 65.51034482754767,253.91294773947448 66.25517241284251,247.4606004911475 65.13793103396893,243.8311518742703 64.02068965509534,241.8147905091755 48.006896551698446,224.87732617510483 38.69655172340572,216.4085746658966 34.22758620604873,214.39220335846767 30.13103448227048,213.98892900859937 25.28965517319739,214.79547767853364 21.56551724113524,216.81184883927926 18.21379310451448,220.0380411776714 15.606896551325917,225.28059973521158 14.862068966031075,230.92642650194466 15.979310344904661,236.1689747958444 18.21379310451448,239.79842841112986 33.11034482717514,255.92930471803993 43.9103448279202,265.20453741028905 50.241379311308265,266.01107865339145 54.71034482866526,265.6078080460429 59.17931034602225,263.5914545757696 62.53103448450565,260.3652875008993 64.76551724225283,256.73584730597213 65.88275862112641,251.49331839801744 65.51034482754767,246.25078454893082 64.76551724225283,243.42787965992466 48.75172413699329,225.28059973521158 37.20689655095339,215.19875196926296 33.11034482717514,213.5856546307914 29.013793103396893,213.18238022271544 24.917241379618645,214.39220335846767 18.958620689809322,218.82821927033365 14.48965517245233,226.08714676694945 14.862068966031075,232.9427918139845 16.35172413662076,236.97552024805918 38.69655172340572,261.5751003739424 43.165517242625356,264.397996051237 46.88965517282486,266.01107865339145 51.731034483760595,266.414349230472 56.20000000111759,265.20453741028905 60.66896551847458,261.5751003739424 65.13793103396893,254.7194906193763 66.25517241284251,249.47695981012657 65.51034482754767,245.04096834314987 61.786206897348166,240.2017008899711 49.49655172415078,226.893693682272 44.28275862149894,220.0380411776714 40.186206897720695,216.00530046317726 36.83448275923729,213.98892900859937 27.89655172266066,213.5856546307914 23.799999998882413,215.19875196926296 20.075862070545554,218.0216711857356 17.096551723778248,221.6511366451159 14.862068966031075,226.893693682272 14.862068966031075,232.53951881080866 15.979310344904661,236.97552024805918 32.3655172418803,254.7194906193763 42.42068965546787,263.99472532747313 48.006896551698446,266.01107865339145 52.103448275476694,266.414349230472 56.20000000111759,265.6078080460429 61.04137931019068,262.3816421418451 65.13793103396893,255.12276201415807 65.88275862112641,249.07368800463155 65.13793103396893,244.63769621634856 44.28275862149894,221.24786282144487 38.69655172340572,216.00530046317726 32.3655172418803,213.98892900859937 29.386206896975636,213.98892900859937 23.799999998882413,215.19875196926296 20.075862070545554,217.6183970994316 15.234482757747173,224.47405258659273 14.117241378873587,231.32969962246716 15.979310344904661,237.37879293132573 18.958620689809322,241.00824575778097 39.44137931056321,261.5751003739424 43.9103448279202,264.8012667465955 47.63448275998235,266.01107865339145 54.33793103508651,266.414349230472 58.80689655058086,264.397996051237 62.158620689064264,261.1718294452876 64.76551724225283,257.5423897765577 65.88275862112641,252.7031331998296 65.88275862112641,248.26714430656284 64.02068965509534,242.6213351432234 46.51724138110876,223.26423164410517 40.55862068943679,217.6183970994316 35.7172413803637,214.79547767853364 31.620689656585455,213.18238022271544 26.77931034564972,213.98892900859937 23.05517241358757,215.6020262306556 18.58620689623058,219.23149326862767 15.234482757747173,223.66750531969592 13.372413793578744,228.50678716041148 13.744827585294843,234.15261065168306 15.979310344904661,238.58861080324277 38.69655172340572,261.5751003739424 42.42068965546787,264.397996051237 49.12413793057203,266.414349230472 53.96551724150777,266.01107865339145 59.55172413773835,263.18818379286677 62.90344827622175,260.3652875008993 64.76551724225283,256.73584730597213 65.88275862112641,251.89659002795815 63.648275861516595,242.6213351432234 61.41379310376942,238.99188336869702 50.241379311308265,228.91006045695394 40.55862068943679,218.0216711857356 35.34482758678496,214.39220335846767 30.875862069427967,213.5856546307914 25.662068966776133,213.98892900859937 21.937931034713984,216.00530046317726 17.46896551735699,219.63476723851636 14.862068966031075,224.47405258659273 13.744827585294843,230.11988017102703 14.48965517245233,235.36242922535166 16.35172413662076,238.99188336869702 30.503448275849223,253.50967625528574 40.186206897720695,262.78491298202425 43.9103448279202,265.20453741028905 48.006896551698446,266.01107865339145 55.082758622244,265.6078080460429 58.434482760727406,264.397996051237 63.275862069800496,259.96201648470014 65.51034482754767,254.7194906193763 65.88275862112641,250.28350333310664 65.88275862112641,245.8475125101395 64.02068965509534,241.8147905091755 43.5379310362041,219.63476723851636 36.83448275923729,214.79547767853364 32.73793103545904,213.98892900859937 27.524137932807207,213.98892900859937 22.310344828292727,216.00530046317726 17.841379310935736,220.44131508795545 14.862068966031075,224.87732617510483 13.744827585294843,229.31333372509107 14.48965517245233,234.95915639726445 15.606896551325917,237.7820655843243 37.951724138110876,260.7685584882274 43.9103448279202,264.397996051237 48.006896551698446,266.01107865339145 52.47586206905544,266.01107865339145 59.17931034602225,263.5914545757696 62.53103448450565,260.3652875008993 65.13793103396893,256.73584730597213 65.88275862112641,253.91294773947448 66.25517241284251,248.26714430656284 65.13793103396893,243.8311518742703 47.63448275998235,222.86095793824643 37.951724138110876,214.79547767853364 31.993103448301554,213.18238022271544 26.77931034564972,213.5856546307914 22.682758620008826,215.19875196926296 17.841379310935736,219.63476723851636 15.234482757747173,223.66750531969592 13.744827585294843,228.50678716041148 14.117241378873587,234.95915639726445 15.979310344904661,238.58861080324277 39.44137931056321,262.3816421418451 43.165517242625356,265.20453741028905 47.63448275998235,266.414349230472 53.220689656212926,266.8176197777502 59.55172413773835,263.99472532747313 62.53103448450565,261.1718294452876 65.88275862112641,253.50967625528574 65.51034482754767,245.8475125101395 64.39310344867408,242.21806284040213 54.71034482866526,230.52315335115418 43.9103448279202,218.82821927033365 39.06896551884711,214.79547767853364 34.59999999962747,213.18238022271544 29.75862069055438,213.18238022271544 23.799999998882413,215.19875196926296 17.841379310935736,220.0380411776714 13.0,228.50678716041148 13.0,232.13624577689916 14.117241378873587,236.57224753685296 37.951724138110876,260.3652875008993 42.42068965546787,263.99472532747313 50.61379310488701,266.8176197777502 61.41379310376942,261.97837127232924 62.90344827622175,259.96201648470014 65.13793103396893,253.50967625528574 65.51034482754767,249.07368800463155 64.02068965509534,244.23442406021059 50.98620689660311,228.10351383453235 37.951724138110876,214.79547767853364 34.22758620604873,213.18238022271544 29.386206896975636,213.18238022271544 23.799999998882413,214.39220335846767 19.703448275104165,216.81184883927926 15.979310344904661,220.8445889693685 14.117241378873587,224.47405258659273 13.0,230.11988017102703 13.744827585294843,235.36242922535166 16.35172413662076,238.99188336869702 32.3655172418803,255.12276201415807 39.81379310414195,261.97837127232924 43.5379310362041,264.8012667465955 50.98620689660311,266.01107865339145 56.57241379469633,265.20453741028905 60.296551724895835,262.78491298202425 63.275862069800496,259.15547436568886 65.88275862112641,253.50967625528574 66.25517241284251,247.86387241259217 65.13793103396893,243.42787965992466 62.53103448450565,239.39515590434894 52.103448275476694,227.70024048024788 38.324137933552265,215.19875196926296 34.97241379506886,213.98892900859937 28.26896551810205,213.5856546307914 24.172413794323802,214.39220335846767 19.331034483388066,217.21512298472226 16.35172413662076,220.44131508795545 13.744827585294843,226.49042023951188 13.0,230.11988017102703 14.117241378873587,235.76570202456787 20.448275860399008,243.8311518742703 41.675862070173025,263.5914545757696 46.14482758566737,265.6078080460429 52.47586206905544,266.01107865339145 56.20000000111759,264.8012667465955 61.04137931019068,261.97837127232924 63.648275861516595,258.3489321297966 65.88275862112641,252.7031331998296 65.13793103396893,245.44424044108018 63.648275861516595,241.41151814814657 46.88965517282486,221.24786282144487 38.324137933552265,214.79547767853364 34.22758620604873,213.5856546307914 29.75862069055438,213.18238022271544 25.28965517319739,214.39220335846767 18.58620689623058,218.0216711857356 16.35172413662076,221.24786282144487 13.744827585294843,226.49042023951188 13.372413793578744,232.53951881080866 14.48965517245233,236.97552024805918 16.72413793206215,240.2017008899711 33.482758620753884,257.5423897765577 43.165517242625356,265.6078080460429 46.51724138110876,266.8176197777502 52.84827586263418,266.8176197777502 55.4551724139601,266.01107865339145 61.04137931019068,261.97837127232924 64.02068965509534,258.3489321297966 65.88275862112641,252.7031331998296 66.25517241284251,248.26714430656284 64.39310344867408,243.02460741670802 60.296551724895835,236.57224753685296 47.63448275998235,223.26423164410517 38.324137933552265,216.4085746658966 31.993103448301554,214.79547767853364 26.77931034564972,214.79547767853364 18.21379310451448,219.63476723851636 15.234482757747173,222.86095793824643 13.744827585294843,227.29696709522977 13.744827585294843,234.15261065168306 15.234482757747173,237.7820655843243 38.69655172340572,261.5751003739424 43.165517242625356,264.8012667465955 47.63448275998235,266.414349230472 52.47586206905544,266.8176197777502 56.94482758641243,265.20453741028905 62.158620689064264,261.5751003739424 65.51034482754767,255.92930471803993 66.25517241284251,251.49331839801744 66.25517241284251,246.65405655885115 64.02068965509534,241.41151814814657 52.84827586263418,228.50678716041148 38.324137933552265,214.79547767853364 33.85517241433263,213.5856546307914 29.013793103396893,213.5856546307914 24.172413794323802,214.79547767853364 18.58620689623058,219.23149326862767 15.606896551325917,222.86095793824643 14.117241378873587,226.893693682272 13.372413793578744,233.34606478968635 14.862068966031075,237.37879293132573 27.151724137365818,250.686775051523 39.81379310414195,262.3816421418451 44.28275862149894,265.6078080460429 49.868965519592166,266.8176197777502 53.220689656212926,266.414349230472 58.80689655058086,263.99472532747313 64.02068965509534,259.5587454405613 66.25517241284251,253.50967625528574 66.6275862082839,249.8802315867506 64.76551724225283,241.8147905091755 55.082758622244,230.92642650194466 41.675862070173025,217.6183970994316 37.57931034453213,214.79547767853364 33.482758620753884,213.98892900859937 27.89655172266066,213.5856546307914 23.05517241358757,215.19875196926296 18.958620689809322,218.0216711857356 15.979310344904661,222.05441043851897 14.117241378873587,226.893693682272 14.117241378873587,233.34606478968635 15.606896551325917,237.37879293132573 35.34482758678496,258.7522032619454 43.165517242625356,264.8012667465955 48.75172413699329,266.01107865339145 53.96551724150777,265.6078080460429 58.80689655058086,263.5914545757696 62.90344827622175,260.7685584882274 64.76551724225283,257.1391185554676 65.88275862112641,250.28350333310664 65.51034482754767,247.05732853943482 63.648275861516595,241.8147905091755 45.40000000037253,222.05441043851897 36.0896551720798,214.79547767853364 31.248275861144066,213.5856546307914 25.662068966776133,213.98892900859937 20.820689655840397,216.00530046317726 17.096551723778248,220.0380411776714 13.744827585294843,228.10351383453235 13.372413793578744,231.73297271504998 14.862068966031075,237.37879293132573 17.46896551735699,241.8147905091755" stroke="#4dd2ff" stroke-linecap="round" stroke-linejoin="round" stroke-width="0.5"><title>2023-12-17 10.0km</title></polyline></svg>