<?xml version="1.0" encoding="utf-8" ?>
<svg baseProfile="full" height="300mm" version="1.1" viewBox="0,0,200,300" width="200mm" xmlns="http://www.w3.org/2000/svg" xmlns:ev="http://www.w3.org/2001/xml-events" xmlns:xlink="http://www.w3.org/1999/xlink"><defs /><rect fill="#222222" height="300" width="200" x="0" y="0" /><text fill="#FFFFFF" style="font-size:12px; font-family:Arial; font-weight:bold;" x="10" y="20">Over 10km Runs</text><text fill="#FFFFFF" style="font-size:4px; font-family:Arial" x="10" y="280">ATHLETE</text><text fill="#FFFFFF" style="font-size:9px; font-family:Arial" x="10" y="290">kilerd</text><text fill="#FFFFFF" style="font-size:4px; font-family:Arial" x="120" y="280">STATISTICS</text><text fill="#FFFFFF" style="font-size:3px; font-family:Arial" x="120" y="285">Number: 1</text><text fill="#FFFFFF" style="font-size:3px; font-family:Arial" x="120" y="290">Weekly: 1.0</text><text fill="#FFFFFF" style="font-size:3px; font-family:Arial" x="141" y="285">Total: 10.0 km</text><text fill="#FFFFFF" style="font-size:3px; font-family:Arial" x="141" y="290">Avg: 10.0 km</text><text fill="#FFFFFF" style="font-size:3px; font-family:Arial" x="167" y="285">Min: 10.0 km</text><text fill="#FFFFFF" style="font-size:3px; font-family:Arial" x="167" y="290">Max: 10.0 km</text><polyline fill="none" points="37.993103448301554,144.55601462256163 43.57931035012007,154.2345544435084 90.50344827771187,208.676236320287 107.26206896454096,223.19398815184832 116.20000000298023,226.82342413719743 134.0758620724082,229.243047690019 149.717241384089,224.40380023792386 163.12413793057203,213.5154883340001 172.06206896528602,200.2075419165194 177.64827586337924,186.8995848847553 177.64827586337924,176.0112485093996 174.29655173048377,160.28363897837698 163.12413793057203,143.34619675204158 120.66896551847458,98.58287381380796 99.44137931242585,79.22572399675846 84.91724138334394,74.38643303420395 68.15862069278955,75.59625590592623 59.22068965807557,79.22572399675846 45.81379310414195,87.69447980448604 36.87586207315326,101.0025159586221 31.289655171334743,115.52036148030311 30.172413796186447,131.24801320582628 34.641379311680794,145.76583240833133 75.97931034490466,194.15847185626626 111.7310344800353,228.03323595877737 121.78620689734817,230.452859332785 137.42758620530367,229.243047690019 167.59310345351696,213.5154883340001 179.8827586248517,185.68977008201182 179.8827586248517,171.1719856178388 175.41379310190678,156.65418852027506 119.55172413960099,93.74358846340328 98.32413793355227,78.01590138860047 84.91724138334394,73.17661007400602 70.39310344681144,71.96678702440113 55.86896552145481,75.59625590592623 43.57931035012007,84.06501355580986 27.937931034713984,114.31054150220007 26.820689655840397,127.61855643056333 31.289655171334743,146.9756501056254 81.56551724672318,201.41735566593707 108.37931034341455,224.40380023792386 129.60689655691385,228.03323595877737 148.6000000052154,225.61361222993582 157.5379310362041,220.7743637263775 173.1793103478849,205.0467963879928 178.76551724225283,191.7388432174921 178.76551724225283,178.43087942991406 175.41379310190678,166.33272132184356 168.71034483239055,153.02473727148026 111.7310344800353,87.69447980448604 92.73793103545904,73.17661007400602 78.21379310637712,70.75696389004588 65.92413793131709,71.96678702440113 44.696551721543074,85.27483572624624 36.87586207315326,96.16323131415993 30.172413796186447,114.31054150220007 29.05517241358757,133.66765061672777 33.52413793280721,145.76583240833133 72.6275862082839,191.7388432174921 101.67586206644773,217.14492642413825 119.55172413960099,221.98417598195374 139.66206896677613,221.98417598195374 151.95172413811088,217.14492642413825 163.12413793057203,208.676236320287 168.71034483239055,201.41735566593707 176.53103448450565,180.85050999745727 178.76551724225283,172.38180147204548 175.41379310190678,163.91308864858001 135.1931034512818,110.68108104448766 97.20689655467868,75.59625590592623 84.91724138334394,71.96678702440113 65.92413793131709,73.17661007400602 51.399999998509884,78.01590138860047 42.46206896752119,86.48465781006962 29.05517241358757,108.26144029945135 25.70344827324152,121.56946005299687 26.820689655840397,133.66765061672777 31.289655171334743,148.18546771258116 98.32413793355227,215.93511381559074 115.08275862038136,225.61361222993582 132.95862068980932,230.452859332785 147.48275862261653,225.61361222993582 163.12413793057203,215.93511381559074 176.53103448450565,197.78791415318847 181.0,178.43087942991406 175.41379310190678,159.07382224872708 120.66896551847458,94.95340993348509 101.67586206644773,78.01590138860047 92.73793103545904,73.17661007400602 79.33103448525071,70.75696389004588 60.33793103694916,71.96678702440113 48.048275861889124,79.22572399675846 34.641379311680794,92.53376690670848 27.937931034713984,104.6319785239175 25.70344827324152,121.56946005299687 26.820689655840397,133.66765061672777 32.40689655020833,146.9756501056254 64.8068965524435,184.47995519358665 99.44137931242585,217.14492642413825 110.6137931086123,224.40380023792386 124.02068965882063,229.243047690019 137.42758620530367,228.03323595877737 156.42068965360522,220.7743637263775 166.47586207091808,213.5154883340001 177.64827586337924,189.3192142257467 178.76551724225283,176.0112485093996 175.41379310190678,162.70327217970043 168.71034483239055,150.60510266851634 122.90344827994704,97.37305260822177 98.32413793355227,78.01590138860047 86.03448276221752,71.96678702440113 73.74482758715749,70.75696389004588 58.103448275476694,74.38643303420395 44.696551721543074,81.64536895230412 33.52413793280721,97.37305260822177 26.820689655840397,114.31054150220007 26.820689655840397,128.82837544102222 31.289655171334743,144.55601462256163 50.2827586196363,167.5425375290215 81.56551724672318,201.41735566593707 110.6137931086123,225.61361222993582 124.02068965882063,229.243047690019 138.54482758790255,228.03323595877737 153.06896552070975,223.19398815184832 164.2413793131709,214.72530112043023 173.1793103478849,203.83698290307075 178.76551724225283,190.5290287649259 178.76551724225283,176.0112485093996 175.41379310190678,161.4934556214139 136.31034483015537,119.14982088655233 122.90344827994704,101.0025159586221 98.32413793355227,79.22572399675846 81.56551724672318,73.17661007400602 69.27586206793785,70.75696389004588 52.51724138110876,74.38643303420395 42.46206896752119,82.85519129782915 33.52413793280721,93.74358846340328 27.937931034713984,107.05161979608238 25.70344827324152,120.35964051168412 29.05517241358757,139.71674260869622 35.75862069055438,150.60510266851634 63.68965516984463,182.06032515317202 110.6137931086123,225.61361222993582 125.13793103396893,229.243047690019 137.42758620530367,228.03323595877737 149.717241384089,224.40380023792386 160.88965517655015,217.14492642413825 170.94482758641243,205.0467963879928 176.53103448450565,191.7388432174921 178.76551724225283,172.38180147204548 175.41379310190678,161.4934556214139 172.06206896528602,155.44437152706087 124.02068965882063,104.6319785239175 96.0896551720798,79.22572399675846 82.68275861814618,73.17661007400602 70.39310344681144,71.96678702440113 55.86896552145481,74.38643303420395 44.696551721543074,80.43554651644081 34.641379311680794,90.11412353161722 26.820689655840397,105.84179920516908 24.586206901818514,122.77927950397134 27.937931034713984,138.5069243852049 34.641379311680794,149.39528523292392 79.33103448525071,197.78791415318847 111.7310344800353,225.61361222993582 130.72413793578744,228.03323595877737 144.13103448227048,226.82342413719743 157.5379310362041,220.7743637263775 167.59310345351696,211.09586250130087 174.29655173048377,200.2075419165194 177.64827586337924,184.47995519358665 176.53103448450565,168.75235364492983 174.29655173048377,160.28363897837698 126.25517241284251,105.84179920516908 91.62068965658545,75.59625590592623 79.33103448525071,70.75696389004588 67.04137931019068,69.54714066721499 54.751724138855934,73.17661007400602 36.87586207315326,86.48465781006962 23.468965519219637,108.26144029945135 24.586206901818514,128.82837544102222 29.05517241358757,140.92656074278057 96.0896551720798,214.72530112043023 109.49655172601342,223.19398815184832 120.66896551847458,228.03323595877737 135.1931034512818,229.243047690019 148.6000000052154,225.61361222993582 162.00689655542374,214.72530112043023 175.41379310190678,194.15847185626626 178.76551724225283,178.43087942991406 176.53103448450565,165.12290502805263 165.3586206920445,150.60510266851634 128.48965517431498,110.68108104448766 112.84827586263418,90.11412353161722 100.55862069129944,78.01590138860047 90.50344827771187,71.96678702440113 63.68965516984463,70.75696389004588 51.399999998509884,75.59625590592623 40.22758620977402,84.06501355580986 31.289655171334743,94.95340993348509 24.586206901818514,110.68108104448766 24.586206901818514,127.61855643056333 27.937931034713984,140.92656074278057 77.09655172377825,194.15847185626626 107.26206896454096,221.98417598195374 124.02068965882063,228.03323595877737 136.31034483015537,229.243047690019 148.6000000052154,226.82342413719743 163.12413793057203,217.14492642413825 175.41379310190678,195.3682860415429 177.64827586337924,177.22106401249766 175.41379310190678,163.91308864858001 112.84827586263418,93.74358846340328 96.0896551720798,78.01590138860047 77.09655172377825,71.96678702440113 68.15862069278955,71.96678702440113 51.399999998509884,75.59625590592623 40.22758620977402,82.85519129782915 25.70344827324152,103.42215775884688 22.35172413662076,123.98909886647016 27.937931034713984,142.13637879211456 36.87586207315326,153.02473727148026 98.32413793355227,214.72530112043023 111.7310344800353,224.40380023792386 122.90344827994704,228.03323595877737 143.01379310712218,229.243047690019 156.42068965360522,223.19398815184832 166.47586207091808,213.5154883340001 174.29655173048377,202.62716932874173 177.64827586337924,188.10939959902316 177.64827586337924,174.8014329187572 172.06206896528602,157.8640054287389 119.55172413960099,99.79269493091851 101.67586206644773,82.85519129782915 87.15172414109111,74.38643303420395 74.86206896975636,69.54714066721499 60.33793103694916,71.96678702440113 49.165517244488,76.80607869103551 35.75862069055438,87.69447980448604 25.70344827324152,101.0025159586221 20.117241378873587,115.52036148030311 21.234482757747173,132.4578319536522 27.937931034713984,145.76583240833133 96.0896551720798,214.72530112043023 107.26206896454096,223.19398815184832 127.3724137917161,229.243047690019 141.8965517282486,228.03323595877737 158.6551724150777,219.56455137673765 168.71034483239055,211.09586250130087 174.29655173048377,200.2075419165194 177.64827586337924,185.68977008201182 170.94482758641243,157.8640054287389 164.2413793131709,146.9756501056254 130.72413793578744,116.7301813699305 101.67586206644773,84.06501355580986 86.03448276221752,73.17661007400602 72.6275862082839,70.75696389004588 56.98620689660311,71.96678702440113 45.81379310414195,78.01590138860047 32.40689655020833,88.9043017141521 24.586206901818514,103.42215775884688 21.234482757747173,120.35964051168412 23.468965519219637,136.08728767558932 29.05517241358757,146.9756501056254 71.51034482941031,190.5290287649259 100.55862069129944,218.35473894514143 111.7310344800353,225.61361222993582 124.02068965882063,228.03323595877737 145.24827586486936,226.82342413719743 155.30344828218222,223.19398815184832 169.82758620753884,209.8860494531691 176.53103448450565,194.15847185626626 177.64827586337924,180.85050999745727 177.64827586337924,167.5425375290215 172.06206896528602,155.44437152706087 110.6137931086123,88.9043017141521 90.50344827771187,74.38643303420395 78.21379310637712,71.96678702440113 62.57241379842162,71.96678702440113 46.93103448674083,78.01590138860047 33.52413793280721,91.32394526340067 24.586206901818514,104.6319785239175 21.234482757747173,117.94000117387623 23.468965519219637,134.87746919039637 26.820689655840397,143.34619675204158 93.85517241433263,212.30567546375096 111.7310344800353,223.19398815184832 124.02068965882063,228.03323595877737 137.42758620530367,228.03323595877737 157.5379310362041,220.7743637263775 167.59310345351696,211.09586250130087 175.41379310190678,200.2075419165194 177.64827586337924,191.7388432174921 178.76551724225283,174.8014329187572 175.41379310190678,161.4934556214139 122.90344827994704,98.58287381380796 93.85517241433263,74.38643303420395 75.97931034490466,69.54714066721499 60.33793103694916,70.75696389004588 48.048275861889124,75.59625590592623 33.52413793280721,88.9043017141521 25.70344827324152,101.0025159586221 21.234482757747173,115.52036148030311 22.35172413662076,134.87746919039637 27.937931034713984,145.76583240833133 98.32413793355227,217.14492642413825 109.49655172601342,225.61361222993582 122.90344827994704,229.243047690019 139.66206896677613,230.452859332785 158.6551724150777,221.98417598195374 167.59310345351696,213.5154883340001 177.64827586337924,190.5290287649259 176.53103448450565,167.5425375290215 173.1793103478849,156.65418852027506 144.13103448227048,121.56946005299687 111.7310344800353,86.48465781006962 97.20689655467868,74.38643303420395 83.80000000074506,69.54714066721499 69.27586206793785,69.54714066721499 51.399999998509884,75.59625590592623 33.52413793280721,90.11412353161722 19.0,115.52036148030311 19.0,126.40873732976615 22.35172413662076,139.71674260869622 93.85517241433263,211.09586250130087 107.26206896454096,221.98417598195374 131.84137931093574,230.452859332785 164.2413793131709,215.93511381559074 168.71034483239055,209.8860494531691 175.41379310190678,190.5290287649259 176.53103448450565,177.22106401249766 172.06206896528602,162.70327217970043 132.95862068980932,114.31054150220007 93.85517241433263,74.38643303420395 82.68275861814618,69.54714066721499 68.15862069278955,69.54714066721499 51.399999998509884,73.17661007400602 39.11034482717514,80.43554651644081 27.937931034713984,92.53376690670848 22.35172413662076,103.42215775884688 19.0,120.35964051168412 21.234482757747173,136.08728767558932 29.05517241358757,146.9756501056254 77.09655172377825,195.3682860415429 99.44137931242585,215.93511381559074 110.6137931086123,224.40380023792386 132.95862068980932,228.03323595877737 149.717241384089,225.61361222993582 160.88965517655015,218.35473894514143 169.82758620753884,207.46642309613526 177.64827586337924,190.5290287649259 178.76551724225283,173.5916172368452 175.41379310190678,160.28363897837698 167.59310345351696,148.18546771258116 136.31034483015537,113.10072143934667 94.9724137969315,75.59625590592623 84.91724138334394,71.96678702440113 64.8068965524435,70.75696389004588 52.51724138110876,73.17661007400602 37.993103448301554,81.64536895230412 29.05517241358757,91.32394526340067 21.234482757747173,109.47126071713865 19.0,120.35964051168412 22.35172413662076,137.29710607323796 41.344827584922314,161.4934556214139 105.02758621051908,220.7743637263775 118.43448275700212,226.82342413719743 137.42758620530367,228.03323595877737 148.6000000052154,224.40380023792386 163.12413793057203,215.93511381559074 170.94482758641243,205.0467963879928 177.64827586337924,188.10939959902316 175.41379310190678,166.33272132184356 170.94482758641243,154.2345544435084 120.66896551847458,93.74358846340328 94.9724137969315,74.38643303420395 82.68275861814618,70.75696389004588 69.27586206793785,69.54714066721499 55.86896552145481,73.17661007400602 35.75862069055438,84.06501355580986 29.05517241358757,93.74358846340328 21.234482757747173,109.47126071713865 20.117241378873587,127.61855643056333 23.468965519219637,140.92656074278057 30.172413796186447,150.60510266851634 80.4482758641243,202.62716932874173 109.49655172601342,226.82342413719743 119.55172413960099,230.452859332785 138.54482758790255,230.452859332785 146.36551724001765,228.03323595877737 163.12413793057203,215.93511381559074 172.06206896528602,205.0467963879928 177.64827586337924,188.10939959902316 178.76551724225283,174.8014329187572 173.1793103478849,159.07382224872708 160.88965517655015,139.71674260869622 122.90344827994704,99.79269493091851 94.9724137969315,79.22572399675846 75.97931034490466,74.38643303420395 60.33793103694916,74.38643303420395 34.641379311680794,88.9043017141521 25.70344827324152,98.58287381380796 21.234482757747173,111.89090128429234 21.234482757747173,132.4578319536522 25.70344827324152,143.34619675204158 96.0896551720798,214.72530112043023 109.49655172601342,224.40380023792386 122.90344827994704,229.243047690019 137.42758620530367,230.452859332785 150.8344827592373,225.61361222993582 166.47586207091808,214.72530112043023 176.53103448450565,197.78791415318847 178.76551724225283,184.47995519358665 178.76551724225283,169.9621696760878 172.06206896528602,154.2345544435084 138.54482758790255,115.52036148030311 94.9724137969315,74.38643303420395 81.56551724672318,70.75696389004588 67.04137931019068,70.75696389004588 52.51724138110876,74.38643303420395 35.75862069055438,87.69447980448604 26.820689655840397,98.58287381380796 22.35172413662076,110.68108104448766 20.117241378873587,130.03819436766207 24.586206901818514,142.13637879211456 61.455172415822744,182.06032515317202 99.44137931242585,217.14492642413825 112.84827586263418,226.82342413719743 129.60689655691385,230.452859332785 139.66206896677613,229.243047690019 156.42068965360522,221.98417598195374 172.06206896528602,208.676236320287 178.76551724225283,190.5290287649259 179.8827586248517,179.64069475978613 174.29655173048377,155.44437152706087 145.24827586486936,122.77927950397134 105.02758621051908,82.85519129782915 92.73793103545904,74.38643303420395 80.4482758641243,71.96678702440113 63.68965516984463,70.75696389004588 49.165517244488,75.59625590592623 36.87586207315326,84.06501355580986 27.937931034713984,96.16323131415993 22.35172413662076,110.68108104448766 22.35172413662076,130.03819436766207 26.820689655840397,142.13637879211456 86.03448276221752,206.2566097844392 109.49655172601342,224.40380023792386 126.25517241284251,228.03323595877737 141.8965517282486,226.82342413719743 156.42068965360522,220.7743637263775 168.71034483239055,212.30567546375096 174.29655173048377,201.41735566593707 177.64827586337924,180.85050999745727 176.53103448450565,171.1719856178388 170.94482758641243,155.44437152706087 116.20000000298023,96.16323131415993 88.2689655162394,74.38643303420395 73.74482758715749,70.75696389004588 56.98620689660311,71.96678702440113 42.46206896752119,78.01590138860047 31.289655171334743,90.11412353161722 21.234482757747173,114.31054150220007 20.117241378873587,125.1989181432873 24.586206901818514,142.13637879211456 32.40689655020833,155.44437152706087" stroke="#4DD2FF" stroke-linecap="round" stroke-linejoin="round" stroke-width="0.5"><title>2023-12-17 10.0km</title></polyline></svg>