<?xml version="1.0" encoding="utf-8" ?>
<svg baseProfile="full" height="200mm" version="1.1" viewBox="0,0,200,200" width="200mm" xmlns="http://www.w3.org/2000/svg" xmlns:ev="http://www.w3.org/2001/xml-events" xmlns:xlink="http://www.w3.org/1999/xlink"><defs /><rect fill="#1a1a1a" height="200" width="200" x="0" y="0" /><text alignment-baseline="middle" fill="#e1ed5e" style="dominant-baseline: central; font-size:9.0px; font-family:Arial;" text-anchor="middle" x="100.0" y="100.0">2023</text><line stroke="#e1ed5e" stroke-width="0.3" x1="100.0" x2="100.0" y1="15.0" y2="10.0" /><path d="M 100.0 14.0 a86.0,86.0 0 0,1 42.46469731375804,11.215312516191453" fill="none" id="id1" stroke="none" /><text fill="#e1ed5e" style="font-size:6.75px; font-family:Arial;" text-anchor="middle"><textPath startOffset="22.20632615414155" xlink:href="#id1">January</textPath></text><line stroke="#e1ed5e" stroke-width="0.3" x1="143.23703022742887" x2="145.7803849466894" y1="26.81831364943548" y2="22.513508569990506" /><path d="M 143.74570117128098 25.957352633546492 a86.0,86.0 0 0,1 28.547481713284135,27.462654790039103" fill="none" id="id2" stroke="none" /><text fill="#e1ed5e" style="font-size:6.75px; font-family:Arial;" text-anchor="middle"><textPath startOffset="19.985693538727396" xlink:href="#id2">February</textPath></text><line stroke="#e1ed5e" stroke-width="0.3" x1="172.23445277983987" x2="176.4835382374775" y1="55.19839476539836" y2="52.563006222186495" /><path d="M 173.08426987136738 54.67131705675599 a86.0,86.0 0 0,1 12.851231095245387,41.99856678651699" fill="none" id="id3" stroke="none" /><text fill="#e1ed5e" style="font-size:6.75px; font-family:Arial;" text-anchor="middle"><textPath startOffset="22.20632615414155" xlink:href="#id3">March</textPath></text><line stroke="#e1ed5e" stroke-width="0.3" x1="184.98032266829074" x2="189.97916517819016" y1="98.17113171792111" y2="98.06355123074" /><path d="M 185.9800911702706 98.14961562048488 a86.0,86.0 0 0,1 -9.607161424134198,41.387399972396054" fill="none" id="id4" stroke="none" /><text fill="#e1ed5e" style="font-size:6.75px; font-family:Arial;" text-anchor="middle"><textPath startOffset="21.466115282336823" xlink:href="#id4">April</textPath></text><line stroke="#e1ed5e" stroke-width="0.3" x1="174.80103733775053" x2="179.2010983576182" y1="140.37084112569926" y2="142.7455964860345" /><path d="M 175.68104954172406 140.8457921977663 a86.0,86.0 0 0,1 -30.038265399797805,32.042727171017184" fill="none" id="id5" stroke="none" /><text fill="#e1ed5e" style="font-size:6.75px; font-family:Arial;" text-anchor="middle"><textPath startOffset="22.206326154141568" xlink:href="#id5">May</textPath></text><line stroke="#e1ed5e" stroke-width="0.3" x1="143.8653032363475" x2="146.44561519142675" y1="172.8068346515853" y2="177.08958963109032" /><path d="M 144.38136562736335 173.6633856474863 a86.0,86.0 0 0,1 -40.68145358897372,12.25698825130547" fill="none" id="id6" stroke="none" /><text fill="#e1ed5e" style="font-size:6.75px; font-family:Arial;" text-anchor="middle"><textPath startOffset="21.466115282336833" xlink:href="#id6">June</textPath></text><path d="M 104.83641907484287 120.43548508189849 l 1.5459890526897355 6.5323198288076245 a27.71277025503404,27.71277025503404 0 0,0 -0.46515205330496834,0.10586709292714373 l -1.4333168499919051 -6.557963655312453" fill="#ff2904" stroke="none" /><path d="M 104.48393922423573 120.51570834832081 l 1.8994190574047545 8.690556554008674 a29.89570491720895,29.89570491720895 0 0,0 -0.5036836031569646,0.10555179626548467 l -1.749543992818412 -8.721964331000699" fill="#ff4a06" stroke="none" /><path d="M 104.13013068566511 120.58985236759428 l 1.9434589476674375 9.688684417139372 a30.881681962914406,30.881681962914406 0 0,0 -0.5220951053967368,0.1000607695461083 l -1.7763962276989964 -9.720702385033949" fill="#ff5808" stroke="none" /><path d="M 103.06178313531738 120.77559828337769 l 0.6101200744828916 4.139943624964512 a25.18466004869826,25.18466004869826 0 0,0 -0.4294241287675301,0.059514271325606855 l -0.5387673545285311 -4.149832461782721" fill="#ff0300" stroke="none" /><path d="M 102.70371172650421 120.8252237178851 l 1.0205131806052217 7.860459044068557 a28.9264281700693,28.9264281700693 0 0,0 -0.49432865806247217,0.05985631628545125 l -0.8850570994913692 -7.876860889079359" fill="#ff3b05" stroke="none" /><path d="M 102.34483914955558 120.86867818915974 l 1.3677276792556678 12.172548720112614 a33.249147780483234,33.249147780483234 0 0,0 -0.5693004634526165,0.05901032076602042 l -1.1579946191974488 -12.194288409334392" fill="#ff7a0b" stroke="none" /><path d="M 101.98527174616119 120.90594882070398 l 1.2517735168153272 13.181829202101119 a34.24113129799588,34.24113129799588 0 0,0 -0.5872446668538646,0.050669940852842016 l -1.024684532219921 -13.201423395232624" fill="#ff880c" stroke="none" /><path d="M 101.26447882468166 120.96189622390904 l 0.25881671841395776 4.2905338440696354 a25.29833302116501,25.29833302116501 0 0,0 -0.43490476523284916,0.02247960870329085 l -0.184923884767629 -4.294353259535128" fill="#ff0500" stroke="none" /><line stroke="#e1ed5e" stroke-width="0.3" x1="102.19456741930631" x2="102.32365962044197" y1="184.97166512339345" y2="189.96999836594603" /><path d="M 102.22038585953345 185.97133177190398 a86.0,86.0 0 0,1 -42.740103519485714,-10.115201625700543" fill="none" id="id7" stroke="none" /><text fill="#e1ed5e" style="font-size:6.75px; font-family:Arial;" text-anchor="middle"><textPath startOffset="22.20632615414155" xlink:href="#id7">July</textPath></text><path d="M 100.54218724476979 120.99299961872073 l 0.1029637848795832 3.9866646026261376 a24.987994006368233,24.987994006368233 0 0,0 -0.4300794429819947,0.0074042076406118365 l -0.034324652004920554 -3.987846287545909" fill="#ff0000" stroke="none" /><path d="M 99.81925306533755 120.99922214144158 l -0.10232734308123542 11.888415217216952 a32.88885559093463,32.88885559093463 0 0,0 -0.5660646744696511,-0.0097453167227156 l 0.30695170744355454 -11.884892423215078" fill="#ff750a" stroke="none" /><path d="M 99.45781275523022 120.99299961872073 l -0.5138034023061815 19.89400291644832 a40.900636823375166,40.900636823375166 0 0,0 -0.7036460803729583,-0.024234993737828017 l 0.8561698343537829 -19.882211124284396" fill="#ffe215" stroke="none" /><path d="M 99.09653310690486 120.98055641714683 l -0.36521113479638967 8.481033313258338 a29.488893051133168,29.488893051133168 0 0,0 -0.5069448686065537,-0.026203259176328892 l 0.5111440718164323 -8.473490247319807" fill="#ff4406" stroke="none" /><path d="M 98.73552117531835 120.96189622390904 l -0.5836875938242971 9.676080397794308 a30.6936692264469,30.6936692264469 0 0,0 -0.527108577685263,-0.03635249364434702 l 0.7501589322884902 -9.664599559633675" fill="#ff5507" stroke="none" /><path d="M 98.01472825383883 120.90594882070398 l -1.2133620968156087 12.777336878973431 a33.83481925454205,33.83481925454205 0 0,0 -0.5793284811273695,-0.06004976580009375 l 1.4331231745485713 -12.754557744717577" fill="#ff820c" stroke="none" /><path d="M 97.2962882734958 120.8252237178851 l -1.549911989162528 11.938130681955256 a33.03832178310545,33.03832178310545 0 0,0 -0.5633370678904466,-0.07807338447055925 l 1.7551776482398056 -11.909682731992092" fill="#ff770b" stroke="none" /><path d="M 96.93821686468263 120.77559828337769 l -1.7385468726405915 11.796835316704968 a32.92425547855404,32.92425547855404 0 0,0 -0.5599696797300143,-0.08745574761571764 l 1.9413524159791231 -11.765161261742145" fill="#ff750a" stroke="none" /><path d="M 96.58105272829116 120.7198165907248 l -3.2190871024823364 19.508605735140378 a40.772410563775985,40.772410563775985 0 0,0 -0.6914826646596511,-0.12022312472543585 l 3.554418738614037 -19.450304031893936" fill="#ffe115" stroke="none" /><path d="M 95.86986931433489 120.58985236759428 l -0.784175590196425 3.9093338349935043 a24.987207342198914,24.987207342198914 0 0,0 -0.42098511012877593,-0.08822152298904323 l 0.8513521617545877 -3.89525633127792" fill="#ff0000" stroke="none" /><path d="M 94.46302465271185 120.25689768951611 l -2.099155609748257 7.679712795158186 a28.961434725604043,28.961434725604043 0 0,0 -0.4797514508576357,-0.1355825521200849 l 2.2310382287105064 -7.64244144969958" fill="#ff3c05" stroke="none" /><path d="M 94.11515582081647 120.15858648285463 l -4.424820841527326 15.157263453225632 a36.789923206592995,36.789923206592995 0 0,0 -0.6063768147725426,-0.1826963601061072 l 4.685072630740114 -15.078851724013798" fill="#ffab0f" stroke="none" /><path d="M 93.76903079525671 120.05430185196036 l -2.352573089140575 7.5717291015511705 a28.928788162577263,28.928788162577263 0 0,0 -0.4742649655600584,-0.15184466517834616 l 2.482559399791574 -7.530111589713118" fill="#ff3b05" stroke="none" /><path d="M 92.40401165467489 119.57807347666478 l -4.70612666204653 12.129678113150735 a34.010638696385094,34.010638696385094 0 0,0 -0.5439741299271889,-0.21645853264461953 l 4.914221868015577 -12.046872736100049" fill="#ff850c" stroke="none" /><path d="M 92.06813273071674 119.44442032107085 l -4.520228386124975 11.081025148696416 a32.96752200786664,32.96752200786664 0 0,0 -0.5236004523461454,-0.21886503154594358 l 4.710300297968582 -11.001575074130498" fill="#ff760a" stroke="none" /><path d="M 91.7346041902142 119.30500536409082 l -4.940350460421133 11.538889889096577 a33.55201348567147,33.55201348567147 0 0,0 -0.5289703804147814,-0.2318850697673092 l 5.138241515493657 -11.452140266034815" fill="#ff7e0b" stroke="none" /><path d="M 90.7491055286396 118.85261126421891 l -3.5071615470089084 7.1473254279650655 a28.961434725604043,28.961434725604043 0 0,0 -0.44565592664189285,-0.22346113328352082 l 3.6296713813335617 -7.085896453772243" fill="#ff3c05" stroke="none" /><path d="M 90.10565033884886 118.52300852407294 l -7.5333454528150146 14.103021099523593 a36.98894924143098,36.98894924143098 0 0,0 -0.559021366770426,-0.3048230213244357 l 7.774989631454081 -13.97125742643939" fill="#ffae10" stroke="none" /><line stroke="#e1ed5e" stroke-width="0.3" x1="58.666819895761336" x2="56.23545636021788" y1="174.27360380694188" y2="178.64263932499728" /><path d="M 58.180547188652646 175.14741091055294 a86.0,86.0 0 0,1 -31.652253787137756,-30.449443065178592" fill="none" id="id8" stroke="none" /><text fill="#e1ed5e" style="font-size:6.75px; font-family:Arial;" text-anchor="middle"><textPath startOffset="22.20632615414155" xlink:href="#id8">August</textPath></text><path d="M 89.4739219176387 118.17145234162733 l -7.006279018783911 12.095128336100585 a34.97784229256415,34.97784229256415 0 0,0 -0.5183918249308683,-0.30627502756384595 l 7.213438714743161 -11.97273473624299" fill="#ff920d" stroke="none" /><path d="M 87.95078237400918 117.19931262002967 l -5.661710481049479 8.08164741896768 a30.86752200786664,30.86752200786664 0 0,0 -0.4325461039970575,-0.3086101603905451 l 5.799983912895423 -7.982992996732917" fill="#ff5808" stroke="none" /><path d="M 87.07902340077011 116.55440617244103 l -7.750649870143028 9.930163178096958 a33.59685334332272,33.59685334332272 0 0,0 -0.4528256003381559,-0.3597520434788867 l 7.920432963198542 -9.79527722061294" fill="#ff7f0b" stroke="none" /><path d="M 86.79598089348748 116.32954008644616 l -12.512285796137629 15.474066709001134 a40.89985015920584,40.89985015920584 0 0,0 -0.5436366627371721,-0.44737596283711883 l 12.776792587419491 -15.256395627306835" fill="#ffe215" stroke="none" /><path d="M 86.51685102203217 116.09983520530335 l -7.818408114045819 9.33573324819229 a33.17716800899045,33.17716800899045 0 0,0 -0.4346754432703101,-0.37043984283731535 l 7.977949033893186 -9.199769015132022" fill="#ff790b" stroke="none" /><path d="M 86.24171649860922 115.8653595955263 l -7.82487878853214 9.023256117590483 a32.94352875070238,32.94352875070238 0 0,0 -0.42521882810093176,-0.3752061764536795 l 7.979039969539659 -8.887226799364514" fill="#ff760a" stroke="none" /><path d="M 85.97065885151581 115.62618273729859 l -5.323476724613996 5.92940318552036 a28.968514703127926,28.968514703127926 0 0,0 -0.36817664883528045,-0.3363206393269389 l 5.424752922916131 -5.836889779606845" fill="#ff3c05" stroke="none" /><path d="M 85.70375840098266 115.38237550388516 l -8.137263269386361 8.755478726120362 a32.95296872073422,32.95296872073422 0 0,0 -0.4121697158751029,-0.389732192696435 l 8.28676881965228 -8.614111896677995" fill="#ff760a" stroke="none" /><path d="M 85.18274418774928 114.88116024355367 l -8.572305628934267 8.60927659866802 a33.149241430979586,33.149241430979586 0 0,0 -0.40088383969975216,-0.40609321311664254 l 8.719230093689552 -8.460442891570711" fill="#ff790b" stroke="none" /><path d="M 84.9287848128048 114.62390073753433 l -8.629745635657319 8.373614336901326 a33.02455516014235,33.02455516014235 0 0,0 -0.3923528645752266,-0.4113804099010434 l 8.772605051611503 -8.223826810417783" fill="#ff770a" stroke="none" /><path d="M 83.95833913139862 113.55231037782056 l -10.600596312139459 8.955592104137244 a34.87714927889118,34.87714927889118 0 0,0 -0.383489203847916,-0.4619374502803088 l 10.753181515880911 -8.771793396743174" fill="#ff910d" stroke="none" /><path d="M 83.28015986056508 112.70617746262583 l -5.190697702025357 3.9446505233755986 a27.519479303240306,27.519479303240306 0 0,0 -0.28337034979730985,-0.3796208912742324 l 5.257829318517752 -3.8547167525920587" fill="#ff2603" stroke="none" /><path d="M 82.85270091963577 112.12312394758628 l -9.914858024160406 7.009795081212514 a33.14255478554036,33.14255478554036 0 0,0 -0.32533219894383664,-0.46866529700056436 l 10.034051130266377 -6.838088522024937" fill="#ff780b" stroke="none" /><path d="M 82.6465618267979 111.8261652097733 l -10.285950635496414 7.009755089501512 a33.4473871511519,33.4473871511519 0 0,0 -0.32013433092888427,-0.4785573883422704 l 10.405088071836028 -6.831660786953421" fill="#ff7d0b" stroke="none" /><path d="M 82.05923443525364 110.91462005526583 l -10.292669961569231 6.261749621516996 a33.047761753137294,33.047761753137294 0 0,0 -0.2914798805737883,-0.4885370457330763 l 10.398930717841251 -6.083650481897808" fill="#ff770b" stroke="none" /><line stroke="#e1ed5e" stroke-width="0.3" x1="26.63291911575756" x2="22.317208475507996" y1="142.92168965132927" y2="145.44649492493687" /><path d="M 25.769776987707644 143.4266507060508 a86.0,86.0 0 0,1 -11.730757126820373,-40.83630448921669" fill="none" id="id9" stroke="none" /><text fill="#e1ed5e" style="font-size:6.75px; font-family:Arial;" text-anchor="middle"><textPath startOffset="21.46611528233685" xlink:href="#id9">September</textPath></text><path d="M 80.45479744820244 107.68017299344265 l -5.7167612483399655 2.2463678866004955 a27.14227383405132,27.14227383405132 0 0,0 -0.16712625102772638,-0.43631390423508354 l 5.754581778961201 -2.1476304155322543" fill="#ff2103" stroke="none" /><path d="M 79.18660465613746 102.79330883721812 l -20.06607788976656 2.693013406595401 a41.24598239370668,41.24598239370668 0 0,0 -0.08838128368323216,-0.7044857900760342 l 20.10946068269664 -2.347209862231958" fill="#ffe715" stroke="none" /><line stroke="#e1ed5e" stroke-width="0.3" x1="15.007084014347285" x2="10.007500721073583" y1="101.09737516637583" y2="101.16192664675087" /><path d="M 14.007167355692545 101.11028546245083 a86.0,86.0 0 0,1 10.666146001902534,-42.60595125391555" fill="none" id="id10" stroke="none" /><text fill="#e1ed5e" style="font-size:6.75px; font-family:Arial;" text-anchor="middle"><textPath startOffset="22.20632615414155" xlink:href="#id10">October</textPath></text><path d="M 81.10775173730289 90.83032412892265 l -18.02884527035808 -8.750608459100777 a41.04026971342948,41.04026971342948 0 0,0 0.3139384950073218,-0.6328808491481243 l 17.875546762397345 9.059648896747863" fill="#ffe415" stroke="none" /><line stroke="#e1ed5e" stroke-width="0.3" x1="26.266209847984243" x2="21.928928074336255" y1="57.711370442889674" y2="55.22380399835377" /><path d="M 25.398753493254645 57.213857153982495 a86.0,86.0 0 0,1 29.58750427330803,-30.492523968695096" fill="none" id="id11" stroke="none" /><text fill="#e1ed5e" style="font-size:6.75px; font-family:Arial;" text-anchor="middle"><textPath startOffset="21.46611528233685" xlink:href="#id11">November</textPath></text><path d="M 81.78341655067845 89.55222093294921 l -9.953440201978047 -5.708608558606584 a32.47428357370294,32.47428357370294 0 0,0 0.28227934737555777,-0.4825069068596738 l 9.853701180132164 5.87909487782015" fill="#ff6f0a" stroke="none" /><path d="M 86.93701828274178 83.55741782278169 l -12.279056011656143 -15.455842463867357 a40.739764000749204,40.739764000749204 0 0,0 0.5528336405095959,-0.4314954253196401 l 12.011189815987121 15.66491627841022" fill="#ffe015" stroke="none" /><path d="M 87.51073957382395 83.11751280151077 l -8.144101924280182 -11.00887416773558 a34.69385652743959,34.69385652743959 0 0,0 0.4831609921523634,-0.3510370086719575 l 7.953395615774037 11.147430411224207" fill="#ff8e0d" stroke="none" /><line stroke="#e1ed5e" stroke-width="0.3" x1="56.762969772571076" x2="54.21961505331055" y1="26.818313649435495" y2="22.513508569990535" /><path d="M 56.25429882871897 25.957352633546506 a86.0,86.0 0 0,1 42.265352541879196,-11.944610805530505" fill="none" id="id12" stroke="none" /><text fill="#e1ed5e" style="font-size:6.75px; font-family:Arial;" text-anchor="middle"><textPath startOffset="22.20632615414155" xlink:href="#id12">December</textPath></text><path d="M 91.23893434514133 80.91482961587045 l -8.260738080749963 -17.995253086860195 a40.80073047387151,40.80073047387151 0 0,0 0.6408004995190677,-0.2875085052479853 l 7.94975546276412 18.134781922624708" fill="#ffe115" stroke="none" /><path d="M 92.57280143429618 80.3572730644239 l -7.036015153702333 -18.608163381673887 a40.89395017793595,40.89395017793595 0 0,0 0.660569079491993,-0.24329316674868473 l 6.714663748437771 18.72651981622889" fill="#ffe215" stroke="none" /><path d="M 92.91201910852362 80.23233633223022 l -7.292296354896163 -20.337478883815812 a42.60533807829181,42.60533807829181 0 0,0 0.6924746956708933,-0.24159082422250241 l 6.941139655161984 20.459990561210525" fill="#fff817" stroke="none" /><path d="M 93.59665428221793 80.00007090966166 l -6.025789390387845 -18.82068622132944 a40.76179059749016,40.76179059749016 0 0,0 0.6700745880359947,-0.20819543625874026 l 5.700929429641122 18.921621792470706" fill="#ffe015" stroke="none" /><path d="M 93.94186890950719 79.89281104454417 l -5.706829838270183 -18.94120549401938 a40.78224386589248,40.78224386589248 0 0,0 0.6738970268882708,-0.19672902162190725 l 5.379942593658491 19.036632844559982" fill="#ffe115" stroke="none" /><path d="M 94.28887869178378 79.79150937346287 l -5.369245606754172 -18.99878214100775 a40.74291065742648,40.74291065742648 0 0,0 0.6765304259720907,-0.18492132150307095 l 5.041417291558359 19.088390003337118" fill="#ffe015" stroke="none" /><path d="M 94.63758080256005 79.69619591428918 l -10.071886770932398 -38.13532814967214 a60.44294811762502,60.44294811762502 0 0,0 1.0082203555846567,-0.2570178176011793 l 9.413957526662742 38.30304896344218" fill="#38ff2e" stroke="none" /><path d="M 95.33964822691252 79.52364482259891 l -4.379805404878022 -19.243708510606428 a40.735830679902605,40.735830679902605 0 0,0 0.6850549996313252,-0.1497264891590806 l 4.047907681093176 19.316248497861377" fill="#ffe015" stroke="none" /><path d="M 95.692805502759 79.44645832069477 l -4.0519413901184995 -19.33549699166106 a40.75549728413561,40.75549728413561 0 0,0 0.6878627255413597,-0.1379787916670489 l 3.718512255110004 19.402379739405323" fill="#ffe015" stroke="none" /><path d="M 96.40284397218896 79.31037775812273 l -3.7346685854578285 -21.480547864572006 a42.80279078479116,42.80279078479116 0 0,0 0.7269764461277454,-0.11995734258563122 l 3.3643629331911975 21.541651470097264" fill="#fffb17" stroke="none" /><path d="M 97.11714578562143 79.19881850522333 l -8.648562643135705 -62.403544484330034 a84.0,84.0 0 0,0 1.433941085968569,-0.1861667073434532 l 7.573106828659279 62.54316951483762" fill="#4dd2ff" stroke="none" /></svg>