<?xml version="1.0" encoding="utf-8" ?>
<svg baseProfile="full" height="200mm" version="1.1" viewBox="0,0,200,200" width="200mm" xmlns="http://www.w3.org/2000/svg" xmlns:ev="http://www.w3.org/2001/xml-events" xmlns:xlink="http://www.w3.org/1999/xlink"><defs /><rect fill="#1a1a1a" height="200" width="200" x="0" y="0" /><text alignment-baseline="middle" fill="#e1ed5e" style="dominant-baseline: central; font-size:9.0px; font-family:Arial;" text-anchor="middle" x="100.0" y="100.0">2025</text><line stroke="#e1ed5e" stroke-width="0.3" x1="100.0" x2="100.0" y1="15.0" y2="10.0" /><path d="M 100.0 14.0 a86.0,86.0 0 0,1 42.46469731375804,11.215312516191453" fill="none" id="id25" stroke="none" /><text fill="#e1ed5e" style="font-size:6.75px; font-family:Arial;" text-anchor="middle"><textPath startOffset="22.20632615414155" xlink:href="#id25">January</textPath></text><path d="M 100.0 79.0 l 0.0 -63.0 a84.0,84.0 0 0,0 1.4459219170901134,0.012445506434235476 l -1.084441437817585 62.990665870174325" fill="#4dd2ff" stroke="none" /><path d="M 101.44485096284872 79.0497635885617 l 0.37523889611885813 -5.440937360734787 a26.453861347027456,26.453861347027456 0 0,0 0.45401100755795465,0.03523999215646694 l -0.4688400930391539 5.433672106389856" fill="#ff0000" stroke="none" /><path d="M 102.16513564639614 79.11191278185805 l 0.9249828961396075 -8.92374731440668 a29.971558364605965,29.971558364605965 0 0,0 0.5127038910603842,0.05760825601845516 l -1.078453490709717 8.906503104917624" fill="#ff3605" stroke="none" /><path d="M 102.88285421437855 79.19881850522331 l 2.202283110342223 -15.890533226628971 a37.04241556389492,37.04241556389492 0 0,0 0.6308341355000557,0.09296855334375399 l -2.4754862262709345 15.850270189124249" fill="#ff9e0e" stroke="none" /><path d="M 105.01212808612495 79.60689891045804 l 3.5065840022653862 -14.267417114724134 a35.692015603397195,35.692015603397195 0 0,0 0.5953617052754967,0.15177095495606607 l -3.751654596225908 14.2049431635992" fill="#ff8b0c" stroke="none" /><path d="M 105.36241919743992 79.69619591428918 l 7.955137758445865 -30.12065125371711 a52.1534564487458,52.1534564487458 0 0,0 0.86600096895033,0.2367107781902479 l -8.472436616619905 29.97925393470057" fill="#9bff22" stroke="none" /><path d="M 105.71112130821622 79.79150937346287 l 4.016763706193921 -14.213098851333534 a35.769785700177756,35.769785700177756 0 0,0 0.5910697879951596,0.17254947931656525 l -4.260823711912508 14.141851043098265" fill="#ff8c0c" stroke="none" /><path d="M 106.74666289553966 80.11325718540242 l 9.97278170586434 -29.39618415821029 a52.04177858976892,52.04177858976892 0 0,0 0.8458474082496552,0.2950995520890744 l -10.477311118177271 29.220163752949006" fill="#9cff22" stroke="none" /><line stroke="#e1ed5e" stroke-width="0.3" x1="143.23703022742887" x2="145.7803849466894" y1="26.81831364943548" y2="22.513508569990506" /><path d="M 143.74570117128098 25.957352633546492 a86.0,86.0 0 0,1 28.547481713284135,27.462654790039103" fill="none" id="id26" stroke="none" /><text fill="#e1ed5e" style="font-size:6.75px; font-family:Arial;" text-anchor="middle"><textPath startOffset="19.985693538727396" xlink:href="#id26">February</textPath></text><path d="M 111.60114157652 82.49532879139004 l 5.79449869164184 -8.743173570194216 a31.489008492988347,31.489008492988347 0 0,0 0.44923614868056394,0.30332625293607374 l -5.944139534728945 8.642135404959472" fill="#ff4d07" stroke="none" /><path d="M 111.90073688211348 82.69761687909136 l 8.845517091599726 -12.860424286115622 a36.608769504246496,36.608769504246496 0 0,0 0.5161293651603358,0.3615816039496251 l -9.065577596343713 12.706257839402062" fill="#ff980e" stroke="none" /><path d="M 112.19680574252982 82.90503203632743 l 11.018680550275384 -15.443714935303213 a39.97154848903812,39.97154848903812 0 0,0 0.5566603127719447,0.40443739088158115 l -11.282886179401117 15.251758309604957" fill="#ffc712" stroke="none" /><path d="M 112.77801427241765 83.33499621200491 l 18.97716833265519 -24.74990052498061 a52.18798637171638,52.18798637171638 0 0,0 0.7081846251296423,0.5527493329520755 l -19.40038551294426 24.419572802805313" fill="#9bff22" stroke="none" /><path d="M 113.6212207817346 84.01681056812373 l 6.46409385192055 -7.584990963454298 a30.965771281848706,30.965771281848706 0 0,0 0.40271162698851526,0.3492275545381711 l -6.59369927755583 7.4725984154964555" fill="#ff4606" stroke="none" /><path d="M 115.4437574822437 85.77008943001954 l 7.884918211283002 -7.265180195115743 a31.721696622555797,31.721696622555797 0 0,0 0.3665462579005708,0.4047495330045136 l -8.008808109799608 7.12837787484168" fill="#ff5107" stroke="none" /><path d="M 115.68641384162765 86.03803664274999 l 14.16494323580556 -12.607752186864564 a39.96314931858582,39.96314931858582 0 0,0 0.4529311759465141,0.5177786311774271 l -14.37986627532992 12.36205799948419" fill="#ffc712" stroke="none" /><path d="M 116.15771136456269 86.58626213691792 l 23.96490495324175 -19.895079550776597 a52.14692376061623,52.14692376061623 0 0,0 0.5674119387084454,0.6955799453137177 l -24.303815384026603 19.47961543585478" fill="#9bff22" stroke="none" /><path d="M 116.82858285166822 87.43820079747576 l 6.844692860333607 -5.109263095551672 a29.54133418921588,29.54133418921588 0 0,0 0.3006708377364234,0.4101146847717978 l -6.931626310583657 4.990685967108381" fill="#ff3004" stroke="none" /><path d="M 117.2510076193507 88.02491185347247 l 12.832715528652985 -8.908053547118898 a36.62152380011851,36.62152380011851 0 0,0 0.3550117274111583,0.5209359038295837 l -12.984151721732877 8.685839620018909" fill="#ff980e" stroke="none" /><line stroke="#e1ed5e" stroke-width="0.3" x1="172.23445277983987" x2="176.4835382374775" y1="55.19839476539836" y2="52.563006222186495" /><path d="M 173.08426987136738 54.67131705675599 a86.0,86.0 0 0,1 12.851231095245387,41.99856678651699" fill="none" id="id27" stroke="none" /><text fill="#e1ed5e" style="font-size:6.75px; font-family:Arial;" text-anchor="middle"><textPath startOffset="22.20632615414155" xlink:href="#id27">March</textPath></text><line stroke="#e1ed5e" stroke-width="0.3" x1="184.98032266829074" x2="189.97916517819016" y1="98.17113171792111" y2="98.06355123074" /><path d="M 185.9800911702706 98.14961562048488 a86.0,86.0 0 0,1 -9.607161424134198,41.387399972396054" fill="none" id="id28" stroke="none" /><text fill="#e1ed5e" style="font-size:6.75px; font-family:Arial;" text-anchor="middle"><textPath startOffset="21.466115282336823" xlink:href="#id28">April</textPath></text><line stroke="#e1ed5e" stroke-width="0.3" x1="174.80103733775053" x2="179.2010983576182" y1="140.37084112569926" y2="142.7455964860345" /><path d="M 175.68104954172406 140.8457921977663 a86.0,86.0 0 0,1 -30.038265399797805,32.042727171017184" fill="none" id="id29" stroke="none" /><text fill="#e1ed5e" style="font-size:6.75px; font-family:Arial;" text-anchor="middle"><textPath startOffset="22.206326154141568" xlink:href="#id29">May</textPath></text><line stroke="#e1ed5e" stroke-width="0.3" x1="143.8653032363475" x2="146.44561519142675" y1="172.8068346515853" y2="177.08958963109032" /><path d="M 144.38136562736335 173.6633856474863 a86.0,86.0 0 0,1 -40.68145358897372,12.25698825130547" fill="none" id="id30" stroke="none" /><text fill="#e1ed5e" style="font-size:6.75px; font-family:Arial;" text-anchor="middle"><textPath startOffset="21.466115282336833" xlink:href="#id30">June</textPath></text><line stroke="#e1ed5e" stroke-width="0.3" x1="102.19456741930631" x2="102.32365962044197" y1="184.97166512339345" y2="189.96999836594603" /><path d="M 102.22038585953345 185.97133177190398 a86.0,86.0 0 0,1 -42.740103519485714,-10.115201625700543" fill="none" id="id31" stroke="none" /><text fill="#e1ed5e" style="font-size:6.75px; font-family:Arial;" text-anchor="middle"><textPath startOffset="22.20632615414155" xlink:href="#id31">July</textPath></text><line stroke="#e1ed5e" stroke-width="0.3" x1="58.666819895761336" x2="56.23545636021788" y1="174.27360380694188" y2="178.64263932499728" /><path d="M 58.180547188652646 175.14741091055294 a86.0,86.0 0 0,1 -31.652253787137756,-30.449443065178592" fill="none" id="id32" stroke="none" /><text fill="#e1ed5e" style="font-size:6.75px; font-family:Arial;" text-anchor="middle"><textPath startOffset="22.20632615414155" xlink:href="#id32">August</textPath></text><line stroke="#e1ed5e" stroke-width="0.3" x1="26.63291911575756" x2="22.317208475507996" y1="142.92168965132927" y2="145.44649492493687" /><path d="M 25.769776987707644 143.4266507060508 a86.0,86.0 0 0,1 -11.730757126820373,-40.83630448921669" fill="none" id="id33" stroke="none" /><text fill="#e1ed5e" style="font-size:6.75px; font-family:Arial;" text-anchor="middle"><textPath startOffset="21.46611528233685" xlink:href="#id33">September</textPath></text><line stroke="#e1ed5e" stroke-width="0.3" x1="15.007084014347285" x2="10.007500721073583" y1="101.09737516637583" y2="101.16192664675087" /><path d="M 14.007167355692545 101.11028546245083 a86.0,86.0 0 0,1 10.666146001902534,-42.60595125391555" fill="none" id="id34" stroke="none" /><text fill="#e1ed5e" style="font-size:6.75px; font-family:Arial;" text-anchor="middle"><textPath startOffset="22.20632615414155" xlink:href="#id34">October</textPath></text><line stroke="#e1ed5e" stroke-width="0.3" x1="26.266209847984243" x2="21.928928074336255" y1="57.711370442889674" y2="55.22380399835377" /><path d="M 25.398753493254645 57.213857153982495 a86.0,86.0 0 0,1 29.58750427330803,-30.492523968695096" fill="none" id="id35" stroke="none" /><text fill="#e1ed5e" style="font-size:6.75px; font-family:Arial;" text-anchor="middle"><textPath startOffset="21.46611528233685" xlink:href="#id35">November</textPath></text><line stroke="#e1ed5e" stroke-width="0.3" x1="56.762969772571076" x2="54.21961505331055" y1="26.818313649435495" y2="22.513508569990535" /><path d="M 56.25429882871897 25.957352633546506 a86.0,86.0 0 0,1 42.265352541879196,-11.944610805530505" fill="none" id="id36" stroke="none" /><text fill="#e1ed5e" style="font-size:6.75px; font-family:Arial;" text-anchor="middle"><textPath startOffset="22.20632615414155" xlink:href="#id36">December</textPath></text></svg>