<?xml version="1.0" encoding="utf-8" ?>
<svg baseProfile="full" height="200mm" version="1.1" viewBox="0,0,200,200" width="200mm" xmlns="http://www.w3.org/2000/svg" xmlns:ev="http://www.w3.org/2001/xml-events" xmlns:xlink="http://www.w3.org/1999/xlink"><defs /><rect fill="#1a1a1a" height="200" width="200" x="0" y="0" /><text alignment-baseline="middle" fill="#e1ed5e" style="dominant-baseline: central; font-size:9.0px; font-family:Arial;" text-anchor="middle" x="100.0" y="100.0">2023</text><line stroke="#e1ed5e" stroke-width="0.3" x1="100.0" x2="100.0" y1="15.0" y2="10.0" /><path d="M 100.0 14.0 a86.0,86.0 0 0,1 42.46469731375804,11.215312516191453" fill="none" id="id1" stroke="none" /><text fill="#e1ed5e" style="font-size:6.75px; font-family:Arial;" text-anchor="middle"><textPath startOffset="22.20632615414155" xlink:href="#id1">January</textPath></text><line stroke="#e1ed5e" stroke-width="0.3" x1="143.23703022742887" x2="145.7803849466894" y1="26.81831364943548" y2="22.513508569990506" /><path d="M 143.74570117128098 25.957352633546492 a86.0,86.0 0 0,1 28.547481713284135,27.462654790039103" fill="none" id="id2" stroke="none" /><text fill="#e1ed5e" style="font-size:6.75px; font-family:Arial;" text-anchor="middle"><textPath startOffset="19.985693538727396" xlink:href="#id2">February</textPath></text><line stroke="#e1ed5e" stroke-width="0.3" x1="172.23445277983987" x2="176.4835382374775" y1="55.19839476539836" y2="52.563006222186495" /><path d="M 173.08426987136738 54.67131705675599 a86.0,86.0 0 0,1 12.851231095245387,41.99856678651699" fill="none" id="id3" stroke="none" /><text fill="#e1ed5e" style="font-size:6.75px; font-family:Arial;" text-anchor="middle"><textPath startOffset="22.20632615414155" xlink:href="#id3">March</textPath></text><line stroke="#e1ed5e" stroke-width="0.3" x1="184.98032266829074" x2="189.97916517819016" y1="98.17113171792111" y2="98.06355123074" /><path d="M 185.9800911702706 98.14961562048488 a86.0,86.0 0 0,1 -9.607161424134198,41.387399972396054" fill="none" id="id4" stroke="none" /><text fill="#e1ed5e" style="font-size:6.75px; font-family:Arial;" text-anchor="middle"><textPath startOffset="21.466115282336823" xlink:href="#id4">April</textPath></text><line stroke="#e1ed5e" stroke-width="0.3" x1="174.80103733775053" x2="179.2010983576182" y1="140.37084112569926" y2="142.7455964860345" /><path d="M 175.68104954172406 140.8457921977663 a86.0,86.0 0 0,1 -30.038265399797805,32.042727171017184" fill="none" id="id5" stroke="none" /><text fill="#e1ed5e" style="font-size:6.75px; font-family:Arial;" text-anchor="middle"><textPath startOffset="22.206326154141568" xlink:href="#id5">May</textPath></text><line stroke="#e1ed5e" stroke-width="0.3" x1="143.8653032363475" x2="146.44561519142675" y1="172.8068346515853" y2="177.08958963109032" /><path d="M 144.38136562736335 173.6633856474863 a86.0,86.0 0 0,1 -40.68145358897372,12.25698825130547" fill="none" id="id6" stroke="none" /><text fill="#e1ed5e" style="font-size:6.75px; font-family:Arial;" text-anchor="middle"><textPath startOffset="21.466115282336833" xlink:href="#id6">June</textPath></text><path d="M 104.83641907484287 120.43548508189849 l 4.810698163489886 20.32680564529204 a41.888318375629986,41.888318375629986 0 0,0 -0.7030851525345851,0.1600198916681401 l -4.460092861562439 -20.406602270537864" fill="#ff910d" stroke="none" /><path d="M 104.48393922423573 120.51570834832081 l 5.910476374497687 27.042652327541994 a48.68101833173425,48.68101833173425 0 0,0 -0.8201790453371692,0.17187649340189076 l -5.444105867731141 -27.140384801670425" fill="#fffb17" stroke="none" /><path d="M 104.13013068566511 120.58985236759428 l 6.047516555240483 30.148555224937596 a51.7491111845045,51.7491111845045 0 0,0 -0.8748862089347013,0.16767402418906235 l -5.527662731734077 -30.248186447475124" fill="#d6ff1c" stroke="none" /><path d="M 103.06178313531738 120.77559828337769 l 1.8985280113831478 12.882380479291395 a34.0215258485031,34.0215258485031 0 0,0 -0.5801016995498652,0.08039680965888664 l -1.6764977206464522 -12.913151854442885" fill="#ff0b01" stroke="none" /><path d="M 102.70371172650421 120.8252237178851 l 3.175559927292724 24.459614265507373 a45.66489227361918,45.66489227361918 0 0,0 -0.780375122205468,0.09449255950304425 l -2.754057382035876 -24.510652353735768" fill="#ffcd13" stroke="none" /><path d="M 102.34483914955558 120.86867818915974 l 4.255997171067945 37.87766651449182 a59.116021992112366,59.116021992112366 0 0,0 -1.0121997393671396,0.104918641620443 l -3.6033648350952032 -37.945314524568026" fill="#72ff27" stroke="none" /><path d="M 101.98527174616119 120.90594882070398 l 3.89517930154277 41.01827333360279 a62.202805354263404,62.202805354263404 0 0,0 -1.0667949428930867,0.09204755651183306 l -3.1885400409081415 -41.07924514239329" fill="#4bff2c" stroke="none" /><path d="M 101.26447882468166 120.96189622390904 l 0.8053673535322136 13.350976352740924 a34.375245274221434,34.375245274221434 0 0,0 -0.5909463664384327,0.030545177114937053 l -0.5754329186803012 -13.362861336618064" fill="#ff1101" stroke="none" /><line stroke="#e1ed5e" stroke-width="0.3" x1="102.19456741930631" x2="102.32365962044197" y1="184.97166512339345" y2="189.96999836594603" /><path d="M 102.22038585953345 185.97133177190398 a86.0,86.0 0 0,1 -42.740103519485714,-10.115201625700543" fill="none" id="id7" stroke="none" /><text fill="#e1ed5e" style="font-size:6.75px; font-family:Arial;" text-anchor="middle"><textPath startOffset="22.20632615414155" xlink:href="#id7">July</textPath></text><path d="M 100.54218724476979 120.99299961872073 l 0.3203953417162949 12.405417780246513 a33.40955452373089,33.40955452373089 0 0,0 -0.5750266546478624,0.009899605338908078 l -0.10680899717576452 -12.40909486286458" fill="#ff0000" stroke="none" /><path d="M 99.81925306533755 120.99922214144158 l -0.31841490764714464 36.99352020169096 a57.99489052512968,57.99489052512968 0 0,0 -0.9981757721925545,-0.017184501142155598 l 0.955150369732367 -36.98255822326965" fill="#81ff25" stroke="none" /><path d="M 99.45781275523022 120.99299961872073 l -1.5988166795675613 61.90473543658864 a82.9253783537,82.9253783537 0 0,0 -1.4266310251843763,-0.049136057068929914 l 2.664168056426581 -61.86804258109361" fill="#4bdeff" stroke="none" /><path d="M 99.09653310690486 120.98055641714683 l -1.136437888996906 26.390672892285053 a47.4151302624677,47.4151302624677 0 0,0 -0.815115607737119,-0.04213216633776267 l 1.590541565147514 -26.367200919185088" fill="#ffe815" stroke="none" /><path d="M 98.73552117531835 120.96189622390904 l -1.8162773085469595 30.109334938991587 a51.16406659802226,51.16406659802226 0 0,0 -0.878650844058748,-0.060596906551040546 l 2.3342909133846375 -30.07360968792426" fill="#dfff1b" stroke="none" /><path d="M 98.01472825383883 120.90594882070398 l -3.7756533920104918 39.759603052186094 a60.93847259728401,60.93847259728401 0 0,0 -1.0434042075536485,-0.10815311233533778 l 4.4594901961697335 -39.688720571394995" fill="#5bff2a" stroke="none" /><path d="M 97.2962882734958 120.8252237178851 l -4.822905276633615 37.14822122916428 a58.45998873195656,58.45998873195656 0 0,0 -0.996802405926365,-0.1381477305771793 l 5.4616362737468105 -37.059698933094495" fill="#7bff26" stroke="none" /><path d="M 96.93821686468263 120.77559828337769 l -5.409885815686738 36.708548417163065 a58.10504536358867,58.10504536358867 0 0,0 -0.9882399212987659,-0.15434275152638954 l 6.040961600594021 -36.609987358289565" fill="#7fff26" stroke="none" /><path d="M 96.58105272829116 120.7198165907248 l -10.016925013202956 60.70548405178315 a82.5263730499485,82.5263730499485 0 0,0 -1.3996120305914503,-0.24334049184564466 l 11.060386015266456 -60.5240649814165" fill="#4be3ff" stroke="none" /><path d="M 95.86986931433489 120.58985236759428 l -2.440141516557445 12.164785428300458 a33.4071066384318,33.4071066384318 0 0,0 -0.5628437894102946,-0.11794938849858959 l 2.6491767673971265 -12.120980059075327" fill="#ff0000" stroke="none" /><path d="M 94.46302465271185 120.25689768951611 l -6.532002292723919 23.897181015299022 a45.773823169428624,45.773823169428624 0 0,0 -0.7582517332064331,-0.2142895137759846 l 6.942385194034967 -23.781202708184516" fill="#ffcf13" stroke="none" /><path d="M 94.11515582081647 120.15858648285463 l -13.768841027090549 47.16528835123559 a70.13395372331125,70.13395372331125 0 0,0 -1.155957929766082,-0.34828064177103035 l 14.578673931296876 -46.92129234035883" fill="#38ff80" stroke="none" /><path d="M 93.76903079525671 120.05430185196036 l -7.320568680427522 23.561165080633554 a45.67223592951645,45.67223592951645 0 0,0 -0.748760759643007,-0.23972955015223182 l 7.72505078516147 -23.431662683821617" fill="#ffcd13" stroke="none" /><path d="M 92.40401165467489 119.57807347666478 l -14.64418836011098 37.74426482589616 a61.48557496163037,61.48557496163037 0 0,0 -0.9834147027171467,-0.3913210055775829 l 15.291724138869986 -37.48659697591251" fill="#54ff2b" stroke="none" /><path d="M 92.06813273071674 119.44442032107085 l -14.065723400727315 34.481141531807054 a58.23967905503856,58.23967905503856 0 0,0 -0.9249807216458679,-0.38664201666613185 l 14.657175581870645 -34.23391447212095" fill="#7dff26" stroke="none" /><path d="M 91.7346041902142 119.30500536409082 l -15.37302922397476 35.905892284044036 a60.05845783226157,60.05845783226157 0 0,0 -0.9468625571524539,-0.4150767193300756 l 15.988812455784956 -35.63595101141951" fill="#66ff29" stroke="none" /><path d="M 90.7491055286396 118.85261126421891 l -10.91333446631082 22.24053608293988 a45.773823169428624,45.773823169428624 0 0,0 -0.7043634327438657,-0.3531824475227777 l 11.294551806737445 -22.049385794507803" fill="#ffcf13" stroke="none" /><path d="M 90.10565033884886 118.52300852407294 l -23.441725587733 43.88477239544409 a70.75326870398072,70.75326870398072 0 0,0 -1.0693082605891389,-0.5830721222750982 l 24.19365666019078 -43.47475962140922" fill="#39ff88" stroke="none" /><line stroke="#e1ed5e" stroke-width="0.3" x1="58.666819895761336" x2="56.23545636021788" y1="174.27360380694188" y2="178.64263932499728" /><path d="M 58.180547188652646 175.14741091055294 a86.0,86.0 0 0,1 -31.652253787137756,-30.449443065178592" fill="none" id="id8" stroke="none" /><text fill="#e1ed5e" style="font-size:6.75px; font-family:Arial;" text-anchor="middle"><textPath startOffset="22.20632615414155" xlink:href="#id8">August</textPath></text><path d="M 89.4739219176387 118.17145234162733 l -21.801637954629008 37.63675530070582 a64.49524993686009,64.49524993686009 0 0,0 -0.9558568545907414,-0.5647370780314902 l 22.446262680248132 -37.25589965038058" fill="#30ff2f" stroke="none" /><path d="M 87.95078237400918 117.19931262002967 l -17.61770574378208 25.14789243090656 a51.70504924912089,51.70504924912089 0 0,0 -0.724542047916367,-0.5169415134038178 l 18.04797511954733 -24.84090665565852" fill="#d7ff1c" stroke="none" /><path d="M 87.07902340077011 116.55440617244103 l -24.117917931746906 30.89997156248498 a60.197987294309634,60.197987294309634 0 0,0 -0.81136139319762,-0.644594561316204 l 24.646236817661883 -30.480243087163643" fill="#64ff29" stroke="none" /><path d="M 86.79598089348748 116.32954008644616 l -38.93483604933392 48.151094064474826 a82.92293046840092,82.92293046840092 0 0,0 -1.1022031867782123,-0.9070381851075382 l 39.75790936465682 -47.4737607605101" fill="#4bdeff" stroke="none" /><path d="M 86.51685102203217 116.09983520530335 l -24.328763188986823 29.05026702082565 a58.892040487245744,58.892040487245744 0 0,0 -0.7715825472791927,-0.6575593859172179 l 24.825211212843072 -28.627183244685483" fill="#75ff27" stroke="none" /><path d="M 86.24171649860922 115.8653595955263 l -24.348898171064306 28.077923034493185 a58.16501855341635,58.16501855341635 0 0,0 -0.7507653843920813,-0.662463161731555 l 24.828605908362974 -27.654636730989342" fill="#7eff26" stroke="none" /><path d="M 85.97065885151581 115.62618273729859 l -16.56521413131979 18.4506927559069 a45.79585413712043,45.79585413712043 0 0,0 -0.5820444810356025,-0.5316838332845734 l 16.880358161822247 -18.162816156035753" fill="#ffcf13" stroke="none" /><path d="M 85.70375840098266 115.38237550388516 l -25.320953856538644 27.244672499421025 a58.19439317700542,58.19439317700542 0 0,0 -0.7278848441414697,-0.6882605524170038 l 25.78617453507093 -26.804777310258093" fill="#7eff26" stroke="none" /><path d="M 85.18274418774928 114.88116024355367 l -26.674687556318872 26.78973117573595 a58.80514055912809,58.80514055912809 0 0,0 -0.7111484161865562,-0.7203895910304225 l 27.131876597560964 -26.326601090724864" fill="#76ff27" stroke="none" /><path d="M 84.9287848128048 114.62390073753433 l -26.853425261073426 26.056414204368995 a58.4171507392225,58.4171507392225 0 0,0 -0.6940331617401859,-0.7276909953765689 l 27.29796497419257 -25.590316092409928" fill="#7bff26" stroke="none" /><path d="M 83.95833913139862 113.55231037782056 l -32.98617743895589 27.867370996826722 a64.18192061857673,64.18192061857673 0 0,0 -0.7057077240640419,-0.8500704150893001 l 33.46098116291347 -27.29543932462366" fill="#33ff2f" stroke="none" /><path d="M 83.28015986056508 112.70617746262583 l -16.152041865315827 12.274681373323292 a41.286849416198784,41.286849416198784 0 0,0 -0.42513409618617104,-0.5695365962624492 l 16.360937228197084 -11.994831897551533" fill="#ff870c" stroke="none" /><path d="M 82.85270091963577 112.12312394758628 l -30.85234607910501 21.812578986222064 a58.784333534085825,58.784333534085825 0 0,0 -0.5770356756092859,-0.8312629280695142 l 31.22324266187643 -21.278274795965537" fill="#76ff27" stroke="none" /><path d="M 82.6465618267979 111.8261652097733 l -32.00708552614886 21.812454542876015 a59.732889087482754,59.732889087482754 0 0,0 -0.5717202481633002,-0.8546441989822151 l 32.37780887972289 -21.25827342968798" fill="#6aff28" stroke="none" /><path d="M 82.05923443525364 110.91462005526583 l -32.02799424444939 19.48486462569458 a58.48936335554563,58.48936335554563 0 0,0 -0.515873745794385,-0.8646340709538098 l 32.35864886594201 -18.93066846085466" fill="#7aff26" stroke="none" /><line stroke="#e1ed5e" stroke-width="0.3" x1="26.63291911575756" x2="22.317208475507996" y1="142.92168965132927" y2="145.44649492493687" /><path d="M 25.769776987707644 143.4266507060508 a86.0,86.0 0 0,1 -11.730757126820373,-40.83630448921669" fill="none" id="id9" stroke="none" /><text fill="#e1ed5e" style="font-size:6.75px; font-family:Arial;" text-anchor="middle"><textPath startOffset="21.46611528233685" xlink:href="#id9">September</textPath></text><path d="M 80.45479744820244 107.68017299344265 l -17.78900878415115 6.990086927064701 a40.11308841528568,40.11308841528568 0 0,0 -0.24699294263179902,-0.644820633835158 l 17.90669600637646 -6.682842726396385" fill="#ff740a" stroke="none" /><path d="M 79.18660465613746 102.79330883721812 l -62.440186031587636 8.379926511654372 a84.0,84.0 0 0,0 -0.1799939630126075,-1.4347289828503655 l 62.5751815038471 -7.303879774516597" fill="#4dd2ff" stroke="none" /><line stroke="#e1ed5e" stroke-width="0.3" x1="15.007084014347285" x2="10.007500721073583" y1="101.09737516637583" y2="101.16192664675087" /><path d="M 14.007167355692545 101.11028546245083 a86.0,86.0 0 0,1 10.666146001902534,-42.60595125391555" fill="none" id="id10" stroke="none" /><text fill="#e1ed5e" style="font-size:6.75px; font-family:Arial;" text-anchor="middle"><textPath startOffset="22.20632615414155" xlink:href="#id10">October</textPath></text><path d="M 81.10775173730289 90.83032412892265 l -56.100871271409346 -27.229517550835805 a83.35987799428827,83.35987799428827 0 0,0 0.6376633200575028,-1.285490342492699 l 55.623847938398434 28.191167481827467" fill="#4cd9ff" stroke="none" /><line stroke="#e1ed5e" stroke-width="0.3" x1="26.266209847984243" x2="21.928928074336255" y1="57.711370442889674" y2="55.22380399835377" /><path d="M 25.398753493254645 57.213857153982495 a86.0,86.0 0 0,1 29.58750427330803,-30.492523968695096" fill="none" id="id11" stroke="none" /><text fill="#e1ed5e" style="font-size:6.75px; font-family:Arial;" text-anchor="middle"><textPath startOffset="21.46611528233685" xlink:href="#id11">November</textPath></text><path d="M 81.78341655067845 89.55222093294921 l -30.97240334060233 -17.763639827327268 a56.70485497250986,56.70485497250986 0 0,0 0.49290108027595053,-0.8425277224242793 l 30.662042585856057 18.29414696210544" fill="#92ff23" stroke="none" /><path d="M 86.93701828274178 83.55741782278169 l -38.209088286809866 -48.0943851618836 a82.42478581003633,82.42478581003633 0 0,0 1.1184943144675086,-0.8730025537047245 l 37.37556141718294 48.744966104811546" fill="#4be4ff" stroke="none" /><path d="M 87.51073957382395 83.11751280151077 l -25.342233893729855 -34.25662726956284 a63.611563343889024,63.611563343889024 0 0,0 0.8858809349513543,-0.6436301739913115 l 24.74880764242472 34.68777667837082" fill="#3aff2e" stroke="none" /><line stroke="#e1ed5e" stroke-width="0.3" x1="56.762969772571076" x2="54.21961505331055" y1="26.818313649435495" y2="22.513508569990535" /><path d="M 56.25429882871897 25.957352633546506 a86.0,86.0 0 0,1 42.265352541879196,-11.944610805530505" fill="none" id="id12" stroke="none" /><text fill="#e1ed5e" style="font-size:6.75px; font-family:Arial;" text-anchor="middle"><textPath startOffset="22.20632615414155" xlink:href="#id12">December</textPath></text><path d="M 91.23893434514133 80.91482961587045 l -25.705173943498956 -55.99634151734691 a82.61449692071572,82.61449692071572 0 0,0 1.2975113503963642,-0.5821555213747978 l 24.737480474635817 56.430517369238245" fill="#4be2ff" stroke="none" /><path d="M 92.57280143429618 80.3572730644239 l -21.894168732510295 -57.90355193679609 a82.90457132865774,82.90457132865774 0 0,0 1.3391759937585428,-0.4932298202723884 l 20.89421041297918 58.2718450248748" fill="#4bdeff" stroke="none" /></svg>