<?xml version="1.0" encoding="utf-8" ?>
<svg baseProfile="full" height="200mm" version="1.1" viewBox="0,0,200,200" width="200mm" xmlns="http://www.w3.org/2000/svg" xmlns:ev="http://www.w3.org/2001/xml-events" xmlns:xlink="http://www.w3.org/1999/xlink"><defs /><rect fill="#1a1a1a" height="200" width="200" x="0" y="0" /><text alignment-baseline="middle" fill="#e1ed5e" style="dominant-baseline: central; font-size:9.0px; font-family:Arial;" text-anchor="middle" x="100.0" y="100.0">2024</text><line stroke="#e1ed5e" stroke-width="0.3" x1="100.0" x2="100.0" y1="15.0" y2="10.0" /><path d="M 100.0 14.0 a86.0,86.0 0 0,1 42.35913384403234,11.155469271406648" fill="none" id="id13" stroke="none" /><text fill="#e1ed5e" style="font-size:6.75px; font-family:Arial;" text-anchor="middle"><textPath startOffset="22.145653131862478" xlink:href="#id13">January</textPath></text><path d="M 101.08105385017728 79.02784411241856 l 0.8611134248521449 -16.705370393830844 a37.727549621075426,37.727549621075426 0 0,0 0.6464986576831796,0.03889175384843255 l -1.1477564346677869 16.688126662157718" fill="#ffb610" stroke="none" /><path d="M 102.51750503828377 79.15144685158666 l 4.015506845329536 -33.25415703626244 a54.49571995669434,54.49571995669434 0 0,0 0.9277823093593719,0.12011999479550237 l -4.5857669765797 33.18032544526655" fill="#79ff26" stroke="none" /><path d="M 102.87502721639298 79.19773525538626 l 2.3001047764262967 -16.642412366307937 a37.80060627932154,37.80060627932154 0 0,0 0.6420251072686954,0.09435558141969339 l -2.5854549893026744 16.60047571158936" fill="#ffb710" stroke="none" /><path d="M 103.58742460773223 79.30868818359171 l 0.7197634734445358 -4.151404445128239 a25.21333814507398,25.21333814507398 0 0,0 0.42582358529952596,0.0775992421715275 l -0.7909217922951155 4.138437029025345" fill="#ff0000" stroke="none" /><path d="M 104.9986988182912 79.60360301121754 l 7.604732835200688 -31.029905089062034 a52.948191988451825,52.948191988451825 0 0,0 0.8809437149547926,0.22393244743790888 l -8.136281843380875 30.894787409788858" fill="#8aff24" stroke="none" /><path d="M 107.40779381753099 80.34994680014964 l 10.706360629358901 -28.399893561536178 a51.35094911584266,51.35094911584266 0 0,0 0.8221720685728502,0.31803381839163825 l -11.192304960425279 28.2119198550065" fill="#9cff22" stroke="none" /><line stroke="#e1ed5e" stroke-width="0.3" x1="143.13028292997686" x2="145.6673583964461" y1="26.7553504044142" y2="22.446841604673864" /><path d="M 143.63769802327073 25.89364864446614 a86.0,86.0 0 0,1 29.32050498858742,28.57503671076993" fill="none" id="id14" stroke="none" /><text fill="#e1ed5e" style="font-size:6.75px; font-family:Arial;" text-anchor="middle"><textPath startOffset="20.669276256404974" xlink:href="#id14">February</textPath></text><line stroke="#e1ed5e" stroke-width="0.3" x1="172.87174338648825" x2="177.1583165268699" y1="56.24261187166439" y2="53.66864786411523" /><path d="M 173.72905801456457 55.72781907015455 a86.0,86.0 0 0,1 12.242430191666344,42.057860355516425" fill="none" id="id15" stroke="none" /><text fill="#e1ed5e" style="font-size:6.75px; font-family:Arial;" text-anchor="middle"><textPath startOffset="22.145653131862474" xlink:href="#id15">March</textPath></text><path d="M 119.58574465831526 92.42381321644754 l 14.19729705899617 -5.491819495097365 a36.222461205341034,36.222461205341034 0 0,0 0.21935169628767487,0.5818564349522901 l -14.289479439098287 5.247294779950918" fill="#ffa10e" stroke="none" /><path d="M 120.51834098615036 95.52812308129327 l 29.63704418269474 -6.459255838897626 a51.33276073619632,51.33276073619632 0 0,0 0.18025691839962754,0.8625946082812482 l -29.743558811918735 5.9495447793309735" fill="#9dff22" stroke="none" /><path d="M 120.86939407059847 97.66154086499901 l 15.21424769032746 -1.7047881875850555 a36.30946228798268,36.30946228798268 0 0,0 0.06409070939488996,0.6200194749909065 l -15.241270792204016 1.4433641903112175" fill="#ffa20f" stroke="none" /><path d="M 120.9064616781168 98.02013634271609 l 30.225718792808205 -2.8624069952402817 a51.36095272464814,51.36095272464814 0 0,0 0.07558957064340349,0.8784653907346314 l -30.27040198614935 2.3431205571299887" fill="#9cff22" stroke="none" /><path d="M 120.96210409425399 98.7389718711861 l 30.557013639179285 -1.8382340607743628 a51.61225550342836,51.61225550342836 0 0,0 0.04561149650975667,0.8848508470800608 l -30.584066725145615 1.3134114203175713" fill="#99ff23" stroke="none" /><line stroke="#e1ed5e" stroke-width="0.3" x1="184.99686870605535" x2="189.99668451229388" y1="99.2704041080226" y2="99.22748670261217" /><path d="M 185.99683186730306 99.26182062694052 a86.0,86.0 0 0,1 -10.086455211305974,41.156179273409016" fill="none" id="id16" stroke="none" /><text fill="#e1ed5e" style="font-size:6.75px; font-family:Arial;" text-anchor="middle"><textPath startOffset="21.40746469413373" xlink:href="#id16">April</textPath></text><path d="M 120.99303781780057 100.54070618675476 l 30.33088649795513 0.7812160451258987 a51.34094550703717,51.34094550703717 0 0,0 -0.030255250977498486,0.880848620835279 l -30.31300655998079 -1.3017709305252885" fill="#9dff22" stroke="none" /><path d="M 120.96210409425399 101.26102812881392 l 30.33975213445646 1.8251641481581502 a51.39460122699387,51.39460122699387 0 0,0 -0.060538040564612504,0.8802098235358854 l -30.303950132726783 -2.345717395848379" fill="#9cff22" stroke="none" /><path d="M 120.9064616781168 101.97986365728391 l 42.334717253620305 4.009141739157416 a63.52412847347528,63.52412847347528 0 0,0 -0.11212797439042871,1.0847364379288718 l -42.25965688674821 -4.735282699369218" fill="#32ff4b" stroke="none" /><path d="M 120.86939407059847 102.33845913500097 l 13.57693037854539 1.5213233676827749 a34.66189823168531,34.66189823168531 0 0,0 -0.07133404418349013,0.5907482165217856 l -13.548814248102236 -1.754165261127969" fill="#ff8b0c" stroke="none" /><path d="M 120.77682067341334 103.0534771498775 l 31.31114112571172 4.601659487117428 a52.647477444965716,52.647477444965716 0 0,0 -0.1390858805395673,0.8930311265425803 l -31.227533753033885 -5.138478795591459" fill="#8eff24" stroke="none" /><path d="M 120.43855184770803 104.8234425847677 l 29.56900098565131 6.978203720398258 a51.38126308191989,51.38126308191989 0 0,0 -0.20995967979887983,0.8567071424958635 l -29.444853779336135 -7.484766687502222" fill="#9cff22" stroke="none" /><path d="M 120.26092885502905 105.52220625578681 l 20.165875778480746 5.496299117091308 a41.90147961024901,41.90147961024901 0 0,0 -0.19510427907601907,0.6923562572140982 l -20.06855300733015 -5.841663298208414" fill="#ffed16" stroke="none" /><path d="M 120.05942366710727 106.21446072829308 l 60.1782710013218 18.643382184879222 a84.0,84.0 0 0,0 -0.4385411368909806,1.3737238652344659 l -59.84936514865356 -19.67367508380507" fill="#4dd2ff" stroke="none" /><path d="M 118.8641267826498 109.22738970284198 l 14.656698086601853 7.169325490664253 a37.31618910140743,37.31618910140743 0 0,0 -0.28641079037963135,0.5730134397415959 l -14.53146738301049 -7.419870786569595" fill="#ffb010" stroke="none" /><path d="M 118.5362547648365 109.86951160357373 l 29.259588520961906 15.579082834534683 a54.14862504511007,54.14862504511007 0 0,0 -0.4439017911167155,0.8167292979540313 l -28.98784138022985 -16.079066965963317" fill="#7dff26" stroke="none" /><line stroke="#e1ed5e" stroke-width="0.3" x1="174.33088141563837" x2="178.70328620479359" y1="141.23008692659167" y2="143.65538615756765" /><path d="M 175.20536237346943 141.71514677278685 a86.0,86.0 0 0,1 -30.301960400862466,31.631185727798858" fill="none" id="id17" stroke="none" /><text fill="#e1ed5e" style="font-size:6.75px; font-family:Arial;" text-anchor="middle"><textPath startOffset="22.145653131862474" xlink:href="#id17">May</textPath></text><path d="M 116.35404254752997 113.17365903436017 l 14.646045465878883 11.79781748815164 a39.80678455431252,39.80678455431252 0 0,0 -0.4332365345605142,0.528478128888667 l -14.44136211207974 -12.0474978987388" fill="#ffd213" stroke="none" /><path d="M 116.1254893667686 113.45245675266167 l 12.947179272017848 10.800997431104946 a37.86093107181523,37.86093107181523 0 0,0 -0.42062671665413826,0.4954972145677397 l -12.759857991856595 -11.021661428122243" fill="#ffb711" stroke="none" /><path d="M 115.89218393027572 113.72728997021213 l 16.122967575658 13.926635386452231 a42.30495849873692,42.30495849873692 0 0,0 -0.47943390773288547,0.5455077785314641 l -15.881522603966529 -14.201355442794988" fill="#fff216" stroke="none" /><path d="M 115.41159269507618 114.26474011684316 l 22.288355478150887 20.629769084749892 a51.37035005413209,51.37035005413209 0 0,0 -0.6045658254669023,0.6420279560641728 l -21.930933818947725 -21.009338500758563" fill="#9cff22" stroke="none" /><line stroke="#e1ed5e" stroke-width="0.3" x1="143.1302829299769" x2="145.66735839644613" y1="173.24464959558577" y2="177.55315839532614" /><path d="M 143.63769802327073 174.10635135553383 a86.0,86.0 0 0,1 -40.68552437913181,11.842963189579606" fill="none" id="id18" stroke="none" /><text fill="#e1ed5e" style="font-size:6.75px; font-family:Arial;" text-anchor="middle"><textPath startOffset="21.407464694133747" xlink:href="#id18">June</textPath></text><path d="M 109.71004243097381 118.62028667847754 l 7.173727486354956 13.756568346510006 a36.514687838325514,36.514687838325514 0 0,0 -0.5582796320244019,0.28506155801152666 l -6.936520632616971 -13.877687856194369" fill="#ffa50f" stroke="none" /><path d="M 104.64783097203109 120.47920084513623 l 5.041059948242906 22.211840269940904 a43.77670155178636,43.77670155178636 0 0,0 -0.7342761696660263,0.16003207361171476 l -4.659021361957744 -22.295103801686338" fill="#f9ff18" stroke="none" /><path d="M 104.29559338865022 120.5559693870025 l 3.1093213263150696 14.879228133408212 a36.200635149765425,36.200635149765425 0 0,0 -0.6093834167358851,0.12189375012512081 l -2.8534414240482255 -14.930411280196195" fill="#ffa10e" stroke="none" /><path d="M 103.94208987418118 120.62667999033965 l 2.8608390665403736 14.969118871661285 a36.24004330566582,36.24004330566582 0 0,0 -0.612051648339295,0.11153619884055445 l -2.6034526846500214 -15.016023244433203" fill="#ffa10e" stroke="none" /><line stroke="#e1ed5e" stroke-width="0.3" x1="101.45913802915013" x2="101.54496967792366" y1="184.9874750549273" y2="189.98673829345242" /><path d="M 101.47630435890484 185.9873277026323 a86.0,86.0 0 0,1 -42.54439059252881,-10.42667462771756" fill="none" id="id19" stroke="none" /><text fill="#e1ed5e" style="font-size:6.75px; font-family:Arial;" text-anchor="middle"><textPath startOffset="22.145653131862474" xlink:href="#id19">July</textPath></text><line stroke="#e1ed5e" stroke-width="0.3" x1="58.13341422392154" x2="55.67067388415222" y1="173.97424548756322" y2="178.32567169271397" /><path d="M 57.64086615596768 174.84453072859336 a86.0,86.0 0 0,1 -31.369924170532247,-30.572349798747897" fill="none" id="id20" stroke="none" /><text fill="#e1ed5e" style="font-size:6.75px; font-family:Arial;" text-anchor="middle"><textPath startOffset="22.145653131862474" xlink:href="#id20">August</textPath></text><path d="M 86.96720088162412 116.46651593811092 l -9.462442399955997 11.955486858739299 a36.24701551786359,36.24701551786359 0 0,0 -0.4845867468362415,-0.390348781155313 l 9.666279917147499 -11.791289783790575" fill="#ffa10e" stroke="none" /><path d="M 86.68645165197938 116.24036423190432 l -19.24626920696535 23.477319032898723 a51.35792132804042,51.35792132804042 0 0,0 -0.6770090841759963,-0.564785056682078 l 19.64645262530324 -23.143471792304776" fill="#9cff22" stroke="none" /><path d="M 86.13680546590413 115.77377054828092 l -19.899762749483834 22.642277059849224 a51.14420786719596,51.14420786719596 0 0,0 -0.6544874918728976,-0.5852467510028894 l 20.285515268180102 -22.297334778962952" fill="#9fff22" stroke="none" /><path d="M 85.86807049272751 115.53346607816431 l -12.096034069054094 13.295660355175063 a38.9746661854926,38.9746661854926 0 0,0 -0.49102554026940787,-0.4544859094876977 l 12.32248938063747 -13.086056699554987" fill="#ffc612" stroke="none" /><path d="M 85.34317274990678 115.03919595460226 l -10.751795701122147 11.032289570854967 a36.404951281125946,36.404951281125946 0 0,0 -0.4438076988211102,-0.4400144934191209 l 10.939595320073218 -10.846095067207186" fill="#ffa30f" stroke="none" /><line stroke="#e1ed5e" stroke-width="0.3" x1="26.387840678322732" x2="22.057713659400548" y1="142.50000000000003" y2="145.00000000000006" /><path d="M 25.521815274538298 143.00000000000003 a86.0,86.0 0 0,1 -11.493303480769221,-40.785679425670985" fill="none" id="id21" stroke="none" /><text fill="#e1ed5e" style="font-size:6.75px; font-family:Arial;" text-anchor="middle"><textPath startOffset="21.40746469413373" xlink:href="#id21">September</textPath></text><path d="M 80.83023694016515 108.57439118712176 l -27.726492231054095 12.401707308207 a51.373684590400586,51.373684590400586 0 0,0 -0.3531723528952783,-0.8081274588372034 l 27.93529846596634 -11.923917779593948" fill="#9cff22" stroke="none" /><path d="M 80.5471966667186 107.91128576633889 l -28.115934847320567 11.434505934903623 a51.35216167448574,51.35216167448574 0 0,0 -0.3250868769695208,-0.8194312924287956 l 28.308080399256212 -10.950173625261261" fill="#9cff22" stroke="none" /><path d="M 80.41425534168474 107.57618678355246 l -8.618858547942851 3.333959640513849 a30.24121255864309,30.24121255864309 0 0,0 -0.1831311581764254,-0.4857771543534046 l 8.674820389933712 -3.1855142059662995" fill="#ff4c07" stroke="none" /><path d="M 80.05021161711548 106.5578916946017 l -18.782031011645305 6.1740266520667255 a40.77076867556839,40.77076867556839 0 0,0 -0.21285308627265406,-0.6667592611140567 l 18.885248813695217 -5.850698357261277" fill="#ffde14" stroke="none" /><path d="M 79.56144815229197 104.8234425847677 l -15.331790477343855 3.618260806352053 a36.75295561169253,36.75295561169253 0 0,0 -0.13964222206982269,-0.615289396158766 l 15.391643560971344 -3.354537076254261" fill="#ffa80f" stroke="none" /><path d="M 79.407916724674 104.11899336999214 l -29.778039961827606 5.956441975013677 a51.367924936845895,51.367924936845895 0 0,0 -0.16553609229753394,-0.8661547837951605 l 29.875902346407297 -5.444384626185202" fill="#9cff22" stroke="none" /><path d="M 79.17382384314188 102.69636545807758 l -15.122915415295438 1.9579641718243914 a36.249137495488995,36.249137495488995 0 0,0 -0.07460057606865332,-0.6177997864623146 l 15.154298077623752 -1.6980707084386777" fill="#ffa10e" stroke="none" /><path d="M 79.03789590574601 101.26102812881392 l -16.82505772577127 1.0121536924783876 a37.855474557921326,37.855474557921326 0 0,0 -0.0334541637220082,-0.6490018388552957 l 16.83995347894985 -0.7231800602463611" fill="#ffb711" stroke="none" /><line stroke="#e1ed5e" stroke-width="0.3" x1="15.003131293944662" x2="10.003315487706104" y1="100.72959589197737" y2="100.7725132973878" /><path d="M 14.003168132696942 100.73817937305945 a86.0,86.0 0 0,1 10.791469493833604,-42.45332614584628" fill="none" id="id22" stroke="none" /><text fill="#e1ed5e" style="font-size:6.75px; font-family:Arial;" text-anchor="middle"><textPath startOffset="22.145653131862435" xlink:href="#id22">October</textPath></text><path d="M 79.06263194458094 98.37931529534042 l -17.925288516764326 -1.3875306986453315 a38.97891014074341,38.97891014074341 0 0,0 0.05736651922098011,-0.6666859104185561 l 17.8988283748456 1.6950376564395684" fill="#ffc712" stroke="none" /><path d="M 79.0935383218832 98.0201363427161 l -30.229642055194567 -2.8627785322672565 a51.36489354023818,51.36489354023818 0 0,0 0.0906654149509845,-0.8771056446166209 l 30.17604424776192 3.38128869916679" fill="#9cff22" stroke="none" /><path d="M 79.13060592940154 97.66154086499901 l -18.451225521992274 -2.0674983053127503 a39.56669794298087,39.56669794298087 0 0,0 0.08142810184235745,-0.6743414941453962 l 18.41301533389025 2.383933476381583" fill="#ffce13" stroke="none" /><path d="M 79.48165901384962 95.52812308129327 l -17.22622463738008 -3.7543754831033262 a38.630602670516055,38.630602670516055 0 0,0 0.14677630974232225,-0.6467235027713097 l 17.159237466080096 4.049533319813644" fill="#ffc212" stroke="none" /><line stroke="#e1ed5e" stroke-width="0.3" x1="26.387840678322718" x2="22.05771365940052" y1="57.49999999999999" y2="54.99999999999999" /><path d="M 25.521815274538284 56.99999999999999 a86.0,86.0 0 0,1 29.574782752854787,-30.34633250058573" fill="none" id="id23" stroke="none" /><text fill="#e1ed5e" style="font-size:6.75px; font-family:Arial;" text-anchor="middle"><textPath startOffset="21.40746469413373" xlink:href="#id23">November</textPath></text><line stroke="#e1ed5e" stroke-width="0.3" x1="56.869717070023135" x2="54.33264160355391" y1="26.7553504044142" y2="22.446841604673864" /><path d="M 56.362301976729285 25.89364864446614 a86.0,86.0 0 0,1 42.16139366436587,-11.88097634709845" fill="none" id="id24" stroke="none" /><text fill="#e1ed5e" style="font-size:6.75px; font-family:Arial;" text-anchor="middle"><textPath startOffset="22.145653131862474" xlink:href="#id24">December</textPath></text></svg>