<?xml version="1.0" encoding="utf-8" ?>
<svg baseProfile="full" height="200mm" version="1.1" viewBox="0,0,200,200" width="200mm" xmlns="http://www.w3.org/2000/svg" xmlns:ev="http://www.w3.org/2001/xml-events" xmlns:xlink="http://www.w3.org/1999/xlink"><defs /><rect fill="#1a1a1a" height="200" width="200" x="0" y="0" /><text alignment-baseline="middle" fill="#e1ed5e" style="dominant-baseline: central; font-size:9.0px; font-family:Arial;" text-anchor="middle" x="100.0" y="100.0">2023</text><line stroke="#e1ed5e" stroke-width="0.3" x1="100.0" x2="100.0" y1="15.0" y2="10.0" /><path d="M 100.0 14.0 a86.0,86.0 0 0,1 42.46469731375804,11.215312516191453" fill="none" id="id1" stroke="none" /><text fill="#e1ed5e" style="font-size:6.75px; font-family:Arial;" text-anchor="middle"><textPath startOffset="22.20632615414155" xlink:href="#id1">January</textPath></text><line stroke="#e1ed5e" stroke-width="0.3" x1="143.23703022742887" x2="145.7803849466894" y1="26.81831364943548" y2="22.513508569990506" /><path d="M 143.74570117128098 25.957352633546492 a86.0,86.0 0 0,1 28.547481713284135,27.462654790039103" fill="none" id="id2" stroke="none" /><text fill="#e1ed5e" style="font-size:6.75px; font-family:Arial;" text-anchor="middle"><textPath startOffset="19.985693538727396" xlink:href="#id2">February</textPath></text><line stroke="#e1ed5e" stroke-width="0.3" x1="172.23445277983987" x2="176.4835382374775" y1="55.19839476539836" y2="52.563006222186495" /><path d="M 173.08426987136738 54.67131705675599 a86.0,86.0 0 0,1 12.851231095245387,41.99856678651699" fill="none" id="id3" stroke="none" /><text fill="#e1ed5e" style="font-size:6.75px; font-family:Arial;" text-anchor="middle"><textPath startOffset="22.20632615414155" xlink:href="#id3">March</textPath></text><line stroke="#e1ed5e" stroke-width="0.3" x1="184.98032266829074" x2="189.97916517819016" y1="98.17113171792111" y2="98.06355123074" /><path d="M 185.9800911702706 98.14961562048488 a86.0,86.0 0 0,1 -9.607161424134198,41.387399972396054" fill="none" id="id4" stroke="none" /><text fill="#e1ed5e" style="font-size:6.75px; font-family:Arial;" text-anchor="middle"><textPath startOffset="21.466115282336823" xlink:href="#id4">April</textPath></text><line stroke="#e1ed5e" stroke-width="0.3" x1="174.80103733775053" x2="179.2010983576182" y1="140.37084112569926" y2="142.7455964860345" /><path d="M 175.68104954172406 140.8457921977663 a86.0,86.0 0 0,1 -30.038265399797805,32.042727171017184" fill="none" id="id5" stroke="none" /><text fill="#e1ed5e" style="font-size:6.75px; font-family:Arial;" text-anchor="middle"><textPath startOffset="22.206326154141568" xlink:href="#id5">May</textPath></text><line stroke="#e1ed5e" stroke-width="0.3" x1="143.8653032363475" x2="146.44561519142675" y1="172.8068346515853" y2="177.08958963109032" /><path d="M 144.38136562736335 173.6633856474863 a86.0,86.0 0 0,1 -40.68145358897372,12.25698825130547" fill="none" id="id6" stroke="none" /><text fill="#e1ed5e" style="font-size:6.75px; font-family:Arial;" text-anchor="middle"><textPath startOffset="21.466115282336833" xlink:href="#id6">June</textPath></text><path d="M 104.83641907484287 120.43548508189849 l 4.894180582455084 20.67954673347401 a42.25080367128773,42.25080367128773 0 0,0 -0.7091693793374768,0.16140464187993642 l -4.537491053724745 -20.76072810893163" fill="#ff940d" stroke="none" /><path d="M 104.48393922423573 120.51570834832081 l 6.0130437874200915 27.511936816989213 a49.16138070144001,49.16138070144001 0 0,0 -0.8282722028614509,0.1735724932494007 l -5.538580123129262 -27.611365290965153" fill="#feff18" stroke="none" /><path d="M 104.13013068566511 120.58985236759428 l 6.152462094038806 30.67173797990341 a52.282715683367925,52.282715683367925 0 0,0 -0.8839074888445466,0.16940297395461135 l -5.623586990622555 -30.773098152206487" fill="#d1ff1d" stroke="none" /><path d="M 103.06178313531738 120.77559828337769 l 1.9314741047519473 13.105934784278409 a34.247494811740296,34.247494811740296 0 0,0 -0.5839547007410267,0.08093080051535481 l -1.70559081282409 -13.137240150286365" fill="#ff0b01" stroke="none" /><path d="M 102.70371172650421 120.8252237178851 l 3.230666985621868 24.88407402092027 a46.0929143195968,46.0929143195968 0 0,0 -0.7876896638545542,0.09537824863170383 l -2.8018498987159335 -24.935997798277327" fill="#ffd113" stroke="none" /><path d="M 102.34483914955558 120.86867818915974 l 4.329853590006529 38.53497635142677 a59.77746812926178,59.77746812926178 0 0,0 -1.0235251903204763,0.10609257091873146 l -3.66589580308045 -38.60379829080126" fill="#6bff28" stroke="none" /><path d="M 101.98527174616119 120.90594882070398 l 3.9627742699537696 41.730083670333755 a62.91781796620219,62.91781796620219 0 0,0 -1.0790576026586207,0.09310563039498466 l -3.243872349553607 -41.792113553007404" fill="#44ff2d" stroke="none" /><path d="M 101.26447882468166 120.96189622390904 l 0.8193432906090253 13.582662433138328 a34.60735250518826,34.60735250518826 0 0,0 -0.5949365321425533,0.0307514231045433 l -0.5854186900529924 -13.594753663005074" fill="#ff1202" stroke="none" /><line stroke="#e1ed5e" stroke-width="0.3" x1="102.19456741930631" x2="102.32365962044197" y1="184.97166512339345" y2="189.96999836594603" /><path d="M 102.22038585953345 185.97133177190398 a86.0,86.0 0 0,1 -42.740103519485714,-10.115201625700543" fill="none" id="id7" stroke="none" /><text fill="#e1ed5e" style="font-size:6.75px; font-family:Arial;" text-anchor="middle"><textPath startOffset="22.20632615414155" xlink:href="#id7">July</textPath></text><path d="M 100.54218724476979 120.99299961872073 l 0.3259553201731959 12.620695116170149 a33.6249036466054,33.6249036466054 0 0,0 -0.5787331238742007,0.00996341556795568 l -0.10866250640632724 -12.624436009017264" fill="#ff0000" stroke="none" /><path d="M 99.81925306533755 120.99922214144158 l -0.3239405186544417 37.63548701139716 a58.636881114734656,58.636881114734656 0 0,0 -1.009225356849355,-0.01737472976265001 l 0.9717255653964646 -37.62433480435535" fill="#7aff26" stroke="none" /><path d="M 99.45781275523022 120.99299961872073 l -1.6265617343093406 62.97899885616221 a84.0,84.0 0 0,0 -1.445118593301428,-0.04977280629562486 l 2.7104006792854114 -62.94166925144049" fill="#4dd2ff" stroke="none" /><path d="M 99.09653310690486 120.98055641714683 l -1.1561590564351762 26.84864326088721 a47.873525051882595,47.873525051882595 0 0,0 -0.8229958928969221,-0.042539487068699894 l 1.6181430177455873 -26.82476396705631" fill="#ffec16" stroke="none" /><path d="M 98.73552117531835 120.96189622390904 l -1.847796064884626 30.631837084982983 a51.68751852949896,51.68751852949896 0 0,0 -0.8876401897460191,-0.06121686446065834 l 2.3747990154095753 -30.59549187600604" fill="#d9ff1c" stroke="none" /><path d="M 98.01472825383883 120.90594882070398 l -3.841174168335923 40.449571062460215 a61.6315446190335,61.6315446190335 0 0,0 -1.0552711650405902,-0.10938317099992093 l 4.536877929982107 -40.377458523004535" fill="#53ff2b" stroke="none" /><path d="M 97.2962882734958 120.8252237178851 l -4.9065995316565285 37.79287264213407 a59.11005040023718,59.11005040023718 0 0,0 -1.0078866200871595,-0.13968390166027586 l 5.556414742930519 -37.702814174981185" fill="#74ff27" stroke="none" /><path d="M 96.93821686468263 120.77559828337769 l -5.503766233636594 37.345569970879225 a58.748947524458934,58.748947524458934 0 0,0 -0.9991912907848534,-0.1560531302138276 l 6.145793388029965 -37.24529853331829" fill="#78ff26" stroke="none" /><path d="M 96.58105272829116 120.7198165907248 l -10.190753655590392 61.758936270331745 a83.59407056033204,83.59407056033204 0 0,0 -1.417719724233347,-0.2464887464910033 l 11.252322351295788 -61.57436894531973" fill="#4cd7ff" stroke="none" /><path d="M 95.86986931433489 120.58985236759428 l -2.4824864963289137 12.375886952285988 a33.62241328194486,33.62241328194486 0 0,0 -0.5664712812620041,-0.11870956468555796 l 2.6951492390203047 -12.33132140687389" fill="#ff0000" stroke="none" /><path d="M 94.46302465271185 120.25689768951611 l -6.645355351583722 24.31188058900063 a46.203735546990806,46.203735546990806 0 0,0 -0.7653733101873819,-0.21630214256631047 l 7.062859829875717 -24.1938896530958" fill="#ffd313" stroke="none" /><path d="M 94.11515582081647 120.15858648285463 l -14.007778519368157 47.98377087267813 a70.98659946635044,70.98659946635044 0 0,0 -1.1700113597471704,-0.35251482494228825 l 14.831664853555575 -47.735540678630116" fill="#39ff8b" stroke="none" /><path d="M 93.76903079525671 120.05430185196036 l -7.447606120914039 23.970033604021165 a46.100385413578415,46.100385413578415 0 0,0 -0.7557799371893338,-0.2419768691442445 l 7.859107403194313 -23.838283888217212" fill="#ffd113" stroke="none" /><path d="M 92.40401165467489 119.57807347666478 l -14.898316186579555 38.39925967750475 a62.1881411206641,62.1881411206641 0 0,0 -0.9946517105983683,-0.39579244291893373 l 15.55708897321978 -38.13712039017975" fill="#4dff2c" stroke="none" /><path d="M 92.06813273071674 119.44442032107085 l -14.30981283932478 35.07950979477626 a58.885917580788615,58.885917580788615 0 0,0 -0.9352444831844359,-0.390932269821669 l 14.911528782006677 -34.827992481934615" fill="#76ff27" stroke="none" /><path d="M 91.7346041902142 119.30500536409082 l -15.6398049855846 36.52898494982901 a60.73625852356952,60.73625852356952 0 0,0 -0.9575485474188706,-0.4197611434305665 l 16.266274207661215 -36.25435925310399" fill="#5fff29" stroke="none" /><path d="M 90.7491055286396 118.85261126421891 l -11.102718944251743 22.626487079694925 a46.203735546990806,46.203735546990806 0 0,0 -0.7109788853556768,-0.35649957279688327 l 11.49055173729018 -22.43201966598874" fill="#ffd313" stroke="none" /><path d="M 90.10565033884886 118.52300852407294 l -23.848521418665495 44.64632650480667 a71.61666172546694,71.61666172546694 0 0,0 -1.0823568915134978,-0.5901872762547921 l 24.613501122047634 -44.229198576792115" fill="#3aff93" stroke="none" /><line stroke="#e1ed5e" stroke-width="0.3" x1="58.666819895761336" x2="56.23545636021788" y1="174.27360380694188" y2="178.64263932499728" /><path d="M 58.180547188652646 175.14741091055294 a86.0,86.0 0 0,1 -31.652253787137756,-30.449443065178592" fill="none" id="id8" stroke="none" /><text fill="#e1ed5e" style="font-size:6.75px; font-family:Arial;" text-anchor="middle"><textPath startOffset="22.20632615414155" xlink:href="#id8">August</textPath></text><path d="M 89.4739219176387 118.17145234162733 l -22.179972535598754 38.28988448647556 a65.2500444707975,65.2500444707975 0 0,0 -0.967043345530431,-0.5713462540565039 l 22.835783752157568 -37.902419660125304" fill="#30ff39" stroke="none" /><path d="M 87.95078237400918 117.19931262002967 l -17.923434484626842 25.58429621693949 a52.237889119478204,52.237889119478204 0 0,0 -0.732008724701067,-0.5222687890371368 l 18.361170537176793 -25.271983166058135" fill="#d1ff1c" stroke="none" /><line stroke="#e1ed5e" stroke-width="0.3" x1="26.63291911575756" x2="22.317208475507996" y1="142.92168965132927" y2="145.44649492493687" /><path d="M 25.769776987707644 143.4266507060508 a86.0,86.0 0 0,1 -11.730757126820373,-40.83630448921669" fill="none" id="id9" stroke="none" /><text fill="#e1ed5e" style="font-size:6.75px; font-family:Arial;" text-anchor="middle"><textPath startOffset="21.46611528233685" xlink:href="#id9">September</textPath></text><line stroke="#e1ed5e" stroke-width="0.3" x1="15.007084014347285" x2="10.007500721073583" y1="101.09737516637583" y2="101.16192664675087" /><path d="M 14.007167355692545 101.11028546245083 a86.0,86.0 0 0,1 10.666146001902534,-42.60595125391555" fill="none" id="id10" stroke="none" /><text fill="#e1ed5e" style="font-size:6.75px; font-family:Arial;" text-anchor="middle"><textPath startOffset="22.20632615414155" xlink:href="#id10">October</textPath></text><line stroke="#e1ed5e" stroke-width="0.3" x1="26.266209847984243" x2="21.928928074336255" y1="57.711370442889674" y2="55.22380399835377" /><path d="M 25.398753493254645 57.213857153982495 a86.0,86.0 0 0,1 29.58750427330803,-30.492523968695096" fill="none" id="id11" stroke="none" /><text fill="#e1ed5e" style="font-size:6.75px; font-family:Arial;" text-anchor="middle"><textPath startOffset="21.46611528233685" xlink:href="#id11">November</textPath></text><line stroke="#e1ed5e" stroke-width="0.3" x1="56.762969772571076" x2="54.21961505331055" y1="26.818313649435495" y2="22.513508569990535" /><path d="M 56.25429882871897 25.957352633546506 a86.0,86.0 0 0,1 42.265352541879196,-11.944610805530505" fill="none" id="id12" stroke="none" /><text fill="#e1ed5e" style="font-size:6.75px; font-family:Arial;" text-anchor="middle"><textPath startOffset="22.20632615414155" xlink:href="#id12">December</textPath></text></svg>